<?xml version="1.0" encoding="UTF-8" standalone="no"?>
<!DOCTYPE svg PUBLIC "-//W3C//DTD SVG 1.1//EN"
 "http://www.w3.org/Graphics/SVG/1.1/DTD/svg11.dtd">
<!-- Generated by graphviz version 11.0.0 (0)
 -->
<!-- Pages: 1 -->
<svg width="239pt" height="48pt"
 viewBox="0.00 0.00 239.02 48.32" xmlns="http://www.w3.org/2000/svg" xmlns:xlink="http://www.w3.org/1999/xlink">
<g id="graph0" class="graph" transform="scale(1 1) rotate(0) translate(4 44.32)">
<!-- start -->
<g id="node1" class="node">
<title>start</title>
</g>
<!-- q0 -->
<g id="node3" class="node">
<title>q0</title>
<ellipse fill="none" stroke="#dddddd" cx="54.72" cy="-21.92" rx="18" ry="18"/>
<text text-anchor="middle" x="54.72" y="-16.87" font-family="Times,serif" font-size="14.00" fill="#dddddd">q0</text>
</g>
<!-- start&#45;&gt;q0 -->
<g id="edge1" class="edge">
<title>start&#45;&gt;q0</title>
<path fill="none" stroke="#dddddd" d="M18.07,-21.92C20.43,-21.92 22.9,-21.92 25.39,-21.92"/>
<polygon fill="#dddddd" stroke="#dddddd" points="25.36,-25.42 35.35,-21.92 25.35,-18.42 25.36,-25.42"/>
</g>
<!-- q2 -->
<g id="node2" class="node">
<title>q2</title>
<ellipse fill="none" stroke="#dddddd" cx="212.62" cy="-21.92" rx="14.4" ry="14.4"/>
<ellipse fill="none" stroke="#dddddd" cx="212.62" cy="-21.92" rx="18.4" ry="18.4"/>
<text text-anchor="middle" x="212.62" y="-16.87" font-family="Times,serif" font-size="14.00" fill="#dddddd">q2</text>
</g>
<!-- q1 -->
<g id="node4" class="node">
<title>q1</title>
<ellipse fill="none" stroke="#dddddd" cx="133.47" cy="-21.92" rx="18" ry="18"/>
<text text-anchor="middle" x="133.47" y="-16.87" font-family="Times,serif" font-size="14.00" fill="#dddddd">q1</text>
</g>
<!-- q0&#45;&gt;q1 -->
<g id="edge2" class="edge">
<title>q0&#45;&gt;q1</title>
<path fill="none" stroke="#dddddd" d="M72.37,-21.92C81.66,-21.92 93.48,-21.92 104.18,-21.92"/>
<polygon fill="#dddddd" stroke="#dddddd" points="104.07,-25.42 114.07,-21.92 104.07,-18.42 104.07,-25.42"/>
<text text-anchor="middle" x="94.1" y="-25.12" font-family="Times,serif" font-size="14.00" fill="#dddddd">0</text>
</g>
<!-- q1&#45;&gt;q2 -->
<g id="edge4" class="edge">
<title>q1&#45;&gt;q2</title>
<path fill="none" stroke="#dddddd" d="M151.21,-21.92C160.48,-21.92 172.27,-21.92 182.96,-21.92"/>
<polygon fill="#dddddd" stroke="#dddddd" points="182.86,-25.42 192.86,-21.92 182.86,-18.42 182.86,-25.42"/>
<text text-anchor="middle" x="172.85" y="-25.12" font-family="Times,serif" font-size="14.00" fill="#dddddd">1</text>
</g>
<!-- q1&#45;&gt;q0 -->
<g id="edge3" class="edge">
<title>q1&#45;&gt;q0</title>
<path fill="none" stroke="#dddddd" d="M120.18,-10.46C112.11,-4.33 101.16,1.42 90.72,-1.42 86.8,-2.48 82.86,-4.11 79.12,-5.99"/>
<polygon fill="#dddddd" stroke="#dddddd" points="77.46,-2.91 70.57,-10.96 80.97,-8.96 77.46,-2.91"/>
<text text-anchor="middle" x="94.1" y="-4.12" font-family="Times,serif" font-size="14.00" fill="#dddddd">0</text>
</g>
</g>
</svg>
