<?xml version="1.0" encoding="UTF-8" standalone="no"?>
<!DOCTYPE svg PUBLIC "-//W3C//DTD SVG 1.1//EN"
 "http://www.w3.org/Graphics/SVG/1.1/DTD/svg11.dtd">
<!-- Generated by graphviz version 12.1.2 (0)
 -->
<!-- Pages: 1 -->
<svg width="250pt" height="128pt"
 viewBox="0.00 0.00 249.52 128.40" xmlns="http://www.w3.org/2000/svg" xmlns:xlink="http://www.w3.org/1999/xlink">
<g id="graph0" class="graph" transform="scale(1 1) rotate(0) translate(4 124.4)">
<!-- start -->
<g id="node1" class="node">
<title>start</title>
</g>
<!-- q₀ -->
<g id="node3" class="node">
<title>q₀</title>
<ellipse fill="none" stroke="#dddddd" cx="87.72" cy="-18.4" rx="18" ry="18"/>
<text text-anchor="middle" x="87.72" y="-13.35" font-family="Times,serif" font-size="14.00" fill="#dddddd">q₀</text>
</g>
<!-- start&#45;&gt;q₀ -->
<g id="edge1" class="edge">
<title>start&#45;&gt;q₀</title>
<path fill="none" stroke="#dddddd" d="M18.12,-18.4C29.7,-18.4 45.16,-18.4 58.48,-18.4"/>
<polygon fill="#dddddd" stroke="#dddddd" points="58.41,-21.9 68.41,-18.4 58.41,-14.9 58.41,-21.9"/>
<text text-anchor="middle" x="27.72" y="-21.6" font-family="Times,serif" font-size="14.00" fill="#dddddd">$ S</text>
</g>
<!-- q₁ -->
<g id="node2" class="node">
<title>q₁</title>
<ellipse fill="none" stroke="#dddddd" cx="223.12" cy="-18.4" rx="14.4" ry="14.4"/>
<ellipse fill="none" stroke="#dddddd" cx="223.12" cy="-18.4" rx="18.4" ry="18.4"/>
<text text-anchor="middle" x="223.12" y="-13.35" font-family="Times,serif" font-size="14.00" fill="#dddddd">q₁</text>
</g>
<!-- q₀&#45;&gt;q₁ -->
<g id="edge2" class="edge">
<title>q₀&#45;&gt;q₁</title>
<path fill="none" stroke="#dddddd" d="M105.62,-18.4C127.75,-18.4 166.87,-18.4 193.62,-18.4"/>
<polygon fill="#dddddd" stroke="#dddddd" points="193.43,-21.9 203.43,-18.4 193.43,-14.9 193.43,-21.9"/>
<text text-anchor="middle" x="162.72" y="-21.6" font-family="Times,serif" font-size="14.00" fill="#dddddd">ε, $ → ε</text>
</g>
<!-- q₀&#45;&gt;q₀ -->
<g id="edge3" class="edge">
<title>q₀&#45;&gt;q₀</title>
<path fill="none" stroke="#dddddd" d="M77.68,-33.19C74.41,-43.82 77.76,-54.4 87.72,-54.4 93.95,-54.4 97.59,-50.27 98.65,-44.57"/>
<polygon fill="#dddddd" stroke="#dddddd" points="102.14,-44.4 97.88,-34.7 95.16,-44.94 102.14,-44.4"/>
<text text-anchor="middle" x="87.72" y="-107.1" font-family="Times,serif" font-size="14.00" fill="#dddddd">ε, S → 1 S 0</text>
<text text-anchor="middle" x="87.72" y="-90.6" font-family="Times,serif" font-size="14.00" fill="#dddddd">ε, S → ε</text>
<text text-anchor="middle" x="87.72" y="-74.1" font-family="Times,serif" font-size="14.00" fill="#dddddd">0, 0 →ε</text>
<text text-anchor="middle" x="87.72" y="-57.6" font-family="Times,serif" font-size="14.00" fill="#dddddd">1, 1 → ε</text>
</g>
</g>
</svg>
