<?xml version="1.0" encoding="UTF-8" standalone="no"?>
<!DOCTYPE svg PUBLIC "-//W3C//DTD SVG 1.1//EN"
 "http://www.w3.org/Graphics/SVG/1.1/DTD/svg11.dtd">
<!-- Generated by graphviz version 11.0.0 (0)
 -->
<!-- Pages: 1 -->
<svg width="239pt" height="45pt"
 viewBox="0.00 0.00 239.02 44.80" xmlns="http://www.w3.org/2000/svg" xmlns:xlink="http://www.w3.org/1999/xlink">
<g id="graph0" class="graph" transform="scale(1 1) rotate(0) translate(4 40.8)">
<!-- start -->
<g id="node1" class="node">
<title>start</title>
</g>
<!-- q3 -->
<g id="node3" class="node">
<title>q3</title>
<ellipse fill="none" stroke="#dddddd" cx="54.72" cy="-18.4" rx="18" ry="18"/>
<text text-anchor="middle" x="54.72" y="-13.35" font-family="Times,serif" font-size="14.00" fill="#dddddd">q3</text>
</g>
<!-- start&#45;&gt;q3 -->
<g id="edge1" class="edge">
<title>start&#45;&gt;q3</title>
<path fill="none" stroke="#dddddd" d="M18.07,-18.4C20.43,-18.4 22.9,-18.4 25.39,-18.4"/>
<polygon fill="#dddddd" stroke="#dddddd" points="25.36,-21.9 35.35,-18.4 25.35,-14.9 25.36,-21.9"/>
</g>
<!-- q5 -->
<g id="node2" class="node">
<title>q5</title>
<ellipse fill="none" stroke="#dddddd" cx="212.62" cy="-18.4" rx="14.4" ry="14.4"/>
<ellipse fill="none" stroke="#dddddd" cx="212.62" cy="-18.4" rx="18.4" ry="18.4"/>
<text text-anchor="middle" x="212.62" y="-13.35" font-family="Times,serif" font-size="14.00" fill="#dddddd">q5</text>
</g>
<!-- q4 -->
<g id="node4" class="node">
<title>q4</title>
<ellipse fill="none" stroke="#dddddd" cx="133.47" cy="-18.4" rx="18" ry="18"/>
<text text-anchor="middle" x="133.47" y="-13.35" font-family="Times,serif" font-size="14.00" fill="#dddddd">q4</text>
</g>
<!-- q3&#45;&gt;q4 -->
<g id="edge2" class="edge">
<title>q3&#45;&gt;q4</title>
<path fill="none" stroke="#dddddd" d="M72.37,-18.4C81.66,-18.4 93.48,-18.4 104.18,-18.4"/>
<polygon fill="#dddddd" stroke="#dddddd" points="104.07,-21.9 114.07,-18.4 104.07,-14.9 104.07,-21.9"/>
<text text-anchor="middle" x="94.1" y="-21.6" font-family="Times,serif" font-size="14.00" fill="#dddddd">1</text>
</g>
<!-- q4&#45;&gt;q5 -->
<g id="edge3" class="edge">
<title>q4&#45;&gt;q5</title>
<path fill="none" stroke="#dddddd" d="M151.21,-18.4C160.48,-18.4 172.27,-18.4 182.96,-18.4"/>
<polygon fill="#dddddd" stroke="#dddddd" points="182.86,-21.9 192.86,-18.4 182.86,-14.9 182.86,-21.9"/>
<text text-anchor="middle" x="172.85" y="-21.6" font-family="Times,serif" font-size="14.00" fill="#dddddd">0</text>
</g>
</g>
</svg>
