<?xml version="1.0" encoding="UTF-8" standalone="no"?>
<!DOCTYPE svg PUBLIC "-//W3C//DTD SVG 1.1//EN"
 "http://www.w3.org/Graphics/SVG/1.1/DTD/svg11.dtd">
<!-- Generated by graphviz version 12.1.1 (0)
 -->
<!-- Pages: 1 -->
<svg width="240pt" height="45pt"
 viewBox="0.00 0.00 240.02 44.80" xmlns="http://www.w3.org/2000/svg" xmlns:xlink="http://www.w3.org/1999/xlink">
<g id="graph0" class="graph" transform="scale(1 1) rotate(0) translate(4 40.8)">
<!-- start -->
<g id="node1" class="node">
<title>start</title>
</g>
<!-- q3 -->
<g id="node3" class="node">
<title>q3</title>
<ellipse fill="none" stroke="#dddddd" cx="55.72" cy="-18.4" rx="18" ry="18"/>
<text text-anchor="middle" x="55.72" y="-13.35" font-family="Times,serif" font-size="14.00" fill="#dddddd">q3</text>
</g>
<!-- start&#45;&gt;q3 -->
<g id="edge1" class="edge">
<title>start&#45;&gt;q3</title>
<path fill="none" stroke="#dddddd" d="M18.1,-18.4C20.76,-18.4 23.55,-18.4 26.37,-18.4"/>
<polygon fill="#dddddd" stroke="#dddddd" points="26.22,-21.9 36.22,-18.4 26.22,-14.9 26.22,-21.9"/>
</g>
<!-- q5 -->
<g id="node2" class="node">
<title>q5</title>
<ellipse fill="none" stroke="#dddddd" cx="213.62" cy="-18.4" rx="14.4" ry="14.4"/>
<ellipse fill="none" stroke="#dddddd" cx="213.62" cy="-18.4" rx="18.4" ry="18.4"/>
<text text-anchor="middle" x="213.62" y="-13.35" font-family="Times,serif" font-size="14.00" fill="#dddddd">q5</text>
</g>
<!-- q4 -->
<g id="node4" class="node">
<title>q4</title>
<ellipse fill="none" stroke="#dddddd" cx="134.47" cy="-18.4" rx="18" ry="18"/>
<text text-anchor="middle" x="134.47" y="-13.35" font-family="Times,serif" font-size="14.00" fill="#dddddd">q4</text>
</g>
<!-- q3&#45;&gt;q4 -->
<g id="edge2" class="edge">
<title>q3&#45;&gt;q4</title>
<path fill="none" stroke="#dddddd" d="M73.37,-18.4C82.66,-18.4 94.48,-18.4 105.18,-18.4"/>
<polygon fill="#dddddd" stroke="#dddddd" points="105.07,-21.9 115.07,-18.4 105.07,-14.9 105.07,-21.9"/>
<text text-anchor="middle" x="95.1" y="-21.6" font-family="Times,serif" font-size="14.00" fill="#dddddd">1</text>
</g>
<!-- q4&#45;&gt;q5 -->
<g id="edge3" class="edge">
<title>q4&#45;&gt;q5</title>
<path fill="none" stroke="#dddddd" d="M152.21,-18.4C161.48,-18.4 173.27,-18.4 183.96,-18.4"/>
<polygon fill="#dddddd" stroke="#dddddd" points="183.86,-21.9 193.86,-18.4 183.86,-14.9 183.86,-21.9"/>
<text text-anchor="middle" x="173.85" y="-21.6" font-family="Times,serif" font-size="14.00" fill="#dddddd">0</text>
</g>
</g>
</svg>
