<?xml version="1.0" encoding="UTF-8" standalone="no"?>
<!DOCTYPE svg PUBLIC "-//W3C//DTD SVG 1.1//EN"
 "http://www.w3.org/Graphics/SVG/1.1/DTD/svg11.dtd">
<!-- Generated by graphviz version 12.0.0 (0)
 -->
<!-- Pages: 1 -->
<svg width="398pt" height="79pt"
 viewBox="0.00 0.00 397.52 79.30" xmlns="http://www.w3.org/2000/svg" xmlns:xlink="http://www.w3.org/1999/xlink">
<g id="graph0" class="graph" transform="scale(1 1) rotate(0) translate(4 75.3)">
<!-- start -->
<g id="node1" class="node">
<title>start</title>
</g>
<!-- q0 -->
<g id="node3" class="node">
<title>q0</title>
<ellipse fill="none" stroke="#dddddd" cx="55.72" cy="-18.4" rx="18" ry="18"/>
<text text-anchor="middle" x="55.72" y="-13.35" font-family="Times,serif" font-size="14.00" fill="#dddddd">q0</text>
</g>
<!-- start&#45;&gt;q0 -->
<g id="edge1" class="edge">
<title>start&#45;&gt;q0</title>
<path fill="none" stroke="#dddddd" d="M18.1,-18.4C20.76,-18.4 23.55,-18.4 26.37,-18.4"/>
<polygon fill="#dddddd" stroke="#dddddd" points="26.22,-21.9 36.22,-18.4 26.22,-14.9 26.22,-21.9"/>
</g>
<!-- q4 -->
<g id="node2" class="node">
<title>q4</title>
<ellipse fill="none" stroke="#dddddd" cx="371.12" cy="-18.4" rx="14.4" ry="14.4"/>
<ellipse fill="none" stroke="#dddddd" cx="371.12" cy="-18.4" rx="18.4" ry="18.4"/>
<text text-anchor="middle" x="371.12" y="-13.35" font-family="Times,serif" font-size="14.00" fill="#dddddd">q4</text>
</g>
<!-- q4&#45;&gt;q4 -->
<g id="edge7" class="edge">
<title>q4&#45;&gt;q4</title>
<path fill="none" stroke="#dddddd" d="M364.13,-35.25C362.57,-45.32 364.91,-54.8 371.12,-54.8 374.81,-54.8 377.13,-51.46 378.08,-46.63"/>
<polygon fill="#dddddd" stroke="#dddddd" points="381.58,-46.77 378.11,-36.76 374.58,-46.75 381.58,-46.77"/>
<text text-anchor="middle" x="371.12" y="-58" font-family="Times,serif" font-size="14.00" fill="#dddddd">1</text>
</g>
<!-- q1 -->
<g id="node4" class="node">
<title>q1</title>
<ellipse fill="none" stroke="#dddddd" cx="134.47" cy="-18.4" rx="18" ry="18"/>
<text text-anchor="middle" x="134.47" y="-13.35" font-family="Times,serif" font-size="14.00" fill="#dddddd">q1</text>
</g>
<!-- q0&#45;&gt;q1 -->
<g id="edge2" class="edge">
<title>q0&#45;&gt;q1</title>
<path fill="none" stroke="#dddddd" d="M73.37,-18.4C82.66,-18.4 94.48,-18.4 105.18,-18.4"/>
<polygon fill="#dddddd" stroke="#dddddd" points="105.07,-21.9 115.07,-18.4 105.07,-14.9 105.07,-21.9"/>
<text text-anchor="middle" x="95.1" y="-21.6" font-family="Times,serif" font-size="14.00" fill="#dddddd">1</text>
</g>
<!-- q2 -->
<g id="node5" class="node">
<title>q2</title>
<ellipse fill="none" stroke="#dddddd" cx="213.22" cy="-18.4" rx="18" ry="18"/>
<text text-anchor="middle" x="213.22" y="-13.35" font-family="Times,serif" font-size="14.00" fill="#dddddd">q2</text>
</g>
<!-- q1&#45;&gt;q2 -->
<g id="edge3" class="edge">
<title>q1&#45;&gt;q2</title>
<path fill="none" stroke="#dddddd" d="M152.12,-18.4C161.41,-18.4 173.23,-18.4 183.93,-18.4"/>
<polygon fill="#dddddd" stroke="#dddddd" points="183.82,-21.9 193.82,-18.4 183.82,-14.9 183.82,-21.9"/>
<text text-anchor="middle" x="173.85" y="-21.6" font-family="Times,serif" font-size="14.00" fill="#dddddd">0</text>
</g>
<!-- q3 -->
<g id="node6" class="node">
<title>q3</title>
<ellipse fill="none" stroke="#dddddd" cx="291.97" cy="-18.4" rx="18" ry="18"/>
<text text-anchor="middle" x="291.97" y="-13.35" font-family="Times,serif" font-size="14.00" fill="#dddddd">q3</text>
</g>
<!-- q2&#45;&gt;q3 -->
<g id="edge4" class="edge">
<title>q2&#45;&gt;q3</title>
<path fill="none" stroke="#dddddd" d="M230.87,-18.4C240.16,-18.4 251.98,-18.4 262.68,-18.4"/>
<polygon fill="#dddddd" stroke="#dddddd" points="262.57,-21.9 272.57,-18.4 262.57,-14.9 262.57,-21.9"/>
<text text-anchor="middle" x="252.6" y="-21.6" font-family="Times,serif" font-size="14.00" fill="#dddddd">0</text>
</g>
<!-- q3&#45;&gt;q4 -->
<g id="edge6" class="edge">
<title>q3&#45;&gt;q4</title>
<path fill="none" stroke="#dddddd" d="M309.71,-18.4C318.98,-18.4 330.77,-18.4 341.46,-18.4"/>
<polygon fill="#dddddd" stroke="#dddddd" points="341.36,-21.9 351.36,-18.4 341.36,-14.9 341.36,-21.9"/>
<text text-anchor="middle" x="331.35" y="-21.6" font-family="Times,serif" font-size="14.00" fill="#dddddd">1</text>
</g>
<!-- q3&#45;&gt;q3 -->
<g id="edge5" class="edge">
<title>q3&#45;&gt;q3</title>
<path fill="none" stroke="#dddddd" d="M285.11,-34.69C283.45,-44.79 285.74,-54.4 291.97,-54.4 295.67,-54.4 297.98,-51.01 298.9,-46.14"/>
<polygon fill="#dddddd" stroke="#dddddd" points="302.4,-46.18 298.84,-36.2 295.4,-46.22 302.4,-46.18"/>
<text text-anchor="middle" x="291.97" y="-57.6" font-family="Times,serif" font-size="14.00" fill="#dddddd">0</text>
</g>
</g>
</svg>
