<?xml version="1.0" encoding="UTF-8" standalone="no"?>
<!DOCTYPE svg PUBLIC "-//W3C//DTD SVG 1.1//EN"
 "http://www.w3.org/Graphics/SVG/1.1/DTD/svg11.dtd">
<!-- Generated by graphviz version 11.0.0 (0)
 -->
<!-- Pages: 1 -->
<svg width="397pt" height="79pt"
 viewBox="0.00 0.00 396.52 79.30" xmlns="http://www.w3.org/2000/svg" xmlns:xlink="http://www.w3.org/1999/xlink">
<g id="graph0" class="graph" transform="scale(1 1) rotate(0) translate(4 75.3)">
<!-- start -->
<g id="node1" class="node">
<title>start</title>
</g>
<!-- q0 -->
<g id="node3" class="node">
<title>q0</title>
<ellipse fill="none" stroke="#dddddd" cx="54.72" cy="-18.4" rx="18" ry="18"/>
<text text-anchor="middle" x="54.72" y="-13.35" font-family="Times,serif" font-size="14.00" fill="#dddddd">q0</text>
</g>
<!-- start&#45;&gt;q0 -->
<g id="edge1" class="edge">
<title>start&#45;&gt;q0</title>
<path fill="none" stroke="#dddddd" d="M18.07,-18.4C20.43,-18.4 22.9,-18.4 25.39,-18.4"/>
<polygon fill="#dddddd" stroke="#dddddd" points="25.36,-21.9 35.35,-18.4 25.35,-14.9 25.36,-21.9"/>
</g>
<!-- q4 -->
<g id="node2" class="node">
<title>q4</title>
<ellipse fill="none" stroke="#dddddd" cx="370.12" cy="-18.4" rx="14.4" ry="14.4"/>
<ellipse fill="none" stroke="#dddddd" cx="370.12" cy="-18.4" rx="18.4" ry="18.4"/>
<text text-anchor="middle" x="370.12" y="-13.35" font-family="Times,serif" font-size="14.00" fill="#dddddd">q4</text>
</g>
<!-- q4&#45;&gt;q4 -->
<g id="edge7" class="edge">
<title>q4&#45;&gt;q4</title>
<path fill="none" stroke="#dddddd" d="M363.13,-35.25C361.57,-45.32 363.91,-54.8 370.12,-54.8 373.81,-54.8 376.13,-51.46 377.08,-46.63"/>
<polygon fill="#dddddd" stroke="#dddddd" points="380.58,-46.77 377.11,-36.76 373.58,-46.75 380.58,-46.77"/>
<text text-anchor="middle" x="370.12" y="-58" font-family="Times,serif" font-size="14.00" fill="#dddddd">1</text>
</g>
<!-- q1 -->
<g id="node4" class="node">
<title>q1</title>
<ellipse fill="none" stroke="#dddddd" cx="133.47" cy="-18.4" rx="18" ry="18"/>
<text text-anchor="middle" x="133.47" y="-13.35" font-family="Times,serif" font-size="14.00" fill="#dddddd">q1</text>
</g>
<!-- q0&#45;&gt;q1 -->
<g id="edge2" class="edge">
<title>q0&#45;&gt;q1</title>
<path fill="none" stroke="#dddddd" d="M72.37,-18.4C81.66,-18.4 93.48,-18.4 104.18,-18.4"/>
<polygon fill="#dddddd" stroke="#dddddd" points="104.07,-21.9 114.07,-18.4 104.07,-14.9 104.07,-21.9"/>
<text text-anchor="middle" x="94.1" y="-21.6" font-family="Times,serif" font-size="14.00" fill="#dddddd">1</text>
</g>
<!-- q2 -->
<g id="node5" class="node">
<title>q2</title>
<ellipse fill="none" stroke="#dddddd" cx="212.22" cy="-18.4" rx="18" ry="18"/>
<text text-anchor="middle" x="212.22" y="-13.35" font-family="Times,serif" font-size="14.00" fill="#dddddd">q2</text>
</g>
<!-- q1&#45;&gt;q2 -->
<g id="edge3" class="edge">
<title>q1&#45;&gt;q2</title>
<path fill="none" stroke="#dddddd" d="M151.12,-18.4C160.41,-18.4 172.23,-18.4 182.93,-18.4"/>
<polygon fill="#dddddd" stroke="#dddddd" points="182.82,-21.9 192.82,-18.4 182.82,-14.9 182.82,-21.9"/>
<text text-anchor="middle" x="172.85" y="-21.6" font-family="Times,serif" font-size="14.00" fill="#dddddd">0</text>
</g>
<!-- q3 -->
<g id="node6" class="node">
<title>q3</title>
<ellipse fill="none" stroke="#dddddd" cx="290.97" cy="-18.4" rx="18" ry="18"/>
<text text-anchor="middle" x="290.97" y="-13.35" font-family="Times,serif" font-size="14.00" fill="#dddddd">q3</text>
</g>
<!-- q2&#45;&gt;q3 -->
<g id="edge4" class="edge">
<title>q2&#45;&gt;q3</title>
<path fill="none" stroke="#dddddd" d="M229.87,-18.4C239.16,-18.4 250.98,-18.4 261.68,-18.4"/>
<polygon fill="#dddddd" stroke="#dddddd" points="261.57,-21.9 271.57,-18.4 261.57,-14.9 261.57,-21.9"/>
<text text-anchor="middle" x="251.6" y="-21.6" font-family="Times,serif" font-size="14.00" fill="#dddddd">0</text>
</g>
<!-- q3&#45;&gt;q4 -->
<g id="edge6" class="edge">
<title>q3&#45;&gt;q4</title>
<path fill="none" stroke="#dddddd" d="M308.71,-18.4C317.98,-18.4 329.77,-18.4 340.46,-18.4"/>
<polygon fill="#dddddd" stroke="#dddddd" points="340.36,-21.9 350.36,-18.4 340.36,-14.9 340.36,-21.9"/>
<text text-anchor="middle" x="330.35" y="-21.6" font-family="Times,serif" font-size="14.00" fill="#dddddd">1</text>
</g>
<!-- q3&#45;&gt;q3 -->
<g id="edge5" class="edge">
<title>q3&#45;&gt;q3</title>
<path fill="none" stroke="#dddddd" d="M284.11,-34.69C282.45,-44.79 284.74,-54.4 290.97,-54.4 294.67,-54.4 296.98,-51.01 297.9,-46.14"/>
<polygon fill="#dddddd" stroke="#dddddd" points="301.4,-46.18 297.84,-36.2 294.4,-46.22 301.4,-46.18"/>
<text text-anchor="middle" x="290.97" y="-57.6" font-family="Times,serif" font-size="14.00" fill="#dddddd">0</text>
</g>
</g>
</svg>
