<?xml version="1.0" encoding="UTF-8" standalone="no"?>
<!DOCTYPE svg PUBLIC "-//W3C//DTD SVG 1.1//EN"
 "http://www.w3.org/Graphics/SVG/1.1/DTD/svg11.dtd">
<!-- Generated by graphviz version 12.1.2 (0)
 -->
<!-- Pages: 1 -->
<svg width="240pt" height="48pt"
 viewBox="0.00 0.00 240.02 48.32" xmlns="http://www.w3.org/2000/svg" xmlns:xlink="http://www.w3.org/1999/xlink">
<g id="graph0" class="graph" transform="scale(1 1) rotate(0) translate(4 44.32)">
<!-- start -->
<g id="node1" class="node">
<title>start</title>
</g>
<!-- q0 -->
<g id="node3" class="node">
<title>q0</title>
<ellipse fill="none" stroke="#dddddd" cx="55.72" cy="-21.92" rx="18" ry="18"/>
<text text-anchor="middle" x="55.72" y="-16.87" font-family="Times,serif" font-size="14.00" fill="#dddddd">q0</text>
</g>
<!-- start&#45;&gt;q0 -->
<g id="edge1" class="edge">
<title>start&#45;&gt;q0</title>
<path fill="none" stroke="#dddddd" d="M18.1,-21.92C20.76,-21.92 23.55,-21.92 26.37,-21.92"/>
<polygon fill="#dddddd" stroke="#dddddd" points="26.22,-25.42 36.22,-21.92 26.22,-18.42 26.22,-25.42"/>
</g>
<!-- q2 -->
<g id="node2" class="node">
<title>q2</title>
<ellipse fill="none" stroke="#dddddd" cx="213.62" cy="-21.92" rx="14.4" ry="14.4"/>
<ellipse fill="none" stroke="#dddddd" cx="213.62" cy="-21.92" rx="18.4" ry="18.4"/>
<text text-anchor="middle" x="213.62" y="-16.87" font-family="Times,serif" font-size="14.00" fill="#dddddd">q2</text>
</g>
<!-- q1 -->
<g id="node4" class="node">
<title>q1</title>
<ellipse fill="none" stroke="#dddddd" cx="134.47" cy="-21.92" rx="18" ry="18"/>
<text text-anchor="middle" x="134.47" y="-16.87" font-family="Times,serif" font-size="14.00" fill="#dddddd">q1</text>
</g>
<!-- q0&#45;&gt;q1 -->
<g id="edge2" class="edge">
<title>q0&#45;&gt;q1</title>
<path fill="none" stroke="#dddddd" d="M73.37,-21.92C82.66,-21.92 94.48,-21.92 105.18,-21.92"/>
<polygon fill="#dddddd" stroke="#dddddd" points="105.07,-25.42 115.07,-21.92 105.07,-18.42 105.07,-25.42"/>
<text text-anchor="middle" x="95.1" y="-25.12" font-family="Times,serif" font-size="14.00" fill="#dddddd">0</text>
</g>
<!-- q1&#45;&gt;q2 -->
<g id="edge4" class="edge">
<title>q1&#45;&gt;q2</title>
<path fill="none" stroke="#dddddd" d="M152.21,-21.92C161.48,-21.92 173.27,-21.92 183.96,-21.92"/>
<polygon fill="#dddddd" stroke="#dddddd" points="183.86,-25.42 193.86,-21.92 183.86,-18.42 183.86,-25.42"/>
<text text-anchor="middle" x="173.85" y="-25.12" font-family="Times,serif" font-size="14.00" fill="#dddddd">1</text>
</g>
<!-- q1&#45;&gt;q0 -->
<g id="edge3" class="edge">
<title>q1&#45;&gt;q0</title>
<path fill="none" stroke="#dddddd" d="M121.18,-10.46C113.11,-4.33 102.16,1.42 91.72,-1.42 87.8,-2.48 83.86,-4.11 80.12,-5.99"/>
<polygon fill="#dddddd" stroke="#dddddd" points="78.46,-2.91 71.57,-10.96 81.97,-8.96 78.46,-2.91"/>
<text text-anchor="middle" x="95.1" y="-4.62" font-family="Times,serif" font-size="14.00" fill="#dddddd">0</text>
</g>
</g>
</svg>
