<?xml version="1.0" encoding="UTF-8" standalone="no"?>
<!DOCTYPE svg PUBLIC "-//W3C//DTD SVG 1.1//EN"
 "http://www.w3.org/Graphics/SVG/1.1/DTD/svg11.dtd">
<!-- Generated by graphviz version 11.0.0 (0)
 -->
<!-- Pages: 1 -->
<svg width="339pt" height="79pt"
 viewBox="0.00 0.00 338.77 78.90" xmlns="http://www.w3.org/2000/svg" xmlns:xlink="http://www.w3.org/1999/xlink">
<g id="graph0" class="graph" transform="scale(1 1) rotate(0) translate(4 74.9)">
<!-- start -->
<g id="node1" class="node">
<title>start</title>
</g>
<!-- q1 -->
<g id="node3" class="node">
<title>q1</title>
<ellipse fill="none" stroke="#dddddd" cx="54.72" cy="-18.4" rx="18" ry="18"/>
<text text-anchor="middle" x="54.72" y="-13.35" font-family="Times,serif" font-size="14.00" fill="#dddddd">...</text>
</g>
<!-- start&#45;&gt;q1 -->
<g id="edge1" class="edge">
<title>start&#45;&gt;q1</title>
<path fill="none" stroke="#dddddd" d="M0.87,-18.4C2.32,-18.4 13.83,-18.4 25.75,-18.4"/>
<polygon fill="#dddddd" stroke="#dddddd" points="25.46,-21.9 35.46,-18.4 25.46,-14.9 25.46,-21.9"/>
</g>
<!-- q4 -->
<g id="node2" class="node">
<title>q4</title>
<ellipse fill="none" stroke="#dddddd" cx="312.37" cy="-18.4" rx="14.4" ry="14.4"/>
<ellipse fill="none" stroke="#dddddd" cx="312.37" cy="-18.4" rx="18.4" ry="18.4"/>
<text text-anchor="middle" x="312.37" y="-13.35" font-family="Times,serif" font-size="14.00" fill="#dddddd">1..</text>
</g>
<!-- q1&#45;&gt;q1 -->
<g id="edge2" class="edge">
<title>q1&#45;&gt;q1</title>
<path fill="none" stroke="#dddddd" d="M48.39,-35.06C46.99,-45.02 49.1,-54.4 54.72,-54.4 58.06,-54.4 60.16,-51.09 61.02,-46.32"/>
<polygon fill="#dddddd" stroke="#dddddd" points="64.52,-46.59 61.04,-36.58 57.52,-46.57 64.52,-46.59"/>
<text text-anchor="middle" x="54.72" y="-57.6" font-family="Times,serif" font-size="14.00" fill="#dddddd">0,1</text>
</g>
<!-- q2 -->
<g id="node4" class="node">
<title>q2</title>
<ellipse fill="none" stroke="#dddddd" cx="133.47" cy="-18.4" rx="18" ry="18"/>
<text text-anchor="middle" x="133.47" y="-13.35" font-family="Times,serif" font-size="14.00" fill="#dddddd">..1</text>
</g>
<!-- q1&#45;&gt;q2 -->
<g id="edge3" class="edge">
<title>q1&#45;&gt;q2</title>
<path fill="none" stroke="#dddddd" d="M72.37,-18.4C81.66,-18.4 93.48,-18.4 104.18,-18.4"/>
<polygon fill="#dddddd" stroke="#dddddd" points="104.07,-21.9 114.07,-18.4 104.07,-14.9 104.07,-21.9"/>
<text text-anchor="middle" x="94.1" y="-21.6" font-family="Times,serif" font-size="14.00" fill="#dddddd">1</text>
</g>
<!-- q3 -->
<g id="node5" class="node">
<title>q3</title>
<ellipse fill="none" stroke="#dddddd" cx="222.72" cy="-18.4" rx="18" ry="18"/>
<text text-anchor="middle" x="222.72" y="-13.35" font-family="Times,serif" font-size="14.00" fill="#dddddd">.1.</text>
</g>
<!-- q2&#45;&gt;q3 -->
<g id="edge4" class="edge">
<title>q2&#45;&gt;q3</title>
<path fill="none" stroke="#dddddd" d="M151.29,-18.4C163.24,-18.4 179.57,-18.4 193.5,-18.4"/>
<polygon fill="#dddddd" stroke="#dddddd" points="193.44,-21.9 203.44,-18.4 193.44,-14.9 193.44,-21.9"/>
<text text-anchor="middle" x="178.1" y="-21.6" font-family="Times,serif" font-size="14.00" fill="#dddddd">0,1</text>
</g>
<!-- q3&#45;&gt;q4 -->
<g id="edge5" class="edge">
<title>q3&#45;&gt;q4</title>
<path fill="none" stroke="#dddddd" d="M240.62,-18.4C252.55,-18.4 268.82,-18.4 282.75,-18.4"/>
<polygon fill="#dddddd" stroke="#dddddd" points="282.71,-21.9 292.71,-18.4 282.71,-14.9 282.71,-21.9"/>
<text text-anchor="middle" x="267.35" y="-21.6" font-family="Times,serif" font-size="14.00" fill="#dddddd">0,1</text>
</g>
</g>
</svg>
