<?xml version="1.0" encoding="UTF-8" standalone="no"?>
<!DOCTYPE svg PUBLIC "-//W3C//DTD SVG 1.1//EN"
 "http://www.w3.org/Graphics/SVG/1.1/DTD/svg11.dtd">
<!-- Generated by graphviz version 12.1.1 (0)
 -->
<!-- Pages: 1 -->
<svg width="340pt" height="79pt"
 viewBox="0.00 0.00 339.77 78.90" xmlns="http://www.w3.org/2000/svg" xmlns:xlink="http://www.w3.org/1999/xlink">
<g id="graph0" class="graph" transform="scale(1 1) rotate(0) translate(4 74.9)">
<!-- start -->
<g id="node1" class="node">
<title>start</title>
</g>
<!-- q1 -->
<g id="node3" class="node">
<title>q1</title>
<ellipse fill="none" stroke="#dddddd" cx="55.72" cy="-18.4" rx="18" ry="18"/>
<text text-anchor="middle" x="55.72" y="-13.35" font-family="Times,serif" font-size="14.00" fill="#dddddd">...</text>
</g>
<!-- start&#45;&gt;q1 -->
<g id="edge1" class="edge">
<title>start&#45;&gt;q1</title>
<path fill="none" stroke="#dddddd" d="M0.87,-18.4C2.36,-18.4 14.23,-18.4 26.45,-18.4"/>
<polygon fill="#dddddd" stroke="#dddddd" points="26.44,-21.9 36.43,-18.4 26.43,-14.9 26.44,-21.9"/>
</g>
<!-- q4 -->
<g id="node2" class="node">
<title>q4</title>
<ellipse fill="none" stroke="#dddddd" cx="313.37" cy="-18.4" rx="14.4" ry="14.4"/>
<ellipse fill="none" stroke="#dddddd" cx="313.37" cy="-18.4" rx="18.4" ry="18.4"/>
<text text-anchor="middle" x="313.37" y="-13.35" font-family="Times,serif" font-size="14.00" fill="#dddddd">1..</text>
</g>
<!-- q1&#45;&gt;q1 -->
<g id="edge2" class="edge">
<title>q1&#45;&gt;q1</title>
<path fill="none" stroke="#dddddd" d="M49.3,-35.06C47.88,-45.02 50.02,-54.4 55.72,-54.4 59.11,-54.4 61.24,-51.09 62.11,-46.32"/>
<polygon fill="#dddddd" stroke="#dddddd" points="65.61,-46.59 62.13,-36.58 58.61,-46.57 65.61,-46.59"/>
<text text-anchor="middle" x="55.72" y="-57.6" font-family="Times,serif" font-size="14.00" fill="#dddddd">0,1</text>
</g>
<!-- q2 -->
<g id="node4" class="node">
<title>q2</title>
<ellipse fill="none" stroke="#dddddd" cx="134.47" cy="-18.4" rx="18" ry="18"/>
<text text-anchor="middle" x="134.47" y="-13.35" font-family="Times,serif" font-size="14.00" fill="#dddddd">..1</text>
</g>
<!-- q1&#45;&gt;q2 -->
<g id="edge3" class="edge">
<title>q1&#45;&gt;q2</title>
<path fill="none" stroke="#dddddd" d="M73.37,-18.4C82.66,-18.4 94.48,-18.4 105.18,-18.4"/>
<polygon fill="#dddddd" stroke="#dddddd" points="105.07,-21.9 115.07,-18.4 105.07,-14.9 105.07,-21.9"/>
<text text-anchor="middle" x="95.1" y="-21.6" font-family="Times,serif" font-size="14.00" fill="#dddddd">1</text>
</g>
<!-- q3 -->
<g id="node5" class="node">
<title>q3</title>
<ellipse fill="none" stroke="#dddddd" cx="223.72" cy="-18.4" rx="18" ry="18"/>
<text text-anchor="middle" x="223.72" y="-13.35" font-family="Times,serif" font-size="14.00" fill="#dddddd">.1.</text>
</g>
<!-- q2&#45;&gt;q3 -->
<g id="edge4" class="edge">
<title>q2&#45;&gt;q3</title>
<path fill="none" stroke="#dddddd" d="M152.29,-18.4C164.24,-18.4 180.57,-18.4 194.5,-18.4"/>
<polygon fill="#dddddd" stroke="#dddddd" points="194.44,-21.9 204.44,-18.4 194.44,-14.9 194.44,-21.9"/>
<text text-anchor="middle" x="179.1" y="-21.6" font-family="Times,serif" font-size="14.00" fill="#dddddd">0,1</text>
</g>
<!-- q3&#45;&gt;q4 -->
<g id="edge5" class="edge">
<title>q3&#45;&gt;q4</title>
<path fill="none" stroke="#dddddd" d="M241.62,-18.4C253.55,-18.4 269.82,-18.4 283.75,-18.4"/>
<polygon fill="#dddddd" stroke="#dddddd" points="283.71,-21.9 293.71,-18.4 283.71,-14.9 283.71,-21.9"/>
<text text-anchor="middle" x="268.35" y="-21.6" font-family="Times,serif" font-size="14.00" fill="#dddddd">0,1</text>
</g>
</g>
</svg>
