<?xml version="1.0" encoding="UTF-8" standalone="no"?>
<!DOCTYPE svg PUBLIC "-//W3C//DTD SVG 1.1//EN"
 "http://www.w3.org/Graphics/SVG/1.1/DTD/svg11.dtd">
<!-- Generated by graphviz version 12.1.2 (0)
 -->
<!-- Pages: 1 -->
<svg width="394pt" height="321pt"
 viewBox="0.00 0.00 393.54 321.46" xmlns="http://www.w3.org/2000/svg" xmlns:xlink="http://www.w3.org/1999/xlink">
<g id="graph0" class="graph" transform="scale(1 1) rotate(0) translate(4 317.46)">
<!-- start -->
<g id="node1" class="node">
<title>start</title>
</g>
<!-- q000 -->
<g id="node6" class="node">
<title>q000</title>
<ellipse fill="none" stroke="#dddddd" cx="90.36" cy="-156.93" rx="18" ry="18"/>
<text text-anchor="middle" x="90.36" y="-151.88" font-family="Times,serif" font-size="14.00" fill="#dddddd">000</text>
</g>
<!-- start&#45;&gt;q000 -->
<g id="edge1" class="edge">
<title>start&#45;&gt;q000</title>
<path fill="none" stroke="#dddddd" d="M0.62,-156.93C3.83,-156.93 36.27,-156.93 61.23,-156.93"/>
<polygon fill="#dddddd" stroke="#dddddd" points="61.21,-160.43 71.21,-156.93 61.21,-153.43 61.21,-160.43"/>
</g>
<!-- q100 -->
<g id="node2" class="node">
<title>q100</title>
<ellipse fill="none" stroke="#dddddd" cx="130.93" cy="-58.97" rx="14.4" ry="14.4"/>
<ellipse fill="none" stroke="#dddddd" cx="130.93" cy="-58.97" rx="18.4" ry="18.4"/>
<text text-anchor="middle" x="130.93" y="-53.92" font-family="Times,serif" font-size="14.00" fill="#dddddd">100</text>
</g>
<!-- q100&#45;&gt;q000 -->
<g id="edge10" class="edge">
<title>q100&#45;&gt;q000</title>
<path fill="none" stroke="#dddddd" d="M124.05,-75.59C117.84,-90.6 108.58,-112.94 101.34,-130.42"/>
<polygon fill="#dddddd" stroke="#dddddd" points="98.31,-128.58 97.72,-139.16 104.78,-131.26 98.31,-128.58"/>
<text text-anchor="middle" x="109.32" y="-106.2" font-family="Times,serif" font-size="14.00" fill="#dddddd">0</text>
</g>
<!-- q001 -->
<g id="node7" class="node">
<title>q001</title>
<ellipse fill="none" stroke="#dddddd" cx="130.93" cy="-254.88" rx="18" ry="18"/>
<text text-anchor="middle" x="130.93" y="-249.83" font-family="Times,serif" font-size="14.00" fill="#dddddd">001</text>
</g>
<!-- q100&#45;&gt;q001 -->
<g id="edge11" class="edge">
<title>q100&#45;&gt;q001</title>
<path fill="none" stroke="#dddddd" d="M130.93,-77.05C130.93,-111.03 130.93,-184.7 130.93,-225.75"/>
<polygon fill="#dddddd" stroke="#dddddd" points="127.43,-225.62 130.93,-235.62 134.43,-225.62 127.43,-225.62"/>
<text text-anchor="middle" x="134.31" y="-138.1" font-family="Times,serif" font-size="14.00" fill="#dddddd">1</text>
</g>
<!-- q101 -->
<g id="node3" class="node">
<title>q101</title>
<ellipse fill="none" stroke="#dddddd" cx="326.84" cy="-254.88" rx="14.4" ry="14.4"/>
<ellipse fill="none" stroke="#dddddd" cx="326.84" cy="-254.88" rx="18.4" ry="18.4"/>
<text text-anchor="middle" x="326.84" y="-249.83" font-family="Times,serif" font-size="14.00" fill="#dddddd">101</text>
</g>
<!-- q010 -->
<g id="node8" class="node">
<title>q010</title>
<ellipse fill="none" stroke="#dddddd" cx="228.89" cy="-295.46" rx="18" ry="18"/>
<text text-anchor="middle" x="228.89" y="-290.41" font-family="Times,serif" font-size="14.00" fill="#dddddd">010</text>
</g>
<!-- q101&#45;&gt;q010 -->
<g id="edge12" class="edge">
<title>q101&#45;&gt;q010</title>
<path fill="none" stroke="#dddddd" d="M308.69,-256.81C292.9,-261.45 269.95,-270.64 252.69,-279.05"/>
<polygon fill="#dddddd" stroke="#dddddd" points="251.43,-275.76 244.14,-283.45 254.64,-281.98 251.43,-275.76"/>
<text text-anchor="middle" x="277.32" y="-254.63" font-family="Times,serif" font-size="14.00" fill="#dddddd">0</text>
</g>
<!-- q011 -->
<g id="node9" class="node">
<title>q011</title>
<ellipse fill="none" stroke="#dddddd" cx="367.42" cy="-156.93" rx="18" ry="18"/>
<text text-anchor="middle" x="367.42" y="-151.88" font-family="Times,serif" font-size="14.00" fill="#dddddd">011</text>
</g>
<!-- q101&#45;&gt;q011 -->
<g id="edge13" class="edge">
<title>q101&#45;&gt;q011</title>
<path fill="none" stroke="#dddddd" d="M333.73,-238.27C339.94,-223.26 349.2,-200.92 356.43,-183.44"/>
<polygon fill="#dddddd" stroke="#dddddd" points="359.46,-185.28 360.06,-174.7 353,-182.6 359.46,-185.28"/>
<text text-anchor="middle" x="341.71" y="-214.05" font-family="Times,serif" font-size="14.00" fill="#dddddd">1</text>
</g>
<!-- q110 -->
<g id="node4" class="node">
<title>q110</title>
<ellipse fill="none" stroke="#dddddd" cx="228.89" cy="-18.4" rx="14.4" ry="14.4"/>
<ellipse fill="none" stroke="#dddddd" cx="228.89" cy="-18.4" rx="18.4" ry="18.4"/>
<text text-anchor="middle" x="228.89" y="-13.35" font-family="Times,serif" font-size="14.00" fill="#dddddd">110</text>
</g>
<!-- q110&#45;&gt;q100 -->
<g id="edge14" class="edge">
<title>q110&#45;&gt;q100</title>
<path fill="none" stroke="#dddddd" d="M212.27,-25.28C197.5,-31.4 175.61,-40.47 158.26,-47.66"/>
<polygon fill="#dddddd" stroke="#dddddd" points="156.93,-44.42 149.03,-51.48 159.61,-50.88 156.93,-44.42"/>
<text text-anchor="middle" x="181.89" y="-39.67" font-family="Times,serif" font-size="14.00" fill="#dddddd">0</text>
</g>
<!-- q110&#45;&gt;q101 -->
<g id="edge15" class="edge">
<title>q110&#45;&gt;q101</title>
<path fill="none" stroke="#dddddd" d="M235.78,-35.03C252.42,-75.21 294.97,-177.93 315.47,-227.41"/>
<polygon fill="#dddddd" stroke="#dddddd" points="312.19,-228.66 319.25,-236.56 318.66,-225.98 312.19,-228.66"/>
<text text-anchor="middle" x="272.25" y="-134.42" font-family="Times,serif" font-size="14.00" fill="#dddddd">1</text>
</g>
<!-- q111 -->
<g id="node5" class="node">
<title>q111</title>
<ellipse fill="none" stroke="#dddddd" cx="326.84" cy="-58.97" rx="14.4" ry="14.4"/>
<ellipse fill="none" stroke="#dddddd" cx="326.84" cy="-58.97" rx="18.4" ry="18.4"/>
<text text-anchor="middle" x="326.84" y="-53.92" font-family="Times,serif" font-size="14.00" fill="#dddddd">111</text>
</g>
<!-- q111&#45;&gt;q110 -->
<g id="edge16" class="edge">
<title>q111&#45;&gt;q110</title>
<path fill="none" stroke="#dddddd" d="M310.23,-52.09C295.45,-45.97 273.56,-36.9 256.21,-29.72"/>
<polygon fill="#dddddd" stroke="#dddddd" points="257.56,-26.49 246.98,-25.9 254.88,-32.96 257.56,-26.49"/>
<text text-anchor="middle" x="279.84" y="-44.1" font-family="Times,serif" font-size="14.00" fill="#dddddd">0</text>
</g>
<!-- q111&#45;&gt;q111 -->
<g id="edge17" class="edge">
<title>q111&#45;&gt;q111</title>
<path fill="none" stroke="#dddddd" d="M344.07,-65.35C354,-66.66 363.24,-64.53 363.24,-58.97 363.24,-55.68 359.98,-53.59 355.26,-52.71"/>
<polygon fill="#dddddd" stroke="#dddddd" points="355.62,-49.21 345.58,-52.61 355.55,-56.21 355.62,-49.21"/>
<text text-anchor="middle" x="366.62" y="-53.92" font-family="Times,serif" font-size="14.00" fill="#dddddd">1</text>
</g>
<!-- q000&#45;&gt;q000 -->
<g id="edge2" class="edge">
<title>q000&#45;&gt;q000</title>
<path fill="none" stroke="#dddddd" d="M107.08,-163.26C117.08,-164.66 126.49,-162.55 126.49,-156.93 126.49,-153.59 123.17,-151.49 118.38,-150.63"/>
<polygon fill="#dddddd" stroke="#dddddd" points="118.6,-147.13 108.6,-150.6 118.59,-154.13 118.6,-147.13"/>
<text text-anchor="middle" x="129.86" y="-151.88" font-family="Times,serif" font-size="14.00" fill="#dddddd">0</text>
</g>
<!-- q000&#45;&gt;q001 -->
<g id="edge3" class="edge">
<title>q000&#45;&gt;q001</title>
<path fill="none" stroke="#dddddd" d="M97.24,-173.55C103.46,-188.55 112.71,-210.9 119.95,-228.37"/>
<polygon fill="#dddddd" stroke="#dddddd" points="116.51,-229.21 123.57,-237.11 122.98,-226.54 116.51,-229.21"/>
<text text-anchor="middle" x="105.22" y="-204.16" font-family="Times,serif" font-size="14.00" fill="#dddddd">1</text>
</g>
<!-- q001&#45;&gt;q010 -->
<g id="edge4" class="edge">
<title>q001&#45;&gt;q010</title>
<path fill="none" stroke="#dddddd" d="M147.55,-261.77C162.56,-267.98 184.9,-277.24 202.38,-284.47"/>
<polygon fill="#dddddd" stroke="#dddddd" points="200.54,-287.5 211.12,-288.1 203.22,-281.04 200.54,-287.5"/>
<text text-anchor="middle" x="171.59" y="-276.32" font-family="Times,serif" font-size="14.00" fill="#dddddd">0</text>
</g>
<!-- q001&#45;&gt;q011 -->
<g id="edge5" class="edge">
<title>q001&#45;&gt;q011</title>
<path fill="none" stroke="#dddddd" d="M147.56,-247.99C187.85,-231.31 290.96,-188.6 340.31,-168.16"/>
<polygon fill="#dddddd" stroke="#dddddd" points="341.51,-171.45 349.41,-164.39 338.83,-164.98 341.51,-171.45"/>
<text text-anchor="middle" x="240.56" y="-211.28" font-family="Times,serif" font-size="14.00" fill="#dddddd">1</text>
</g>
<!-- q010&#45;&gt;q100 -->
<g id="edge6" class="edge">
<title>q010&#45;&gt;q100</title>
<path fill="none" stroke="#dddddd" d="M222,-278.83C205.36,-238.64 162.81,-135.93 142.31,-86.44"/>
<polygon fill="#dddddd" stroke="#dddddd" points="145.59,-85.2 138.52,-77.3 139.12,-87.88 145.59,-85.2"/>
<text text-anchor="middle" x="178.78" y="-185.83" font-family="Times,serif" font-size="14.00" fill="#dddddd">0</text>
</g>
<!-- q010&#45;&gt;q101 -->
<g id="edge7" class="edge">
<title>q010&#45;&gt;q101</title>
<path fill="none" stroke="#dddddd" d="M246.58,-293.66C262.32,-289.09 285.41,-279.87 302.81,-271.4"/>
<polygon fill="#dddddd" stroke="#dddddd" points="304.15,-274.65 311.44,-266.97 300.95,-268.42 304.15,-274.65"/>
<text text-anchor="middle" x="271.32" y="-285.73" font-family="Times,serif" font-size="14.00" fill="#dddddd">1</text>
</g>
<!-- q011&#45;&gt;q110 -->
<g id="edge8" class="edge">
<title>q011&#45;&gt;q110</title>
<path fill="none" stroke="#dddddd" d="M355.12,-144.63C331.38,-120.89 278.97,-68.48 249.7,-39.21"/>
<polygon fill="#dddddd" stroke="#dddddd" points="252.37,-36.93 242.83,-32.34 247.42,-41.88 252.37,-36.93"/>
<text text-anchor="middle" x="299.04" y="-95.12" font-family="Times,serif" font-size="14.00" fill="#dddddd">0</text>
</g>
<!-- q011&#45;&gt;q111 -->
<g id="edge9" class="edge">
<title>q011&#45;&gt;q111</title>
<path fill="none" stroke="#dddddd" d="M360.53,-140.31C354.41,-125.54 345.35,-103.65 338.16,-86.3"/>
<polygon fill="#dddddd" stroke="#dddddd" points="341.4,-84.97 334.34,-77.07 334.93,-87.65 341.4,-84.97"/>
<text text-anchor="middle" x="345.97" y="-116.5" font-family="Times,serif" font-size="14.00" fill="#dddddd">1</text>
</g>
</g>
</svg>
