<?xml version="1.0" encoding="UTF-8" standalone="no"?>
<!DOCTYPE svg PUBLIC "-//W3C//DTD SVG 1.1//EN"
 "http://www.w3.org/Graphics/SVG/1.1/DTD/svg11.dtd">
<!-- Generated by graphviz version 11.0.0 (0)
 -->
<!-- Pages: 1 -->
<svg width="489pt" height="95pt"
 viewBox="0.00 0.00 489.10 95.40" xmlns="http://www.w3.org/2000/svg" xmlns:xlink="http://www.w3.org/1999/xlink">
<g id="graph0" class="graph" transform="scale(1 1) rotate(0) translate(4 91.4)">
<!-- q₀ -->
<g id="node1" class="node">
<title>q₀</title>
<ellipse fill="none" stroke="#dddddd" cx="100.4" cy="-18.4" rx="14.4" ry="14.4"/>
<ellipse fill="none" stroke="#dddddd" cx="100.4" cy="-18.4" rx="18.4" ry="18.4"/>
<text text-anchor="middle" x="100.4" y="-13.35" font-family="Times,serif" font-size="14.00" fill="#dddddd">q₀′</text>
</g>
<!-- q₁ -->
<g id="node3" class="node">
<title>q₁</title>
<ellipse fill="none" stroke="#dddddd" cx="221.55" cy="-18.4" rx="18" ry="18"/>
<text text-anchor="middle" x="221.55" y="-13.35" font-family="Times,serif" font-size="14.00" fill="#dddddd">q₁′</text>
</g>
<!-- q₀&#45;&gt;q₁ -->
<g id="edge2" class="edge">
<title>q₀&#45;&gt;q₁</title>
<path fill="none" stroke="#dddddd" d="M118.73,-18.4C137.98,-18.4 169.38,-18.4 192.22,-18.4"/>
<polygon fill="#dddddd" stroke="#dddddd" points="192.08,-21.9 202.08,-18.4 192.08,-14.9 192.08,-21.9"/>
<text text-anchor="middle" x="161.17" y="-38.1" font-family="Times,serif" font-size="14.00" fill="#dddddd">0, ε → 0</text>
<text text-anchor="middle" x="161.17" y="-21.6" font-family="Times,serif" font-size="14.00" fill="#dddddd">1, ε → 1</text>
</g>
<!-- q₃ -->
<g id="node2" class="node">
<title>q₃</title>
<ellipse fill="none" stroke="#dddddd" cx="462.7" cy="-18.4" rx="14.4" ry="14.4"/>
<ellipse fill="none" stroke="#dddddd" cx="462.7" cy="-18.4" rx="18.4" ry="18.4"/>
<text text-anchor="middle" x="462.7" y="-13.35" font-family="Times,serif" font-size="14.00" fill="#dddddd">q₃′</text>
</g>
<!-- q₁&#45;&gt;q₁ -->
<g id="edge5" class="edge">
<title>q₁&#45;&gt;q₁</title>
<path fill="none" stroke="#dddddd" d="M211.45,-33.19C208.16,-43.82 211.53,-54.4 221.55,-54.4 227.81,-54.4 231.48,-50.27 232.54,-44.57"/>
<polygon fill="#dddddd" stroke="#dddddd" points="236.04,-44.4 231.77,-34.7 229.06,-44.94 236.04,-44.4"/>
<text text-anchor="middle" x="221.55" y="-74.1" font-family="Times,serif" font-size="14.00" fill="#dddddd">0, ε → 0</text>
<text text-anchor="middle" x="221.55" y="-57.6" font-family="Times,serif" font-size="14.00" fill="#dddddd">1, ε → 1</text>
</g>
<!-- q₂ -->
<g id="node4" class="node">
<title>q₂</title>
<ellipse fill="none" stroke="#dddddd" cx="342.3" cy="-18.4" rx="18" ry="18"/>
<text text-anchor="middle" x="342.3" y="-13.35" font-family="Times,serif" font-size="14.00" fill="#dddddd">q₂′</text>
</g>
<!-- q₁&#45;&gt;q₂ -->
<g id="edge3" class="edge">
<title>q₁&#45;&gt;q₂</title>
<path fill="none" stroke="#dddddd" d="M239.31,-18.4C258.5,-18.4 290.23,-18.4 313.2,-18.4"/>
<polygon fill="#dddddd" stroke="#dddddd" points="313.11,-21.9 323.11,-18.4 313.11,-14.9 313.11,-21.9"/>
<text text-anchor="middle" x="281.92" y="-38.1" font-family="Times,serif" font-size="14.00" fill="#dddddd">0, 0 → ε</text>
<text text-anchor="middle" x="281.92" y="-21.6" font-family="Times,serif" font-size="14.00" fill="#dddddd">1, 1 → ε</text>
</g>
<!-- q₂&#45;&gt;q₃ -->
<g id="edge4" class="edge">
<title>q₂&#45;&gt;q₃</title>
<path fill="none" stroke="#dddddd" d="M360.26,-18.4C379.23,-18.4 410.28,-18.4 433.03,-18.4"/>
<polygon fill="#dddddd" stroke="#dddddd" points="432.87,-21.9 442.87,-18.4 432.87,-14.9 432.87,-21.9"/>
<text text-anchor="middle" x="402.3" y="-21.6" font-family="Times,serif" font-size="14.00" fill="#dddddd">ε, $ → ε</text>
</g>
<!-- q₂&#45;&gt;q₂ -->
<g id="edge6" class="edge">
<title>q₂&#45;&gt;q₂</title>
<path fill="none" stroke="#dddddd" d="M332.26,-33.19C328.99,-43.82 332.34,-54.4 342.3,-54.4 348.53,-54.4 352.17,-50.27 353.23,-44.57"/>
<polygon fill="#dddddd" stroke="#dddddd" points="356.72,-44.4 352.46,-34.7 349.74,-44.94 356.72,-44.4"/>
<text text-anchor="middle" x="342.3" y="-74.1" font-family="Times,serif" font-size="14.00" fill="#dddddd">0, 0 → ε</text>
<text text-anchor="middle" x="342.3" y="-57.6" font-family="Times,serif" font-size="14.00" fill="#dddddd">1, 1 → ε</text>
</g>
<!-- start -->
<g id="node5" class="node">
<title>start</title>
<ellipse fill="none" stroke="#dddddd" cx="19.62" cy="-18.4" rx="18" ry="18"/>
<text text-anchor="middle" x="19.62" y="-13.35" font-family="Times,serif" font-size="14.00" fill="#dddddd">start</text>
</g>
<!-- start&#45;&gt;q₀ -->
<g id="edge1" class="edge">
<title>start&#45;&gt;q₀</title>
<path fill="none" stroke="#dddddd" d="M37.33,-18.4C47.02,-18.4 59.48,-18.4 70.69,-18.4"/>
<polygon fill="#dddddd" stroke="#dddddd" points="70.66,-21.9 80.66,-18.4 70.66,-14.9 70.66,-21.9"/>
<text text-anchor="middle" x="60.62" y="-21.6" font-family="Times,serif" font-size="14.00" fill="#dddddd">$</text>
</g>
</g>
</svg>
