<?xml version="1.0" encoding="UTF-8" standalone="no"?>
<!DOCTYPE svg PUBLIC "-//W3C//DTD SVG 1.1//EN"
 "http://www.w3.org/Graphics/SVG/1.1/DTD/svg11.dtd">
<!-- Generated by graphviz version 12.1.2 (0)
 -->
<!-- Pages: 1 -->
<svg width="332pt" height="161pt"
 viewBox="0.00 0.00 332.30 161.40" xmlns="http://www.w3.org/2000/svg" xmlns:xlink="http://www.w3.org/1999/xlink">
<g id="graph0" class="graph" transform="scale(1 1) rotate(0) translate(4 157.4)">
<!-- q₁ -->
<g id="node1" class="node">
<title>q₁</title>
<ellipse fill="none" stroke="#dddddd" cx="305.9" cy="-18.4" rx="14.4" ry="14.4"/>
<ellipse fill="none" stroke="#dddddd" cx="305.9" cy="-18.4" rx="18.4" ry="18.4"/>
<text text-anchor="middle" x="305.9" y="-13.35" font-family="Times,serif" font-size="14.00" fill="#dddddd">q₁</text>
</g>
<!-- start -->
<g id="node2" class="node">
<title>start</title>
<ellipse fill="none" stroke="#dddddd" cx="19.62" cy="-18.4" rx="18" ry="18"/>
<text text-anchor="middle" x="19.62" y="-13.35" font-family="Times,serif" font-size="14.00" fill="#dddddd">start</text>
</g>
<!-- q₀ -->
<g id="node3" class="node">
<title>q₀</title>
<ellipse fill="none" stroke="#dddddd" cx="142.75" cy="-18.4" rx="18" ry="18"/>
<text text-anchor="middle" x="142.75" y="-13.35" font-family="Times,serif" font-size="14.00" fill="#dddddd">q₀</text>
</g>
<!-- start&#45;&gt;q₀ -->
<g id="edge1" class="edge">
<title>start&#45;&gt;q₀</title>
<path fill="none" stroke="#dddddd" d="M37.47,-18.4C57.17,-18.4 90.1,-18.4 113.69,-18.4"/>
<polygon fill="#dddddd" stroke="#dddddd" points="113.54,-21.9 123.54,-18.4 113.54,-14.9 113.54,-21.9"/>
<text text-anchor="middle" x="66.25" y="-21.6" font-family="Times,serif" font-size="14.00" fill="#dddddd">$ S</text>
</g>
<!-- q₀&#45;&gt;q₁ -->
<g id="edge2" class="edge">
<title>q₀&#45;&gt;q₁</title>
<path fill="none" stroke="#dddddd" d="M160.69,-18.4C188.18,-18.4 242.81,-18.4 276.38,-18.4"/>
<polygon fill="#dddddd" stroke="#dddddd" points="276.19,-21.9 286.19,-18.4 276.19,-14.9 276.19,-21.9"/>
<text text-anchor="middle" x="239.88" y="-38.1" font-family="Times,serif" font-size="14.00" fill="#dddddd">ε, $ → ε</text>
<text text-anchor="middle" x="239.88" y="-21.6" font-family="Times,serif" font-size="14.00" fill="#dddddd">ε, $ S → ε</text>
</g>
<!-- q₀&#45;&gt;q₀ -->
<g id="edge3" class="edge">
<title>q₀&#45;&gt;q₀</title>
<path fill="none" stroke="#dddddd" d="M130.77,-31.32C125.31,-42.53 129.3,-54.4 142.75,-54.4 151.78,-54.4 156.55,-49.04 157.05,-42.13"/>
<polygon fill="#dddddd" stroke="#dddddd" points="160.57,-41.84 155.04,-32.8 153.72,-43.31 160.57,-41.84"/>
<text text-anchor="middle" x="142.75" y="-140.1" font-family="Times,serif" font-size="14.00" fill="#dddddd">0, S → 0 S</text>
<text text-anchor="middle" x="142.75" y="-123.6" font-family="Times,serif" font-size="14.00" fill="#dddddd">1, S → 1 S</text>
<text text-anchor="middle" x="142.75" y="-107.1" font-family="Times,serif" font-size="14.00" fill="#dddddd">0, S → 0</text>
<text text-anchor="middle" x="142.75" y="-90.6" font-family="Times,serif" font-size="14.00" fill="#dddddd">1, S → 1</text>
<text text-anchor="middle" x="142.75" y="-74.1" font-family="Times,serif" font-size="14.00" fill="#dddddd">0, 0 →ε</text>
<text text-anchor="middle" x="142.75" y="-57.6" font-family="Times,serif" font-size="14.00" fill="#dddddd">1, 1 → ε</text>
</g>
</g>
</svg>
