<?xml version="1.0" encoding="UTF-8" standalone="no"?>
<!DOCTYPE svg PUBLIC "-//W3C//DTD SVG 1.1//EN"
 "http://www.w3.org/Graphics/SVG/1.1/DTD/svg11.dtd">
<!-- Generated by graphviz version 12.1.2 (0)
 -->
<!-- Pages: 1 -->
<svg width="316pt" height="145pt"
 viewBox="0.00 0.00 315.80 144.90" xmlns="http://www.w3.org/2000/svg" xmlns:xlink="http://www.w3.org/1999/xlink">
<g id="graph0" class="graph" transform="scale(1 1) rotate(0) translate(4 140.9)">
<!-- q₁ -->
<g id="node1" class="node">
<title>q₁</title>
<ellipse fill="none" stroke="#dddddd" cx="289.4" cy="-18.4" rx="14.4" ry="14.4"/>
<ellipse fill="none" stroke="#dddddd" cx="289.4" cy="-18.4" rx="18.4" ry="18.4"/>
<text text-anchor="middle" x="289.4" y="-13.35" font-family="Times,serif" font-size="14.00" fill="#dddddd">q₁</text>
</g>
<!-- start -->
<g id="node2" class="node">
<title>start</title>
<ellipse fill="none" stroke="#dddddd" cx="19.62" cy="-18.4" rx="18" ry="18"/>
<text text-anchor="middle" x="19.62" y="-13.35" font-family="Times,serif" font-size="14.00" fill="#dddddd">start</text>
</g>
<!-- q₀ -->
<g id="node3" class="node">
<title>q₀</title>
<ellipse fill="none" stroke="#dddddd" cx="134.5" cy="-18.4" rx="18" ry="18"/>
<text text-anchor="middle" x="134.5" y="-13.35" font-family="Times,serif" font-size="14.00" fill="#dddddd">q₀</text>
</g>
<!-- start&#45;&gt;q₀ -->
<g id="edge1" class="edge">
<title>start&#45;&gt;q₀</title>
<path fill="none" stroke="#dddddd" d="M37.28,-18.4C55.2,-18.4 84.02,-18.4 105.45,-18.4"/>
<polygon fill="#dddddd" stroke="#dddddd" points="105.26,-21.9 115.26,-18.4 105.26,-14.9 105.26,-21.9"/>
<text text-anchor="middle" x="66.25" y="-21.6" font-family="Times,serif" font-size="14.00" fill="#dddddd">$ S</text>
</g>
<!-- q₀&#45;&gt;q₁ -->
<g id="edge2" class="edge">
<title>q₀&#45;&gt;q₁</title>
<path fill="none" stroke="#dddddd" d="M152.45,-18.4C178.51,-18.4 228.71,-18.4 260.28,-18.4"/>
<polygon fill="#dddddd" stroke="#dddddd" points="259.86,-21.9 269.86,-18.4 259.86,-14.9 259.86,-21.9"/>
<text text-anchor="middle" x="223.38" y="-38.1" font-family="Times,serif" font-size="14.00" fill="#dddddd">ε, $ → ε</text>
<text text-anchor="middle" x="223.38" y="-21.6" font-family="Times,serif" font-size="14.00" fill="#dddddd">ε, $ S → ε</text>
</g>
<!-- q₀&#45;&gt;q₀ -->
<g id="edge3" class="edge">
<title>q₀&#45;&gt;q₀</title>
<path fill="none" stroke="#dddddd" d="M123.36,-32.44C119.19,-43.31 122.9,-54.4 134.5,-54.4 141.93,-54.4 146.12,-49.85 147.08,-43.72"/>
<polygon fill="#dddddd" stroke="#dddddd" points="150.57,-43.42 145.84,-33.94 143.63,-44.31 150.57,-43.42"/>
<text text-anchor="middle" x="134.5" y="-123.6" font-family="Times,serif" font-size="14.00" fill="#dddddd">ε, S → 0 S 0</text>
<text text-anchor="middle" x="134.5" y="-107.1" font-family="Times,serif" font-size="14.00" fill="#dddddd">ε, S → 1 S 1</text>
<text text-anchor="middle" x="134.5" y="-90.6" font-family="Times,serif" font-size="14.00" fill="#dddddd">ε, S → ε</text>
<text text-anchor="middle" x="134.5" y="-74.1" font-family="Times,serif" font-size="14.00" fill="#dddddd">0, 0 →ε</text>
<text text-anchor="middle" x="134.5" y="-57.6" font-family="Times,serif" font-size="14.00" fill="#dddddd">1, 1 → ε</text>
</g>
</g>
</svg>
