<?xml version="1.0" encoding="UTF-8" standalone="no"?>
<!DOCTYPE svg PUBLIC "-//W3C//DTD SVG 1.1//EN"
 "http://www.w3.org/Graphics/SVG/1.1/DTD/svg11.dtd">
<!-- Generated by graphviz version 11.0.0 (0)
 -->
<!-- Pages: 1 -->
<svg width="560pt" height="153pt"
 viewBox="0.00 0.00 560.12 152.80" xmlns="http://www.w3.org/2000/svg" xmlns:xlink="http://www.w3.org/1999/xlink">
<g id="graph0" class="graph" transform="scale(1 1) rotate(0) translate(4 148.8)">
<!-- start1 -->
<g id="node1" class="node">
<title>start1</title>
</g>
<!-- S₁₀ -->
<g id="node3" class="node">
<title>S₁₀</title>
<ellipse fill="#333333" stroke="#dddddd" cx="55.12" cy="-18.4" rx="18" ry="18"/>
<text text-anchor="middle" x="55.12" y="-13.35" font-family="Times,serif" font-size="14.00" fill="#dddddd">S₁₀</text>
</g>
<!-- start1&#45;&gt;S₁₀ -->
<g id="edge1" class="edge">
<title>start1&#45;&gt;S₁₀</title>
<path fill="none" stroke="#dddddd" d="M18.21,-18.4C20.68,-18.4 23.27,-18.4 25.88,-18.4"/>
<polygon fill="#dddddd" stroke="#dddddd" points="25.63,-21.9 35.63,-18.4 25.63,-14.9 25.63,-21.9"/>
</g>
<!-- S₁ -->
<g id="node2" class="node">
<title>S₁</title>
<ellipse fill="#333333" stroke="#dddddd" cx="533.72" cy="-18.4" rx="14.4" ry="14.4"/>
<ellipse fill="none" stroke="#dddddd" cx="533.72" cy="-18.4" rx="18.4" ry="18.4"/>
<text text-anchor="middle" x="533.72" y="-13.35" font-family="Times,serif" font-size="14.00" fill="#dddddd">S₁</text>
</g>
<!-- S₁₁ -->
<g id="node4" class="node">
<title>S₁₁</title>
<ellipse fill="#333333" stroke="#dddddd" cx="137.67" cy="-18.4" rx="18" ry="18"/>
<text text-anchor="middle" x="137.67" y="-13.35" font-family="Times,serif" font-size="14.00" fill="#dddddd">S₁₁</text>
</g>
<!-- S₁₀&#45;&gt;S₁₁ -->
<g id="edge2" class="edge">
<title>S₁₀&#45;&gt;S₁₁</title>
<path fill="none" stroke="#dddddd" d="M72.81,-18.4C83.11,-18.4 96.59,-18.4 108.5,-18.4"/>
<polygon fill="#dddddd" stroke="#dddddd" points="108.21,-21.9 118.21,-18.4 108.21,-14.9 108.21,-21.9"/>
<text text-anchor="middle" x="96.4" y="-21.6" font-family="Times,serif" font-size="14.00" fill="#dddddd">A</text>
</g>
<!-- S₁₂ -->
<g id="node5" class="node">
<title>S₁₂</title>
<ellipse fill="#333333" stroke="#dddddd" cx="216.07" cy="-18.4" rx="18" ry="18"/>
<text text-anchor="middle" x="216.07" y="-13.35" font-family="Times,serif" font-size="14.00" fill="#dddddd">S₁₂</text>
</g>
<!-- S₁₁&#45;&gt;S₁₂ -->
<g id="edge3" class="edge">
<title>S₁₁&#45;&gt;S₁₂</title>
<path fill="none" stroke="#dddddd" d="M155.63,-18.4C164.82,-18.4 176.43,-18.4 186.95,-18.4"/>
<polygon fill="#dddddd" stroke="#dddddd" points="186.65,-21.9 196.65,-18.4 186.65,-14.9 186.65,-21.9"/>
<text text-anchor="middle" x="177.07" y="-21.6" font-family="Times,serif" font-size="14.00" fill="#dddddd">a</text>
</g>
<!-- S₁₃ -->
<g id="node6" class="node">
<title>S₁₃</title>
<ellipse fill="#333333" stroke="#dddddd" cx="294.82" cy="-18.4" rx="18" ry="18"/>
<text text-anchor="middle" x="294.82" y="-13.35" font-family="Times,serif" font-size="14.00" fill="#dddddd">S₁₃</text>
</g>
<!-- S₁₂&#45;&gt;S₁₃ -->
<g id="edge4" class="edge">
<title>S₁₂&#45;&gt;S₁₃</title>
<path fill="none" stroke="#dddddd" d="M233.72,-18.4C243.01,-18.4 254.83,-18.4 265.53,-18.4"/>
<polygon fill="#dddddd" stroke="#dddddd" points="265.42,-21.9 275.42,-18.4 265.42,-14.9 265.42,-21.9"/>
<text text-anchor="middle" x="255.44" y="-21.6" font-family="Times,serif" font-size="14.00" fill="#dddddd">b</text>
</g>
<!-- S₁₄ -->
<g id="node7" class="node">
<title>S₁₄</title>
<ellipse fill="#333333" stroke="#dddddd" cx="376.57" cy="-18.4" rx="18" ry="18"/>
<text text-anchor="middle" x="376.57" y="-13.35" font-family="Times,serif" font-size="14.00" fill="#dddddd">S₁₄</text>
</g>
<!-- S₁₃&#45;&gt;S₁₄ -->
<g id="edge5" class="edge">
<title>S₁₃&#45;&gt;S₁₄</title>
<path fill="none" stroke="#dddddd" d="M312.73,-18.4C322.78,-18.4 335.77,-18.4 347.33,-18.4"/>
<polygon fill="#dddddd" stroke="#dddddd" points="347.17,-21.9 357.17,-18.4 347.17,-14.9 347.17,-21.9"/>
<text text-anchor="middle" x="335.69" y="-21.6" font-family="Times,serif" font-size="14.00" fill="#dddddd">A</text>
</g>
<!-- S₁₅ -->
<g id="node8" class="node">
<title>S₁₅</title>
<ellipse fill="#333333" stroke="#dddddd" cx="455.32" cy="-18.4" rx="18" ry="18"/>
<text text-anchor="middle" x="455.32" y="-13.35" font-family="Times,serif" font-size="14.00" fill="#dddddd">S₁₅</text>
</g>
<!-- S₁₄&#45;&gt;S₁₅ -->
<g id="edge6" class="edge">
<title>S₁₄&#45;&gt;S₁₅</title>
<path fill="none" stroke="#dddddd" d="M394.22,-18.4C403.51,-18.4 415.33,-18.4 426.03,-18.4"/>
<polygon fill="#dddddd" stroke="#dddddd" points="425.92,-21.9 435.92,-18.4 425.92,-14.9 425.92,-21.9"/>
<text text-anchor="middle" x="415.94" y="-21.6" font-family="Times,serif" font-size="14.00" fill="#dddddd">b</text>
</g>
<!-- S₁₅&#45;&gt;S₁ -->
<g id="edge7" class="edge">
<title>S₁₅&#45;&gt;S₁</title>
<path fill="none" stroke="#dddddd" d="M473.28,-18.4C482.31,-18.4 493.67,-18.4 504.04,-18.4"/>
<polygon fill="#dddddd" stroke="#dddddd" points="504.03,-21.9 514.03,-18.4 504.03,-14.9 504.03,-21.9"/>
<text text-anchor="middle" x="494.32" y="-21.6" font-family="Times,serif" font-size="14.00" fill="#dddddd">a</text>
</g>
<!-- start2 -->
<g id="node9" class="node">
<title>start2</title>
</g>
<!-- A₂₀ -->
<g id="node11" class="node">
<title>A₂₀</title>
<ellipse fill="#555555" stroke="#dddddd" cx="55.12" cy="-72.4" rx="18" ry="18"/>
<text text-anchor="middle" x="55.12" y="-67.35" font-family="Times,serif" font-size="14.00" fill="#dddddd">A₂₀</text>
</g>
<!-- start2&#45;&gt;A₂₀ -->
<g id="edge8" class="edge">
<title>start2&#45;&gt;A₂₀</title>
<path fill="none" stroke="#dddddd" d="M18.21,-72.4C20.68,-72.4 23.27,-72.4 25.88,-72.4"/>
<polygon fill="#dddddd" stroke="#dddddd" points="25.63,-75.9 35.63,-72.4 25.63,-68.9 25.63,-75.9"/>
</g>
<!-- A₂ -->
<g id="node10" class="node">
<title>A₂</title>
<ellipse fill="#555555" stroke="#dddddd" cx="137.67" cy="-72.4" rx="14.4" ry="14.4"/>
<ellipse fill="none" stroke="#dddddd" cx="137.67" cy="-72.4" rx="18.4" ry="18.4"/>
<text text-anchor="middle" x="137.67" y="-67.35" font-family="Times,serif" font-size="14.00" fill="#dddddd">A₂</text>
</g>
<!-- A₂₀&#45;&gt;A₂ -->
<g id="edge9" class="edge">
<title>A₂₀&#45;&gt;A₂</title>
<path fill="none" stroke="#dddddd" d="M72.81,-72.4C83.04,-72.4 96.4,-72.4 108.26,-72.4"/>
<polygon fill="#dddddd" stroke="#dddddd" points="107.93,-75.9 117.93,-72.4 107.93,-68.9 107.93,-75.9"/>
<text text-anchor="middle" x="96.4" y="-75.6" font-family="Times,serif" font-size="14.00" fill="#dddddd">a</text>
</g>
<!-- start3 -->
<g id="node12" class="node">
<title>start3</title>
</g>
<!-- A₃ -->
<g id="node13" class="node">
<title>A₃</title>
<ellipse fill="#777777" stroke="#dddddd" cx="55.12" cy="-126.4" rx="14.4" ry="14.4"/>
<ellipse fill="none" stroke="#dddddd" cx="55.12" cy="-126.4" rx="18.4" ry="18.4"/>
<text text-anchor="middle" x="55.12" y="-121.35" font-family="Times,serif" font-size="14.00" fill="#dddddd">A₃</text>
</g>
<!-- start3&#45;&gt;A₃ -->
<g id="edge10" class="edge">
<title>start3&#45;&gt;A₃</title>
<path fill="none" stroke="#dddddd" d="M18.21,-126.4C20.53,-126.4 22.97,-126.4 25.43,-126.4"/>
<polygon fill="#dddddd" stroke="#dddddd" points="25.26,-129.9 35.26,-126.4 25.26,-122.9 25.26,-129.9"/>
</g>
</g>
</svg>
