<?xml version="1.0" encoding="UTF-8" standalone="no"?>
<!DOCTYPE svg PUBLIC "-//W3C//DTD SVG 1.1//EN"
 "http://www.w3.org/Graphics/SVG/1.1/DTD/svg11.dtd">
<!-- Generated by graphviz version 12.1.2 (0)
 -->
<!-- Pages: 1 -->
<svg width="561pt" height="153pt"
 viewBox="0.00 0.00 561.12 152.80" xmlns="http://www.w3.org/2000/svg" xmlns:xlink="http://www.w3.org/1999/xlink">
<g id="graph0" class="graph" transform="scale(1 1) rotate(0) translate(4 148.8)">
<!-- start1 -->
<g id="node1" class="node">
<title>start1</title>
</g>
<!-- S₁₀ -->
<g id="node3" class="node">
<title>S₁₀</title>
<ellipse fill="#333333" stroke="#dddddd" cx="56.12" cy="-18.4" rx="18" ry="18"/>
<text text-anchor="middle" x="56.12" y="-13.35" font-family="Times,serif" font-size="14.00" fill="#dddddd">S₁₀</text>
</g>
<!-- start1&#45;&gt;S₁₀ -->
<g id="edge1" class="edge">
<title>start1&#45;&gt;S₁₀</title>
<path fill="none" stroke="#dddddd" d="M18.23,-18.4C21.06,-18.4 24.05,-18.4 27.05,-18.4"/>
<polygon fill="#dddddd" stroke="#dddddd" points="26.87,-21.9 36.87,-18.4 26.87,-14.9 26.87,-21.9"/>
</g>
<!-- S₁ -->
<g id="node2" class="node">
<title>S₁</title>
<ellipse fill="#333333" stroke="#dddddd" cx="534.72" cy="-18.4" rx="14.4" ry="14.4"/>
<ellipse fill="none" stroke="#dddddd" cx="534.72" cy="-18.4" rx="18.4" ry="18.4"/>
<text text-anchor="middle" x="534.72" y="-13.35" font-family="Times,serif" font-size="14.00" fill="#dddddd">S₁</text>
</g>
<!-- S₁₁ -->
<g id="node4" class="node">
<title>S₁₁</title>
<ellipse fill="#333333" stroke="#dddddd" cx="138.67" cy="-18.4" rx="18" ry="18"/>
<text text-anchor="middle" x="138.67" y="-13.35" font-family="Times,serif" font-size="14.00" fill="#dddddd">S₁₁</text>
</g>
<!-- S₁₀&#45;&gt;S₁₁ -->
<g id="edge2" class="edge">
<title>S₁₀&#45;&gt;S₁₁</title>
<path fill="none" stroke="#dddddd" d="M73.81,-18.4C84.11,-18.4 97.59,-18.4 109.5,-18.4"/>
<polygon fill="#dddddd" stroke="#dddddd" points="109.21,-21.9 119.21,-18.4 109.21,-14.9 109.21,-21.9"/>
<text text-anchor="middle" x="97.4" y="-21.6" font-family="Times,serif" font-size="14.00" fill="#dddddd">A</text>
</g>
<!-- S₁₂ -->
<g id="node5" class="node">
<title>S₁₂</title>
<ellipse fill="#333333" stroke="#dddddd" cx="217.07" cy="-18.4" rx="18" ry="18"/>
<text text-anchor="middle" x="217.07" y="-13.35" font-family="Times,serif" font-size="14.00" fill="#dddddd">S₁₂</text>
</g>
<!-- S₁₁&#45;&gt;S₁₂ -->
<g id="edge3" class="edge">
<title>S₁₁&#45;&gt;S₁₂</title>
<path fill="none" stroke="#dddddd" d="M156.63,-18.4C165.82,-18.4 177.43,-18.4 187.95,-18.4"/>
<polygon fill="#dddddd" stroke="#dddddd" points="187.65,-21.9 197.65,-18.4 187.65,-14.9 187.65,-21.9"/>
<text text-anchor="middle" x="178.07" y="-21.6" font-family="Times,serif" font-size="14.00" fill="#dddddd">a</text>
</g>
<!-- S₁₃ -->
<g id="node6" class="node">
<title>S₁₃</title>
<ellipse fill="#333333" stroke="#dddddd" cx="295.82" cy="-18.4" rx="18" ry="18"/>
<text text-anchor="middle" x="295.82" y="-13.35" font-family="Times,serif" font-size="14.00" fill="#dddddd">S₁₃</text>
</g>
<!-- S₁₂&#45;&gt;S₁₃ -->
<g id="edge4" class="edge">
<title>S₁₂&#45;&gt;S₁₃</title>
<path fill="none" stroke="#dddddd" d="M234.72,-18.4C244.01,-18.4 255.83,-18.4 266.53,-18.4"/>
<polygon fill="#dddddd" stroke="#dddddd" points="266.42,-21.9 276.42,-18.4 266.42,-14.9 266.42,-21.9"/>
<text text-anchor="middle" x="256.44" y="-21.6" font-family="Times,serif" font-size="14.00" fill="#dddddd">b</text>
</g>
<!-- S₁₄ -->
<g id="node7" class="node">
<title>S₁₄</title>
<ellipse fill="#333333" stroke="#dddddd" cx="377.57" cy="-18.4" rx="18" ry="18"/>
<text text-anchor="middle" x="377.57" y="-13.35" font-family="Times,serif" font-size="14.00" fill="#dddddd">S₁₄</text>
</g>
<!-- S₁₃&#45;&gt;S₁₄ -->
<g id="edge5" class="edge">
<title>S₁₃&#45;&gt;S₁₄</title>
<path fill="none" stroke="#dddddd" d="M313.73,-18.4C323.78,-18.4 336.77,-18.4 348.33,-18.4"/>
<polygon fill="#dddddd" stroke="#dddddd" points="348.17,-21.9 358.17,-18.4 348.17,-14.9 348.17,-21.9"/>
<text text-anchor="middle" x="336.69" y="-21.6" font-family="Times,serif" font-size="14.00" fill="#dddddd">A</text>
</g>
<!-- S₁₅ -->
<g id="node8" class="node">
<title>S₁₅</title>
<ellipse fill="#333333" stroke="#dddddd" cx="456.32" cy="-18.4" rx="18" ry="18"/>
<text text-anchor="middle" x="456.32" y="-13.35" font-family="Times,serif" font-size="14.00" fill="#dddddd">S₁₅</text>
</g>
<!-- S₁₄&#45;&gt;S₁₅ -->
<g id="edge6" class="edge">
<title>S₁₄&#45;&gt;S₁₅</title>
<path fill="none" stroke="#dddddd" d="M395.22,-18.4C404.51,-18.4 416.33,-18.4 427.03,-18.4"/>
<polygon fill="#dddddd" stroke="#dddddd" points="426.92,-21.9 436.92,-18.4 426.92,-14.9 426.92,-21.9"/>
<text text-anchor="middle" x="416.94" y="-21.6" font-family="Times,serif" font-size="14.00" fill="#dddddd">b</text>
</g>
<!-- S₁₅&#45;&gt;S₁ -->
<g id="edge7" class="edge">
<title>S₁₅&#45;&gt;S₁</title>
<path fill="none" stroke="#dddddd" d="M474.28,-18.4C483.31,-18.4 494.67,-18.4 505.04,-18.4"/>
<polygon fill="#dddddd" stroke="#dddddd" points="505.03,-21.9 515.03,-18.4 505.03,-14.9 505.03,-21.9"/>
<text text-anchor="middle" x="495.32" y="-21.6" font-family="Times,serif" font-size="14.00" fill="#dddddd">a</text>
</g>
<!-- start2 -->
<g id="node9" class="node">
<title>start2</title>
</g>
<!-- A₂₀ -->
<g id="node11" class="node">
<title>A₂₀</title>
<ellipse fill="#555555" stroke="#dddddd" cx="56.12" cy="-72.4" rx="18" ry="18"/>
<text text-anchor="middle" x="56.12" y="-67.35" font-family="Times,serif" font-size="14.00" fill="#dddddd">A₂₀</text>
</g>
<!-- start2&#45;&gt;A₂₀ -->
<g id="edge8" class="edge">
<title>start2&#45;&gt;A₂₀</title>
<path fill="none" stroke="#dddddd" d="M18.23,-72.4C21.06,-72.4 24.05,-72.4 27.05,-72.4"/>
<polygon fill="#dddddd" stroke="#dddddd" points="26.87,-75.9 36.87,-72.4 26.87,-68.9 26.87,-75.9"/>
</g>
<!-- A₂ -->
<g id="node10" class="node">
<title>A₂</title>
<ellipse fill="#555555" stroke="#dddddd" cx="138.67" cy="-72.4" rx="14.4" ry="14.4"/>
<ellipse fill="none" stroke="#dddddd" cx="138.67" cy="-72.4" rx="18.4" ry="18.4"/>
<text text-anchor="middle" x="138.67" y="-67.35" font-family="Times,serif" font-size="14.00" fill="#dddddd">A₂</text>
</g>
<!-- A₂₀&#45;&gt;A₂ -->
<g id="edge9" class="edge">
<title>A₂₀&#45;&gt;A₂</title>
<path fill="none" stroke="#dddddd" d="M73.81,-72.4C84.04,-72.4 97.4,-72.4 109.26,-72.4"/>
<polygon fill="#dddddd" stroke="#dddddd" points="108.93,-75.9 118.93,-72.4 108.93,-68.9 108.93,-75.9"/>
<text text-anchor="middle" x="97.4" y="-75.6" font-family="Times,serif" font-size="14.00" fill="#dddddd">a</text>
</g>
<!-- start3 -->
<g id="node12" class="node">
<title>start3</title>
</g>
<!-- A₃ -->
<g id="node13" class="node">
<title>A₃</title>
<ellipse fill="#777777" stroke="#dddddd" cx="56.12" cy="-126.4" rx="14.4" ry="14.4"/>
<ellipse fill="none" stroke="#dddddd" cx="56.12" cy="-126.4" rx="18.4" ry="18.4"/>
<text text-anchor="middle" x="56.12" y="-121.35" font-family="Times,serif" font-size="14.00" fill="#dddddd">A₃</text>
</g>
<!-- start3&#45;&gt;A₃ -->
<g id="edge10" class="edge">
<title>start3&#45;&gt;A₃</title>
<path fill="none" stroke="#dddddd" d="M18.23,-126.4C20.91,-126.4 23.72,-126.4 26.56,-126.4"/>
<polygon fill="#dddddd" stroke="#dddddd" points="26.5,-129.9 36.5,-126.4 26.5,-122.9 26.5,-129.9"/>
</g>
</g>
</svg>
