<?xml version="1.0" encoding="UTF-8" standalone="no"?>
<!DOCTYPE svg PUBLIC "-//W3C//DTD SVG 1.1//EN"
 "http://www.w3.org/Graphics/SVG/1.1/DTD/svg11.dtd">
<!-- Generated by graphviz version 12.1.1 (0)
 -->
<!-- Pages: 1 -->
<svg width="560pt" height="200pt"
 viewBox="0.00 0.00 559.77 199.90" xmlns="http://www.w3.org/2000/svg" xmlns:xlink="http://www.w3.org/1999/xlink">
<g id="graph0" class="graph" transform="scale(1 1) rotate(0) translate(4 195.9)">
<!-- start1 -->
<g id="node1" class="node">
<title>start1</title>
</g>
<!-- S₁₀ -->
<g id="node4" class="node">
<title>S₁₀</title>
<ellipse fill="#333333" stroke="#dddddd" cx="55.84" cy="-101.9" rx="18" ry="18"/>
<text text-anchor="middle" x="55.84" y="-96.85" font-family="Times,serif" font-size="14.00" fill="#dddddd">S₁₀</text>
</g>
<!-- start1&#45;&gt;S₁₀ -->
<g id="edge4" class="edge">
<title>start1&#45;&gt;S₁₀</title>
<path fill="none" stroke="#dddddd" d="M18.14,-101.9C20.96,-101.9 23.93,-101.9 26.91,-101.9"/>
<polygon fill="#dddddd" stroke="#dddddd" points="26.68,-105.4 36.68,-101.9 26.68,-98.4 26.68,-105.4"/>
</g>
<!-- S₁ -->
<g id="node2" class="node">
<title>S₁</title>
<ellipse fill="#333333" stroke="#dddddd" cx="533.37" cy="-101.9" rx="14.4" ry="14.4"/>
<ellipse fill="none" stroke="#dddddd" cx="533.37" cy="-101.9" rx="18.4" ry="18.4"/>
<text text-anchor="middle" x="533.37" y="-96.85" font-family="Times,serif" font-size="14.00" fill="#dddddd">S₁</text>
</g>
<!-- A₂₀ -->
<g id="node3" class="node">
<title>A₂₀</title>
<ellipse fill="#555555" stroke="#dddddd" cx="55.84" cy="-29.9" rx="18" ry="18"/>
<text text-anchor="middle" x="55.84" y="-24.85" font-family="Times,serif" font-size="14.00" fill="#dddddd">A₂₀</text>
</g>
<!-- A₂ -->
<g id="node5" class="node">
<title>A₂</title>
<ellipse fill="#555555" stroke="#dddddd" cx="137.72" cy="-29.9" rx="18" ry="18"/>
<text text-anchor="middle" x="137.72" y="-24.85" font-family="Times,serif" font-size="14.00" fill="#dddddd">A₂</text>
</g>
<!-- A₂₀&#45;&gt;A₂ -->
<g id="edge11" class="edge">
<title>A₂₀&#45;&gt;A₂</title>
<path fill="none" stroke="#dddddd" d="M73.78,-29.9C83.84,-29.9 96.86,-29.9 108.44,-29.9"/>
<polygon fill="#dddddd" stroke="#dddddd" points="108.29,-33.4 118.29,-29.9 108.29,-26.4 108.29,-33.4"/>
<text text-anchor="middle" x="96.84" y="-33.1" font-family="Times,serif" font-size="14.00" fill="#dddddd">a</text>
</g>
<!-- S₁₀&#45;&gt;A₂₀ -->
<!-- S₁₀&#45;&gt;A₂₀ -->
<g id="edge12" class="edge">
<title>S₁₀&#45;&gt;A₂₀</title>
<path fill="none" stroke="#dddddd" d="M46.68,-86.45C42.34,-76.39 41.19,-66.34 43.22,-56.28"/>
<polygon fill="#dddddd" stroke="#dddddd" points="46.54,-57.41 46.22,-46.82 39.86,-55.29 46.54,-57.41"/>
<text text-anchor="middle" x="57.87" y="-71.4" font-family="Times,serif" font-size="14.00" fill="#dddddd">↓S₁₁</text>
</g>
<!-- A₃ -->
<g id="node6" class="node">
<title>A₃</title>
<ellipse fill="#777777" stroke="#dddddd" cx="137.72" cy="-173.9" rx="18" ry="18"/>
<text text-anchor="middle" x="137.72" y="-168.85" font-family="Times,serif" font-size="14.00" fill="#dddddd">A₃</text>
</g>
<!-- S₁₀&#45;&gt;A₃ -->
<g id="edge14" class="edge">
<title>S₁₀&#45;&gt;A₃</title>
<path fill="none" stroke="#dddddd" d="M69.33,-113.15C81.68,-124.29 100.83,-141.55 115.56,-154.83"/>
<polygon fill="#dddddd" stroke="#dddddd" points="113.17,-157.39 122.94,-161.48 117.85,-152.19 113.17,-157.39"/>
<text text-anchor="middle" x="65.68" y="-125.22" font-family="Times,serif" font-size="14.00" fill="#dddddd">↓S₁₁</text>
</g>
<!-- S₁₁ -->
<g id="node7" class="node">
<title>S₁₁</title>
<ellipse fill="#333333" stroke="#dddddd" cx="137.72" cy="-101.9" rx="18" ry="18"/>
<text text-anchor="middle" x="137.72" y="-96.85" font-family="Times,serif" font-size="14.00" fill="#dddddd">S₁₁</text>
</g>
<!-- S₁₀&#45;&gt;S₁₁ -->
<g id="edge5" class="edge">
<title>S₁₀&#45;&gt;S₁₁</title>
<path fill="none" stroke="#dddddd" stroke-opacity="0.250980" d="M73.78,-101.9C83.84,-101.9 96.86,-101.9 108.44,-101.9"/>
<polygon fill="#dddddd" fill-opacity="0.250980" stroke="#dddddd" stroke-opacity="0.250980" points="108.29,-105.4 118.29,-101.9 108.29,-98.4 108.29,-105.4"/>
<text text-anchor="middle" x="96.84" y="-105.1" font-family="Times,serif" font-size="14.00" fill="#dddddd" fill-opacity="0.250980">A</text>
</g>
<!-- A₂&#45;&gt;S₁₁ -->
<g id="edge13" class="edge">
<title>A₂&#45;&gt;S₁₁</title>
<path fill="none" stroke="#dddddd" d="M128.61,-45.37C124.31,-55.43 123.17,-65.48 125.19,-75.54"/>
<polygon fill="#dddddd" stroke="#dddddd" points="121.82,-76.51 128.16,-85 128.5,-74.41 121.82,-76.51"/>
<text text-anchor="middle" x="141.03" y="-56" font-family="Times,serif" font-size="14.00" fill="#dddddd">↑S₁₁</text>
</g>
<!-- S₁₄ -->
<g id="node10" class="node">
<title>S₁₄</title>
<ellipse fill="#333333" stroke="#dddddd" cx="376.22" cy="-101.9" rx="18" ry="18"/>
<text text-anchor="middle" x="376.22" y="-96.85" font-family="Times,serif" font-size="14.00" fill="#dddddd">S₁₄</text>
</g>
<!-- A₂&#45;&gt;S₁₄ -->
<g id="edge17" class="edge">
<title>A₂&#45;&gt;S₁₄</title>
<path fill="none" stroke="#dddddd" d="M155.26,-33.3C186.43,-39.9 255.87,-55.52 312.47,-74.9 324.92,-79.17 338.38,-84.81 349.62,-89.83"/>
<polygon fill="#dddddd" stroke="#dddddd" points="348.08,-92.98 358.63,-93.95 350.99,-86.61 348.08,-92.98"/>
<text text-anchor="middle" x="167.53" y="-44.04" font-family="Times,serif" font-size="14.00" fill="#dddddd">↑S₁₄</text>
</g>
<!-- A₃&#45;&gt;S₁₁ -->
<!-- A₃&#45;&gt;S₁₁ -->
<g id="edge15" class="edge">
<title>A₃&#45;&gt;S₁₁</title>
<path fill="none" stroke="#dddddd" d="M128.62,-158.45C124.31,-148.39 123.17,-138.34 125.18,-128.28"/>
<polygon fill="#dddddd" stroke="#dddddd" points="128.5,-129.41 128.16,-118.82 121.82,-127.31 128.5,-129.41"/>
<text text-anchor="middle" x="141.03" y="-137.71" font-family="Times,serif" font-size="14.00" fill="#dddddd">↑S₁₁</text>
</g>
<!-- A₃&#45;&gt;S₁₄ -->
<g id="edge19" class="edge">
<title>A₃&#45;&gt;S₁₄</title>
<path fill="none" stroke="#dddddd" d="M155.51,-171.56C190.87,-166.22 275.08,-151.36 340.22,-122.9 343.97,-121.27 347.81,-119.3 351.51,-117.23"/>
<polygon fill="#dddddd" stroke="#dddddd" points="353.27,-120.26 360.06,-112.12 349.68,-114.25 353.27,-120.26"/>
<text text-anchor="middle" x="172.65" y="-176.82" font-family="Times,serif" font-size="14.00" fill="#dddddd">↑ S₁₄</text>
</g>
<!-- S₁₁&#45;&gt;A₂ -->
<!-- S₁₂ -->
<g id="node8" class="node">
<title>S₁₂</title>
<ellipse fill="#333333" stroke="#dddddd" cx="215.72" cy="-101.9" rx="18" ry="18"/>
<text text-anchor="middle" x="215.72" y="-96.85" font-family="Times,serif" font-size="14.00" fill="#dddddd">S₁₂</text>
</g>
<!-- S₁₁&#45;&gt;S₁₂ -->
<g id="edge6" class="edge">
<title>S₁₁&#45;&gt;S₁₂</title>
<path fill="none" stroke="#dddddd" d="M155.59,-101.9C164.64,-101.9 176.04,-101.9 186.41,-101.9"/>
<polygon fill="#dddddd" stroke="#dddddd" points="186.39,-105.4 196.39,-101.9 186.39,-98.4 186.39,-105.4"/>
<text text-anchor="middle" x="176.72" y="-105.1" font-family="Times,serif" font-size="14.00" fill="#dddddd">a</text>
</g>
<!-- S₁₃ -->
<g id="node9" class="node">
<title>S₁₃</title>
<ellipse fill="#333333" stroke="#dddddd" cx="294.47" cy="-101.9" rx="18" ry="18"/>
<text text-anchor="middle" x="294.47" y="-96.85" font-family="Times,serif" font-size="14.00" fill="#dddddd">S₁₃</text>
</g>
<!-- S₁₂&#45;&gt;S₁₃ -->
<g id="edge7" class="edge">
<title>S₁₂&#45;&gt;S₁₃</title>
<path fill="none" stroke="#dddddd" d="M233.37,-101.9C242.66,-101.9 254.48,-101.9 265.18,-101.9"/>
<polygon fill="#dddddd" stroke="#dddddd" points="265.07,-105.4 275.07,-101.9 265.07,-98.4 265.07,-105.4"/>
<text text-anchor="middle" x="255.09" y="-105.1" font-family="Times,serif" font-size="14.00" fill="#dddddd">b</text>
</g>
<!-- S₁₃&#45;&gt;A₂₀ -->
<g id="edge16" class="edge">
<title>S₁₃&#45;&gt;A₂₀</title>
<path fill="none" stroke="#dddddd" d="M281.69,-89.33C259.59,-66.77 209.26,-20.15 155.72,-2.9 130.45,5.24 101.05,-5.28 80.92,-15.47"/>
<polygon fill="#dddddd" stroke="#dddddd" points="79.5,-12.27 72.37,-20.11 82.83,-18.42 79.5,-12.27"/>
<text text-anchor="middle" x="252.14" y="-79.1" font-family="Times,serif" font-size="14.00" fill="#dddddd">↓S₁₄</text>
</g>
<!-- S₁₃&#45;&gt;A₃ -->
<g id="edge18" class="edge">
<title>S₁₃&#45;&gt;A₃</title>
<path fill="none" stroke="#dddddd" d="M279.13,-111.25C272.92,-115.11 265.47,-119.47 258.47,-122.9 222.18,-140.7 210.58,-139.3 173.72,-155.9 170.46,-157.37 167.07,-158.99 163.74,-160.64"/>
<polygon fill="#dddddd" stroke="#dddddd" points="162.2,-157.5 154.89,-165.16 165.39,-163.73 162.2,-157.5"/>
<text text-anchor="middle" x="276.22" y="-125.99" font-family="Times,serif" font-size="14.00" fill="#dddddd">↓S₁₄</text>
</g>
<!-- S₁₃&#45;&gt;S₁₄ -->
<g id="edge8" class="edge">
<title>S₁₃&#45;&gt;S₁₄</title>
<path fill="none" stroke="#dddddd" stroke-opacity="0.250980" d="M312.38,-101.9C322.43,-101.9 335.42,-101.9 346.98,-101.9"/>
<polygon fill="#dddddd" fill-opacity="0.250980" stroke="#dddddd" stroke-opacity="0.250980" points="346.82,-105.4 356.82,-101.9 346.82,-98.4 346.82,-105.4"/>
<text text-anchor="middle" x="335.34" y="-105.1" font-family="Times,serif" font-size="14.00" fill="#dddddd" fill-opacity="0.250980">A</text>
</g>
<!-- S₁₅ -->
<g id="node11" class="node">
<title>S₁₅</title>
<ellipse fill="#333333" stroke="#dddddd" cx="454.97" cy="-101.9" rx="18" ry="18"/>
<text text-anchor="middle" x="454.97" y="-96.85" font-family="Times,serif" font-size="14.00" fill="#dddddd">S₁₅</text>
</g>
<!-- S₁₄&#45;&gt;S₁₅ -->
<g id="edge9" class="edge">
<title>S₁₄&#45;&gt;S₁₅</title>
<path fill="none" stroke="#dddddd" d="M393.87,-101.9C403.16,-101.9 414.98,-101.9 425.68,-101.9"/>
<polygon fill="#dddddd" stroke="#dddddd" points="425.57,-105.4 435.57,-101.9 425.57,-98.4 425.57,-105.4"/>
<text text-anchor="middle" x="415.59" y="-105.1" font-family="Times,serif" font-size="14.00" fill="#dddddd">b</text>
</g>
<!-- S₁₅&#45;&gt;S₁ -->
<g id="edge10" class="edge">
<title>S₁₅&#45;&gt;S₁</title>
<path fill="none" stroke="#dddddd" d="M472.93,-101.9C481.96,-101.9 493.32,-101.9 503.69,-101.9"/>
<polygon fill="#dddddd" stroke="#dddddd" points="503.68,-105.4 513.68,-101.9 503.68,-98.4 503.68,-105.4"/>
<text text-anchor="middle" x="493.97" y="-105.1" font-family="Times,serif" font-size="14.00" fill="#dddddd">a</text>
</g>
</g>
</svg>
