<?xml version="1.0" encoding="UTF-8" standalone="no"?>
<!DOCTYPE svg PUBLIC "-//W3C//DTD SVG 1.1//EN"
 "http://www.w3.org/Graphics/SVG/1.1/DTD/svg11.dtd">
<!-- Generated by graphviz version 11.0.0 (0)
 -->
<!-- Pages: 1 -->
<svg width="559pt" height="199pt"
 viewBox="0.00 0.00 558.77 199.38" xmlns="http://www.w3.org/2000/svg" xmlns:xlink="http://www.w3.org/1999/xlink">
<g id="graph0" class="graph" transform="scale(1 1) rotate(0) translate(4 195.38)">
<!-- start1 -->
<g id="node1" class="node">
<title>start1</title>
</g>
<!-- S₁₀ -->
<g id="node4" class="node">
<title>S₁₀</title>
<ellipse fill="#333333" stroke="#dddddd" cx="54.84" cy="-101.38" rx="18" ry="18"/>
<text text-anchor="middle" x="54.84" y="-96.33" font-family="Times,serif" font-size="14.00" fill="#dddddd">S₁₀</text>
</g>
<!-- start1&#45;&gt;S₁₀ -->
<g id="edge4" class="edge">
<title>start1&#45;&gt;S₁₀</title>
<path fill="none" stroke="#dddddd" d="M18.12,-101.38C20.48,-101.38 22.95,-101.38 25.45,-101.38"/>
<polygon fill="#dddddd" stroke="#dddddd" points="25.44,-104.88 35.44,-101.38 25.44,-97.88 25.44,-104.88"/>
</g>
<!-- S₁ -->
<g id="node2" class="node">
<title>S₁</title>
<ellipse fill="#333333" stroke="#dddddd" cx="532.37" cy="-101.38" rx="14.4" ry="14.4"/>
<ellipse fill="none" stroke="#dddddd" cx="532.37" cy="-101.38" rx="18.4" ry="18.4"/>
<text text-anchor="middle" x="532.37" y="-96.33" font-family="Times,serif" font-size="14.00" fill="#dddddd">S₁</text>
</g>
<!-- A₂₀ -->
<g id="node3" class="node">
<title>A₂₀</title>
<ellipse fill="#555555" stroke="#dddddd" cx="54.84" cy="-29.38" rx="18" ry="18"/>
<text text-anchor="middle" x="54.84" y="-24.33" font-family="Times,serif" font-size="14.00" fill="#dddddd">A₂₀</text>
</g>
<!-- A₂ -->
<g id="node5" class="node">
<title>A₂</title>
<ellipse fill="#555555" stroke="#dddddd" cx="136.72" cy="-29.38" rx="18" ry="18"/>
<text text-anchor="middle" x="136.72" y="-24.33" font-family="Times,serif" font-size="14.00" fill="#dddddd">A₂</text>
</g>
<!-- A₂₀&#45;&gt;A₂ -->
<g id="edge11" class="edge">
<title>A₂₀&#45;&gt;A₂</title>
<path fill="none" stroke="#dddddd" d="M72.78,-29.38C82.84,-29.38 95.86,-29.38 107.44,-29.38"/>
<polygon fill="#dddddd" stroke="#dddddd" points="107.29,-32.88 117.29,-29.38 107.29,-25.88 107.29,-32.88"/>
<text text-anchor="middle" x="95.84" y="-32.58" font-family="Times,serif" font-size="14.00" fill="#dddddd">a</text>
</g>
<!-- S₁₀&#45;&gt;A₂₀ -->
<!-- S₁₀&#45;&gt;A₂₀ -->
<g id="edge12" class="edge">
<title>S₁₀&#45;&gt;A₂₀</title>
<path fill="none" stroke="#dddddd" d="M56.9,-83.83C57.42,-77.97 57.84,-71.4 57.84,-65.38 57.84,-63.03 57.78,-60.6 57.67,-58.15"/>
<polygon fill="#dddddd" stroke="#dddddd" points="61.18,-58.18 57,-48.45 54.2,-58.66 61.18,-58.18"/>
<text text-anchor="middle" x="71.38" y="-74.89" font-family="Times,serif" font-size="14.00" fill="#dddddd">↓S₁₁</text>
</g>
<!-- A₃ -->
<g id="node6" class="node">
<title>A₃</title>
<ellipse fill="#777777" stroke="#dddddd" cx="136.72" cy="-173.38" rx="18" ry="18"/>
<text text-anchor="middle" x="136.72" y="-168.33" font-family="Times,serif" font-size="14.00" fill="#dddddd">A₃</text>
</g>
<!-- S₁₀&#45;&gt;A₃ -->
<g id="edge14" class="edge">
<title>S₁₀&#45;&gt;A₃</title>
<path fill="none" stroke="#dddddd" d="M68.33,-112.63C80.68,-123.77 99.83,-141.03 114.56,-154.31"/>
<polygon fill="#dddddd" stroke="#dddddd" points="112.17,-156.86 121.94,-160.96 116.85,-151.67 112.17,-156.86"/>
<text text-anchor="middle" x="64.68" y="-124.7" font-family="Times,serif" font-size="14.00" fill="#dddddd">↓S₁₁</text>
</g>
<!-- S₁₁ -->
<g id="node7" class="node">
<title>S₁₁</title>
<ellipse fill="#333333" stroke="#dddddd" cx="136.72" cy="-101.38" rx="18" ry="18"/>
<text text-anchor="middle" x="136.72" y="-96.33" font-family="Times,serif" font-size="14.00" fill="#dddddd">S₁₁</text>
</g>
<!-- S₁₀&#45;&gt;S₁₁ -->
<g id="edge5" class="edge">
<title>S₁₀&#45;&gt;S₁₁</title>
<path fill="none" stroke="#dddddd" stroke-opacity="0.250980" d="M72.78,-101.38C82.84,-101.38 95.86,-101.38 107.44,-101.38"/>
<polygon fill="#dddddd" fill-opacity="0.250980" stroke="#dddddd" stroke-opacity="0.250980" points="107.29,-104.88 117.29,-101.38 107.29,-97.88 107.29,-104.88"/>
<text text-anchor="middle" x="95.84" y="-104.58" font-family="Times,serif" font-size="14.00" fill="#dddddd" fill-opacity="0.250980">A</text>
</g>
<!-- A₂&#45;&gt;S₁₁ -->
<g id="edge13" class="edge">
<title>A₂&#45;&gt;S₁₁</title>
<path fill="none" stroke="#dddddd" d="M138.77,-46.94C139.3,-52.79 139.72,-59.36 139.72,-65.38 139.72,-67.73 139.66,-70.17 139.55,-72.61"/>
<polygon fill="#dddddd" stroke="#dddddd" points="136.07,-72.1 138.88,-82.32 143.06,-72.58 136.07,-72.1"/>
<text text-anchor="middle" x="156.89" y="-50.35" font-family="Times,serif" font-size="14.00" fill="#dddddd">↑S₁₁</text>
</g>
<!-- S₁₄ -->
<g id="node10" class="node">
<title>S₁₄</title>
<ellipse fill="#333333" stroke="#dddddd" cx="375.22" cy="-101.38" rx="18" ry="18"/>
<text text-anchor="middle" x="375.22" y="-96.33" font-family="Times,serif" font-size="14.00" fill="#dddddd">S₁₄</text>
</g>
<!-- A₂&#45;&gt;S₁₄ -->
<g id="edge17" class="edge">
<title>A₂&#45;&gt;S₁₄</title>
<path fill="none" stroke="#dddddd" d="M154.26,-32.78C185.43,-39.38 254.87,-55 311.47,-74.38 323.92,-78.65 337.38,-84.29 348.62,-89.31"/>
<polygon fill="#dddddd" stroke="#dddddd" points="347.08,-92.46 357.63,-93.43 349.99,-86.09 347.08,-92.46"/>
<text text-anchor="middle" x="166.53" y="-43.52" font-family="Times,serif" font-size="14.00" fill="#dddddd">↑S₁₄</text>
</g>
<!-- A₃&#45;&gt;S₁₁ -->
<!-- A₃&#45;&gt;S₁₁ -->
<g id="edge15" class="edge">
<title>A₃&#45;&gt;S₁₁</title>
<path fill="none" stroke="#dddddd" d="M138.77,-155.83C139.3,-149.97 139.72,-143.4 139.72,-137.38 139.72,-135.03 139.66,-132.6 139.55,-130.15"/>
<polygon fill="#dddddd" stroke="#dddddd" points="143.06,-130.18 138.88,-120.45 136.07,-130.66 143.06,-130.18"/>
<text text-anchor="middle" x="156.89" y="-142.32" font-family="Times,serif" font-size="14.00" fill="#dddddd">↑S₁₁</text>
</g>
<!-- A₃&#45;&gt;S₁₄ -->
<g id="edge19" class="edge">
<title>A₃&#45;&gt;S₁₄</title>
<path fill="none" stroke="#dddddd" d="M154.44,-170.86C189.64,-165.17 273.59,-149.7 339.22,-122.38 343,-120.81 346.85,-118.88 350.56,-116.83"/>
<polygon fill="#dddddd" stroke="#dddddd" points="352.32,-119.85 359.11,-111.72 348.73,-113.84 352.32,-119.85"/>
<text text-anchor="middle" x="171.67" y="-175.96" font-family="Times,serif" font-size="14.00" fill="#dddddd">↑ S₁₄</text>
</g>
<!-- S₁₁&#45;&gt;A₂ -->
<!-- S₁₂ -->
<g id="node8" class="node">
<title>S₁₂</title>
<ellipse fill="#333333" stroke="#dddddd" cx="214.72" cy="-101.38" rx="18" ry="18"/>
<text text-anchor="middle" x="214.72" y="-96.33" font-family="Times,serif" font-size="14.00" fill="#dddddd">S₁₂</text>
</g>
<!-- S₁₁&#45;&gt;S₁₂ -->
<g id="edge6" class="edge">
<title>S₁₁&#45;&gt;S₁₂</title>
<path fill="none" stroke="#dddddd" d="M154.59,-101.38C163.64,-101.38 175.04,-101.38 185.41,-101.38"/>
<polygon fill="#dddddd" stroke="#dddddd" points="185.39,-104.88 195.39,-101.38 185.39,-97.88 185.39,-104.88"/>
<text text-anchor="middle" x="175.72" y="-104.58" font-family="Times,serif" font-size="14.00" fill="#dddddd">a</text>
</g>
<!-- S₁₃ -->
<g id="node9" class="node">
<title>S₁₃</title>
<ellipse fill="#333333" stroke="#dddddd" cx="293.47" cy="-101.38" rx="18" ry="18"/>
<text text-anchor="middle" x="293.47" y="-96.33" font-family="Times,serif" font-size="14.00" fill="#dddddd">S₁₃</text>
</g>
<!-- S₁₂&#45;&gt;S₁₃ -->
<g id="edge7" class="edge">
<title>S₁₂&#45;&gt;S₁₃</title>
<path fill="none" stroke="#dddddd" d="M232.37,-101.38C241.66,-101.38 253.48,-101.38 264.18,-101.38"/>
<polygon fill="#dddddd" stroke="#dddddd" points="264.07,-104.88 274.07,-101.38 264.07,-97.88 264.07,-104.88"/>
<text text-anchor="middle" x="254.09" y="-104.58" font-family="Times,serif" font-size="14.00" fill="#dddddd">b</text>
</g>
<!-- S₁₃&#45;&gt;A₂₀ -->
<g id="edge16" class="edge">
<title>S₁₃&#45;&gt;A₂₀</title>
<path fill="none" stroke="#dddddd" d="M285.91,-85.19C280.09,-72.59 270.48,-55.43 257.47,-44.38 219.87,-12.45 203.13,-11.89 154.72,-2.38 139.02,0.7 134.39,0.84 118.72,-2.38 105.49,-5.1 91.62,-10.73 80.27,-16.15"/>
<polygon fill="#dddddd" stroke="#dddddd" points="78.99,-12.87 71.63,-20.49 82.14,-19.13 78.99,-12.87"/>
<text text-anchor="middle" x="259.81" y="-65.35" font-family="Times,serif" font-size="14.00" fill="#dddddd">↓S₁₄</text>
</g>
<!-- S₁₃&#45;&gt;A₃ -->
<g id="edge18" class="edge">
<title>S₁₃&#45;&gt;A₃</title>
<path fill="none" stroke="#dddddd" d="M278.13,-110.73C271.92,-114.59 264.47,-118.95 257.47,-122.38 221.18,-140.18 209.58,-138.78 172.72,-155.38 169.46,-156.85 166.07,-158.47 162.74,-160.12"/>
<polygon fill="#dddddd" stroke="#dddddd" points="161.2,-156.97 153.89,-164.64 164.39,-163.21 161.2,-156.97"/>
<text text-anchor="middle" x="275.22" y="-125.47" font-family="Times,serif" font-size="14.00" fill="#dddddd">↓S₁₄</text>
</g>
<!-- S₁₃&#45;&gt;S₁₄ -->
<g id="edge8" class="edge">
<title>S₁₃&#45;&gt;S₁₄</title>
<path fill="none" stroke="#dddddd" stroke-opacity="0.250980" d="M311.38,-101.38C321.43,-101.38 334.42,-101.38 345.98,-101.38"/>
<polygon fill="#dddddd" fill-opacity="0.250980" stroke="#dddddd" stroke-opacity="0.250980" points="345.82,-104.88 355.82,-101.38 345.82,-97.88 345.82,-104.88"/>
<text text-anchor="middle" x="334.34" y="-104.58" font-family="Times,serif" font-size="14.00" fill="#dddddd" fill-opacity="0.250980">A</text>
</g>
<!-- S₁₅ -->
<g id="node11" class="node">
<title>S₁₅</title>
<ellipse fill="#333333" stroke="#dddddd" cx="453.97" cy="-101.38" rx="18" ry="18"/>
<text text-anchor="middle" x="453.97" y="-96.33" font-family="Times,serif" font-size="14.00" fill="#dddddd">S₁₅</text>
</g>
<!-- S₁₄&#45;&gt;S₁₅ -->
<g id="edge9" class="edge">
<title>S₁₄&#45;&gt;S₁₅</title>
<path fill="none" stroke="#dddddd" d="M392.87,-101.38C402.16,-101.38 413.98,-101.38 424.68,-101.38"/>
<polygon fill="#dddddd" stroke="#dddddd" points="424.57,-104.88 434.57,-101.38 424.57,-97.88 424.57,-104.88"/>
<text text-anchor="middle" x="414.59" y="-104.58" font-family="Times,serif" font-size="14.00" fill="#dddddd">b</text>
</g>
<!-- S₁₅&#45;&gt;S₁ -->
<g id="edge10" class="edge">
<title>S₁₅&#45;&gt;S₁</title>
<path fill="none" stroke="#dddddd" d="M471.93,-101.38C480.96,-101.38 492.32,-101.38 502.69,-101.38"/>
<polygon fill="#dddddd" stroke="#dddddd" points="502.68,-104.88 512.68,-101.38 502.68,-97.88 502.68,-104.88"/>
<text text-anchor="middle" x="492.97" y="-104.58" font-family="Times,serif" font-size="14.00" fill="#dddddd">a</text>
</g>
</g>
</svg>
