<?xml version="1.0" encoding="UTF-8" standalone="no"?>
<!DOCTYPE svg PUBLIC "-//W3C//DTD SVG 1.1//EN"
 "http://www.w3.org/Graphics/SVG/1.1/DTD/svg11.dtd">
<!-- Generated by graphviz version 11.0.0 (0)
 -->
<!-- Pages: 1 -->
<svg width="376pt" height="304pt"
 viewBox="0.00 0.00 376.22 304.00" xmlns="http://www.w3.org/2000/svg" xmlns:xlink="http://www.w3.org/1999/xlink">
<g id="graph0" class="graph" transform="scale(1 1) rotate(0) translate(4 300)">
<!-- start1 -->
<g id="node1" class="node">
<title>start1</title>
</g>
<!-- Box0 -->
<g id="node2" class="node">
<title>Box0</title>
<polygon fill="#333333" stroke="none" points="82.35,-167 46.35,-167 46.35,-131 82.35,-131 82.35,-167"/>
<polygon fill="#333333" stroke="none" points="44.72,-102 44.72,-196 83.97,-196 83.97,-102 44.72,-102"/>
<text text-anchor="start" x="49.72" y="-177.7" font-family="Times,serif" font-size="14.00" fill="#dddddd">Box0</text>
<text text-anchor="start" x="55.35" y="-155.2" font-family="Times,serif" font-size="14.00" fill="#dddddd">S₁₀</text>
<polygon fill="#555555" stroke="none" points="47.72,-127.5 47.72,-148 80.97,-148 80.97,-127.5 47.72,-127.5"/>
<text text-anchor="start" x="55.35" y="-132.7" font-family="Times,serif" font-size="14.00" fill="#dddddd">S₂₀</text>
<text text-anchor="start" x="55.35" y="-110.2" font-family="Times,serif" font-size="14.00" fill="#dddddd">S₃₀</text>
<polygon fill="none" stroke="#dddddd" points="44.72,-102 44.72,-196 83.97,-196 83.97,-102 44.72,-102"/>
</g>
<!-- start1&#45;&gt;Box0 -->
<g id="edge2" class="edge">
<title>start1&#45;&gt;Box0:t</title>
<path fill="none" stroke="#dddddd" d="M18.16,-149C23.02,-149 28.43,-149 33.77,-149"/>
<polygon fill="#dddddd" stroke="#dddddd" points="33.61,-152.5 43.61,-149 33.61,-145.5 33.61,-152.5"/>
</g>
<!-- fin -->
<g id="node3" class="node">
<title>fin</title>
<ellipse fill="#333333" stroke="#dddddd" cx="64.35" cy="-44" rx="14.4" ry="14.4"/>
<ellipse fill="none" stroke="#dddddd" cx="64.35" cy="-44" rx="18.4" ry="18.4"/>
</g>
<!-- Box0&#45;&gt;fin -->
<g id="edge1" class="edge">
<title>Box0:s&#45;&gt;fin:n</title>
<path fill="none" stroke="#dddddd" d="M64.35,-73.83C64.35,-82.74 64.35,-88.4 64.35,-101"/>
<polygon fill="#dddddd" stroke="#dddddd" points="67.85,-73.91 64.35,-63.91 60.85,-73.91 67.85,-73.91"/>
<text text-anchor="middle" x="56.85" y="-68.24" font-family="Times,serif" font-size="14.00" fill="#dddddd">S &#160;</text>
</g>
<!-- Box1 -->
<g id="node11" class="node">
<title>Box1</title>
<polygon fill="#333333" stroke="none" points="180.35,-231 144.35,-231 144.35,-195 180.35,-195 180.35,-231"/>
<polygon fill="#333333" stroke="none" points="142.72,-154.75 142.72,-271.25 181.97,-271.25 181.97,-154.75 142.72,-154.75"/>
<text text-anchor="start" x="147.72" y="-252.95" font-family="Times,serif" font-size="14.00" fill="#dddddd">Box1</text>
<text text-anchor="start" x="153.35" y="-230.45" font-family="Times,serif" font-size="14.00" fill="#dddddd">S₁₁</text>
<polygon fill="#555555" stroke="none" points="145.72,-202.75 145.72,-223.25 178.97,-223.25 178.97,-202.75 145.72,-202.75"/>
<text text-anchor="start" x="153.35" y="-207.95" font-family="Times,serif" font-size="14.00" fill="#dddddd">S₂₁</text>
<polygon fill="#777777" stroke="none" points="145.72,-180.25 145.72,-200.75 178.97,-200.75 178.97,-180.25 145.72,-180.25"/>
<text text-anchor="start" x="152.97" y="-185.45" font-family="Times,serif" font-size="14.00" fill="#dddddd">E₄₀</text>
<polygon fill="#aaaaaa" stroke="none" points="145.72,-157.75 145.72,-178.25 178.97,-178.25 178.97,-157.75 145.72,-157.75"/>
<text text-anchor="start" x="153.35" y="-162.95" font-family="Times,serif" font-size="14.00" fill="#333333">F₅₀</text>
<polygon fill="none" stroke="#dddddd" points="142.72,-154.75 142.72,-271.25 181.97,-271.25 181.97,-154.75 142.72,-154.75"/>
</g>
<!-- Box0&#45;&gt;Box1 -->
<g id="edge3" class="edge">
<title>Box0:t&#45;&gt;Box1:t</title>
<path fill="none" stroke="#dddddd" d="M83.85,-161.34C97.93,-170.72 117.54,-183.79 133.5,-194.44"/>
<polygon fill="#dddddd" stroke="#dddddd" points="131.37,-197.22 141.63,-199.86 135.25,-191.4 131.37,-197.22"/>
<text text-anchor="middle" x="113.35" y="-185.2" font-family="Times,serif" font-size="14.00" fill="#dddddd">a</text>
</g>
<!-- Box2 -->
<g id="node12" class="node">
<title>Box2</title>
<polygon fill="#333333" stroke="none" points="180.35,-90 144.35,-90 144.35,-54 180.35,-54 180.35,-90"/>
<polygon fill="#333333" stroke="none" points="142.72,-25 142.72,-119 181.97,-119 181.97,-25 142.72,-25"/>
<text text-anchor="start" x="147.72" y="-100.7" font-family="Times,serif" font-size="14.00" fill="#dddddd">Box2</text>
<text text-anchor="start" x="153.35" y="-78.2" font-family="Times,serif" font-size="14.00" fill="#dddddd">S₃₁</text>
<polygon fill="#777777" stroke="none" points="145.72,-50.5 145.72,-71 178.97,-71 178.97,-50.5 145.72,-50.5"/>
<text text-anchor="start" x="152.97" y="-55.7" font-family="Times,serif" font-size="14.00" fill="#dddddd">E₄₀</text>
<polygon fill="#aaaaaa" stroke="none" points="145.72,-28 145.72,-48.5 178.97,-48.5 178.97,-28 145.72,-28"/>
<text text-anchor="start" x="153.35" y="-33.2" font-family="Times,serif" font-size="14.00" fill="#333333">F₅₀</text>
<polygon fill="none" stroke="#dddddd" points="142.72,-25 142.72,-119 181.97,-119 181.97,-25 142.72,-25"/>
</g>
<!-- Box0&#45;&gt;Box2 -->
<g id="edge4" class="edge">
<title>Box0:t&#45;&gt;Box2:t</title>
<path fill="none" stroke="#dddddd" d="M83.85,-134.15C98.07,-122.76 117.91,-106.84 133.95,-93.97"/>
<polygon fill="#dddddd" stroke="#dddddd" points="136.1,-96.73 141.71,-87.75 131.72,-91.27 136.1,-96.73"/>
<text text-anchor="middle" x="113.35" y="-115.2" font-family="Times,serif" font-size="14.00" fill="#dddddd">b</text>
</g>
<!-- S₁₂ -->
<g id="node4" class="node">
<title>S₁₂</title>
<ellipse fill="#333333" stroke="#dddddd" cx="261.85" cy="-278" rx="18" ry="18"/>
<text text-anchor="middle" x="261.85" y="-272.95" font-family="Times,serif" font-size="14.00" fill="#dddddd">S₁₂</text>
</g>
<!-- S₁ -->
<g id="node5" class="node">
<title>S₁</title>
<ellipse fill="#333333" stroke="#dddddd" cx="350.22" cy="-278" rx="18" ry="18"/>
<text text-anchor="middle" x="350.22" y="-272.95" font-family="Times,serif" font-size="14.00" fill="#dddddd">S₁</text>
</g>
<!-- S₁₂&#45;&gt;S₁ -->
<g id="edge8" class="edge">
<title>S₁₂&#45;&gt;S₁</title>
<path fill="none" stroke="#dddddd" d="M279.5,-278C291.25,-278 307.29,-278 321.02,-278"/>
<polygon fill="#dddddd" stroke="#dddddd" points="320.81,-281.5 330.81,-278 320.81,-274.5 320.81,-281.5"/>
<text text-anchor="middle" x="310.85" y="-281.2" font-family="Times,serif" font-size="14.00" fill="#dddddd">c</text>
</g>
<!-- S₂₂ -->
<g id="node6" class="node">
<title>S₂₂</title>
<ellipse fill="#555555" stroke="#dddddd" cx="261.85" cy="-224" rx="18" ry="18"/>
<text text-anchor="middle" x="261.85" y="-218.95" font-family="Times,serif" font-size="14.00" fill="#dddddd">S₂₂</text>
</g>
<!-- S₂ -->
<g id="node7" class="node">
<title>S₂</title>
<ellipse fill="#555555" stroke="#dddddd" cx="350.22" cy="-224" rx="18" ry="18"/>
<text text-anchor="middle" x="350.22" y="-218.95" font-family="Times,serif" font-size="14.00" fill="#dddddd">S₂</text>
</g>
<!-- S₂₂&#45;&gt;S₂ -->
<g id="edge9" class="edge">
<title>S₂₂&#45;&gt;S₂</title>
<path fill="none" stroke="#dddddd" d="M279.5,-224C291.25,-224 307.29,-224 321.02,-224"/>
<polygon fill="#dddddd" stroke="#dddddd" points="320.81,-227.5 330.81,-224 320.81,-220.5 320.81,-227.5"/>
<text text-anchor="middle" x="310.85" y="-227.2" font-family="Times,serif" font-size="14.00" fill="#dddddd">d</text>
</g>
<!-- S₃₂ -->
<g id="node8" class="node">
<title>S₃₂</title>
<ellipse fill="#333333" stroke="#dddddd" cx="261.85" cy="-72" rx="18" ry="18"/>
<text text-anchor="middle" x="261.85" y="-66.95" font-family="Times,serif" font-size="14.00" fill="#dddddd">S₃₂</text>
</g>
<!-- S₃ -->
<g id="node9" class="node">
<title>S₃</title>
<ellipse fill="#333333" stroke="#dddddd" cx="350.22" cy="-72" rx="18" ry="18"/>
<text text-anchor="middle" x="350.22" y="-66.95" font-family="Times,serif" font-size="14.00" fill="#dddddd">S₃</text>
</g>
<!-- S₃₂&#45;&gt;S₃ -->
<g id="edge12" class="edge">
<title>S₃₂&#45;&gt;S₃</title>
<path fill="none" stroke="#dddddd" d="M279.5,-72C291.25,-72 307.29,-72 321.02,-72"/>
<polygon fill="#dddddd" stroke="#dddddd" points="320.81,-75.5 330.81,-72 320.81,-68.5 320.81,-75.5"/>
<text text-anchor="middle" x="310.85" y="-75.2" font-family="Times,serif" font-size="14.00" fill="#dddddd">c</text>
</g>
<!-- F₅ -->
<g id="node10" class="node">
<title>F₅</title>
<ellipse fill="#aaaaaa" stroke="#dddddd" cx="261.85" cy="-18" rx="18" ry="18"/>
<text text-anchor="middle" x="261.85" y="-12.95" font-family="Times,serif" font-size="14.00" fill="#333333">F₅</text>
</g>
<!-- Box1&#45;&gt;S₁₂ -->
<g id="edge6" class="edge">
<title>Box1:t&#45;&gt;S₁₂</title>
<path fill="none" stroke="#dddddd" d="M181.68,-225.23C197.45,-235.74 220.29,-250.97 237.39,-262.36"/>
<polygon fill="#dddddd" stroke="#dddddd" points="235.18,-265.09 245.44,-267.73 239.06,-259.27 235.18,-265.09"/>
<text text-anchor="middle" x="212.1" y="-250.2" font-family="Times,serif" font-size="14.00" fill="#dddddd">E</text>
</g>
<!-- Box1&#45;&gt;S₂₂ -->
<g id="edge7" class="edge">
<title>Box1:t&#45;&gt;S₂₂</title>
<path fill="none" stroke="#dddddd" d="M181.68,-215.07C196.15,-216.7 216.58,-219.01 233.05,-220.86"/>
<polygon fill="#dddddd" stroke="#dddddd" points="232.38,-224.31 242.71,-221.95 233.17,-217.35 232.38,-224.31"/>
<text text-anchor="middle" x="212.1" y="-221.2" font-family="Times,serif" font-size="14.00" fill="#dddddd">F</text>
</g>
<!-- Box3 -->
<g id="node13" class="node">
<title>Box3</title>
<polygon fill="#333333" stroke="none" points="279.85,-166 243.85,-166 243.85,-130 279.85,-130 279.85,-166"/>
<polygon fill="#333333" stroke="none" points="242.22,-112.25 242.22,-183.75 281.47,-183.75 281.47,-112.25 242.22,-112.25"/>
<text text-anchor="start" x="247.22" y="-165.45" font-family="Times,serif" font-size="14.00" fill="#dddddd">Box3</text>
<polygon fill="#777777" stroke="none" points="245.22,-137.75 245.22,-158.25 278.47,-158.25 278.47,-137.75 245.22,-137.75"/>
<text text-anchor="start" x="255.1" y="-142.95" font-family="Times,serif" font-size="14.00" fill="#dddddd">E₄</text>
<polygon fill="#aaaaaa" stroke="none" points="245.22,-115.25 245.22,-135.75 278.47,-135.75 278.47,-115.25 245.22,-115.25"/>
<text text-anchor="start" x="255.47" y="-120.45" font-family="Times,serif" font-size="14.00" fill="#333333">F₅</text>
<polygon fill="none" stroke="#dddddd" points="242.22,-112.25 242.22,-183.75 281.47,-183.75 281.47,-112.25 242.22,-112.25"/>
</g>
<!-- Box1&#45;&gt;Box3 -->
<g id="edge5" class="edge">
<title>Box1:t&#45;&gt;Box3:t</title>
<path fill="none" stroke="#dddddd" d="M181.68,-200.77C196.16,-191.12 216.6,-177.5 233.08,-166.51"/>
<polygon fill="#dddddd" stroke="#dddddd" points="234.62,-169.69 241,-161.23 230.74,-163.87 234.62,-169.69"/>
<text text-anchor="middle" x="212.1" y="-185.2" font-family="Times,serif" font-size="14.00" fill="#dddddd">e</text>
</g>
<!-- Box2&#45;&gt;S₃₂ -->
<g id="edge11" class="edge">
<title>Box2:t&#45;&gt;S₃₂</title>
<path fill="none" stroke="#dddddd" d="M181.68,-72C196.07,-72 216.33,-72 232.75,-72"/>
<polygon fill="#dddddd" stroke="#dddddd" points="232.38,-75.5 242.38,-72 232.38,-68.5 232.38,-75.5"/>
<text text-anchor="middle" x="212.1" y="-75.2" font-family="Times,serif" font-size="14.00" fill="#dddddd">F</text>
</g>
<!-- Box2&#45;&gt;F₅ -->
<g id="edge10" class="edge">
<title>Box2:t&#45;&gt;F₅</title>
<path fill="none" stroke="#dddddd" d="M181.68,-61.84C197.12,-53.29 219.34,-40.99 236.31,-31.59"/>
<polygon fill="#dddddd" stroke="#dddddd" points="237.72,-34.81 244.77,-26.9 234.32,-28.69 237.72,-34.81"/>
<text text-anchor="middle" x="212.1" y="-49.2" font-family="Times,serif" font-size="14.00" fill="#dddddd">e</text>
</g>
</g>
</svg>
