<?xml version="1.0" encoding="UTF-8" standalone="no"?>
<!DOCTYPE svg PUBLIC "-//W3C//DTD SVG 1.1//EN"
 "http://www.w3.org/Graphics/SVG/1.1/DTD/svg11.dtd">
<!-- Generated by graphviz version 12.0.0 (0)
 -->
<!-- Pages: 1 -->
<svg width="377pt" height="304pt"
 viewBox="0.00 0.00 377.22 304.00" xmlns="http://www.w3.org/2000/svg" xmlns:xlink="http://www.w3.org/1999/xlink">
<g id="graph0" class="graph" transform="scale(1 1) rotate(0) translate(4 300)">
<!-- start1 -->
<g id="node1" class="node">
<title>start1</title>
</g>
<!-- Box0 -->
<g id="node2" class="node">
<title>Box0</title>
<polygon fill="#333333" stroke="none" points="83.35,-167 47.35,-167 47.35,-131 83.35,-131 83.35,-167"/>
<polygon fill="#333333" stroke="none" points="45.72,-102 45.72,-196 84.97,-196 84.97,-102 45.72,-102"/>
<text text-anchor="start" x="50.72" y="-177.7" font-family="Times,serif" font-size="14.00" fill="#dddddd">Box0</text>
<text text-anchor="start" x="56.35" y="-155.2" font-family="Times,serif" font-size="14.00" fill="#dddddd">S₁₀</text>
<polygon fill="#555555" stroke="none" points="48.72,-127.5 48.72,-148 81.97,-148 81.97,-127.5 48.72,-127.5"/>
<text text-anchor="start" x="56.35" y="-132.7" font-family="Times,serif" font-size="14.00" fill="#dddddd">S₂₀</text>
<text text-anchor="start" x="56.35" y="-110.2" font-family="Times,serif" font-size="14.00" fill="#dddddd">S₃₀</text>
<polygon fill="none" stroke="#dddddd" points="45.72,-102 45.72,-196 84.97,-196 84.97,-102 45.72,-102"/>
</g>
<!-- start1&#45;&gt;Box0 -->
<g id="edge2" class="edge">
<title>start1&#45;&gt;Box0:t</title>
<path fill="none" stroke="#dddddd" d="M18.11,-149C23.26,-149 29.06,-149 34.76,-149"/>
<polygon fill="#dddddd" stroke="#dddddd" points="34.58,-152.5 44.58,-149 34.58,-145.5 34.58,-152.5"/>
</g>
<!-- fin -->
<g id="node3" class="node">
<title>fin</title>
<ellipse fill="#333333" stroke="#dddddd" cx="65.35" cy="-44" rx="14.4" ry="14.4"/>
<ellipse fill="none" stroke="#dddddd" cx="65.35" cy="-44" rx="18.4" ry="18.4"/>
</g>
<!-- Box0&#45;&gt;fin -->
<g id="edge1" class="edge">
<title>Box0:s&#45;&gt;fin:n</title>
<path fill="none" stroke="#dddddd" d="M65.35,-73.83C65.35,-82.74 65.35,-88.4 65.35,-101"/>
<polygon fill="#dddddd" stroke="#dddddd" points="68.85,-73.91 65.35,-63.91 61.85,-73.91 68.85,-73.91"/>
<text text-anchor="middle" x="57.85" y="-68.24" font-family="Times,serif" font-size="14.00" fill="#dddddd">S &#160;</text>
</g>
<!-- Box1 -->
<g id="node11" class="node">
<title>Box1</title>
<polygon fill="#333333" stroke="none" points="181.35,-231 145.35,-231 145.35,-195 181.35,-195 181.35,-231"/>
<polygon fill="#333333" stroke="none" points="143.72,-154.75 143.72,-271.25 182.97,-271.25 182.97,-154.75 143.72,-154.75"/>
<text text-anchor="start" x="148.72" y="-252.95" font-family="Times,serif" font-size="14.00" fill="#dddddd">Box1</text>
<text text-anchor="start" x="154.35" y="-230.45" font-family="Times,serif" font-size="14.00" fill="#dddddd">S₁₁</text>
<polygon fill="#555555" stroke="none" points="146.72,-202.75 146.72,-223.25 179.97,-223.25 179.97,-202.75 146.72,-202.75"/>
<text text-anchor="start" x="154.35" y="-207.95" font-family="Times,serif" font-size="14.00" fill="#dddddd">S₂₁</text>
<polygon fill="#777777" stroke="none" points="146.72,-180.25 146.72,-200.75 179.97,-200.75 179.97,-180.25 146.72,-180.25"/>
<text text-anchor="start" x="153.97" y="-185.45" font-family="Times,serif" font-size="14.00" fill="#dddddd">E₄₀</text>
<polygon fill="#aaaaaa" stroke="none" points="146.72,-157.75 146.72,-178.25 179.97,-178.25 179.97,-157.75 146.72,-157.75"/>
<text text-anchor="start" x="154.35" y="-162.95" font-family="Times,serif" font-size="14.00" fill="#333333">F₅₀</text>
<polygon fill="none" stroke="#dddddd" points="143.72,-154.75 143.72,-271.25 182.97,-271.25 182.97,-154.75 143.72,-154.75"/>
</g>
<!-- Box0&#45;&gt;Box1 -->
<g id="edge3" class="edge">
<title>Box0:t&#45;&gt;Box1:t</title>
<path fill="none" stroke="#dddddd" d="M84.85,-161.34C98.93,-170.72 118.54,-183.79 134.5,-194.44"/>
<polygon fill="#dddddd" stroke="#dddddd" points="132.37,-197.22 142.63,-199.86 136.25,-191.4 132.37,-197.22"/>
<text text-anchor="middle" x="114.35" y="-185.2" font-family="Times,serif" font-size="14.00" fill="#dddddd">a</text>
</g>
<!-- Box2 -->
<g id="node12" class="node">
<title>Box2</title>
<polygon fill="#333333" stroke="none" points="181.35,-90 145.35,-90 145.35,-54 181.35,-54 181.35,-90"/>
<polygon fill="#333333" stroke="none" points="143.72,-25 143.72,-119 182.97,-119 182.97,-25 143.72,-25"/>
<text text-anchor="start" x="148.72" y="-100.7" font-family="Times,serif" font-size="14.00" fill="#dddddd">Box2</text>
<text text-anchor="start" x="154.35" y="-78.2" font-family="Times,serif" font-size="14.00" fill="#dddddd">S₃₁</text>
<polygon fill="#777777" stroke="none" points="146.72,-50.5 146.72,-71 179.97,-71 179.97,-50.5 146.72,-50.5"/>
<text text-anchor="start" x="153.97" y="-55.7" font-family="Times,serif" font-size="14.00" fill="#dddddd">E₄₀</text>
<polygon fill="#aaaaaa" stroke="none" points="146.72,-28 146.72,-48.5 179.97,-48.5 179.97,-28 146.72,-28"/>
<text text-anchor="start" x="154.35" y="-33.2" font-family="Times,serif" font-size="14.00" fill="#333333">F₅₀</text>
<polygon fill="none" stroke="#dddddd" points="143.72,-25 143.72,-119 182.97,-119 182.97,-25 143.72,-25"/>
</g>
<!-- Box0&#45;&gt;Box2 -->
<g id="edge4" class="edge">
<title>Box0:t&#45;&gt;Box2:t</title>
<path fill="none" stroke="#dddddd" d="M84.85,-134.15C99.07,-122.76 118.91,-106.84 134.95,-93.97"/>
<polygon fill="#dddddd" stroke="#dddddd" points="137.1,-96.73 142.71,-87.75 132.72,-91.27 137.1,-96.73"/>
<text text-anchor="middle" x="114.35" y="-115.2" font-family="Times,serif" font-size="14.00" fill="#dddddd">b</text>
</g>
<!-- S₁₂ -->
<g id="node4" class="node">
<title>S₁₂</title>
<ellipse fill="#333333" stroke="#dddddd" cx="262.85" cy="-278" rx="18" ry="18"/>
<text text-anchor="middle" x="262.85" y="-272.95" font-family="Times,serif" font-size="14.00" fill="#dddddd">S₁₂</text>
</g>
<!-- S₁ -->
<g id="node5" class="node">
<title>S₁</title>
<ellipse fill="#333333" stroke="#dddddd" cx="351.22" cy="-278" rx="18" ry="18"/>
<text text-anchor="middle" x="351.22" y="-272.95" font-family="Times,serif" font-size="14.00" fill="#dddddd">S₁</text>
</g>
<!-- S₁₂&#45;&gt;S₁ -->
<g id="edge8" class="edge">
<title>S₁₂&#45;&gt;S₁</title>
<path fill="none" stroke="#dddddd" d="M280.5,-278C292.25,-278 308.29,-278 322.02,-278"/>
<polygon fill="#dddddd" stroke="#dddddd" points="321.81,-281.5 331.81,-278 321.81,-274.5 321.81,-281.5"/>
<text text-anchor="middle" x="311.85" y="-281.2" font-family="Times,serif" font-size="14.00" fill="#dddddd">c</text>
</g>
<!-- S₂₂ -->
<g id="node6" class="node">
<title>S₂₂</title>
<ellipse fill="#555555" stroke="#dddddd" cx="262.85" cy="-224" rx="18" ry="18"/>
<text text-anchor="middle" x="262.85" y="-218.95" font-family="Times,serif" font-size="14.00" fill="#dddddd">S₂₂</text>
</g>
<!-- S₂ -->
<g id="node7" class="node">
<title>S₂</title>
<ellipse fill="#555555" stroke="#dddddd" cx="351.22" cy="-224" rx="18" ry="18"/>
<text text-anchor="middle" x="351.22" y="-218.95" font-family="Times,serif" font-size="14.00" fill="#dddddd">S₂</text>
</g>
<!-- S₂₂&#45;&gt;S₂ -->
<g id="edge9" class="edge">
<title>S₂₂&#45;&gt;S₂</title>
<path fill="none" stroke="#dddddd" d="M280.5,-224C292.25,-224 308.29,-224 322.02,-224"/>
<polygon fill="#dddddd" stroke="#dddddd" points="321.81,-227.5 331.81,-224 321.81,-220.5 321.81,-227.5"/>
<text text-anchor="middle" x="311.85" y="-227.2" font-family="Times,serif" font-size="14.00" fill="#dddddd">d</text>
</g>
<!-- S₃₂ -->
<g id="node8" class="node">
<title>S₃₂</title>
<ellipse fill="#333333" stroke="#dddddd" cx="262.85" cy="-72" rx="18" ry="18"/>
<text text-anchor="middle" x="262.85" y="-66.95" font-family="Times,serif" font-size="14.00" fill="#dddddd">S₃₂</text>
</g>
<!-- S₃ -->
<g id="node9" class="node">
<title>S₃</title>
<ellipse fill="#333333" stroke="#dddddd" cx="351.22" cy="-72" rx="18" ry="18"/>
<text text-anchor="middle" x="351.22" y="-66.95" font-family="Times,serif" font-size="14.00" fill="#dddddd">S₃</text>
</g>
<!-- S₃₂&#45;&gt;S₃ -->
<g id="edge12" class="edge">
<title>S₃₂&#45;&gt;S₃</title>
<path fill="none" stroke="#dddddd" d="M280.5,-72C292.25,-72 308.29,-72 322.02,-72"/>
<polygon fill="#dddddd" stroke="#dddddd" points="321.81,-75.5 331.81,-72 321.81,-68.5 321.81,-75.5"/>
<text text-anchor="middle" x="311.85" y="-75.2" font-family="Times,serif" font-size="14.00" fill="#dddddd">c</text>
</g>
<!-- F₅ -->
<g id="node10" class="node">
<title>F₅</title>
<ellipse fill="#aaaaaa" stroke="#dddddd" cx="262.85" cy="-18" rx="18" ry="18"/>
<text text-anchor="middle" x="262.85" y="-12.95" font-family="Times,serif" font-size="14.00" fill="#333333">F₅</text>
</g>
<!-- Box1&#45;&gt;S₁₂ -->
<g id="edge6" class="edge">
<title>Box1:t&#45;&gt;S₁₂</title>
<path fill="none" stroke="#dddddd" d="M182.68,-225.23C198.45,-235.74 221.29,-250.97 238.39,-262.36"/>
<polygon fill="#dddddd" stroke="#dddddd" points="236.18,-265.09 246.44,-267.73 240.06,-259.27 236.18,-265.09"/>
<text text-anchor="middle" x="213.1" y="-250.2" font-family="Times,serif" font-size="14.00" fill="#dddddd">E</text>
</g>
<!-- Box1&#45;&gt;S₂₂ -->
<g id="edge7" class="edge">
<title>Box1:t&#45;&gt;S₂₂</title>
<path fill="none" stroke="#dddddd" d="M182.68,-215.07C197.15,-216.7 217.58,-219.01 234.05,-220.86"/>
<polygon fill="#dddddd" stroke="#dddddd" points="233.38,-224.31 243.71,-221.95 234.17,-217.35 233.38,-224.31"/>
<text text-anchor="middle" x="213.1" y="-221.2" font-family="Times,serif" font-size="14.00" fill="#dddddd">F</text>
</g>
<!-- Box3 -->
<g id="node13" class="node">
<title>Box3</title>
<polygon fill="#333333" stroke="none" points="280.85,-166 244.85,-166 244.85,-130 280.85,-130 280.85,-166"/>
<polygon fill="#333333" stroke="none" points="243.22,-112.25 243.22,-183.75 282.47,-183.75 282.47,-112.25 243.22,-112.25"/>
<text text-anchor="start" x="248.22" y="-165.45" font-family="Times,serif" font-size="14.00" fill="#dddddd">Box3</text>
<polygon fill="#777777" stroke="none" points="246.22,-137.75 246.22,-158.25 279.47,-158.25 279.47,-137.75 246.22,-137.75"/>
<text text-anchor="start" x="256.1" y="-142.95" font-family="Times,serif" font-size="14.00" fill="#dddddd">E₄</text>
<polygon fill="#aaaaaa" stroke="none" points="246.22,-115.25 246.22,-135.75 279.47,-135.75 279.47,-115.25 246.22,-115.25"/>
<text text-anchor="start" x="256.47" y="-120.45" font-family="Times,serif" font-size="14.00" fill="#333333">F₅</text>
<polygon fill="none" stroke="#dddddd" points="243.22,-112.25 243.22,-183.75 282.47,-183.75 282.47,-112.25 243.22,-112.25"/>
</g>
<!-- Box1&#45;&gt;Box3 -->
<g id="edge5" class="edge">
<title>Box1:t&#45;&gt;Box3:t</title>
<path fill="none" stroke="#dddddd" d="M182.68,-200.77C197.16,-191.12 217.6,-177.5 234.08,-166.51"/>
<polygon fill="#dddddd" stroke="#dddddd" points="235.62,-169.69 242,-161.23 231.74,-163.87 235.62,-169.69"/>
<text text-anchor="middle" x="213.1" y="-185.2" font-family="Times,serif" font-size="14.00" fill="#dddddd">e</text>
</g>
<!-- Box2&#45;&gt;S₃₂ -->
<g id="edge11" class="edge">
<title>Box2:t&#45;&gt;S₃₂</title>
<path fill="none" stroke="#dddddd" d="M182.68,-72C197.07,-72 217.33,-72 233.75,-72"/>
<polygon fill="#dddddd" stroke="#dddddd" points="233.38,-75.5 243.38,-72 233.38,-68.5 233.38,-75.5"/>
<text text-anchor="middle" x="213.1" y="-75.2" font-family="Times,serif" font-size="14.00" fill="#dddddd">F</text>
</g>
<!-- Box2&#45;&gt;F₅ -->
<g id="edge10" class="edge">
<title>Box2:t&#45;&gt;F₅</title>
<path fill="none" stroke="#dddddd" d="M182.68,-61.84C198.12,-53.29 220.34,-40.99 237.31,-31.59"/>
<polygon fill="#dddddd" stroke="#dddddd" points="238.72,-34.81 245.77,-26.9 235.32,-28.69 238.72,-34.81"/>
<text text-anchor="middle" x="213.1" y="-49.2" font-family="Times,serif" font-size="14.00" fill="#dddddd">e</text>
</g>
</g>
</svg>
