<?xml version="1.0" encoding="UTF-8" standalone="no"?>
<!DOCTYPE svg PUBLIC "-//W3C//DTD SVG 1.1//EN"
 "http://www.w3.org/Graphics/SVG/1.1/DTD/svg11.dtd">
<!-- Generated by graphviz version 11.0.0 (0)
 -->
<!-- Pages: 1 -->
<svg width="402pt" height="402pt"
 viewBox="0.00 0.00 402.47 402.00" xmlns="http://www.w3.org/2000/svg" xmlns:xlink="http://www.w3.org/1999/xlink">
<g id="graph0" class="graph" transform="scale(1 1) rotate(0) translate(4 398)">
<!-- start1 -->
<g id="node1" class="node">
<title>start1</title>
</g>
<!-- Box0 -->
<g id="node2" class="node">
<title>Box0</title>
<polygon fill="#333333" stroke="none" points="86.47,-210 50.47,-210 50.47,-174 86.47,-174 86.47,-210"/>
<polygon fill="#333333" stroke="none" points="44.72,-133.75 44.72,-250.25 92.22,-250.25 92.22,-133.75 44.72,-133.75"/>
<text text-anchor="start" x="53.85" y="-231.95" font-family="Times,serif" font-size="14.00" fill="#dddddd">Box0</text>
<text text-anchor="start" x="49.72" y="-209.45" font-family="Times,serif" font-size="14.00" fill="#dddddd">S₁₀ ($)</text>
<polygon fill="#555555" stroke="none" points="47.72,-181.75 47.72,-202.25 89.22,-202.25 89.22,-181.75 47.72,-181.75"/>
<text text-anchor="start" x="49.72" y="-186.95" font-family="Times,serif" font-size="14.00" fill="#dddddd">S₂₀ ($)</text>
<text text-anchor="start" x="49.72" y="-164.45" font-family="Times,serif" font-size="14.00" fill="#dddddd">S₃₀ ($)</text>
<polygon fill="#555555" stroke="none" points="47.72,-136.75 47.72,-157.25 89.22,-157.25 89.22,-136.75 47.72,-136.75"/>
<text text-anchor="start" x="49.72" y="-141.95" font-family="Times,serif" font-size="14.00" fill="#dddddd">S₆₀ ($)</text>
<polygon fill="none" stroke="#dddddd" points="44.72,-133.75 44.72,-250.25 92.22,-250.25 92.22,-133.75 44.72,-133.75"/>
</g>
<!-- start1&#45;&gt;Box0 -->
<g id="edge2" class="edge">
<title>start1&#45;&gt;Box0:t</title>
<path fill="none" stroke="#dddddd" d="M18.26,-192C22.99,-192 28.28,-192 33.58,-192"/>
<polygon fill="#dddddd" stroke="#dddddd" points="33.5,-195.5 43.5,-192 33.5,-188.5 33.5,-195.5"/>
</g>
<!-- fin -->
<g id="node3" class="node">
<title>fin</title>
<ellipse fill="#333333" stroke="#dddddd" cx="68.47" cy="-76" rx="14.4" ry="14.4"/>
<ellipse fill="none" stroke="#dddddd" cx="68.47" cy="-76" rx="18.4" ry="18.4"/>
</g>
<!-- Box0&#45;&gt;fin -->
<g id="edge1" class="edge">
<title>Box0:s&#45;&gt;fin:n</title>
<path fill="none" stroke="#dddddd" d="M68.47,-105.76C68.47,-114.61 68.47,-120.23 68.47,-132.75"/>
<polygon fill="#dddddd" stroke="#dddddd" points="71.97,-105.91 68.47,-95.91 64.97,-105.91 71.97,-105.91"/>
<text text-anchor="middle" x="60.97" y="-100.12" font-family="Times,serif" font-size="14.00" fill="#dddddd">S &#160;</text>
</g>
<!-- Box1 -->
<g id="node8" class="node">
<title>Box1</title>
<polygon fill="#333333" stroke="none" points="193.1,-284 157.1,-284 157.1,-248 193.1,-248 193.1,-284"/>
<polygon fill="#333333" stroke="none" points="151.35,-207.75 151.35,-324.25 198.85,-324.25 198.85,-207.75 151.35,-207.75"/>
<text text-anchor="start" x="160.47" y="-305.95" font-family="Times,serif" font-size="14.00" fill="#dddddd">Box1</text>
<text text-anchor="start" x="156.35" y="-283.45" font-family="Times,serif" font-size="14.00" fill="#dddddd">S₁₁ ($)</text>
<polygon fill="#555555" stroke="none" points="154.35,-255.75 154.35,-276.25 195.85,-276.25 195.85,-255.75 154.35,-255.75"/>
<text text-anchor="start" x="156.35" y="-260.95" font-family="Times,serif" font-size="14.00" fill="#dddddd">S₂₁ ($)</text>
<polygon fill="#777777" stroke="none" points="154.35,-233.25 154.35,-253.75 195.85,-253.75 195.85,-233.25 154.35,-233.25"/>
<text text-anchor="start" x="156.35" y="-238.45" font-family="Times,serif" font-size="14.00" fill="#dddddd">E₄₀ (c)</text>
<polygon fill="#aaaaaa" stroke="none" points="154.35,-210.75 154.35,-231.25 195.85,-231.25 195.85,-210.75 154.35,-210.75"/>
<text text-anchor="start" x="156.35" y="-215.95" font-family="Times,serif" font-size="14.00" fill="#333333">F₅₀ (d)</text>
<polygon fill="none" stroke="#dddddd" points="151.35,-207.75 151.35,-324.25 198.85,-324.25 198.85,-207.75 151.35,-207.75"/>
</g>
<!-- Box0&#45;&gt;Box1 -->
<g id="edge3" class="edge">
<title>Box0:t&#45;&gt;Box1:t</title>
<path fill="none" stroke="#dddddd" d="M92.17,-208.06C106.84,-218.43 126.14,-232.09 142.33,-243.53"/>
<polygon fill="#dddddd" stroke="#dddddd" points="140.02,-246.18 150.2,-249.1 144.06,-240.47 140.02,-246.18"/>
<text text-anchor="middle" x="121.6" y="-234.2" font-family="Times,serif" font-size="14.00" fill="#dddddd">a</text>
</g>
<!-- Box2 -->
<g id="node9" class="node">
<title>Box2</title>
<polygon fill="#333333" stroke="none" points="193.1,-126 157.1,-126 157.1,-90 193.1,-90 193.1,-126"/>
<polygon fill="#333333" stroke="none" points="150.97,-49.75 150.97,-166.25 199.22,-166.25 199.22,-49.75 150.97,-49.75"/>
<text text-anchor="start" x="160.47" y="-147.95" font-family="Times,serif" font-size="14.00" fill="#dddddd">Box2</text>
<text text-anchor="start" x="156.35" y="-125.45" font-family="Times,serif" font-size="14.00" fill="#dddddd">S₃₁ ($)</text>
<polygon fill="#555555" stroke="none" points="153.97,-97.75 153.97,-118.25 196.22,-118.25 196.22,-97.75 153.97,-97.75"/>
<text text-anchor="start" x="156.35" y="-102.95" font-family="Times,serif" font-size="14.00" fill="#dddddd">S₆₁ ($)</text>
<polygon fill="#777777" stroke="none" points="153.97,-75.25 153.97,-95.75 196.22,-95.75 196.22,-75.25 153.97,-75.25"/>
<text text-anchor="start" x="155.97" y="-80.45" font-family="Times,serif" font-size="14.00" fill="#dddddd">E₄₀ (d)</text>
<polygon fill="#aaaaaa" stroke="none" points="153.97,-52.75 153.97,-73.25 196.22,-73.25 196.22,-52.75 153.97,-52.75"/>
<text text-anchor="start" x="156.72" y="-57.95" font-family="Times,serif" font-size="14.00" fill="#333333">F₅₀ (c)</text>
<polygon fill="none" stroke="#dddddd" points="150.97,-49.75 150.97,-166.25 199.22,-166.25 199.22,-49.75 150.97,-49.75"/>
</g>
<!-- Box0&#45;&gt;Box2 -->
<g id="edge4" class="edge">
<title>Box0:t&#45;&gt;Box2:t</title>
<path fill="none" stroke="#dddddd" d="M92.17,-173.77C106.88,-161.97 126.24,-146.42 142.45,-133.41"/>
<polygon fill="#dddddd" stroke="#dddddd" points="144.29,-136.42 149.9,-127.43 139.91,-130.96 144.29,-136.42"/>
<text text-anchor="middle" x="121.6" y="-155.2" font-family="Times,serif" font-size="14.00" fill="#dddddd">b</text>
</g>
<!-- S₁₂ -->
<g id="node4" class="node">
<title>S₁₂</title>
<ellipse fill="#333333" stroke="#dddddd" cx="283.6" cy="-376" rx="18" ry="18"/>
<text text-anchor="middle" x="283.6" y="-370.95" font-family="Times,serif" font-size="14.00" fill="#dddddd">S₁₂</text>
</g>
<!-- S₁ -->
<g id="node5" class="node">
<title>S₁</title>
<ellipse fill="#333333" stroke="#dddddd" cx="376.47" cy="-376" rx="18" ry="18"/>
<text text-anchor="middle" x="376.47" y="-370.95" font-family="Times,serif" font-size="14.00" fill="#dddddd">S₁</text>
</g>
<!-- S₁₂&#45;&gt;S₁ -->
<g id="edge8" class="edge">
<title>S₁₂&#45;&gt;S₁</title>
<path fill="none" stroke="#dddddd" d="M301.26,-376C314.12,-376 332.2,-376 347.29,-376"/>
<polygon fill="#dddddd" stroke="#dddddd" points="347.09,-379.5 357.09,-376 347.09,-372.5 347.09,-379.5"/>
<text text-anchor="middle" x="337.1" y="-379.2" font-family="Times,serif" font-size="14.00" fill="#dddddd">c</text>
</g>
<!-- S₂₂ -->
<g id="node6" class="node">
<title>S₂₂</title>
<ellipse fill="#555555" stroke="#dddddd" cx="283.6" cy="-322" rx="18" ry="18"/>
<text text-anchor="middle" x="283.6" y="-316.95" font-family="Times,serif" font-size="14.00" fill="#dddddd">S₂₂</text>
</g>
<!-- S₂ -->
<g id="node7" class="node">
<title>S₂</title>
<ellipse fill="#555555" stroke="#dddddd" cx="376.47" cy="-322" rx="18" ry="18"/>
<text text-anchor="middle" x="376.47" y="-316.95" font-family="Times,serif" font-size="14.00" fill="#dddddd">S₂</text>
</g>
<!-- S₂₂&#45;&gt;S₂ -->
<g id="edge9" class="edge">
<title>S₂₂&#45;&gt;S₂</title>
<path fill="none" stroke="#dddddd" d="M301.26,-322C314.12,-322 332.2,-322 347.29,-322"/>
<polygon fill="#dddddd" stroke="#dddddd" points="347.09,-325.5 357.09,-322 347.09,-318.5 347.09,-325.5"/>
<text text-anchor="middle" x="337.1" y="-325.2" font-family="Times,serif" font-size="14.00" fill="#dddddd">d</text>
</g>
<!-- Box1&#45;&gt;S₁₂ -->
<g id="edge6" class="edge">
<title>Box1:t&#45;&gt;S₁₂</title>
<path fill="none" stroke="#dddddd" d="M198.75,-292.54C213.34,-309.21 232.96,-330.9 251.47,-349 254.51,-351.98 257.82,-355.03 261.11,-357.96"/>
<polygon fill="#dddddd" stroke="#dddddd" points="258.58,-360.39 268.43,-364.31 263.17,-355.11 258.58,-360.39"/>
<text text-anchor="middle" x="229.35" y="-332.2" font-family="Times,serif" font-size="14.00" fill="#dddddd">E</text>
</g>
<!-- Box1&#45;&gt;S₂₂ -->
<g id="edge7" class="edge">
<title>Box1:t&#45;&gt;S₂₂</title>
<path fill="none" stroke="#dddddd" d="M198.68,-277.88C215.95,-286.96 239.76,-299.47 257.6,-308.86"/>
<polygon fill="#dddddd" stroke="#dddddd" points="255.76,-311.84 266.24,-313.4 259.01,-305.65 255.76,-311.84"/>
<text text-anchor="middle" x="229.35" y="-298.2" font-family="Times,serif" font-size="14.00" fill="#dddddd">F</text>
</g>
<!-- Box3 -->
<g id="node10" class="node">
<title>Box3</title>
<polygon fill="#333333" stroke="none" points="301.6,-264 265.6,-264 265.6,-228 301.6,-228 301.6,-264"/>
<polygon fill="#333333" stroke="none" points="259.85,-210.25 259.85,-281.75 307.35,-281.75 307.35,-210.25 259.85,-210.25"/>
<text text-anchor="start" x="268.97" y="-263.45" font-family="Times,serif" font-size="14.00" fill="#dddddd">Box3</text>
<polygon fill="#777777" stroke="none" points="262.85,-235.75 262.85,-256.25 304.35,-256.25 304.35,-235.75 262.85,-235.75"/>
<text text-anchor="start" x="264.85" y="-240.95" font-family="Times,serif" font-size="14.00" fill="#dddddd">E₄₁ (c)</text>
<polygon fill="#aaaaaa" stroke="none" points="262.85,-213.25 262.85,-233.75 304.35,-233.75 304.35,-213.25 262.85,-213.25"/>
<text text-anchor="start" x="264.85" y="-218.45" font-family="Times,serif" font-size="14.00" fill="#333333">F₅₁ (d)</text>
<polygon fill="none" stroke="#dddddd" points="259.85,-210.25 259.85,-281.75 307.35,-281.75 307.35,-210.25 259.85,-210.25"/>
</g>
<!-- Box1&#45;&gt;Box3 -->
<g id="edge5" class="edge">
<title>Box1:t&#45;&gt;Box3:t</title>
<path fill="none" stroke="#dddddd" d="M198.68,-261.76C213.22,-259.03 232.4,-255.43 248.74,-252.36"/>
<polygon fill="#dddddd" stroke="#dddddd" points="249.37,-255.8 258.55,-250.51 248.08,-248.92 249.37,-255.8"/>
<text text-anchor="middle" x="229.35" y="-259.2" font-family="Times,serif" font-size="14.00" fill="#dddddd">e</text>
</g>
<!-- Box4 -->
<g id="node11" class="node">
<title>Box4</title>
<polygon fill="#333333" stroke="none" points="301.6,-166 265.6,-166 265.6,-130 301.6,-130 301.6,-166"/>
<polygon fill="#333333" stroke="none" points="259.47,-112.25 259.47,-183.75 307.72,-183.75 307.72,-112.25 259.47,-112.25"/>
<text text-anchor="start" x="268.97" y="-165.45" font-family="Times,serif" font-size="14.00" fill="#dddddd">Box4</text>
<polygon fill="#777777" stroke="none" points="262.47,-137.75 262.47,-158.25 304.72,-158.25 304.72,-137.75 262.47,-137.75"/>
<text text-anchor="start" x="264.47" y="-142.95" font-family="Times,serif" font-size="14.00" fill="#dddddd">E₄₁ (d)</text>
<polygon fill="#aaaaaa" stroke="none" points="262.47,-115.25 262.47,-135.75 304.72,-135.75 304.72,-115.25 262.47,-115.25"/>
<text text-anchor="start" x="265.22" y="-120.45" font-family="Times,serif" font-size="14.00" fill="#333333">F₅₁ (c)</text>
<polygon fill="none" stroke="#dddddd" points="259.47,-112.25 259.47,-183.75 307.72,-183.75 307.72,-112.25 259.47,-112.25"/>
</g>
<!-- Box2&#45;&gt;Box4 -->
<g id="edge10" class="edge">
<title>Box2:t&#45;&gt;Box4:t</title>
<path fill="none" stroke="#dddddd" d="M199.2,-116.68C213.72,-122.13 232.69,-129.26 248.87,-135.33"/>
<polygon fill="#dddddd" stroke="#dddddd" points="247.52,-138.57 258.11,-138.81 249.98,-132.01 247.52,-138.57"/>
<text text-anchor="middle" x="229.35" y="-132.2" font-family="Times,serif" font-size="14.00" fill="#dddddd">e</text>
</g>
<!-- S₃₂ -->
<g id="node12" class="node">
<title>S₃₂</title>
<ellipse fill="#333333" stroke="#dddddd" cx="283.6" cy="-72" rx="18" ry="18"/>
<text text-anchor="middle" x="283.6" y="-66.95" font-family="Times,serif" font-size="14.00" fill="#dddddd">S₃₂</text>
</g>
<!-- Box2&#45;&gt;S₃₂ -->
<g id="edge11" class="edge">
<title>Box2:t&#45;&gt;S₃₂</title>
<path fill="none" stroke="#dddddd" d="M199.2,-100.19C215.87,-94.56 238.4,-86.94 255.84,-81.04"/>
<polygon fill="#dddddd" stroke="#dddddd" points="256.67,-84.46 265.02,-77.94 254.42,-77.83 256.67,-84.46"/>
<text text-anchor="middle" x="229.35" y="-94.2" font-family="Times,serif" font-size="14.00" fill="#dddddd">F</text>
</g>
<!-- S₆₂ -->
<g id="node14" class="node">
<title>S₆₂</title>
<ellipse fill="#555555" stroke="#dddddd" cx="283.6" cy="-18" rx="18" ry="18"/>
<text text-anchor="middle" x="283.6" y="-12.95" font-family="Times,serif" font-size="14.00" fill="#dddddd">S₆₂</text>
</g>
<!-- Box2&#45;&gt;S₆₂ -->
<g id="edge13" class="edge">
<title>Box2:t&#45;&gt;S₆₂</title>
<path fill="none" stroke="#dddddd" d="M199.2,-88.47C217.54,-72.97 242.99,-51.47 260.94,-36.3"/>
<polygon fill="#dddddd" stroke="#dddddd" points="263.03,-39.12 268.41,-29.99 258.51,-33.77 263.03,-39.12"/>
<text text-anchor="middle" x="229.35" y="-68.2" font-family="Times,serif" font-size="14.00" fill="#dddddd">E</text>
</g>
<!-- S₃ -->
<g id="node13" class="node">
<title>S₃</title>
<ellipse fill="#333333" stroke="#dddddd" cx="376.47" cy="-72" rx="18" ry="18"/>
<text text-anchor="middle" x="376.47" y="-66.95" font-family="Times,serif" font-size="14.00" fill="#dddddd">S₃</text>
</g>
<!-- S₃₂&#45;&gt;S₃ -->
<g id="edge12" class="edge">
<title>S₃₂&#45;&gt;S₃</title>
<path fill="none" stroke="#dddddd" d="M301.26,-72C314.12,-72 332.2,-72 347.29,-72"/>
<polygon fill="#dddddd" stroke="#dddddd" points="347.09,-75.5 357.09,-72 347.09,-68.5 347.09,-75.5"/>
<text text-anchor="middle" x="337.1" y="-75.2" font-family="Times,serif" font-size="14.00" fill="#dddddd">c</text>
</g>
<!-- S₆ -->
<g id="node15" class="node">
<title>S₆</title>
<ellipse fill="#555555" stroke="#dddddd" cx="376.47" cy="-18" rx="18" ry="18"/>
<text text-anchor="middle" x="376.47" y="-12.95" font-family="Times,serif" font-size="14.00" fill="#dddddd">S₆</text>
</g>
<!-- S₆₂&#45;&gt;S₆ -->
<g id="edge14" class="edge">
<title>S₆₂&#45;&gt;S₆</title>
<path fill="none" stroke="#dddddd" d="M301.26,-18C314.12,-18 332.2,-18 347.29,-18"/>
<polygon fill="#dddddd" stroke="#dddddd" points="347.09,-21.5 357.09,-18 347.09,-14.5 347.09,-21.5"/>
<text text-anchor="middle" x="337.1" y="-21.2" font-family="Times,serif" font-size="14.00" fill="#dddddd">d</text>
</g>
</g>
</svg>
