<?xml version="1.0" encoding="UTF-8" standalone="no"?>
<!DOCTYPE svg PUBLIC "-//W3C//DTD SVG 1.1//EN"
 "http://www.w3.org/Graphics/SVG/1.1/DTD/svg11.dtd">
<!-- Generated by graphviz version 11.0.0 (0)
 -->
<!-- Pages: 1 -->
<svg width="376pt" height="304pt"
 viewBox="0.00 0.00 376.22 304.00" xmlns="http://www.w3.org/2000/svg" xmlns:xlink="http://www.w3.org/1999/xlink">
<g id="graph0" class="graph" transform="scale(1 1) rotate(0) translate(4 300)">
<!-- start1 -->
<g id="node1" class="node">
<title>start1</title>
</g>
<!-- Box0 -->
<g id="node2" class="node">
<title>Box0</title>
<polygon fill="#333333" stroke="none" points="82.35,-179 46.35,-179 46.35,-143 82.35,-143 82.35,-179"/>
<polygon fill="#333333" stroke="none" points="44.72,-102.75 44.72,-219.25 83.97,-219.25 83.97,-102.75 44.72,-102.75"/>
<text text-anchor="start" x="49.72" y="-200.95" font-family="Times,serif" font-size="14.00" fill="#dddddd">Box0</text>
<text text-anchor="start" x="55.35" y="-178.45" font-family="Times,serif" font-size="14.00" fill="#dddddd">S₁₀</text>
<polygon fill="#555555" stroke="none" points="47.72,-150.75 47.72,-171.25 80.97,-171.25 80.97,-150.75 47.72,-150.75"/>
<text text-anchor="start" x="55.35" y="-155.95" font-family="Times,serif" font-size="14.00" fill="#dddddd">S₂₀</text>
<text text-anchor="start" x="55.35" y="-133.45" font-family="Times,serif" font-size="14.00" fill="#dddddd">S₃₀</text>
<polygon fill="#555555" stroke="none" points="47.72,-105.75 47.72,-126.25 80.97,-126.25 80.97,-105.75 47.72,-105.75"/>
<text text-anchor="start" x="55.35" y="-110.95" font-family="Times,serif" font-size="14.00" fill="#dddddd">S₆₀</text>
<polygon fill="none" stroke="#dddddd" points="44.72,-102.75 44.72,-219.25 83.97,-219.25 83.97,-102.75 44.72,-102.75"/>
</g>
<!-- start1&#45;&gt;Box0 -->
<g id="edge2" class="edge">
<title>start1&#45;&gt;Box0:t</title>
<path fill="none" stroke="#dddddd" d="M18.16,-161C23.02,-161 28.43,-161 33.77,-161"/>
<polygon fill="#dddddd" stroke="#dddddd" points="33.61,-164.5 43.61,-161 33.61,-157.5 33.61,-164.5"/>
</g>
<!-- fin -->
<g id="node3" class="node">
<title>fin</title>
<ellipse fill="#333333" stroke="#dddddd" cx="64.35" cy="-45" rx="14.4" ry="14.4"/>
<ellipse fill="none" stroke="#dddddd" cx="64.35" cy="-45" rx="18.4" ry="18.4"/>
</g>
<!-- Box0&#45;&gt;fin -->
<g id="edge1" class="edge">
<title>Box0:s&#45;&gt;fin:n</title>
<path fill="none" stroke="#dddddd" d="M64.35,-74.76C64.35,-83.61 64.35,-89.23 64.35,-101.75"/>
<polygon fill="#dddddd" stroke="#dddddd" points="67.85,-74.91 64.35,-64.91 60.85,-74.91 67.85,-74.91"/>
<text text-anchor="middle" x="56.85" y="-69.12" font-family="Times,serif" font-size="14.00" fill="#dddddd">S &#160;</text>
</g>
<!-- Box1 -->
<g id="node12" class="node">
<title>Box1</title>
<polygon fill="#333333" stroke="none" points="180.35,-239 144.35,-239 144.35,-203 180.35,-203 180.35,-239"/>
<polygon fill="#333333" stroke="none" points="142.72,-162.75 142.72,-279.25 181.97,-279.25 181.97,-162.75 142.72,-162.75"/>
<text text-anchor="start" x="147.72" y="-260.95" font-family="Times,serif" font-size="14.00" fill="#dddddd">Box1</text>
<text text-anchor="start" x="153.35" y="-238.45" font-family="Times,serif" font-size="14.00" fill="#dddddd">S₁₁</text>
<polygon fill="#555555" stroke="none" points="145.72,-210.75 145.72,-231.25 178.97,-231.25 178.97,-210.75 145.72,-210.75"/>
<text text-anchor="start" x="153.35" y="-215.95" font-family="Times,serif" font-size="14.00" fill="#dddddd">S₂₁</text>
<polygon fill="#777777" stroke="none" points="145.72,-188.25 145.72,-208.75 178.97,-208.75 178.97,-188.25 145.72,-188.25"/>
<text text-anchor="start" x="152.97" y="-193.45" font-family="Times,serif" font-size="14.00" fill="#dddddd">E₄₀</text>
<polygon fill="#aaaaaa" stroke="none" points="145.72,-165.75 145.72,-186.25 178.97,-186.25 178.97,-165.75 145.72,-165.75"/>
<text text-anchor="start" x="153.35" y="-170.95" font-family="Times,serif" font-size="14.00" fill="#333333">F₅₀</text>
<polygon fill="none" stroke="#dddddd" points="142.72,-162.75 142.72,-279.25 181.97,-279.25 181.97,-162.75 142.72,-162.75"/>
</g>
<!-- Box0&#45;&gt;Box1 -->
<g id="edge3" class="edge">
<title>Box0:t&#45;&gt;Box1:t</title>
<path fill="none" stroke="#dddddd" d="M83.85,-172.57C97.93,-181.37 117.54,-193.62 133.5,-203.6"/>
<polygon fill="#dddddd" stroke="#dddddd" points="131.27,-206.33 141.61,-208.66 134.98,-200.4 131.27,-206.33"/>
<text text-anchor="middle" x="113.35" y="-195.2" font-family="Times,serif" font-size="14.00" fill="#dddddd">a</text>
</g>
<!-- Box2 -->
<g id="node13" class="node">
<title>Box2</title>
<polygon fill="#333333" stroke="none" points="180.35,-95 144.35,-95 144.35,-59 180.35,-59 180.35,-95"/>
<polygon fill="#333333" stroke="none" points="142.72,-18.75 142.72,-135.25 181.97,-135.25 181.97,-18.75 142.72,-18.75"/>
<text text-anchor="start" x="147.72" y="-116.95" font-family="Times,serif" font-size="14.00" fill="#dddddd">Box2</text>
<text text-anchor="start" x="153.35" y="-94.45" font-family="Times,serif" font-size="14.00" fill="#dddddd">S₃₁</text>
<polygon fill="#555555" stroke="none" points="145.72,-66.75 145.72,-87.25 178.97,-87.25 178.97,-66.75 145.72,-66.75"/>
<text text-anchor="start" x="153.35" y="-71.95" font-family="Times,serif" font-size="14.00" fill="#dddddd">S₆₁</text>
<polygon fill="#777777" stroke="none" points="145.72,-44.25 145.72,-64.75 178.97,-64.75 178.97,-44.25 145.72,-44.25"/>
<text text-anchor="start" x="152.97" y="-49.45" font-family="Times,serif" font-size="14.00" fill="#dddddd">E₄₀</text>
<polygon fill="#aaaaaa" stroke="none" points="145.72,-21.75 145.72,-42.25 178.97,-42.25 178.97,-21.75 145.72,-21.75"/>
<text text-anchor="start" x="153.35" y="-26.95" font-family="Times,serif" font-size="14.00" fill="#333333">F₅₀</text>
<polygon fill="none" stroke="#dddddd" points="142.72,-18.75 142.72,-135.25 181.97,-135.25 181.97,-18.75 142.72,-18.75"/>
</g>
<!-- Box0&#45;&gt;Box2 -->
<g id="edge4" class="edge">
<title>Box0:t&#45;&gt;Box2:t</title>
<path fill="none" stroke="#dddddd" d="M83.85,-144.8C98.2,-132.25 118.28,-114.68 134.4,-100.58"/>
<polygon fill="#dddddd" stroke="#dddddd" points="136.53,-103.36 141.75,-94.14 131.92,-98.09 136.53,-103.36"/>
<text text-anchor="middle" x="113.35" y="-124.2" font-family="Times,serif" font-size="14.00" fill="#dddddd">b</text>
</g>
<!-- S₁₂ -->
<g id="node4" class="node">
<title>S₁₂</title>
<ellipse fill="#333333" stroke="#dddddd" cx="261.85" cy="-278" rx="18" ry="18"/>
<text text-anchor="middle" x="261.85" y="-272.95" font-family="Times,serif" font-size="14.00" fill="#dddddd">S₁₂</text>
</g>
<!-- S₁ -->
<g id="node5" class="node">
<title>S₁</title>
<ellipse fill="#333333" stroke="#dddddd" cx="350.22" cy="-278" rx="18" ry="18"/>
<text text-anchor="middle" x="350.22" y="-272.95" font-family="Times,serif" font-size="14.00" fill="#dddddd">S₁</text>
</g>
<!-- S₁₂&#45;&gt;S₁ -->
<g id="edge8" class="edge">
<title>S₁₂&#45;&gt;S₁</title>
<path fill="none" stroke="#dddddd" d="M279.5,-278C291.25,-278 307.29,-278 321.02,-278"/>
<polygon fill="#dddddd" stroke="#dddddd" points="320.81,-281.5 330.81,-278 320.81,-274.5 320.81,-281.5"/>
<text text-anchor="middle" x="310.85" y="-281.2" font-family="Times,serif" font-size="14.00" fill="#dddddd">c</text>
</g>
<!-- S₂₂ -->
<g id="node6" class="node">
<title>S₂₂</title>
<ellipse fill="#555555" stroke="#dddddd" cx="261.85" cy="-224" rx="18" ry="18"/>
<text text-anchor="middle" x="261.85" y="-218.95" font-family="Times,serif" font-size="14.00" fill="#dddddd">S₂₂</text>
</g>
<!-- S₂ -->
<g id="node7" class="node">
<title>S₂</title>
<ellipse fill="#555555" stroke="#dddddd" cx="350.22" cy="-224" rx="18" ry="18"/>
<text text-anchor="middle" x="350.22" y="-218.95" font-family="Times,serif" font-size="14.00" fill="#dddddd">S₂</text>
</g>
<!-- S₂₂&#45;&gt;S₂ -->
<g id="edge9" class="edge">
<title>S₂₂&#45;&gt;S₂</title>
<path fill="none" stroke="#dddddd" d="M279.5,-224C291.25,-224 307.29,-224 321.02,-224"/>
<polygon fill="#dddddd" stroke="#dddddd" points="320.81,-227.5 330.81,-224 320.81,-220.5 320.81,-227.5"/>
<text text-anchor="middle" x="310.85" y="-227.2" font-family="Times,serif" font-size="14.00" fill="#dddddd">d</text>
</g>
<!-- S₃₂ -->
<g id="node8" class="node">
<title>S₃₂</title>
<ellipse fill="#333333" stroke="#dddddd" cx="261.85" cy="-72" rx="18" ry="18"/>
<text text-anchor="middle" x="261.85" y="-66.95" font-family="Times,serif" font-size="14.00" fill="#dddddd">S₃₂</text>
</g>
<!-- S₃ -->
<g id="node9" class="node">
<title>S₃</title>
<ellipse fill="#333333" stroke="#dddddd" cx="350.22" cy="-72" rx="18" ry="18"/>
<text text-anchor="middle" x="350.22" y="-66.95" font-family="Times,serif" font-size="14.00" fill="#dddddd">S₃</text>
</g>
<!-- S₃₂&#45;&gt;S₃ -->
<g id="edge12" class="edge">
<title>S₃₂&#45;&gt;S₃</title>
<path fill="none" stroke="#dddddd" d="M279.5,-72C291.25,-72 307.29,-72 321.02,-72"/>
<polygon fill="#dddddd" stroke="#dddddd" points="320.81,-75.5 330.81,-72 320.81,-68.5 320.81,-75.5"/>
<text text-anchor="middle" x="310.85" y="-75.2" font-family="Times,serif" font-size="14.00" fill="#dddddd">c</text>
</g>
<!-- S₆₂ -->
<g id="node10" class="node">
<title>S₆₂</title>
<ellipse fill="#555555" stroke="#dddddd" cx="261.85" cy="-18" rx="18" ry="18"/>
<text text-anchor="middle" x="261.85" y="-12.95" font-family="Times,serif" font-size="14.00" fill="#dddddd">S₆₂</text>
</g>
<!-- S₆ -->
<g id="node11" class="node">
<title>S₆</title>
<ellipse fill="#555555" stroke="#dddddd" cx="350.22" cy="-18" rx="18" ry="18"/>
<text text-anchor="middle" x="350.22" y="-12.95" font-family="Times,serif" font-size="14.00" fill="#dddddd">S₆</text>
</g>
<!-- S₆₂&#45;&gt;S₆ -->
<g id="edge14" class="edge">
<title>S₆₂&#45;&gt;S₆</title>
<path fill="none" stroke="#dddddd" d="M279.5,-18C291.25,-18 307.29,-18 321.02,-18"/>
<polygon fill="#dddddd" stroke="#dddddd" points="320.81,-21.5 330.81,-18 320.81,-14.5 320.81,-21.5"/>
<text text-anchor="middle" x="310.85" y="-21.2" font-family="Times,serif" font-size="14.00" fill="#dddddd">d</text>
</g>
<!-- Box1&#45;&gt;S₁₂ -->
<g id="edge6" class="edge">
<title>Box1:t&#45;&gt;S₁₂</title>
<path fill="none" stroke="#dddddd" d="M181.68,-231.72C197.12,-240.75 219.34,-253.74 236.31,-263.66"/>
<polygon fill="#dddddd" stroke="#dddddd" points="234.39,-266.59 244.78,-268.61 237.92,-260.54 234.39,-266.59"/>
<text text-anchor="middle" x="212.1" y="-254.2" font-family="Times,serif" font-size="14.00" fill="#dddddd">E</text>
</g>
<!-- Box1&#45;&gt;S₂₂ -->
<g id="edge7" class="edge">
<title>Box1:t&#45;&gt;S₂₂</title>
<path fill="none" stroke="#dddddd" d="M181.68,-221.56C196.07,-222.01 216.33,-222.63 232.75,-223.14"/>
<polygon fill="#dddddd" stroke="#dddddd" points="232.28,-226.62 242.38,-223.43 232.49,-219.63 232.28,-226.62"/>
<text text-anchor="middle" x="212.1" y="-225.2" font-family="Times,serif" font-size="14.00" fill="#dddddd">F</text>
</g>
<!-- Box3 -->
<g id="node14" class="node">
<title>Box3</title>
<polygon fill="#333333" stroke="none" points="279.85,-166 243.85,-166 243.85,-130 279.85,-130 279.85,-166"/>
<polygon fill="#333333" stroke="none" points="242.22,-112.25 242.22,-183.75 281.47,-183.75 281.47,-112.25 242.22,-112.25"/>
<text text-anchor="start" x="247.22" y="-165.45" font-family="Times,serif" font-size="14.00" fill="#dddddd">Box3</text>
<polygon fill="#777777" stroke="none" points="245.22,-137.75 245.22,-158.25 278.47,-158.25 278.47,-137.75 245.22,-137.75"/>
<text text-anchor="start" x="255.1" y="-142.95" font-family="Times,serif" font-size="14.00" fill="#dddddd">E₄</text>
<polygon fill="#aaaaaa" stroke="none" points="245.22,-115.25 245.22,-135.75 278.47,-135.75 278.47,-115.25 245.22,-115.25"/>
<text text-anchor="start" x="255.47" y="-120.45" font-family="Times,serif" font-size="14.00" fill="#333333">F₅</text>
<polygon fill="none" stroke="#dddddd" points="242.22,-112.25 242.22,-183.75 281.47,-183.75 281.47,-112.25 242.22,-112.25"/>
</g>
<!-- Box1&#45;&gt;Box3 -->
<g id="edge5" class="edge">
<title>Box1:t&#45;&gt;Box3:t</title>
<path fill="none" stroke="#dddddd" d="M181.68,-207.27C196.16,-196.43 216.6,-181.13 233.08,-168.78"/>
<polygon fill="#dddddd" stroke="#dddddd" points="235.14,-171.62 241.05,-162.82 230.94,-166.02 235.14,-171.62"/>
<text text-anchor="middle" x="212.1" y="-189.2" font-family="Times,serif" font-size="14.00" fill="#dddddd">e</text>
</g>
<!-- Box2&#45;&gt;S₃₂ -->
<g id="edge11" class="edge">
<title>Box2:t&#45;&gt;S₃₂</title>
<path fill="none" stroke="#dddddd" d="M181.68,-76.06C196.07,-75.32 216.33,-74.28 232.75,-73.44"/>
<polygon fill="#dddddd" stroke="#dddddd" points="232.57,-76.95 242.38,-72.95 232.22,-69.96 232.57,-76.95"/>
<text text-anchor="middle" x="212.1" y="-78.2" font-family="Times,serif" font-size="14.00" fill="#dddddd">F</text>
</g>
<!-- Box2&#45;&gt;S₆₂ -->
<g id="edge13" class="edge">
<title>Box2:t&#45;&gt;S₆₂</title>
<path fill="none" stroke="#dddddd" d="M181.68,-65.9C197.22,-56.5 219.6,-42.96 236.61,-32.66"/>
<polygon fill="#dddddd" stroke="#dddddd" points="238.36,-35.7 245.1,-27.53 234.73,-29.71 238.36,-35.7"/>
<text text-anchor="middle" x="212.1" y="-53.2" font-family="Times,serif" font-size="14.00" fill="#dddddd">E</text>
</g>
<!-- Box2&#45;&gt;Box3 -->
<g id="edge10" class="edge">
<title>Box2:t&#45;&gt;Box3:t</title>
<path fill="none" stroke="#dddddd" d="M181.68,-90.35C196.16,-100.9 216.6,-115.78 233.08,-127.78"/>
<polygon fill="#dddddd" stroke="#dddddd" points="230.89,-130.52 241.03,-133.57 235.01,-124.86 230.89,-130.52"/>
<text text-anchor="middle" x="212.1" y="-117.2" font-family="Times,serif" font-size="14.00" fill="#dddddd">e</text>
</g>
</g>
</svg>
