<?xml version="1.0" encoding="UTF-8" standalone="no"?>
<!DOCTYPE svg PUBLIC "-//W3C//DTD SVG 1.1//EN"
 "http://www.w3.org/Graphics/SVG/1.1/DTD/svg11.dtd">
<!-- Generated by graphviz version 12.1.1 (0)
 -->
<!-- Pages: 1 -->
<svg width="403pt" height="402pt"
 viewBox="0.00 0.00 403.47 402.00" xmlns="http://www.w3.org/2000/svg" xmlns:xlink="http://www.w3.org/1999/xlink">
<g id="graph0" class="graph" transform="scale(1 1) rotate(0) translate(4 398)">
<!-- start1 -->
<g id="node1" class="node">
<title>start1</title>
</g>
<!-- Box0 -->
<g id="node2" class="node">
<title>Box0</title>
<polygon fill="#333333" stroke="none" points="87.47,-210 51.47,-210 51.47,-174 87.47,-174 87.47,-210"/>
<polygon fill="#333333" stroke="none" points="45.72,-133.75 45.72,-250.25 93.22,-250.25 93.22,-133.75 45.72,-133.75"/>
<text text-anchor="start" x="54.85" y="-231.95" font-family="Times,serif" font-size="14.00" fill="#dddddd">Box0</text>
<text text-anchor="start" x="50.72" y="-209.45" font-family="Times,serif" font-size="14.00" fill="#dddddd">S₁₀ ($)</text>
<polygon fill="#555555" stroke="none" points="48.72,-181.75 48.72,-202.25 90.22,-202.25 90.22,-181.75 48.72,-181.75"/>
<text text-anchor="start" x="50.72" y="-186.95" font-family="Times,serif" font-size="14.00" fill="#dddddd">S₂₀ ($)</text>
<text text-anchor="start" x="50.72" y="-164.45" font-family="Times,serif" font-size="14.00" fill="#dddddd">S₃₀ ($)</text>
<polygon fill="#555555" stroke="none" points="48.72,-136.75 48.72,-157.25 90.22,-157.25 90.22,-136.75 48.72,-136.75"/>
<text text-anchor="start" x="50.72" y="-141.95" font-family="Times,serif" font-size="14.00" fill="#dddddd">S₆₀ ($)</text>
<polygon fill="none" stroke="#dddddd" points="45.72,-133.75 45.72,-250.25 93.22,-250.25 93.22,-133.75 45.72,-133.75"/>
</g>
<!-- start1&#45;&gt;Box0 -->
<g id="edge2" class="edge">
<title>start1&#45;&gt;Box0:t</title>
<path fill="none" stroke="#dddddd" d="M18.17,-192C23.2,-192 28.86,-192 34.53,-192"/>
<polygon fill="#dddddd" stroke="#dddddd" points="34.45,-195.5 44.45,-192 34.45,-188.5 34.45,-195.5"/>
</g>
<!-- fin -->
<g id="node3" class="node">
<title>fin</title>
<ellipse fill="#333333" stroke="#dddddd" cx="69.47" cy="-76" rx="14.4" ry="14.4"/>
<ellipse fill="none" stroke="#dddddd" cx="69.47" cy="-76" rx="18.4" ry="18.4"/>
</g>
<!-- Box0&#45;&gt;fin -->
<g id="edge1" class="edge">
<title>Box0:s&#45;&gt;fin:n</title>
<path fill="none" stroke="#dddddd" d="M69.47,-105.76C69.47,-114.61 69.47,-120.23 69.47,-132.75"/>
<polygon fill="#dddddd" stroke="#dddddd" points="72.97,-105.91 69.47,-95.91 65.97,-105.91 72.97,-105.91"/>
<text text-anchor="middle" x="61.97" y="-100.12" font-family="Times,serif" font-size="14.00" fill="#dddddd">S &#160;</text>
</g>
<!-- Box1 -->
<g id="node8" class="node">
<title>Box1</title>
<polygon fill="#333333" stroke="none" points="194.1,-284 158.1,-284 158.1,-248 194.1,-248 194.1,-284"/>
<polygon fill="#333333" stroke="none" points="152.35,-207.75 152.35,-324.25 199.85,-324.25 199.85,-207.75 152.35,-207.75"/>
<text text-anchor="start" x="161.47" y="-305.95" font-family="Times,serif" font-size="14.00" fill="#dddddd">Box1</text>
<text text-anchor="start" x="157.35" y="-283.45" font-family="Times,serif" font-size="14.00" fill="#dddddd">S₁₁ ($)</text>
<polygon fill="#555555" stroke="none" points="155.35,-255.75 155.35,-276.25 196.85,-276.25 196.85,-255.75 155.35,-255.75"/>
<text text-anchor="start" x="157.35" y="-260.95" font-family="Times,serif" font-size="14.00" fill="#dddddd">S₂₁ ($)</text>
<polygon fill="#777777" stroke="none" points="155.35,-233.25 155.35,-253.75 196.85,-253.75 196.85,-233.25 155.35,-233.25"/>
<text text-anchor="start" x="157.35" y="-238.45" font-family="Times,serif" font-size="14.00" fill="#dddddd">E₄₀ (c)</text>
<polygon fill="#aaaaaa" stroke="none" points="155.35,-210.75 155.35,-231.25 196.85,-231.25 196.85,-210.75 155.35,-210.75"/>
<text text-anchor="start" x="157.35" y="-215.95" font-family="Times,serif" font-size="14.00" fill="#333333">F₅₀ (d)</text>
<polygon fill="none" stroke="#dddddd" points="152.35,-207.75 152.35,-324.25 199.85,-324.25 199.85,-207.75 152.35,-207.75"/>
</g>
<!-- Box0&#45;&gt;Box1 -->
<g id="edge3" class="edge">
<title>Box0:t&#45;&gt;Box1:t</title>
<path fill="none" stroke="#dddddd" d="M93.17,-208.06C107.84,-218.43 127.14,-232.09 143.33,-243.53"/>
<polygon fill="#dddddd" stroke="#dddddd" points="141.02,-246.18 151.2,-249.1 145.06,-240.47 141.02,-246.18"/>
<text text-anchor="middle" x="122.6" y="-234.42" font-family="Times,serif" font-size="14.00" fill="#dddddd">a</text>
</g>
<!-- Box2 -->
<g id="node9" class="node">
<title>Box2</title>
<polygon fill="#333333" stroke="none" points="194.1,-126 158.1,-126 158.1,-90 194.1,-90 194.1,-126"/>
<polygon fill="#333333" stroke="none" points="151.97,-49.75 151.97,-166.25 200.22,-166.25 200.22,-49.75 151.97,-49.75"/>
<text text-anchor="start" x="161.47" y="-147.95" font-family="Times,serif" font-size="14.00" fill="#dddddd">Box2</text>
<text text-anchor="start" x="157.35" y="-125.45" font-family="Times,serif" font-size="14.00" fill="#dddddd">S₃₁ ($)</text>
<polygon fill="#555555" stroke="none" points="154.97,-97.75 154.97,-118.25 197.22,-118.25 197.22,-97.75 154.97,-97.75"/>
<text text-anchor="start" x="157.35" y="-102.95" font-family="Times,serif" font-size="14.00" fill="#dddddd">S₆₁ ($)</text>
<polygon fill="#777777" stroke="none" points="154.97,-75.25 154.97,-95.75 197.22,-95.75 197.22,-75.25 154.97,-75.25"/>
<text text-anchor="start" x="156.97" y="-80.45" font-family="Times,serif" font-size="14.00" fill="#dddddd">E₄₀ (d)</text>
<polygon fill="#aaaaaa" stroke="none" points="154.97,-52.75 154.97,-73.25 197.22,-73.25 197.22,-52.75 154.97,-52.75"/>
<text text-anchor="start" x="157.72" y="-57.95" font-family="Times,serif" font-size="14.00" fill="#333333">F₅₀ (c)</text>
<polygon fill="none" stroke="#dddddd" points="151.97,-49.75 151.97,-166.25 200.22,-166.25 200.22,-49.75 151.97,-49.75"/>
</g>
<!-- Box0&#45;&gt;Box2 -->
<g id="edge4" class="edge">
<title>Box0:t&#45;&gt;Box2:t</title>
<path fill="none" stroke="#dddddd" d="M93.17,-173.77C107.88,-161.97 127.24,-146.42 143.45,-133.41"/>
<polygon fill="#dddddd" stroke="#dddddd" points="145.29,-136.42 150.9,-127.43 140.91,-130.96 145.29,-136.42"/>
<text text-anchor="middle" x="122.6" y="-155.72" font-family="Times,serif" font-size="14.00" fill="#dddddd">b</text>
</g>
<!-- S₁₂ -->
<g id="node4" class="node">
<title>S₁₂</title>
<ellipse fill="#333333" stroke="#dddddd" cx="284.6" cy="-376" rx="18" ry="18"/>
<text text-anchor="middle" x="284.6" y="-370.95" font-family="Times,serif" font-size="14.00" fill="#dddddd">S₁₂</text>
</g>
<!-- S₁ -->
<g id="node5" class="node">
<title>S₁</title>
<ellipse fill="#333333" stroke="#dddddd" cx="377.47" cy="-376" rx="18" ry="18"/>
<text text-anchor="middle" x="377.47" y="-370.95" font-family="Times,serif" font-size="14.00" fill="#dddddd">S₁</text>
</g>
<!-- S₁₂&#45;&gt;S₁ -->
<g id="edge8" class="edge">
<title>S₁₂&#45;&gt;S₁</title>
<path fill="none" stroke="#dddddd" d="M302.26,-376C315.12,-376 333.2,-376 348.29,-376"/>
<polygon fill="#dddddd" stroke="#dddddd" points="348.09,-379.5 358.09,-376 348.09,-372.5 348.09,-379.5"/>
<text text-anchor="middle" x="338.1" y="-379.2" font-family="Times,serif" font-size="14.00" fill="#dddddd">c</text>
</g>
<!-- S₂₂ -->
<g id="node6" class="node">
<title>S₂₂</title>
<ellipse fill="#555555" stroke="#dddddd" cx="284.6" cy="-322" rx="18" ry="18"/>
<text text-anchor="middle" x="284.6" y="-316.95" font-family="Times,serif" font-size="14.00" fill="#dddddd">S₂₂</text>
</g>
<!-- S₂ -->
<g id="node7" class="node">
<title>S₂</title>
<ellipse fill="#555555" stroke="#dddddd" cx="377.47" cy="-322" rx="18" ry="18"/>
<text text-anchor="middle" x="377.47" y="-316.95" font-family="Times,serif" font-size="14.00" fill="#dddddd">S₂</text>
</g>
<!-- S₂₂&#45;&gt;S₂ -->
<g id="edge9" class="edge">
<title>S₂₂&#45;&gt;S₂</title>
<path fill="none" stroke="#dddddd" d="M302.26,-322C315.12,-322 333.2,-322 348.29,-322"/>
<polygon fill="#dddddd" stroke="#dddddd" points="348.09,-325.5 358.09,-322 348.09,-318.5 348.09,-325.5"/>
<text text-anchor="middle" x="338.1" y="-325.2" font-family="Times,serif" font-size="14.00" fill="#dddddd">d</text>
</g>
<!-- Box1&#45;&gt;S₁₂ -->
<g id="edge6" class="edge">
<title>Box1:t&#45;&gt;S₁₂</title>
<path fill="none" stroke="#dddddd" d="M199.75,-292.54C214.34,-309.21 233.96,-330.9 252.47,-349 255.51,-351.98 258.82,-355.03 262.11,-357.96"/>
<polygon fill="#dddddd" stroke="#dddddd" points="259.58,-360.39 269.43,-364.31 264.17,-355.11 259.58,-360.39"/>
<text text-anchor="middle" x="230.35" y="-332.45" font-family="Times,serif" font-size="14.00" fill="#dddddd">E</text>
</g>
<!-- Box1&#45;&gt;S₂₂ -->
<g id="edge7" class="edge">
<title>Box1:t&#45;&gt;S₂₂</title>
<path fill="none" stroke="#dddddd" d="M199.68,-277.88C216.95,-286.96 240.76,-299.47 258.6,-308.86"/>
<polygon fill="#dddddd" stroke="#dddddd" points="256.76,-311.84 267.24,-313.4 260.01,-305.65 256.76,-311.84"/>
<text text-anchor="middle" x="230.35" y="-298.88" font-family="Times,serif" font-size="14.00" fill="#dddddd">F</text>
</g>
<!-- Box3 -->
<g id="node10" class="node">
<title>Box3</title>
<polygon fill="#333333" stroke="none" points="302.6,-264 266.6,-264 266.6,-228 302.6,-228 302.6,-264"/>
<polygon fill="#333333" stroke="none" points="260.85,-210.25 260.85,-281.75 308.35,-281.75 308.35,-210.25 260.85,-210.25"/>
<text text-anchor="start" x="269.97" y="-263.45" font-family="Times,serif" font-size="14.00" fill="#dddddd">Box3</text>
<polygon fill="#777777" stroke="none" points="263.85,-235.75 263.85,-256.25 305.35,-256.25 305.35,-235.75 263.85,-235.75"/>
<text text-anchor="start" x="265.85" y="-240.95" font-family="Times,serif" font-size="14.00" fill="#dddddd">E₄₁ (c)</text>
<polygon fill="#aaaaaa" stroke="none" points="263.85,-213.25 263.85,-233.75 305.35,-233.75 305.35,-213.25 263.85,-213.25"/>
<text text-anchor="start" x="265.85" y="-218.45" font-family="Times,serif" font-size="14.00" fill="#333333">F₅₁ (d)</text>
<polygon fill="none" stroke="#dddddd" points="260.85,-210.25 260.85,-281.75 308.35,-281.75 308.35,-210.25 260.85,-210.25"/>
</g>
<!-- Box1&#45;&gt;Box3 -->
<g id="edge5" class="edge">
<title>Box1:t&#45;&gt;Box3:t</title>
<path fill="none" stroke="#dddddd" d="M199.68,-261.76C214.22,-259.03 233.4,-255.43 249.74,-252.36"/>
<polygon fill="#dddddd" stroke="#dddddd" points="250.37,-255.8 259.55,-250.51 249.08,-248.92 250.37,-255.8"/>
<text text-anchor="middle" x="230.35" y="-259.8" font-family="Times,serif" font-size="14.00" fill="#dddddd">e</text>
</g>
<!-- Box4 -->
<g id="node11" class="node">
<title>Box4</title>
<polygon fill="#333333" stroke="none" points="302.6,-166 266.6,-166 266.6,-130 302.6,-130 302.6,-166"/>
<polygon fill="#333333" stroke="none" points="260.47,-112.25 260.47,-183.75 308.72,-183.75 308.72,-112.25 260.47,-112.25"/>
<text text-anchor="start" x="269.97" y="-165.45" font-family="Times,serif" font-size="14.00" fill="#dddddd">Box4</text>
<polygon fill="#777777" stroke="none" points="263.47,-137.75 263.47,-158.25 305.72,-158.25 305.72,-137.75 263.47,-137.75"/>
<text text-anchor="start" x="265.47" y="-142.95" font-family="Times,serif" font-size="14.00" fill="#dddddd">E₄₁ (d)</text>
<polygon fill="#aaaaaa" stroke="none" points="263.47,-115.25 263.47,-135.75 305.72,-135.75 305.72,-115.25 263.47,-115.25"/>
<text text-anchor="start" x="266.22" y="-120.45" font-family="Times,serif" font-size="14.00" fill="#333333">F₅₁ (c)</text>
<polygon fill="none" stroke="#dddddd" points="260.47,-112.25 260.47,-183.75 308.72,-183.75 308.72,-112.25 260.47,-112.25"/>
</g>
<!-- Box2&#45;&gt;Box4 -->
<g id="edge10" class="edge">
<title>Box2:t&#45;&gt;Box4:t</title>
<path fill="none" stroke="#dddddd" d="M200.2,-116.68C214.72,-122.13 233.69,-129.26 249.87,-135.33"/>
<polygon fill="#dddddd" stroke="#dddddd" points="248.52,-138.57 259.11,-138.81 250.98,-132.01 248.52,-138.57"/>
<text text-anchor="middle" x="230.35" y="-132.4" font-family="Times,serif" font-size="14.00" fill="#dddddd">e</text>
</g>
<!-- S₃₂ -->
<g id="node12" class="node">
<title>S₃₂</title>
<ellipse fill="#333333" stroke="#dddddd" cx="284.6" cy="-72" rx="18" ry="18"/>
<text text-anchor="middle" x="284.6" y="-66.95" font-family="Times,serif" font-size="14.00" fill="#dddddd">S₃₂</text>
</g>
<!-- Box2&#45;&gt;S₃₂ -->
<g id="edge11" class="edge">
<title>Box2:t&#45;&gt;S₃₂</title>
<path fill="none" stroke="#dddddd" d="M200.2,-100.19C216.87,-94.56 239.4,-86.94 256.84,-81.04"/>
<polygon fill="#dddddd" stroke="#dddddd" points="257.67,-84.46 266.02,-77.94 255.42,-77.83 257.67,-84.46"/>
<text text-anchor="middle" x="230.35" y="-94.28" font-family="Times,serif" font-size="14.00" fill="#dddddd">F</text>
</g>
<!-- S₆₂ -->
<g id="node14" class="node">
<title>S₆₂</title>
<ellipse fill="#555555" stroke="#dddddd" cx="284.6" cy="-18" rx="18" ry="18"/>
<text text-anchor="middle" x="284.6" y="-12.95" font-family="Times,serif" font-size="14.00" fill="#dddddd">S₆₂</text>
</g>
<!-- Box2&#45;&gt;S₆₂ -->
<g id="edge13" class="edge">
<title>Box2:t&#45;&gt;S₆₂</title>
<path fill="none" stroke="#dddddd" d="M200.2,-88.47C218.54,-72.97 243.99,-51.47 261.94,-36.3"/>
<polygon fill="#dddddd" stroke="#dddddd" points="264.03,-39.12 269.41,-29.99 259.51,-33.77 264.03,-39.12"/>
<text text-anchor="middle" x="230.35" y="-68.9" font-family="Times,serif" font-size="14.00" fill="#dddddd">E</text>
</g>
<!-- S₃ -->
<g id="node13" class="node">
<title>S₃</title>
<ellipse fill="#333333" stroke="#dddddd" cx="377.47" cy="-72" rx="18" ry="18"/>
<text text-anchor="middle" x="377.47" y="-66.95" font-family="Times,serif" font-size="14.00" fill="#dddddd">S₃</text>
</g>
<!-- S₃₂&#45;&gt;S₃ -->
<g id="edge12" class="edge">
<title>S₃₂&#45;&gt;S₃</title>
<path fill="none" stroke="#dddddd" d="M302.26,-72C315.12,-72 333.2,-72 348.29,-72"/>
<polygon fill="#dddddd" stroke="#dddddd" points="348.09,-75.5 358.09,-72 348.09,-68.5 348.09,-75.5"/>
<text text-anchor="middle" x="338.1" y="-75.2" font-family="Times,serif" font-size="14.00" fill="#dddddd">c</text>
</g>
<!-- S₆ -->
<g id="node15" class="node">
<title>S₆</title>
<ellipse fill="#555555" stroke="#dddddd" cx="377.47" cy="-18" rx="18" ry="18"/>
<text text-anchor="middle" x="377.47" y="-12.95" font-family="Times,serif" font-size="14.00" fill="#dddddd">S₆</text>
</g>
<!-- S₆₂&#45;&gt;S₆ -->
<g id="edge14" class="edge">
<title>S₆₂&#45;&gt;S₆</title>
<path fill="none" stroke="#dddddd" d="M302.26,-18C315.12,-18 333.2,-18 348.29,-18"/>
<polygon fill="#dddddd" stroke="#dddddd" points="348.09,-21.5 358.09,-18 348.09,-14.5 348.09,-21.5"/>
<text text-anchor="middle" x="338.1" y="-21.2" font-family="Times,serif" font-size="14.00" fill="#dddddd">d</text>
</g>
</g>
</svg>
