<?xml version="1.0" encoding="UTF-8" standalone="no"?>
<!DOCTYPE svg PUBLIC "-//W3C//DTD SVG 1.1//EN"
 "http://www.w3.org/Graphics/SVG/1.1/DTD/svg11.dtd">
<!-- Generated by graphviz version 12.1.1 (0)
 -->
<!-- Pages: 1 -->
<svg width="377pt" height="304pt"
 viewBox="0.00 0.00 377.22 304.00" xmlns="http://www.w3.org/2000/svg" xmlns:xlink="http://www.w3.org/1999/xlink">
<g id="graph0" class="graph" transform="scale(1 1) rotate(0) translate(4 300)">
<!-- start1 -->
<g id="node1" class="node">
<title>start1</title>
</g>
<!-- Box0 -->
<g id="node2" class="node">
<title>Box0</title>
<polygon fill="#333333" stroke="none" points="83.35,-179 47.35,-179 47.35,-143 83.35,-143 83.35,-179"/>
<polygon fill="#333333" stroke="none" points="45.72,-102.75 45.72,-219.25 84.97,-219.25 84.97,-102.75 45.72,-102.75"/>
<text text-anchor="start" x="50.72" y="-200.95" font-family="Times,serif" font-size="14.00" fill="#dddddd">Box0</text>
<text text-anchor="start" x="56.35" y="-178.45" font-family="Times,serif" font-size="14.00" fill="#dddddd">S₁₀</text>
<polygon fill="#555555" stroke="none" points="48.72,-150.75 48.72,-171.25 81.97,-171.25 81.97,-150.75 48.72,-150.75"/>
<text text-anchor="start" x="56.35" y="-155.95" font-family="Times,serif" font-size="14.00" fill="#dddddd">S₂₀</text>
<text text-anchor="start" x="56.35" y="-133.45" font-family="Times,serif" font-size="14.00" fill="#dddddd">S₃₀</text>
<polygon fill="#555555" stroke="none" points="48.72,-105.75 48.72,-126.25 81.97,-126.25 81.97,-105.75 48.72,-105.75"/>
<text text-anchor="start" x="56.35" y="-110.95" font-family="Times,serif" font-size="14.00" fill="#dddddd">S₆₀</text>
<polygon fill="none" stroke="#dddddd" points="45.72,-102.75 45.72,-219.25 84.97,-219.25 84.97,-102.75 45.72,-102.75"/>
</g>
<!-- start1&#45;&gt;Box0 -->
<g id="edge2" class="edge">
<title>start1&#45;&gt;Box0:t</title>
<path fill="none" stroke="#dddddd" d="M18.11,-161C23.26,-161 29.06,-161 34.76,-161"/>
<polygon fill="#dddddd" stroke="#dddddd" points="34.58,-164.5 44.58,-161 34.58,-157.5 34.58,-164.5"/>
</g>
<!-- fin -->
<g id="node3" class="node">
<title>fin</title>
<ellipse fill="#333333" stroke="#dddddd" cx="65.35" cy="-45" rx="14.4" ry="14.4"/>
<ellipse fill="none" stroke="#dddddd" cx="65.35" cy="-45" rx="18.4" ry="18.4"/>
</g>
<!-- Box0&#45;&gt;fin -->
<g id="edge1" class="edge">
<title>Box0:s&#45;&gt;fin:n</title>
<path fill="none" stroke="#dddddd" d="M65.35,-74.76C65.35,-83.61 65.35,-89.23 65.35,-101.75"/>
<polygon fill="#dddddd" stroke="#dddddd" points="68.85,-74.91 65.35,-64.91 61.85,-74.91 68.85,-74.91"/>
<text text-anchor="middle" x="57.85" y="-69.12" font-family="Times,serif" font-size="14.00" fill="#dddddd">S &#160;</text>
</g>
<!-- Box1 -->
<g id="node12" class="node">
<title>Box1</title>
<polygon fill="#333333" stroke="none" points="181.35,-239 145.35,-239 145.35,-203 181.35,-203 181.35,-239"/>
<polygon fill="#333333" stroke="none" points="143.72,-162.75 143.72,-279.25 182.97,-279.25 182.97,-162.75 143.72,-162.75"/>
<text text-anchor="start" x="148.72" y="-260.95" font-family="Times,serif" font-size="14.00" fill="#dddddd">Box1</text>
<text text-anchor="start" x="154.35" y="-238.45" font-family="Times,serif" font-size="14.00" fill="#dddddd">S₁₁</text>
<polygon fill="#555555" stroke="none" points="146.72,-210.75 146.72,-231.25 179.97,-231.25 179.97,-210.75 146.72,-210.75"/>
<text text-anchor="start" x="154.35" y="-215.95" font-family="Times,serif" font-size="14.00" fill="#dddddd">S₂₁</text>
<polygon fill="#777777" stroke="none" points="146.72,-188.25 146.72,-208.75 179.97,-208.75 179.97,-188.25 146.72,-188.25"/>
<text text-anchor="start" x="153.97" y="-193.45" font-family="Times,serif" font-size="14.00" fill="#dddddd">E₄₀</text>
<polygon fill="#aaaaaa" stroke="none" points="146.72,-165.75 146.72,-186.25 179.97,-186.25 179.97,-165.75 146.72,-165.75"/>
<text text-anchor="start" x="154.35" y="-170.95" font-family="Times,serif" font-size="14.00" fill="#333333">F₅₀</text>
<polygon fill="none" stroke="#dddddd" points="143.72,-162.75 143.72,-279.25 182.97,-279.25 182.97,-162.75 143.72,-162.75"/>
</g>
<!-- Box0&#45;&gt;Box1 -->
<g id="edge3" class="edge">
<title>Box0:t&#45;&gt;Box1:t</title>
<path fill="none" stroke="#dddddd" d="M84.85,-172.57C98.93,-181.37 118.54,-193.62 134.5,-203.6"/>
<polygon fill="#dddddd" stroke="#dddddd" points="132.27,-206.33 142.61,-208.66 135.98,-200.4 132.27,-206.33"/>
<text text-anchor="middle" x="114.35" y="-196" font-family="Times,serif" font-size="14.00" fill="#dddddd">a</text>
</g>
<!-- Box2 -->
<g id="node13" class="node">
<title>Box2</title>
<polygon fill="#333333" stroke="none" points="181.35,-95 145.35,-95 145.35,-59 181.35,-59 181.35,-95"/>
<polygon fill="#333333" stroke="none" points="143.72,-18.75 143.72,-135.25 182.97,-135.25 182.97,-18.75 143.72,-18.75"/>
<text text-anchor="start" x="148.72" y="-116.95" font-family="Times,serif" font-size="14.00" fill="#dddddd">Box2</text>
<text text-anchor="start" x="154.35" y="-94.45" font-family="Times,serif" font-size="14.00" fill="#dddddd">S₃₁</text>
<polygon fill="#555555" stroke="none" points="146.72,-66.75 146.72,-87.25 179.97,-87.25 179.97,-66.75 146.72,-66.75"/>
<text text-anchor="start" x="154.35" y="-71.95" font-family="Times,serif" font-size="14.00" fill="#dddddd">S₆₁</text>
<polygon fill="#777777" stroke="none" points="146.72,-44.25 146.72,-64.75 179.97,-64.75 179.97,-44.25 146.72,-44.25"/>
<text text-anchor="start" x="153.97" y="-49.45" font-family="Times,serif" font-size="14.00" fill="#dddddd">E₄₀</text>
<polygon fill="#aaaaaa" stroke="none" points="146.72,-21.75 146.72,-42.25 179.97,-42.25 179.97,-21.75 146.72,-21.75"/>
<text text-anchor="start" x="154.35" y="-26.95" font-family="Times,serif" font-size="14.00" fill="#333333">F₅₀</text>
<polygon fill="none" stroke="#dddddd" points="143.72,-18.75 143.72,-135.25 182.97,-135.25 182.97,-18.75 143.72,-18.75"/>
</g>
<!-- Box0&#45;&gt;Box2 -->
<g id="edge4" class="edge">
<title>Box0:t&#45;&gt;Box2:t</title>
<path fill="none" stroke="#dddddd" d="M84.85,-144.8C99.2,-132.25 119.28,-114.68 135.4,-100.58"/>
<polygon fill="#dddddd" stroke="#dddddd" points="137.53,-103.36 142.75,-94.14 132.92,-98.09 137.53,-103.36"/>
<text text-anchor="middle" x="114.35" y="-124.72" font-family="Times,serif" font-size="14.00" fill="#dddddd">b</text>
</g>
<!-- S₁₂ -->
<g id="node4" class="node">
<title>S₁₂</title>
<ellipse fill="#333333" stroke="#dddddd" cx="262.85" cy="-278" rx="18" ry="18"/>
<text text-anchor="middle" x="262.85" y="-272.95" font-family="Times,serif" font-size="14.00" fill="#dddddd">S₁₂</text>
</g>
<!-- S₁ -->
<g id="node5" class="node">
<title>S₁</title>
<ellipse fill="#333333" stroke="#dddddd" cx="351.22" cy="-278" rx="18" ry="18"/>
<text text-anchor="middle" x="351.22" y="-272.95" font-family="Times,serif" font-size="14.00" fill="#dddddd">S₁</text>
</g>
<!-- S₁₂&#45;&gt;S₁ -->
<g id="edge8" class="edge">
<title>S₁₂&#45;&gt;S₁</title>
<path fill="none" stroke="#dddddd" d="M280.5,-278C292.25,-278 308.29,-278 322.02,-278"/>
<polygon fill="#dddddd" stroke="#dddddd" points="321.81,-281.5 331.81,-278 321.81,-274.5 321.81,-281.5"/>
<text text-anchor="middle" x="311.85" y="-281.2" font-family="Times,serif" font-size="14.00" fill="#dddddd">c</text>
</g>
<!-- S₂₂ -->
<g id="node6" class="node">
<title>S₂₂</title>
<ellipse fill="#555555" stroke="#dddddd" cx="262.85" cy="-224" rx="18" ry="18"/>
<text text-anchor="middle" x="262.85" y="-218.95" font-family="Times,serif" font-size="14.00" fill="#dddddd">S₂₂</text>
</g>
<!-- S₂ -->
<g id="node7" class="node">
<title>S₂</title>
<ellipse fill="#555555" stroke="#dddddd" cx="351.22" cy="-224" rx="18" ry="18"/>
<text text-anchor="middle" x="351.22" y="-218.95" font-family="Times,serif" font-size="14.00" fill="#dddddd">S₂</text>
</g>
<!-- S₂₂&#45;&gt;S₂ -->
<g id="edge9" class="edge">
<title>S₂₂&#45;&gt;S₂</title>
<path fill="none" stroke="#dddddd" d="M280.5,-224C292.25,-224 308.29,-224 322.02,-224"/>
<polygon fill="#dddddd" stroke="#dddddd" points="321.81,-227.5 331.81,-224 321.81,-220.5 321.81,-227.5"/>
<text text-anchor="middle" x="311.85" y="-227.2" font-family="Times,serif" font-size="14.00" fill="#dddddd">d</text>
</g>
<!-- S₃₂ -->
<g id="node8" class="node">
<title>S₃₂</title>
<ellipse fill="#333333" stroke="#dddddd" cx="262.85" cy="-72" rx="18" ry="18"/>
<text text-anchor="middle" x="262.85" y="-66.95" font-family="Times,serif" font-size="14.00" fill="#dddddd">S₃₂</text>
</g>
<!-- S₃ -->
<g id="node9" class="node">
<title>S₃</title>
<ellipse fill="#333333" stroke="#dddddd" cx="351.22" cy="-72" rx="18" ry="18"/>
<text text-anchor="middle" x="351.22" y="-66.95" font-family="Times,serif" font-size="14.00" fill="#dddddd">S₃</text>
</g>
<!-- S₃₂&#45;&gt;S₃ -->
<g id="edge12" class="edge">
<title>S₃₂&#45;&gt;S₃</title>
<path fill="none" stroke="#dddddd" d="M280.5,-72C292.25,-72 308.29,-72 322.02,-72"/>
<polygon fill="#dddddd" stroke="#dddddd" points="321.81,-75.5 331.81,-72 321.81,-68.5 321.81,-75.5"/>
<text text-anchor="middle" x="311.85" y="-75.2" font-family="Times,serif" font-size="14.00" fill="#dddddd">c</text>
</g>
<!-- S₆₂ -->
<g id="node10" class="node">
<title>S₆₂</title>
<ellipse fill="#555555" stroke="#dddddd" cx="262.85" cy="-18" rx="18" ry="18"/>
<text text-anchor="middle" x="262.85" y="-12.95" font-family="Times,serif" font-size="14.00" fill="#dddddd">S₆₂</text>
</g>
<!-- S₆ -->
<g id="node11" class="node">
<title>S₆</title>
<ellipse fill="#555555" stroke="#dddddd" cx="351.22" cy="-18" rx="18" ry="18"/>
<text text-anchor="middle" x="351.22" y="-12.95" font-family="Times,serif" font-size="14.00" fill="#dddddd">S₆</text>
</g>
<!-- S₆₂&#45;&gt;S₆ -->
<g id="edge14" class="edge">
<title>S₆₂&#45;&gt;S₆</title>
<path fill="none" stroke="#dddddd" d="M280.5,-18C292.25,-18 308.29,-18 322.02,-18"/>
<polygon fill="#dddddd" stroke="#dddddd" points="321.81,-21.5 331.81,-18 321.81,-14.5 321.81,-21.5"/>
<text text-anchor="middle" x="311.85" y="-21.2" font-family="Times,serif" font-size="14.00" fill="#dddddd">d</text>
</g>
<!-- Box1&#45;&gt;S₁₂ -->
<g id="edge6" class="edge">
<title>Box1:t&#45;&gt;S₁₂</title>
<path fill="none" stroke="#dddddd" d="M182.68,-231.72C198.12,-240.75 220.34,-253.74 237.31,-263.66"/>
<polygon fill="#dddddd" stroke="#dddddd" points="235.39,-266.59 245.78,-268.61 238.92,-260.54 235.39,-266.59"/>
<text text-anchor="middle" x="213.1" y="-254.41" font-family="Times,serif" font-size="14.00" fill="#dddddd">E</text>
</g>
<!-- Box1&#45;&gt;S₂₂ -->
<g id="edge7" class="edge">
<title>Box1:t&#45;&gt;S₂₂</title>
<path fill="none" stroke="#dddddd" d="M182.68,-221.56C197.07,-222.01 217.33,-222.63 233.75,-223.14"/>
<polygon fill="#dddddd" stroke="#dddddd" points="233.28,-226.62 243.38,-223.43 233.49,-219.63 233.28,-226.62"/>
<text text-anchor="middle" x="213.1" y="-225.79" font-family="Times,serif" font-size="14.00" fill="#dddddd">F</text>
</g>
<!-- Box3 -->
<g id="node14" class="node">
<title>Box3</title>
<polygon fill="#333333" stroke="none" points="280.85,-166 244.85,-166 244.85,-130 280.85,-130 280.85,-166"/>
<polygon fill="#333333" stroke="none" points="243.22,-112.25 243.22,-183.75 282.47,-183.75 282.47,-112.25 243.22,-112.25"/>
<text text-anchor="start" x="248.22" y="-165.45" font-family="Times,serif" font-size="14.00" fill="#dddddd">Box3</text>
<polygon fill="#777777" stroke="none" points="246.22,-137.75 246.22,-158.25 279.47,-158.25 279.47,-137.75 246.22,-137.75"/>
<text text-anchor="start" x="256.1" y="-142.95" font-family="Times,serif" font-size="14.00" fill="#dddddd">E₄</text>
<polygon fill="#aaaaaa" stroke="none" points="246.22,-115.25 246.22,-135.75 279.47,-135.75 279.47,-115.25 246.22,-115.25"/>
<text text-anchor="start" x="256.47" y="-120.45" font-family="Times,serif" font-size="14.00" fill="#333333">F₅</text>
<polygon fill="none" stroke="#dddddd" points="243.22,-112.25 243.22,-183.75 282.47,-183.75 282.47,-112.25 243.22,-112.25"/>
</g>
<!-- Box1&#45;&gt;Box3 -->
<g id="edge5" class="edge">
<title>Box1:t&#45;&gt;Box3:t</title>
<path fill="none" stroke="#dddddd" d="M182.68,-207.27C197.16,-196.43 217.6,-181.13 234.08,-168.78"/>
<polygon fill="#dddddd" stroke="#dddddd" points="236.14,-171.62 242.05,-162.82 231.94,-166.02 236.14,-171.62"/>
<text text-anchor="middle" x="213.1" y="-189.89" font-family="Times,serif" font-size="14.00" fill="#dddddd">e</text>
</g>
<!-- Box2&#45;&gt;S₃₂ -->
<g id="edge11" class="edge">
<title>Box2:t&#45;&gt;S₃₂</title>
<path fill="none" stroke="#dddddd" d="M182.68,-76.06C197.07,-75.32 217.33,-74.28 233.75,-73.44"/>
<polygon fill="#dddddd" stroke="#dddddd" points="233.57,-76.95 243.38,-72.95 233.22,-69.96 233.57,-76.95"/>
<text text-anchor="middle" x="213.1" y="-77.85" font-family="Times,serif" font-size="14.00" fill="#dddddd">F</text>
</g>
<!-- Box2&#45;&gt;S₆₂ -->
<g id="edge13" class="edge">
<title>Box2:t&#45;&gt;S₆₂</title>
<path fill="none" stroke="#dddddd" d="M182.68,-65.9C198.22,-56.5 220.6,-42.96 237.61,-32.66"/>
<polygon fill="#dddddd" stroke="#dddddd" points="239.36,-35.7 246.1,-27.53 235.73,-29.71 239.36,-35.7"/>
<text text-anchor="middle" x="213.1" y="-52.47" font-family="Times,serif" font-size="14.00" fill="#dddddd">E</text>
</g>
<!-- Box2&#45;&gt;Box3 -->
<g id="edge10" class="edge">
<title>Box2:t&#45;&gt;Box3:t</title>
<path fill="none" stroke="#dddddd" d="M182.68,-90.35C197.16,-100.9 217.6,-115.78 234.08,-127.78"/>
<polygon fill="#dddddd" stroke="#dddddd" points="231.89,-130.52 242.03,-133.57 236.01,-124.86 231.89,-130.52"/>
<text text-anchor="middle" x="213.1" y="-117.83" font-family="Times,serif" font-size="14.00" fill="#dddddd">e</text>
</g>
</g>
</svg>
