<?xml version="1.0" encoding="UTF-8" standalone="no"?>
<!DOCTYPE svg PUBLIC "-//W3C//DTD SVG 1.1//EN"
 "http://www.w3.org/Graphics/SVG/1.1/DTD/svg11.dtd">
<!-- Generated by graphviz version 12.1.2 (0)
 -->
<!-- Pages: 1 -->
<svg width="327pt" height="207pt"
 viewBox="0.00 0.00 327.17 206.80" xmlns="http://www.w3.org/2000/svg" xmlns:xlink="http://www.w3.org/1999/xlink">
<g id="graph0" class="graph" transform="scale(1 1) rotate(0) translate(4 202.8)">
<!-- start4 -->
<g id="node1" class="node">
<title>start4</title>
</g>
<!-- A₄ -->
<g id="node2" class="node">
<title>A₄</title>
<ellipse fill="#aaaaaa" stroke="#dddddd" cx="56.12" cy="-18.4" rx="14.4" ry="14.4"/>
<ellipse fill="none" stroke="#dddddd" cx="56.12" cy="-18.4" rx="18.4" ry="18.4"/>
<text text-anchor="middle" x="56.12" y="-13.35" font-family="Times,serif" font-size="14.00" fill="#333333">A₄</text>
</g>
<!-- start4&#45;&gt;A₄ -->
<g id="edge1" class="edge">
<title>start4&#45;&gt;A₄</title>
<path fill="none" stroke="#dddddd" d="M18.23,-18.4C20.91,-18.4 23.72,-18.4 26.56,-18.4"/>
<polygon fill="#dddddd" stroke="#dddddd" points="26.5,-21.9 36.5,-18.4 26.5,-14.9 26.5,-21.9"/>
</g>
<!-- start3 -->
<g id="node3" class="node">
<title>start3</title>
</g>
<!-- A₃₀ -->
<g id="node5" class="node">
<title>A₃₀</title>
<ellipse fill="#777777" stroke="#dddddd" cx="56.12" cy="-72.4" rx="18" ry="18"/>
<text text-anchor="middle" x="56.12" y="-67.35" font-family="Times,serif" font-size="14.00" fill="#dddddd">A₃₀</text>
</g>
<!-- start3&#45;&gt;A₃₀ -->
<g id="edge2" class="edge">
<title>start3&#45;&gt;A₃₀</title>
<path fill="none" stroke="#dddddd" d="M18.23,-72.4C21.06,-72.4 24.05,-72.4 27.05,-72.4"/>
<polygon fill="#dddddd" stroke="#dddddd" points="26.87,-75.9 36.87,-72.4 26.87,-68.9 26.87,-75.9"/>
</g>
<!-- A₃ -->
<g id="node4" class="node">
<title>A₃</title>
<ellipse fill="#777777" stroke="#dddddd" cx="300.77" cy="-72.4" rx="14.4" ry="14.4"/>
<ellipse fill="none" stroke="#dddddd" cx="300.77" cy="-72.4" rx="18.4" ry="18.4"/>
<text text-anchor="middle" x="300.77" y="-67.35" font-family="Times,serif" font-size="14.00" fill="#dddddd">A₃</text>
</g>
<!-- A₃₁ -->
<g id="node6" class="node">
<title>A₃₁</title>
<ellipse fill="#777777" stroke="#dddddd" cx="138.67" cy="-72.4" rx="18" ry="18"/>
<text text-anchor="middle" x="138.67" y="-67.35" font-family="Times,serif" font-size="14.00" fill="#dddddd">A₃₁</text>
</g>
<!-- A₃₀&#45;&gt;A₃₁ -->
<g id="edge3" class="edge">
<title>A₃₀&#45;&gt;A₃₁</title>
<path fill="none" stroke="#dddddd" d="M73.81,-72.4C84.11,-72.4 97.59,-72.4 109.5,-72.4"/>
<polygon fill="#dddddd" stroke="#dddddd" points="109.21,-75.9 119.21,-72.4 109.21,-68.9 109.21,-75.9"/>
<text text-anchor="middle" x="97.4" y="-75.6" font-family="Times,serif" font-size="14.00" fill="#dddddd">a</text>
</g>
<!-- A₃₂ -->
<g id="node7" class="node">
<title>A₃₂</title>
<ellipse fill="#777777" stroke="#dddddd" cx="221.22" cy="-72.4" rx="18" ry="18"/>
<text text-anchor="middle" x="221.22" y="-67.35" font-family="Times,serif" font-size="14.00" fill="#dddddd">A₃₂</text>
</g>
<!-- A₃₁&#45;&gt;A₃₂ -->
<g id="edge4" class="edge">
<title>A₃₁&#45;&gt;A₃₂</title>
<path fill="none" stroke="#dddddd" d="M156.36,-72.4C166.66,-72.4 180.14,-72.4 192.05,-72.4"/>
<polygon fill="#dddddd" stroke="#dddddd" points="191.76,-75.9 201.76,-72.4 191.76,-68.9 191.76,-75.9"/>
<text text-anchor="middle" x="179.95" y="-75.6" font-family="Times,serif" font-size="14.00" fill="#dddddd">A</text>
</g>
<!-- A₃₂&#45;&gt;A₃ -->
<g id="edge5" class="edge">
<title>A₃₂&#45;&gt;A₃</title>
<path fill="none" stroke="#dddddd" d="M239.05,-72.4C248.37,-72.4 260.21,-72.4 270.96,-72.4"/>
<polygon fill="#dddddd" stroke="#dddddd" points="270.93,-75.9 280.93,-72.4 270.93,-68.9 270.93,-75.9"/>
<text text-anchor="middle" x="261" y="-75.6" font-family="Times,serif" font-size="14.00" fill="#dddddd">b</text>
</g>
<!-- start2 -->
<g id="node8" class="node">
<title>start2</title>
</g>
<!-- S₂₀ -->
<g id="node10" class="node">
<title>S₂₀</title>
<ellipse fill="#555555" stroke="#dddddd" cx="56.12" cy="-126.4" rx="18" ry="18"/>
<text text-anchor="middle" x="56.12" y="-121.35" font-family="Times,serif" font-size="14.00" fill="#dddddd">S₂₀</text>
</g>
<!-- start2&#45;&gt;S₂₀ -->
<g id="edge6" class="edge">
<title>start2&#45;&gt;S₂₀</title>
<path fill="none" stroke="#dddddd" d="M18.23,-126.4C21.06,-126.4 24.05,-126.4 27.05,-126.4"/>
<polygon fill="#dddddd" stroke="#dddddd" points="26.87,-129.9 36.87,-126.4 26.87,-122.9 26.87,-129.9"/>
</g>
<!-- S₂ -->
<g id="node9" class="node">
<title>S₂</title>
<ellipse fill="#555555" stroke="#dddddd" cx="138.67" cy="-126.4" rx="14.4" ry="14.4"/>
<ellipse fill="none" stroke="#dddddd" cx="138.67" cy="-126.4" rx="18.4" ry="18.4"/>
<text text-anchor="middle" x="138.67" y="-121.35" font-family="Times,serif" font-size="14.00" fill="#dddddd">S₂</text>
</g>
<!-- S₂₀&#45;&gt;S₂ -->
<g id="edge7" class="edge">
<title>S₂₀&#45;&gt;S₂</title>
<path fill="none" stroke="#dddddd" d="M73.81,-126.4C84.04,-126.4 97.4,-126.4 109.26,-126.4"/>
<polygon fill="#dddddd" stroke="#dddddd" points="108.93,-129.9 118.93,-126.4 108.93,-122.9 108.93,-129.9"/>
<text text-anchor="middle" x="97.4" y="-129.6" font-family="Times,serif" font-size="14.00" fill="#dddddd">A</text>
</g>
<!-- start1 -->
<g id="node11" class="node">
<title>start1</title>
</g>
<!-- S₁₀ -->
<g id="node13" class="node">
<title>S₁₀</title>
<ellipse fill="#333333" stroke="#dddddd" cx="56.12" cy="-180.4" rx="18" ry="18"/>
<text text-anchor="middle" x="56.12" y="-175.35" font-family="Times,serif" font-size="14.00" fill="#dddddd">S₁₀</text>
</g>
<!-- start1&#45;&gt;S₁₀ -->
<g id="edge8" class="edge">
<title>start1&#45;&gt;S₁₀</title>
<path fill="none" stroke="#dddddd" d="M18.23,-180.4C21.06,-180.4 24.05,-180.4 27.05,-180.4"/>
<polygon fill="#dddddd" stroke="#dddddd" points="26.87,-183.9 36.87,-180.4 26.87,-176.9 26.87,-183.9"/>
</g>
<!-- S₁ -->
<g id="node12" class="node">
<title>S₁</title>
<ellipse fill="#333333" stroke="#dddddd" cx="221.22" cy="-180.4" rx="14.4" ry="14.4"/>
<ellipse fill="none" stroke="#dddddd" cx="221.22" cy="-180.4" rx="18.4" ry="18.4"/>
<text text-anchor="middle" x="221.22" y="-175.35" font-family="Times,serif" font-size="14.00" fill="#dddddd">S₁</text>
</g>
<!-- S₁₁ -->
<g id="node14" class="node">
<title>S₁₁</title>
<ellipse fill="#333333" stroke="#dddddd" cx="138.67" cy="-180.4" rx="18" ry="18"/>
<text text-anchor="middle" x="138.67" y="-175.35" font-family="Times,serif" font-size="14.00" fill="#dddddd">S₁₁</text>
</g>
<!-- S₁₀&#45;&gt;S₁₁ -->
<g id="edge9" class="edge">
<title>S₁₀&#45;&gt;S₁₁</title>
<path fill="none" stroke="#dddddd" d="M73.81,-180.4C84.11,-180.4 97.59,-180.4 109.5,-180.4"/>
<polygon fill="#dddddd" stroke="#dddddd" points="109.21,-183.9 119.21,-180.4 109.21,-176.9 109.21,-183.9"/>
<text text-anchor="middle" x="97.4" y="-183.6" font-family="Times,serif" font-size="14.00" fill="#dddddd">s</text>
</g>
<!-- S₁₁&#45;&gt;S₁ -->
<g id="edge10" class="edge">
<title>S₁₁&#45;&gt;S₁</title>
<path fill="none" stroke="#dddddd" d="M156.36,-180.4C166.59,-180.4 179.95,-180.4 191.81,-180.4"/>
<polygon fill="#dddddd" stroke="#dddddd" points="191.48,-183.9 201.48,-180.4 191.48,-176.9 191.48,-183.9"/>
<text text-anchor="middle" x="179.95" y="-183.6" font-family="Times,serif" font-size="14.00" fill="#dddddd">A</text>
</g>
</g>
</svg>
