<?xml version="1.0" encoding="UTF-8" standalone="no"?>
<!DOCTYPE svg PUBLIC "-//W3C//DTD SVG 1.1//EN"
 "http://www.w3.org/Graphics/SVG/1.1/DTD/svg11.dtd">
<!-- Generated by graphviz version 11.0.0 (0)
 -->
<!-- Pages: 1 -->
<svg width="326pt" height="207pt"
 viewBox="0.00 0.00 326.17 206.80" xmlns="http://www.w3.org/2000/svg" xmlns:xlink="http://www.w3.org/1999/xlink">
<g id="graph0" class="graph" transform="scale(1 1) rotate(0) translate(4 202.8)">
<!-- start4 -->
<g id="node1" class="node">
<title>start4</title>
</g>
<!-- A₄ -->
<g id="node2" class="node">
<title>A₄</title>
<ellipse fill="#aaaaaa" stroke="#dddddd" cx="55.12" cy="-18.4" rx="14.4" ry="14.4"/>
<ellipse fill="none" stroke="#dddddd" cx="55.12" cy="-18.4" rx="18.4" ry="18.4"/>
<text text-anchor="middle" x="55.12" y="-13.35" font-family="Times,serif" font-size="14.00" fill="#333333">A₄</text>
</g>
<!-- start4&#45;&gt;A₄ -->
<g id="edge1" class="edge">
<title>start4&#45;&gt;A₄</title>
<path fill="none" stroke="#dddddd" d="M18.21,-18.4C20.53,-18.4 22.97,-18.4 25.43,-18.4"/>
<polygon fill="#dddddd" stroke="#dddddd" points="25.26,-21.9 35.26,-18.4 25.26,-14.9 25.26,-21.9"/>
</g>
<!-- start3 -->
<g id="node3" class="node">
<title>start3</title>
</g>
<!-- A₃₀ -->
<g id="node5" class="node">
<title>A₃₀</title>
<ellipse fill="#777777" stroke="#dddddd" cx="55.12" cy="-72.4" rx="18" ry="18"/>
<text text-anchor="middle" x="55.12" y="-67.35" font-family="Times,serif" font-size="14.00" fill="#dddddd">A₃₀</text>
</g>
<!-- start3&#45;&gt;A₃₀ -->
<g id="edge2" class="edge">
<title>start3&#45;&gt;A₃₀</title>
<path fill="none" stroke="#dddddd" d="M18.21,-72.4C20.68,-72.4 23.27,-72.4 25.88,-72.4"/>
<polygon fill="#dddddd" stroke="#dddddd" points="25.63,-75.9 35.63,-72.4 25.63,-68.9 25.63,-75.9"/>
</g>
<!-- A₃ -->
<g id="node4" class="node">
<title>A₃</title>
<ellipse fill="#777777" stroke="#dddddd" cx="299.77" cy="-72.4" rx="14.4" ry="14.4"/>
<ellipse fill="none" stroke="#dddddd" cx="299.77" cy="-72.4" rx="18.4" ry="18.4"/>
<text text-anchor="middle" x="299.77" y="-67.35" font-family="Times,serif" font-size="14.00" fill="#dddddd">A₃</text>
</g>
<!-- A₃₁ -->
<g id="node6" class="node">
<title>A₃₁</title>
<ellipse fill="#777777" stroke="#dddddd" cx="137.67" cy="-72.4" rx="18" ry="18"/>
<text text-anchor="middle" x="137.67" y="-67.35" font-family="Times,serif" font-size="14.00" fill="#dddddd">A₃₁</text>
</g>
<!-- A₃₀&#45;&gt;A₃₁ -->
<g id="edge3" class="edge">
<title>A₃₀&#45;&gt;A₃₁</title>
<path fill="none" stroke="#dddddd" d="M72.81,-72.4C83.11,-72.4 96.59,-72.4 108.5,-72.4"/>
<polygon fill="#dddddd" stroke="#dddddd" points="108.21,-75.9 118.21,-72.4 108.21,-68.9 108.21,-75.9"/>
<text text-anchor="middle" x="96.4" y="-75.6" font-family="Times,serif" font-size="14.00" fill="#dddddd">a</text>
</g>
<!-- A₃₂ -->
<g id="node7" class="node">
<title>A₃₂</title>
<ellipse fill="#777777" stroke="#dddddd" cx="220.22" cy="-72.4" rx="18" ry="18"/>
<text text-anchor="middle" x="220.22" y="-67.35" font-family="Times,serif" font-size="14.00" fill="#dddddd">A₃₂</text>
</g>
<!-- A₃₁&#45;&gt;A₃₂ -->
<g id="edge4" class="edge">
<title>A₃₁&#45;&gt;A₃₂</title>
<path fill="none" stroke="#dddddd" d="M155.36,-72.4C165.66,-72.4 179.14,-72.4 191.05,-72.4"/>
<polygon fill="#dddddd" stroke="#dddddd" points="190.76,-75.9 200.76,-72.4 190.76,-68.9 190.76,-75.9"/>
<text text-anchor="middle" x="178.95" y="-75.6" font-family="Times,serif" font-size="14.00" fill="#dddddd">A</text>
</g>
<!-- A₃₂&#45;&gt;A₃ -->
<g id="edge5" class="edge">
<title>A₃₂&#45;&gt;A₃</title>
<path fill="none" stroke="#dddddd" d="M238.05,-72.4C247.37,-72.4 259.21,-72.4 269.96,-72.4"/>
<polygon fill="#dddddd" stroke="#dddddd" points="269.93,-75.9 279.93,-72.4 269.93,-68.9 269.93,-75.9"/>
<text text-anchor="middle" x="260" y="-75.6" font-family="Times,serif" font-size="14.00" fill="#dddddd">b</text>
</g>
<!-- start2 -->
<g id="node8" class="node">
<title>start2</title>
</g>
<!-- S₂₀ -->
<g id="node10" class="node">
<title>S₂₀</title>
<ellipse fill="#555555" stroke="#dddddd" cx="55.12" cy="-126.4" rx="18" ry="18"/>
<text text-anchor="middle" x="55.12" y="-121.35" font-family="Times,serif" font-size="14.00" fill="#dddddd">S₂₀</text>
</g>
<!-- start2&#45;&gt;S₂₀ -->
<g id="edge6" class="edge">
<title>start2&#45;&gt;S₂₀</title>
<path fill="none" stroke="#dddddd" d="M18.21,-126.4C20.68,-126.4 23.27,-126.4 25.88,-126.4"/>
<polygon fill="#dddddd" stroke="#dddddd" points="25.63,-129.9 35.63,-126.4 25.63,-122.9 25.63,-129.9"/>
</g>
<!-- S₂ -->
<g id="node9" class="node">
<title>S₂</title>
<ellipse fill="#555555" stroke="#dddddd" cx="137.67" cy="-126.4" rx="14.4" ry="14.4"/>
<ellipse fill="none" stroke="#dddddd" cx="137.67" cy="-126.4" rx="18.4" ry="18.4"/>
<text text-anchor="middle" x="137.67" y="-121.35" font-family="Times,serif" font-size="14.00" fill="#dddddd">S₂</text>
</g>
<!-- S₂₀&#45;&gt;S₂ -->
<g id="edge7" class="edge">
<title>S₂₀&#45;&gt;S₂</title>
<path fill="none" stroke="#dddddd" d="M72.81,-126.4C83.04,-126.4 96.4,-126.4 108.26,-126.4"/>
<polygon fill="#dddddd" stroke="#dddddd" points="107.93,-129.9 117.93,-126.4 107.93,-122.9 107.93,-129.9"/>
<text text-anchor="middle" x="96.4" y="-129.6" font-family="Times,serif" font-size="14.00" fill="#dddddd">A</text>
</g>
<!-- start1 -->
<g id="node11" class="node">
<title>start1</title>
</g>
<!-- S₁₀ -->
<g id="node13" class="node">
<title>S₁₀</title>
<ellipse fill="#333333" stroke="#dddddd" cx="55.12" cy="-180.4" rx="18" ry="18"/>
<text text-anchor="middle" x="55.12" y="-175.35" font-family="Times,serif" font-size="14.00" fill="#dddddd">S₁₀</text>
</g>
<!-- start1&#45;&gt;S₁₀ -->
<g id="edge8" class="edge">
<title>start1&#45;&gt;S₁₀</title>
<path fill="none" stroke="#dddddd" d="M18.21,-180.4C20.68,-180.4 23.27,-180.4 25.88,-180.4"/>
<polygon fill="#dddddd" stroke="#dddddd" points="25.63,-183.9 35.63,-180.4 25.63,-176.9 25.63,-183.9"/>
</g>
<!-- S₁ -->
<g id="node12" class="node">
<title>S₁</title>
<ellipse fill="#333333" stroke="#dddddd" cx="220.22" cy="-180.4" rx="14.4" ry="14.4"/>
<ellipse fill="none" stroke="#dddddd" cx="220.22" cy="-180.4" rx="18.4" ry="18.4"/>
<text text-anchor="middle" x="220.22" y="-175.35" font-family="Times,serif" font-size="14.00" fill="#dddddd">S₁</text>
</g>
<!-- S₁₁ -->
<g id="node14" class="node">
<title>S₁₁</title>
<ellipse fill="#333333" stroke="#dddddd" cx="137.67" cy="-180.4" rx="18" ry="18"/>
<text text-anchor="middle" x="137.67" y="-175.35" font-family="Times,serif" font-size="14.00" fill="#dddddd">S₁₁</text>
</g>
<!-- S₁₀&#45;&gt;S₁₁ -->
<g id="edge9" class="edge">
<title>S₁₀&#45;&gt;S₁₁</title>
<path fill="none" stroke="#dddddd" d="M72.81,-180.4C83.11,-180.4 96.59,-180.4 108.5,-180.4"/>
<polygon fill="#dddddd" stroke="#dddddd" points="108.21,-183.9 118.21,-180.4 108.21,-176.9 108.21,-183.9"/>
<text text-anchor="middle" x="96.4" y="-183.6" font-family="Times,serif" font-size="14.00" fill="#dddddd">s</text>
</g>
<!-- S₁₁&#45;&gt;S₁ -->
<g id="edge10" class="edge">
<title>S₁₁&#45;&gt;S₁</title>
<path fill="none" stroke="#dddddd" d="M155.36,-180.4C165.59,-180.4 178.95,-180.4 190.81,-180.4"/>
<polygon fill="#dddddd" stroke="#dddddd" points="190.48,-183.9 200.48,-180.4 190.48,-176.9 190.48,-183.9"/>
<text text-anchor="middle" x="178.95" y="-183.6" font-family="Times,serif" font-size="14.00" fill="#dddddd">A</text>
</g>
</g>
</svg>
