<?xml version="1.0" encoding="UTF-8" standalone="no"?>
<!DOCTYPE svg PUBLIC "-//W3C//DTD SVG 1.1//EN"
 "http://www.w3.org/Graphics/SVG/1.1/DTD/svg11.dtd">
<!-- Generated by graphviz version 12.0.0 (0)
 -->
<!-- Pages: 1 -->
<svg width="540pt" height="332pt"
 viewBox="0.00 0.00 539.52 331.71" xmlns="http://www.w3.org/2000/svg" xmlns:xlink="http://www.w3.org/1999/xlink">
<g id="graph0" class="graph" transform="scale(1 1) rotate(0) translate(4 327.71)">
<!-- start1 -->
<g id="node1" class="node">
<title>start1</title>
</g>
<!-- Box0 -->
<g id="node6" class="node">
<title>Box0</title>
<polygon fill="#333333" stroke="none" points="78.85,-233.71 42.85,-233.71 42.85,-197.71 78.85,-197.71 78.85,-233.71"/>
<polygon fill="#333333" stroke="none" points="45.72,-168.71 45.72,-262.71 75.97,-262.71 75.97,-168.71 45.72,-168.71"/>
<text text-anchor="start" x="51.85" y="-244.41" font-family="Times,serif" font-size="14.00" fill="#dddddd">S₁₀</text>
<polygon fill="#555555" stroke="none" points="48.72,-216.71 48.72,-237.21 72.97,-237.21 72.97,-216.71 48.72,-216.71"/>
<text text-anchor="start" x="51.85" y="-221.91" font-family="Times,serif" font-size="14.00" fill="#dddddd">S₂₀</text>
<polygon fill="#777777" stroke="none" points="48.72,-194.21 48.72,-214.71 72.97,-214.71 72.97,-194.21 48.72,-194.21"/>
<text text-anchor="start" x="50.72" y="-199.41" font-family="Times,serif" font-size="14.00" fill="#dddddd">A₃₀</text>
<polygon fill="#aaaaaa" stroke="none" points="48.72,-171.71 48.72,-192.21 72.97,-192.21 72.97,-171.71 48.72,-171.71"/>
<text text-anchor="start" x="53.35" y="-176.91" font-family="Times,serif" font-size="14.00" fill="#333333">A₄</text>
<polygon fill="none" stroke="#dddddd" points="45.72,-168.71 45.72,-262.71 75.97,-262.71 75.97,-168.71 45.72,-168.71"/>
</g>
<!-- start1&#45;&gt;Box0 -->
<g id="edge1" class="edge">
<title>start1&#45;&gt;Box0:t</title>
<path fill="none" stroke="#dddddd" d="M18.14,-215.71C23.26,-215.71 28.97,-215.71 34.48,-215.71"/>
<polygon fill="#dddddd" stroke="#dddddd" points="34.4,-219.21 44.4,-215.71 34.4,-212.21 34.4,-219.21"/>
</g>
<!-- fin -->
<g id="node2" class="node">
<title>fin</title>
<ellipse fill="#333333" stroke="#dddddd" cx="185.1" cy="-33.71" rx="14.4" ry="14.4"/>
<ellipse fill="none" stroke="#dddddd" cx="185.1" cy="-33.71" rx="18.4" ry="18.4"/>
</g>
<!-- S₁ -->
<g id="node3" class="node">
<title>S₁</title>
<ellipse fill="#333333" stroke="#dddddd" cx="337.1" cy="-25.71" rx="18" ry="18"/>
<text text-anchor="middle" x="337.1" y="-20.66" font-family="Times,serif" font-size="14.00" fill="#dddddd">S₁</text>
</g>
<!-- S₁&#45;&gt;fin -->
<g id="edge8" class="edge">
<title>S₁&#45;&gt;fin</title>
<path fill="none" stroke="#dddddd" d="M319.55,-26.59C294.26,-27.94 245.7,-30.53 214.65,-32.19"/>
<polygon fill="#dddddd" stroke="#dddddd" points="214.61,-28.69 204.81,-32.71 214.99,-35.68 214.61,-28.69"/>
<text text-anchor="middle" x="241.02" y="-3.2" font-family="Times,serif" font-size="14.00" fill="#dddddd">↑[S,1] [a,0]</text>
</g>
<!-- S₁&#45;&gt;S₁ -->
<g id="edge7" class="edge">
<title>S₁:e&#45;&gt;S₁:e</title>
<path fill="none" stroke="#dddddd" d="M354.89,-25.71C365.57,-34.71 386.53,-34.71 386.53,-25.71 386.53,-19.1 375.23,-17.35 364.99,-20.44"/>
<polygon fill="#dddddd" stroke="#dddddd" points="363.48,-17.28 356.23,-25.01 366.72,-23.49 363.48,-17.28"/>
<text text-anchor="middle" x="401.9" y="-37.69" font-family="Times,serif" font-size="14.00" fill="#dddddd"> ↑[S,1] [a,1] ↓[S,1]</text>
</g>
<!-- S₂ -->
<g id="node4" class="node">
<title>S₂</title>
<ellipse fill="#555555" stroke="#dddddd" cx="185.1" cy="-105.71" rx="18" ry="18"/>
<text text-anchor="middle" x="185.1" y="-100.66" font-family="Times,serif" font-size="14.00" fill="#dddddd">S₂</text>
</g>
<!-- S₂&#45;&gt;fin -->
<g id="edge9" class="edge">
<title>S₂&#45;&gt;fin</title>
<path fill="none" stroke="#dddddd" d="M185.1,-87.8C185.1,-80.35 185.1,-71.52 185.1,-63.17"/>
<polygon fill="#dddddd" stroke="#dddddd" points="188.6,-63.39 185.1,-53.39 181.6,-63.39 188.6,-63.39"/>
<text text-anchor="middle" x="173.85" y="-64.86" font-family="Times,serif" font-size="14.00" fill="#dddddd">↑[A,0] &#160;&#160;&#160;&#160;</text>
</g>
<!-- S₂&#45;&gt;fin -->
<!-- A₃ -->
<g id="node5" class="node">
<title>A₃</title>
<ellipse fill="#777777" stroke="#dddddd" cx="457.72" cy="-215.71" rx="18" ry="18"/>
<text text-anchor="middle" x="457.72" y="-210.66" font-family="Times,serif" font-size="14.00" fill="#dddddd">A₃</text>
</g>
<!-- A₃&#45;&gt;S₂ -->
<g id="edge12" class="edge">
<title>A₃&#45;&gt;S₂</title>
<path fill="none" stroke="#dddddd" d="M440.96,-209.3C396.15,-191.09 267.74,-138.9 212.2,-116.32"/>
<polygon fill="#dddddd" stroke="#dddddd" points="213.8,-113.19 203.22,-112.67 211.16,-119.68 213.8,-113.19"/>
<text text-anchor="middle" x="417.58" y="-160.06" font-family="Times,serif" font-size="14.00" fill="#dddddd">↑[b,2] [A,1] [a,0] ↓[A,0]</text>
</g>
<!-- Box2 -->
<g id="node8" class="node">
<title>Box2</title>
<polygon fill="#333333" stroke="none" points="355.1,-233.71 319.1,-233.71 319.1,-197.71 355.1,-197.71 355.1,-233.71"/>
<polygon fill="#333333" stroke="none" points="321.97,-191.21 321.97,-240.21 352.22,-240.21 352.22,-191.21 321.97,-191.21"/>
<polygon fill="#555555" stroke="none" points="324.97,-216.71 324.97,-237.21 349.22,-237.21 349.22,-216.71 324.97,-216.71"/>
<text text-anchor="start" x="330.72" y="-221.91" font-family="Times,serif" font-size="14.00" fill="#dddddd">S₂</text>
<polygon fill="#777777" stroke="none" points="324.97,-194.21 324.97,-214.71 349.22,-214.71 349.22,-194.21 324.97,-194.21"/>
<text text-anchor="start" x="326.97" y="-199.41" font-family="Times,serif" font-size="14.00" fill="#dddddd">A₃₂</text>
<polygon fill="none" stroke="#dddddd" points="321.97,-191.21 321.97,-240.21 352.22,-240.21 352.22,-191.21 321.97,-191.21"/>
</g>
<!-- A₃&#45;&gt;Box2 -->
<g id="edge11" class="edge">
<title>A₃&#45;&gt;Box2:t</title>
<path fill="none" stroke="#dddddd" d="M442.34,-225.06C436.24,-228.5 428.89,-231.98 421.72,-233.71 402.93,-238.26 397.13,-237.76 378.22,-233.71 372.95,-232.58 367.54,-230.71 362.47,-228.59"/>
<polygon fill="#dddddd" stroke="#dddddd" points="363.99,-225.44 353.45,-224.38 361.03,-231.78 363.99,-225.44"/>
<text text-anchor="middle" x="464.02" y="-239.99" font-family="Times,serif" font-size="14.00" fill="#dddddd">↑[b,2] [A,1] [a,1] ↓[A,1]</text>
</g>
<!-- Box0&#45;&gt;S₂ -->
<g id="edge3" class="edge">
<title>Box0:t&#45;&gt;S₂</title>
<path fill="none" stroke="#dddddd" d="M75.87,-203.09C97.21,-183.89 137.97,-147.21 162.93,-124.76"/>
<polygon fill="#dddddd" stroke="#dddddd" points="165.12,-127.49 170.22,-118.2 160.44,-122.29 165.12,-127.49"/>
<text text-anchor="middle" x="122.43" y="-122.52" font-family="Times,serif" font-size="14.00" fill="#dddddd">($), ↓[A,0]</text>
</g>
<!-- Box1 -->
<g id="node7" class="node">
<title>Box1</title>
<polygon fill="#333333" stroke="none" points="203.1,-233.71 167.1,-233.71 167.1,-197.71 203.1,-197.71 203.1,-233.71"/>
<polygon fill="#333333" stroke="none" points="169.97,-146.21 169.97,-285.21 200.22,-285.21 200.22,-146.21 169.97,-146.21"/>
<text text-anchor="start" x="176.1" y="-266.91" font-family="Times,serif" font-size="14.00" fill="#dddddd">S₁₀</text>
<text text-anchor="start" x="176.1" y="-244.41" font-family="Times,serif" font-size="14.00" fill="#dddddd">S₁₁</text>
<polygon fill="#555555" stroke="none" points="172.97,-216.71 172.97,-237.21 197.22,-237.21 197.22,-216.71 172.97,-216.71"/>
<text text-anchor="start" x="176.1" y="-221.91" font-family="Times,serif" font-size="14.00" fill="#dddddd">S₂₀</text>
<polygon fill="#777777" stroke="none" points="172.97,-194.21 172.97,-214.71 197.22,-214.71 197.22,-194.21 172.97,-194.21"/>
<text text-anchor="start" x="174.97" y="-199.41" font-family="Times,serif" font-size="14.00" fill="#dddddd">A₃₀</text>
<polygon fill="#777777" stroke="none" points="172.97,-171.71 172.97,-192.21 197.22,-192.21 197.22,-171.71 172.97,-171.71"/>
<text text-anchor="start" x="174.97" y="-176.91" font-family="Times,serif" font-size="14.00" fill="#dddddd">A₃₁</text>
<polygon fill="#aaaaaa" stroke="none" points="172.97,-149.21 172.97,-169.71 197.22,-169.71 197.22,-149.21 172.97,-149.21"/>
<text text-anchor="start" x="177.6" y="-154.41" font-family="Times,serif" font-size="14.00" fill="#333333">A₄</text>
<polygon fill="none" stroke="#dddddd" points="169.97,-146.21 169.97,-285.21 200.22,-285.21 200.22,-146.21 169.97,-146.21"/>
</g>
<!-- Box0&#45;&gt;Box1 -->
<g id="edge2" class="edge">
<title>Box0:t&#45;&gt;Box1:t</title>
<path fill="none" stroke="#dddddd" d="M75.87,-215.71C96.13,-215.71 133.93,-215.71 159.05,-215.71"/>
<polygon fill="#dddddd" stroke="#dddddd" points="158.72,-219.21 168.72,-215.71 158.72,-212.21 158.72,-219.21"/>
<text text-anchor="middle" x="122.97" y="-218.91" font-family="Times,serif" font-size="14.00" fill="#dddddd">a,↓[a,0]</text>
</g>
<!-- Box1&#45;&gt;S₂ -->
<!-- Box1&#45;&gt;Box1 -->
<g id="edge4" class="edge">
<title>Box1:n&#45;&gt;Box1:n</title>
<path fill="none" stroke="#dddddd" d="M185.1,-285.21C169.56,-295.21 169.56,-307.21 185.1,-307.21 196.99,-307.21 199.77,-300.18 193.46,-292.39"/>
<polygon fill="#dddddd" stroke="#dddddd" points="196.11,-290.06 186.24,-286.2 191.55,-295.37 196.11,-290.06"/>
<text text-anchor="middle" x="185.1" y="-310.41" font-family="Times,serif" font-size="14.00" fill="#dddddd">a,↓[a,1]</text>
</g>
<!-- Box1&#45;&gt;Box2 -->
<g id="edge5" class="edge">
<title>Box1:t&#45;&gt;Box2:t</title>
<path fill="none" stroke="#dddddd" d="M200.21,-215.71C225.57,-215.71 279.19,-215.71 310.97,-215.71"/>
<polygon fill="#dddddd" stroke="#dddddd" points="310.83,-219.21 320.83,-215.71 310.83,-212.21 310.83,-219.21"/>
<text text-anchor="middle" x="261.1" y="-218.91" font-family="Times,serif" font-size="14.00" fill="#dddddd">(b,$), ↓[A,1]</text>
</g>
<!-- Box2&#45;&gt;S₁ -->
<g id="edge10" class="edge">
<title>Box2:s&#45;&gt;S₁:n</title>
<path fill="none" stroke="#dddddd" d="M337.1,-56.52C337.1,-111.85 337.1,-129.72 337.1,-190.21"/>
<polygon fill="#dddddd" stroke="#dddddd" points="340.6,-56.84 337.1,-46.84 333.6,-56.84 340.6,-56.84"/>
<text text-anchor="middle" x="284.97" y="-72.14" font-family="Times,serif" font-size="14.00" fill="#dddddd">($), ↑[A,1] ↓[S,1] &#160;</text>
</g>
<!-- Box2&#45;&gt;S₁ -->
<!-- Box2&#45;&gt;A₃ -->
<g id="edge6" class="edge">
<title>Box2:t&#45;&gt;A₃</title>
<path fill="none" stroke="#dddddd" d="M352.17,-215.71C370.96,-215.71 404.68,-215.71 428.75,-215.71"/>
<polygon fill="#dddddd" stroke="#dddddd" points="428.48,-219.21 438.48,-215.71 428.48,-212.21 428.48,-219.21"/>
<text text-anchor="middle" x="399.97" y="-218.91" font-family="Times,serif" font-size="14.00" fill="#dddddd">b,↓[b,2]</text>
</g>
</g>
</svg>
