<?xml version="1.0" encoding="UTF-8" standalone="no"?>
<!DOCTYPE svg PUBLIC "-//W3C//DTD SVG 1.1//EN"
 "http://www.w3.org/Graphics/SVG/1.1/DTD/svg11.dtd">
<!-- Generated by graphviz version 11.0.0 (0)
 -->
<!-- Pages: 1 -->
<svg width="354pt" height="244pt"
 viewBox="0.00 0.00 353.72 244.00" xmlns="http://www.w3.org/2000/svg" xmlns:xlink="http://www.w3.org/1999/xlink">
<g id="graph0" class="graph" transform="scale(1 1) rotate(0) translate(4 240)">
<!-- start1 -->
<g id="node1" class="node">
<title>start1</title>
</g>
<!-- Box0 -->
<g id="node5" class="node">
<title>Box0</title>
<polygon fill="#333333" stroke="none" points="77.85,-146 41.85,-146 41.85,-110 77.85,-110 77.85,-146"/>
<polygon fill="#333333" stroke="none" points="44.72,-81 44.72,-175 74.97,-175 74.97,-81 44.72,-81"/>
<text text-anchor="start" x="50.85" y="-156.7" font-family="Times,serif" font-size="14.00" fill="#dddddd">S₁₀</text>
<polygon fill="#555555" stroke="none" points="47.72,-129 47.72,-149.5 71.97,-149.5 71.97,-129 47.72,-129"/>
<text text-anchor="start" x="50.85" y="-134.2" font-family="Times,serif" font-size="14.00" fill="#dddddd">S₂₀</text>
<polygon fill="#777777" stroke="none" points="47.72,-106.5 47.72,-127 71.97,-127 71.97,-106.5 47.72,-106.5"/>
<text text-anchor="start" x="49.72" y="-111.7" font-family="Times,serif" font-size="14.00" fill="#dddddd">A₃₀</text>
<polygon fill="#aaaaaa" stroke="none" points="47.72,-84 47.72,-104.5 71.97,-104.5 71.97,-84 47.72,-84"/>
<text text-anchor="start" x="52.35" y="-89.2" font-family="Times,serif" font-size="14.00" fill="#333333">A₄</text>
<polygon fill="none" stroke="#dddddd" points="44.72,-81 44.72,-175 74.97,-175 74.97,-81 44.72,-81"/>
</g>
<!-- start1&#45;&gt;Box0 -->
<g id="edge1" class="edge">
<title>start1&#45;&gt;Box0:t</title>
<path fill="none" stroke="#dddddd" d="M18.16,-128C22.97,-128 28.3,-128 33.47,-128"/>
<polygon fill="#dddddd" stroke="#dddddd" points="33.41,-131.5 43.41,-128 33.41,-124.5 33.41,-131.5"/>
</g>
<!-- S₁ -->
<g id="node2" class="node">
<title>S₁</title>
<ellipse fill="#333333" stroke="#dddddd" cx="243.85" cy="-63" rx="18" ry="18"/>
<text text-anchor="middle" x="243.85" y="-57.95" font-family="Times,serif" font-size="14.00" fill="#dddddd">S₁</text>
</g>
<!-- S₂ -->
<g id="node3" class="node">
<title>S₂</title>
<ellipse fill="#555555" stroke="#dddddd" cx="151.85" cy="-18" rx="18" ry="18"/>
<text text-anchor="middle" x="151.85" y="-12.95" font-family="Times,serif" font-size="14.00" fill="#dddddd">S₂</text>
</g>
<!-- A₃ -->
<g id="node4" class="node">
<title>A₃</title>
<ellipse fill="#777777" stroke="#dddddd" cx="327.72" cy="-128" rx="18" ry="18"/>
<text text-anchor="middle" x="327.72" y="-122.95" font-family="Times,serif" font-size="14.00" fill="#dddddd">A₃</text>
</g>
<!-- Box0&#45;&gt;S₂ -->
<g id="edge3" class="edge">
<title>Box0:t&#45;&gt;S₂</title>
<path fill="none" stroke="#dddddd" d="M74.88,-110.83C88.6,-94.04 110.09,-67.76 128.72,-45 130.1,-43.31 131.53,-41.56 132.97,-39.81"/>
<polygon fill="#dddddd" stroke="#dddddd" points="135.45,-42.31 139.08,-32.35 130.03,-37.87 135.45,-42.31"/>
<text text-anchor="middle" x="105.85" y="-80.2" font-family="Times,serif" font-size="14.00" fill="#dddddd">A</text>
</g>
<!-- Box1 -->
<g id="node6" class="node">
<title>Box1</title>
<polygon fill="#333333" stroke="none" points="169.85,-146 133.85,-146 133.85,-110 169.85,-110 169.85,-146"/>
<polygon fill="#333333" stroke="none" points="136.72,-58.5 136.72,-197.5 166.97,-197.5 166.97,-58.5 136.72,-58.5"/>
<text text-anchor="start" x="142.85" y="-179.2" font-family="Times,serif" font-size="14.00" fill="#dddddd">S₁₀</text>
<text text-anchor="start" x="142.85" y="-156.7" font-family="Times,serif" font-size="14.00" fill="#dddddd">S₁₁</text>
<polygon fill="#555555" stroke="none" points="139.72,-129 139.72,-149.5 163.97,-149.5 163.97,-129 139.72,-129"/>
<text text-anchor="start" x="142.85" y="-134.2" font-family="Times,serif" font-size="14.00" fill="#dddddd">S₂₀</text>
<polygon fill="#777777" stroke="none" points="139.72,-106.5 139.72,-127 163.97,-127 163.97,-106.5 139.72,-106.5"/>
<text text-anchor="start" x="141.72" y="-111.7" font-family="Times,serif" font-size="14.00" fill="#dddddd">A₃₀</text>
<polygon fill="#777777" stroke="none" points="139.72,-84 139.72,-104.5 163.97,-104.5 163.97,-84 139.72,-84"/>
<text text-anchor="start" x="141.72" y="-89.2" font-family="Times,serif" font-size="14.00" fill="#dddddd">A₃₁</text>
<polygon fill="#aaaaaa" stroke="none" points="139.72,-61.5 139.72,-82 163.97,-82 163.97,-61.5 139.72,-61.5"/>
<text text-anchor="start" x="144.35" y="-66.7" font-family="Times,serif" font-size="14.00" fill="#333333">A₄</text>
<polygon fill="none" stroke="#dddddd" points="136.72,-58.5 136.72,-197.5 166.97,-197.5 166.97,-58.5 136.72,-58.5"/>
</g>
<!-- Box0&#45;&gt;Box1 -->
<g id="edge2" class="edge">
<title>Box0:t&#45;&gt;Box1:t</title>
<path fill="none" stroke="#dddddd" d="M74.91,-128C88.38,-128 109.03,-128 125.39,-128"/>
<polygon fill="#dddddd" stroke="#dddddd" points="125.37,-131.5 135.37,-128 125.37,-124.5 125.37,-131.5"/>
<text text-anchor="middle" x="105.85" y="-131.2" font-family="Times,serif" font-size="14.00" fill="#dddddd">a</text>
</g>
<!-- Box1&#45;&gt;S₁ -->
<g id="edge6" class="edge">
<title>Box1:t&#45;&gt;S₁</title>
<path fill="none" stroke="#dddddd" d="M166.91,-117.84C181.12,-107.58 203.33,-91.54 220.06,-79.46"/>
<polygon fill="#dddddd" stroke="#dddddd" points="221.89,-82.45 227.95,-73.76 217.79,-76.78 221.89,-82.45"/>
<text text-anchor="middle" x="197.85" y="-100.2" font-family="Times,serif" font-size="14.00" fill="#dddddd">S</text>
</g>
<!-- Box1&#45;&gt;S₂ -->
<!-- Box1&#45;&gt;Box1 -->
<g id="edge4" class="edge">
<title>Box1:n&#45;&gt;Box1:n</title>
<path fill="none" stroke="#dddddd" d="M151.85,-197.5C140.35,-207.5 140.35,-219.5 151.85,-219.5 160.11,-219.5 162.44,-213.3 158.82,-206.1"/>
<polygon fill="#dddddd" stroke="#dddddd" points="161.82,-204.24 152.8,-198.68 156.38,-208.65 161.82,-204.24"/>
<text text-anchor="middle" x="151.85" y="-222.7" font-family="Times,serif" font-size="14.00" fill="#dddddd">a</text>
</g>
<!-- Box2 -->
<g id="node7" class="node">
<title>Box2</title>
<polygon fill="#333333" stroke="none" points="261.85,-146 225.85,-146 225.85,-110 261.85,-110 261.85,-146"/>
<polygon fill="#333333" stroke="none" points="228.72,-103.5 228.72,-152.5 258.97,-152.5 258.97,-103.5 228.72,-103.5"/>
<polygon fill="#555555" stroke="none" points="231.72,-129 231.72,-149.5 255.97,-149.5 255.97,-129 231.72,-129"/>
<text text-anchor="start" x="237.47" y="-134.2" font-family="Times,serif" font-size="14.00" fill="#dddddd">S₂</text>
<polygon fill="#777777" stroke="none" points="231.72,-106.5 231.72,-127 255.97,-127 255.97,-106.5 231.72,-106.5"/>
<text text-anchor="start" x="233.72" y="-111.7" font-family="Times,serif" font-size="14.00" fill="#dddddd">A₃₂</text>
<polygon fill="none" stroke="#dddddd" points="228.72,-103.5 228.72,-152.5 258.97,-152.5 258.97,-103.5 228.72,-103.5"/>
</g>
<!-- Box1&#45;&gt;Box2 -->
<g id="edge5" class="edge">
<title>Box1:t&#45;&gt;Box2:t</title>
<path fill="none" stroke="#dddddd" d="M166.91,-128C180.38,-128 201.03,-128 217.39,-128"/>
<polygon fill="#dddddd" stroke="#dddddd" points="217.37,-131.5 227.37,-128 217.37,-124.5 217.37,-131.5"/>
<text text-anchor="middle" x="197.85" y="-131.2" font-family="Times,serif" font-size="14.00" fill="#dddddd">A</text>
</g>
<!-- Box2&#45;&gt;S₁ -->
<!-- Box2&#45;&gt;A₃ -->
<g id="edge7" class="edge">
<title>Box2:t&#45;&gt;A₃</title>
<path fill="none" stroke="#dddddd" d="M258.73,-128C269.67,-128 285.28,-128 298.78,-128"/>
<polygon fill="#dddddd" stroke="#dddddd" points="298.41,-131.5 308.41,-128 298.41,-124.5 298.41,-131.5"/>
<text text-anchor="middle" x="288.35" y="-131.2" font-family="Times,serif" font-size="14.00" fill="#dddddd">b</text>
</g>
</g>
</svg>
