<?xml version="1.0" encoding="UTF-8" standalone="no"?>
<!DOCTYPE svg PUBLIC "-//W3C//DTD SVG 1.1//EN"
 "http://www.w3.org/Graphics/SVG/1.1/DTD/svg11.dtd">
<!-- Generated by graphviz version 12.1.1 (0)
 -->
<!-- Pages: 1 -->
<svg width="506pt" height="333pt"
 viewBox="0.00 0.00 505.77 332.55" xmlns="http://www.w3.org/2000/svg" xmlns:xlink="http://www.w3.org/1999/xlink">
<g id="graph0" class="graph" transform="scale(1 1) rotate(0) translate(4 328.55)">
<!-- start1 -->
<g id="node1" class="node">
<title>start1</title>
</g>
<!-- Box0 -->
<g id="node6" class="node">
<title>Box0</title>
<polygon fill="#333333" stroke="none" points="78.85,-234.55 42.85,-234.55 42.85,-198.55 78.85,-198.55 78.85,-234.55"/>
<polygon fill="#333333" stroke="none" points="45.72,-169.55 45.72,-263.55 75.97,-263.55 75.97,-169.55 45.72,-169.55"/>
<text text-anchor="start" x="51.85" y="-245.25" font-family="Times,serif" font-size="14.00" fill="#dddddd">S₁₀</text>
<polygon fill="#555555" stroke="none" points="48.72,-217.55 48.72,-238.05 72.97,-238.05 72.97,-217.55 48.72,-217.55"/>
<text text-anchor="start" x="51.85" y="-222.75" font-family="Times,serif" font-size="14.00" fill="#dddddd">S₂₀</text>
<polygon fill="#777777" stroke="none" points="48.72,-195.05 48.72,-215.55 72.97,-215.55 72.97,-195.05 48.72,-195.05"/>
<text text-anchor="start" x="50.72" y="-200.25" font-family="Times,serif" font-size="14.00" fill="#dddddd">A₃₀</text>
<polygon fill="#aaaaaa" stroke="none" points="48.72,-172.55 48.72,-193.05 72.97,-193.05 72.97,-172.55 48.72,-172.55"/>
<text text-anchor="start" x="53.35" y="-177.75" font-family="Times,serif" font-size="14.00" fill="#333333">A₄</text>
<polygon fill="none" stroke="#dddddd" points="45.72,-169.55 45.72,-263.55 75.97,-263.55 75.97,-169.55 45.72,-169.55"/>
</g>
<!-- start1&#45;&gt;Box0 -->
<g id="edge1" class="edge">
<title>start1&#45;&gt;Box0:t</title>
<path fill="none" stroke="#dddddd" d="M18.14,-216.55C23.26,-216.55 28.97,-216.55 34.48,-216.55"/>
<polygon fill="#dddddd" stroke="#dddddd" points="34.4,-220.05 44.4,-216.55 34.4,-213.05 34.4,-220.05"/>
</g>
<!-- fin -->
<g id="node2" class="node">
<title>fin</title>
<ellipse fill="#333333" stroke="#dddddd" cx="185.1" cy="-34.55" rx="14.4" ry="14.4"/>
<ellipse fill="none" stroke="#dddddd" cx="185.1" cy="-34.55" rx="18.4" ry="18.4"/>
</g>
<!-- S₁ -->
<g id="node3" class="node">
<title>S₁</title>
<ellipse fill="#333333" stroke="#dddddd" cx="303.35" cy="-26.55" rx="18" ry="18"/>
<text text-anchor="middle" x="303.35" y="-21.5" font-family="Times,serif" font-size="14.00" fill="#dddddd">S₁</text>
</g>
<!-- S₁&#45;&gt;fin -->
<g id="edge8" class="edge">
<title>S₁&#45;&gt;fin</title>
<path fill="none" stroke="#dddddd" d="M285.5,-27.71C266.98,-28.99 236.89,-31.06 214.66,-32.59"/>
<polygon fill="#dddddd" stroke="#dddddd" points="214.49,-29.09 204.76,-33.27 214.97,-36.07 214.49,-29.09"/>
<text text-anchor="middle" x="240.58" y="-3.2" font-family="Times,serif" font-size="14.00" fill="#dddddd">↑[S,1] [a,0]</text>
</g>
<!-- S₁&#45;&gt;S₁ -->
<g id="edge7" class="edge">
<title>S₁:e&#45;&gt;S₁:e</title>
<path fill="none" stroke="#dddddd" d="M321.14,-26.55C331.2,-35.55 350.91,-35.55 350.91,-26.55 350.91,-20.08 340.73,-18.26 331.27,-21.09"/>
<polygon fill="#dddddd" stroke="#dddddd" points="329.62,-18.01 322.47,-25.83 332.94,-24.17 329.62,-18.01"/>
<text text-anchor="middle" x="367.65" y="-39.87" font-family="Times,serif" font-size="14.00" fill="#dddddd"> ↑[S,1] [a,1] ↓[S,1]</text>
</g>
<!-- S₂ -->
<g id="node4" class="node">
<title>S₂</title>
<ellipse fill="#555555" stroke="#dddddd" cx="185.1" cy="-106.55" rx="18" ry="18"/>
<text text-anchor="middle" x="185.1" y="-101.5" font-family="Times,serif" font-size="14.00" fill="#dddddd">S₂</text>
</g>
<!-- S₂&#45;&gt;fin -->
<g id="edge9" class="edge">
<title>S₂&#45;&gt;fin</title>
<path fill="none" stroke="#dddddd" d="M185.1,-88.64C185.1,-81.2 185.1,-72.36 185.1,-64.01"/>
<polygon fill="#dddddd" stroke="#dddddd" points="188.6,-64.24 185.1,-54.24 181.6,-64.24 188.6,-64.24"/>
<text text-anchor="middle" x="173.85" y="-65.7" font-family="Times,serif" font-size="14.00" fill="#dddddd">↑[A,0] &#160;&#160;&#160;&#160;</text>
</g>
<!-- S₂&#45;&gt;fin -->
<!-- A₃ -->
<g id="node5" class="node">
<title>A₃</title>
<ellipse fill="#777777" stroke="#dddddd" cx="423.97" cy="-216.55" rx="18" ry="18"/>
<text text-anchor="middle" x="423.97" y="-211.5" font-family="Times,serif" font-size="14.00" fill="#dddddd">A₃</text>
</g>
<!-- A₃&#45;&gt;S₂ -->
<g id="edge12" class="edge">
<title>A₃&#45;&gt;S₂</title>
<path fill="none" stroke="#dddddd" d="M407.61,-209.42C367.81,-190.94 261,-141.34 211.69,-118.44"/>
<polygon fill="#dddddd" stroke="#dddddd" points="213.19,-115.28 202.65,-114.24 210.24,-121.62 213.19,-115.28"/>
<text text-anchor="middle" x="386.41" y="-159.09" font-family="Times,serif" font-size="14.00" fill="#dddddd">↑[b,2] [A,1] [a,0] ↓[A,0]</text>
</g>
<!-- Box2 -->
<g id="node8" class="node">
<title>Box2</title>
<polygon fill="#333333" stroke="none" points="321.35,-234.55 285.35,-234.55 285.35,-198.55 321.35,-198.55 321.35,-234.55"/>
<polygon fill="#333333" stroke="none" points="288.22,-192.05 288.22,-241.05 318.47,-241.05 318.47,-192.05 288.22,-192.05"/>
<polygon fill="#555555" stroke="none" points="291.22,-217.55 291.22,-238.05 315.47,-238.05 315.47,-217.55 291.22,-217.55"/>
<text text-anchor="start" x="296.97" y="-222.75" font-family="Times,serif" font-size="14.00" fill="#dddddd">S₂</text>
<polygon fill="#777777" stroke="none" points="291.22,-195.05 291.22,-215.55 315.47,-215.55 315.47,-195.05 291.22,-195.05"/>
<text text-anchor="start" x="293.22" y="-200.25" font-family="Times,serif" font-size="14.00" fill="#dddddd">A₃₂</text>
<polygon fill="none" stroke="#dddddd" points="288.22,-192.05 288.22,-241.05 318.47,-241.05 318.47,-192.05 288.22,-192.05"/>
</g>
<!-- A₃&#45;&gt;Box2 -->
<g id="edge11" class="edge">
<title>A₃&#45;&gt;Box2:t</title>
<path fill="none" stroke="#dddddd" d="M408.59,-225.9C402.49,-229.34 395.14,-232.82 387.97,-234.55 369.18,-239.1 363.38,-238.6 344.47,-234.55 339.2,-233.43 333.79,-231.55 328.72,-229.43"/>
<polygon fill="#dddddd" stroke="#dddddd" points="330.24,-226.28 319.7,-225.22 327.28,-232.62 330.24,-226.28"/>
<text text-anchor="middle" x="430.27" y="-240.83" font-family="Times,serif" font-size="14.00" fill="#dddddd">↑[b,2] [A,1] [a,1] ↓[A,1]</text>
</g>
<!-- Box0&#45;&gt;S₂ -->
<g id="edge3" class="edge">
<title>Box0:t&#45;&gt;S₂</title>
<path fill="none" stroke="#dddddd" d="M75.87,-203.93C97.21,-184.74 137.97,-148.05 162.93,-125.6"/>
<polygon fill="#dddddd" stroke="#dddddd" points="165.12,-128.33 170.22,-119.04 160.44,-123.13 165.12,-128.33"/>
<text text-anchor="middle" x="122.43" y="-123.36" font-family="Times,serif" font-size="14.00" fill="#dddddd">↓[A,0]</text>
</g>
<!-- Box1 -->
<g id="node7" class="node">
<title>Box1</title>
<polygon fill="#333333" stroke="none" points="203.1,-234.55 167.1,-234.55 167.1,-198.55 203.1,-198.55 203.1,-234.55"/>
<polygon fill="#333333" stroke="none" points="169.97,-147.05 169.97,-286.05 200.22,-286.05 200.22,-147.05 169.97,-147.05"/>
<text text-anchor="start" x="176.1" y="-267.75" font-family="Times,serif" font-size="14.00" fill="#dddddd">S₁₀</text>
<text text-anchor="start" x="176.1" y="-245.25" font-family="Times,serif" font-size="14.00" fill="#dddddd">S₁₁</text>
<polygon fill="#555555" stroke="none" points="172.97,-217.55 172.97,-238.05 197.22,-238.05 197.22,-217.55 172.97,-217.55"/>
<text text-anchor="start" x="176.1" y="-222.75" font-family="Times,serif" font-size="14.00" fill="#dddddd">S₂₀</text>
<polygon fill="#777777" stroke="none" points="172.97,-195.05 172.97,-215.55 197.22,-215.55 197.22,-195.05 172.97,-195.05"/>
<text text-anchor="start" x="174.97" y="-200.25" font-family="Times,serif" font-size="14.00" fill="#dddddd">A₃₀</text>
<polygon fill="#777777" stroke="none" points="172.97,-172.55 172.97,-193.05 197.22,-193.05 197.22,-172.55 172.97,-172.55"/>
<text text-anchor="start" x="174.97" y="-177.75" font-family="Times,serif" font-size="14.00" fill="#dddddd">A₃₁</text>
<polygon fill="#aaaaaa" stroke="none" points="172.97,-150.05 172.97,-170.55 197.22,-170.55 197.22,-150.05 172.97,-150.05"/>
<text text-anchor="start" x="177.6" y="-155.25" font-family="Times,serif" font-size="14.00" fill="#333333">A₄</text>
<polygon fill="none" stroke="#dddddd" points="169.97,-147.05 169.97,-286.05 200.22,-286.05 200.22,-147.05 169.97,-147.05"/>
</g>
<!-- Box0&#45;&gt;Box1 -->
<g id="edge2" class="edge">
<title>Box0:t&#45;&gt;Box1:t</title>
<path fill="none" stroke="#dddddd" d="M75.87,-216.55C96.13,-216.55 133.93,-216.55 159.05,-216.55"/>
<polygon fill="#dddddd" stroke="#dddddd" points="158.72,-220.05 168.72,-216.55 158.72,-213.05 158.72,-220.05"/>
<text text-anchor="middle" x="122.97" y="-219.75" font-family="Times,serif" font-size="14.00" fill="#dddddd">a,↓[a,0]</text>
</g>
<!-- Box1&#45;&gt;S₂ -->
<!-- Box1&#45;&gt;Box1 -->
<g id="edge4" class="edge">
<title>Box1:n&#45;&gt;Box1:n</title>
<path fill="none" stroke="#dddddd" d="M185.1,-286.05C170.31,-296.05 170.31,-308.05 185.1,-308.05 196.18,-308.05 198.95,-301.3 193.41,-293.71"/>
<polygon fill="#dddddd" stroke="#dddddd" points="195.94,-291.28 186.21,-287.08 191.19,-296.43 195.94,-291.28"/>
<text text-anchor="middle" x="185.1" y="-311.25" font-family="Times,serif" font-size="14.00" fill="#dddddd">a,↓[a,1]</text>
</g>
<!-- Box1&#45;&gt;Box2 -->
<g id="edge5" class="edge">
<title>Box1:t&#45;&gt;Box2:t</title>
<path fill="none" stroke="#dddddd" d="M199.89,-216.55C218.94,-216.55 253.64,-216.55 277.33,-216.55"/>
<polygon fill="#dddddd" stroke="#dddddd" points="277.06,-220.05 287.06,-216.55 277.06,-213.05 277.06,-220.05"/>
<text text-anchor="middle" x="244.22" y="-219.75" font-family="Times,serif" font-size="14.00" fill="#dddddd">↓[A,1]</text>
</g>
<!-- Box2&#45;&gt;S₁ -->
<g id="edge10" class="edge">
<title>Box2:s&#45;&gt;S₁:n</title>
<path fill="none" stroke="#dddddd" d="M303.35,-57.36C303.35,-112.69 303.35,-130.56 303.35,-191.05"/>
<polygon fill="#dddddd" stroke="#dddddd" points="306.85,-57.69 303.35,-47.69 299.85,-57.69 306.85,-57.69"/>
<text text-anchor="middle" x="262.85" y="-72.98" font-family="Times,serif" font-size="14.00" fill="#dddddd">↑[A,1] ↓[S,1] &#160;</text>
</g>
<!-- Box2&#45;&gt;S₁ -->
<!-- Box2&#45;&gt;A₃ -->
<g id="edge6" class="edge">
<title>Box2:t&#45;&gt;A₃</title>
<path fill="none" stroke="#dddddd" d="M318.42,-216.55C337.21,-216.55 370.93,-216.55 395,-216.55"/>
<polygon fill="#dddddd" stroke="#dddddd" points="394.73,-220.05 404.73,-216.55 394.73,-213.05 394.73,-220.05"/>
<text text-anchor="middle" x="366.22" y="-219.75" font-family="Times,serif" font-size="14.00" fill="#dddddd">b,↓[b,2]</text>
</g>
</g>
</svg>
