<?xml version="1.0" encoding="UTF-8" standalone="no"?>
<!DOCTYPE svg PUBLIC "-//W3C//DTD SVG 1.1//EN"
 "http://www.w3.org/Graphics/SVG/1.1/DTD/svg11.dtd">
<!-- Generated by graphviz version 11.0.0 (0)
 -->
<!-- Pages: 1 -->
<svg width="539pt" height="334pt"
 viewBox="0.00 0.00 538.52 333.52" xmlns="http://www.w3.org/2000/svg" xmlns:xlink="http://www.w3.org/1999/xlink">
<g id="graph0" class="graph" transform="scale(1 1) rotate(0) translate(4 329.52)">
<!-- start1 -->
<g id="node1" class="node">
<title>start1</title>
</g>
<!-- Box0 -->
<g id="node6" class="node">
<title>Box0</title>
<polygon fill="#333333" stroke="none" points="77.85,-235.52 41.85,-235.52 41.85,-199.52 77.85,-199.52 77.85,-235.52"/>
<polygon fill="#333333" stroke="none" points="44.72,-170.52 44.72,-264.52 74.97,-264.52 74.97,-170.52 44.72,-170.52"/>
<text text-anchor="start" x="50.85" y="-246.22" font-family="Times,serif" font-size="14.00" fill="#dddddd">S₁₀</text>
<polygon fill="#555555" stroke="none" points="47.72,-218.52 47.72,-239.02 71.97,-239.02 71.97,-218.52 47.72,-218.52"/>
<text text-anchor="start" x="50.85" y="-223.72" font-family="Times,serif" font-size="14.00" fill="#dddddd">S₂₀</text>
<polygon fill="#777777" stroke="none" points="47.72,-196.02 47.72,-216.52 71.97,-216.52 71.97,-196.02 47.72,-196.02"/>
<text text-anchor="start" x="49.72" y="-201.22" font-family="Times,serif" font-size="14.00" fill="#dddddd">A₃₀</text>
<polygon fill="#aaaaaa" stroke="none" points="47.72,-173.52 47.72,-194.02 71.97,-194.02 71.97,-173.52 47.72,-173.52"/>
<text text-anchor="start" x="52.35" y="-178.72" font-family="Times,serif" font-size="14.00" fill="#333333">A₄</text>
<polygon fill="none" stroke="#dddddd" points="44.72,-170.52 44.72,-264.52 74.97,-264.52 74.97,-170.52 44.72,-170.52"/>
</g>
<!-- start1&#45;&gt;Box0 -->
<g id="edge1" class="edge">
<title>start1&#45;&gt;Box0:t</title>
<path fill="none" stroke="#dddddd" d="M18.16,-217.52C22.97,-217.52 28.3,-217.52 33.47,-217.52"/>
<polygon fill="#dddddd" stroke="#dddddd" points="33.41,-221.02 43.41,-217.52 33.41,-214.02 33.41,-221.02"/>
</g>
<!-- fin -->
<g id="node2" class="node">
<title>fin</title>
<ellipse fill="#333333" stroke="#dddddd" cx="184.1" cy="-35.52" rx="14.4" ry="14.4"/>
<ellipse fill="none" stroke="#dddddd" cx="184.1" cy="-35.52" rx="18.4" ry="18.4"/>
</g>
<!-- S₁ -->
<g id="node3" class="node">
<title>S₁</title>
<ellipse fill="#333333" stroke="#dddddd" cx="336.1" cy="-22.52" rx="18" ry="18"/>
<text text-anchor="middle" x="336.1" y="-17.47" font-family="Times,serif" font-size="14.00" fill="#dddddd">S₁</text>
</g>
<!-- S₁&#45;&gt;fin -->
<g id="edge8" class="edge">
<title>S₁&#45;&gt;fin</title>
<path fill="none" stroke="#dddddd" d="M318.55,-23.96C293.26,-26.15 244.7,-30.36 213.65,-33.05"/>
<polygon fill="#dddddd" stroke="#dddddd" points="213.47,-29.55 203.81,-33.9 214.07,-36.52 213.47,-29.55"/>
<text text-anchor="middle" x="239.18" y="-3.2" font-family="Times,serif" font-size="14.00" fill="#dddddd">↑[S,1] [a,0]</text>
</g>
<!-- S₁&#45;&gt;S₁ -->
<g id="edge7" class="edge">
<title>S₁:e&#45;&gt;S₁:e</title>
<path fill="none" stroke="#dddddd" d="M353.89,-22.52C364.57,-31.52 385.53,-31.52 385.53,-22.52 385.53,-15.91 374.23,-14.16 363.99,-17.26"/>
<polygon fill="#dddddd" stroke="#dddddd" points="362.48,-14.1 355.23,-21.82 365.72,-20.3 362.48,-14.1"/>
<text text-anchor="middle" x="400.9" y="-34.5" font-family="Times,serif" font-size="14.00" fill="#dddddd"> ↑[S,1] [a,1] ↓[S,1]</text>
</g>
<!-- S₂ -->
<g id="node4" class="node">
<title>S₂</title>
<ellipse fill="#555555" stroke="#dddddd" cx="184.1" cy="-107.52" rx="18" ry="18"/>
<text text-anchor="middle" x="184.1" y="-102.47" font-family="Times,serif" font-size="14.00" fill="#dddddd">S₂</text>
</g>
<!-- S₂&#45;&gt;fin -->
<g id="edge9" class="edge">
<title>S₂&#45;&gt;fin</title>
<path fill="none" stroke="#dddddd" d="M184.1,-89.61C184.1,-82.17 184.1,-73.33 184.1,-64.98"/>
<polygon fill="#dddddd" stroke="#dddddd" points="187.6,-65.2 184.1,-55.2 180.6,-65.2 187.6,-65.2"/>
<text text-anchor="middle" x="172.85" y="-66.67" font-family="Times,serif" font-size="14.00" fill="#dddddd">↑[A,0] &#160;&#160;&#160;&#160;</text>
</g>
<!-- S₂&#45;&gt;fin -->
<!-- A₃ -->
<g id="node5" class="node">
<title>A₃</title>
<ellipse fill="#777777" stroke="#dddddd" cx="456.72" cy="-217.52" rx="18" ry="18"/>
<text text-anchor="middle" x="456.72" y="-212.47" font-family="Times,serif" font-size="14.00" fill="#dddddd">A₃</text>
</g>
<!-- A₃&#45;&gt;S₂ -->
<g id="edge12" class="edge">
<title>A₃&#45;&gt;S₂</title>
<path fill="none" stroke="#dddddd" d="M439.96,-211.11C395.15,-192.9 266.74,-140.71 211.2,-118.13"/>
<polygon fill="#dddddd" stroke="#dddddd" points="212.8,-115 202.22,-114.48 210.16,-121.49 212.8,-115"/>
<text text-anchor="middle" x="416.58" y="-161.87" font-family="Times,serif" font-size="14.00" fill="#dddddd">↑[b,2] [A,1] [a,0] ↓[A,0]</text>
</g>
<!-- Box2 -->
<g id="node8" class="node">
<title>Box2</title>
<polygon fill="#333333" stroke="none" points="354.1,-235.52 318.1,-235.52 318.1,-199.52 354.1,-199.52 354.1,-235.52"/>
<polygon fill="#333333" stroke="none" points="320.97,-193.02 320.97,-242.02 351.22,-242.02 351.22,-193.02 320.97,-193.02"/>
<polygon fill="#555555" stroke="none" points="323.97,-218.52 323.97,-239.02 348.22,-239.02 348.22,-218.52 323.97,-218.52"/>
<text text-anchor="start" x="329.72" y="-223.72" font-family="Times,serif" font-size="14.00" fill="#dddddd">S₂</text>
<polygon fill="#777777" stroke="none" points="323.97,-196.02 323.97,-216.52 348.22,-216.52 348.22,-196.02 323.97,-196.02"/>
<text text-anchor="start" x="325.97" y="-201.22" font-family="Times,serif" font-size="14.00" fill="#dddddd">A₃₂</text>
<polygon fill="none" stroke="#dddddd" points="320.97,-193.02 320.97,-242.02 351.22,-242.02 351.22,-193.02 320.97,-193.02"/>
</g>
<!-- A₃&#45;&gt;Box2 -->
<g id="edge11" class="edge">
<title>A₃&#45;&gt;Box2:t</title>
<path fill="none" stroke="#dddddd" d="M441.34,-226.87C435.24,-230.31 427.89,-233.79 420.72,-235.52 401.93,-240.07 396.13,-239.57 377.22,-235.52 371.95,-234.4 366.54,-232.52 361.47,-230.4"/>
<polygon fill="#dddddd" stroke="#dddddd" points="362.99,-227.25 352.45,-226.19 360.03,-233.59 362.99,-227.25"/>
<text text-anchor="middle" x="463.02" y="-241.8" font-family="Times,serif" font-size="14.00" fill="#dddddd">↑[b,2] [A,1] [a,1] ↓[A,1]</text>
</g>
<!-- Box0&#45;&gt;S₂ -->
<g id="edge3" class="edge">
<title>Box0:t&#45;&gt;S₂</title>
<path fill="none" stroke="#dddddd" d="M74.87,-204.9C96.21,-185.7 136.97,-149.02 161.93,-126.57"/>
<polygon fill="#dddddd" stroke="#dddddd" points="164.12,-129.3 169.22,-120.01 159.44,-124.1 164.12,-129.3"/>
<text text-anchor="middle" x="121.43" y="-124.33" font-family="Times,serif" font-size="14.00" fill="#dddddd">($), ↓[A,0]</text>
</g>
<!-- Box1 -->
<g id="node7" class="node">
<title>Box1</title>
<polygon fill="#333333" stroke="none" points="202.1,-235.52 166.1,-235.52 166.1,-199.52 202.1,-199.52 202.1,-235.52"/>
<polygon fill="#333333" stroke="none" points="168.97,-148.02 168.97,-287.02 199.22,-287.02 199.22,-148.02 168.97,-148.02"/>
<text text-anchor="start" x="175.1" y="-268.72" font-family="Times,serif" font-size="14.00" fill="#dddddd">S₁₀</text>
<text text-anchor="start" x="175.1" y="-246.22" font-family="Times,serif" font-size="14.00" fill="#dddddd">S₁₁</text>
<polygon fill="#555555" stroke="none" points="171.97,-218.52 171.97,-239.02 196.22,-239.02 196.22,-218.52 171.97,-218.52"/>
<text text-anchor="start" x="175.1" y="-223.72" font-family="Times,serif" font-size="14.00" fill="#dddddd">S₂₀</text>
<polygon fill="#777777" stroke="none" points="171.97,-196.02 171.97,-216.52 196.22,-216.52 196.22,-196.02 171.97,-196.02"/>
<text text-anchor="start" x="173.97" y="-201.22" font-family="Times,serif" font-size="14.00" fill="#dddddd">A₃₀</text>
<polygon fill="#777777" stroke="none" points="171.97,-173.52 171.97,-194.02 196.22,-194.02 196.22,-173.52 171.97,-173.52"/>
<text text-anchor="start" x="173.97" y="-178.72" font-family="Times,serif" font-size="14.00" fill="#dddddd">A₃₁</text>
<polygon fill="#aaaaaa" stroke="none" points="171.97,-151.02 171.97,-171.52 196.22,-171.52 196.22,-151.02 171.97,-151.02"/>
<text text-anchor="start" x="176.6" y="-156.22" font-family="Times,serif" font-size="14.00" fill="#333333">A₄</text>
<polygon fill="none" stroke="#dddddd" points="168.97,-148.02 168.97,-287.02 199.22,-287.02 199.22,-148.02 168.97,-148.02"/>
</g>
<!-- Box0&#45;&gt;Box1 -->
<g id="edge2" class="edge">
<title>Box0:t&#45;&gt;Box1:t</title>
<path fill="none" stroke="#dddddd" d="M74.87,-217.52C95.13,-217.52 132.93,-217.52 158.05,-217.52"/>
<polygon fill="#dddddd" stroke="#dddddd" points="157.72,-221.02 167.72,-217.52 157.72,-214.02 157.72,-221.02"/>
<text text-anchor="middle" x="121.97" y="-220.72" font-family="Times,serif" font-size="14.00" fill="#dddddd">a,↓[a,0]</text>
</g>
<!-- Box1&#45;&gt;S₂ -->
<!-- Box1&#45;&gt;Box1 -->
<g id="edge4" class="edge">
<title>Box1:n&#45;&gt;Box1:n</title>
<path fill="none" stroke="#dddddd" d="M184.1,-287.02C168.56,-297.02 168.56,-309.02 184.1,-309.02 195.99,-309.02 198.77,-301.99 192.46,-294.2"/>
<polygon fill="#dddddd" stroke="#dddddd" points="195.11,-291.87 185.24,-288.01 190.55,-297.18 195.11,-291.87"/>
<text text-anchor="middle" x="184.1" y="-312.22" font-family="Times,serif" font-size="14.00" fill="#dddddd">a,↓[a,1]</text>
</g>
<!-- Box1&#45;&gt;Box2 -->
<g id="edge5" class="edge">
<title>Box1:t&#45;&gt;Box2:t</title>
<path fill="none" stroke="#dddddd" d="M199.21,-217.52C224.57,-217.52 278.19,-217.52 309.97,-217.52"/>
<polygon fill="#dddddd" stroke="#dddddd" points="309.83,-221.02 319.83,-217.52 309.83,-214.02 309.83,-221.02"/>
<text text-anchor="middle" x="260.1" y="-220.72" font-family="Times,serif" font-size="14.00" fill="#dddddd">(b,$), ↓[A,1]</text>
</g>
<!-- Box2&#45;&gt;S₁ -->
<g id="edge10" class="edge">
<title>Box2:s&#45;&gt;S₁:n</title>
<path fill="none" stroke="#dddddd" d="M336.1,-192.02C336.1,-146.85 271.54,-157.68 272.76,-112.52 273.79,-74.48 324.09,-81.51 334.3,-52.61"/>
<polygon fill="#dddddd" stroke="#dddddd" points="337.74,-53.24 335.86,-42.81 330.83,-52.14 337.74,-53.24"/>
<text text-anchor="middle" x="356.08" y="-106.96" font-family="Times,serif" font-size="14.00" fill="#dddddd">($), ↑[A,1] ↓[S,1] &#160;</text>
</g>
<!-- Box2&#45;&gt;S₁ -->
<!-- Box2&#45;&gt;A₃ -->
<g id="edge6" class="edge">
<title>Box2:t&#45;&gt;A₃</title>
<path fill="none" stroke="#dddddd" d="M351.17,-217.52C369.96,-217.52 403.68,-217.52 427.75,-217.52"/>
<polygon fill="#dddddd" stroke="#dddddd" points="427.48,-221.02 437.48,-217.52 427.48,-214.02 427.48,-221.02"/>
<text text-anchor="middle" x="398.97" y="-220.72" font-family="Times,serif" font-size="14.00" fill="#dddddd">b,↓[b,2]</text>
</g>
</g>
</svg>
