<?xml version="1.0" encoding="UTF-8" standalone="no"?>
<!DOCTYPE svg PUBLIC "-//W3C//DTD SVG 1.1//EN"
 "http://www.w3.org/Graphics/SVG/1.1/DTD/svg11.dtd">
<!-- Generated by graphviz version 11.0.0 (0)
 -->
<!-- Pages: 1 -->
<svg width="505pt" height="335pt"
 viewBox="0.00 0.00 504.77 334.86" xmlns="http://www.w3.org/2000/svg" xmlns:xlink="http://www.w3.org/1999/xlink">
<g id="graph0" class="graph" transform="scale(1 1) rotate(0) translate(4 330.86)">
<!-- start1 -->
<g id="node1" class="node">
<title>start1</title>
</g>
<!-- Box0 -->
<g id="node6" class="node">
<title>Box0</title>
<polygon fill="#333333" stroke="none" points="77.85,-236.86 41.85,-236.86 41.85,-200.86 77.85,-200.86 77.85,-236.86"/>
<polygon fill="#333333" stroke="none" points="44.72,-171.86 44.72,-265.86 74.97,-265.86 74.97,-171.86 44.72,-171.86"/>
<text text-anchor="start" x="50.85" y="-247.56" font-family="Times,serif" font-size="14.00" fill="#dddddd">S₁₀</text>
<polygon fill="#555555" stroke="none" points="47.72,-219.86 47.72,-240.36 71.97,-240.36 71.97,-219.86 47.72,-219.86"/>
<text text-anchor="start" x="50.85" y="-225.06" font-family="Times,serif" font-size="14.00" fill="#dddddd">S₂₀</text>
<polygon fill="#777777" stroke="none" points="47.72,-197.36 47.72,-217.86 71.97,-217.86 71.97,-197.36 47.72,-197.36"/>
<text text-anchor="start" x="49.72" y="-202.56" font-family="Times,serif" font-size="14.00" fill="#dddddd">A₃₀</text>
<polygon fill="#aaaaaa" stroke="none" points="47.72,-174.86 47.72,-195.36 71.97,-195.36 71.97,-174.86 47.72,-174.86"/>
<text text-anchor="start" x="52.35" y="-180.06" font-family="Times,serif" font-size="14.00" fill="#333333">A₄</text>
<polygon fill="none" stroke="#dddddd" points="44.72,-171.86 44.72,-265.86 74.97,-265.86 74.97,-171.86 44.72,-171.86"/>
</g>
<!-- start1&#45;&gt;Box0 -->
<g id="edge1" class="edge">
<title>start1&#45;&gt;Box0:t</title>
<path fill="none" stroke="#dddddd" d="M18.16,-218.86C22.97,-218.86 28.3,-218.86 33.47,-218.86"/>
<polygon fill="#dddddd" stroke="#dddddd" points="33.41,-222.36 43.41,-218.86 33.41,-215.36 33.41,-222.36"/>
</g>
<!-- fin -->
<g id="node2" class="node">
<title>fin</title>
<ellipse fill="#333333" stroke="#dddddd" cx="184.1" cy="-36.86" rx="14.4" ry="14.4"/>
<ellipse fill="none" stroke="#dddddd" cx="184.1" cy="-36.86" rx="18.4" ry="18.4"/>
</g>
<!-- S₁ -->
<g id="node3" class="node">
<title>S₁</title>
<ellipse fill="#333333" stroke="#dddddd" cx="302.35" cy="-23.86" rx="18" ry="18"/>
<text text-anchor="middle" x="302.35" y="-18.81" font-family="Times,serif" font-size="14.00" fill="#dddddd">S₁</text>
</g>
<!-- S₁&#45;&gt;fin -->
<g id="edge8" class="edge">
<title>S₁&#45;&gt;fin</title>
<path fill="none" stroke="#dddddd" d="M284.5,-25.74C265.98,-27.82 235.89,-31.18 213.66,-33.66"/>
<polygon fill="#dddddd" stroke="#dddddd" points="213.3,-30.18 203.75,-34.77 214.08,-37.14 213.3,-30.18"/>
<text text-anchor="middle" x="238.48" y="-3.2" font-family="Times,serif" font-size="14.00" fill="#dddddd">↑[S,1] [a,0]</text>
</g>
<!-- S₁&#45;&gt;S₁ -->
<g id="edge7" class="edge">
<title>S₁:e&#45;&gt;S₁:e</title>
<path fill="none" stroke="#dddddd" d="M320.14,-23.86C330.2,-32.86 349.91,-32.86 349.91,-23.86 349.91,-17.39 339.73,-15.57 330.27,-18.4"/>
<polygon fill="#dddddd" stroke="#dddddd" points="328.62,-15.31 321.47,-23.14 331.94,-21.48 328.62,-15.31"/>
<text text-anchor="middle" x="366.65" y="-37.18" font-family="Times,serif" font-size="14.00" fill="#dddddd"> ↑[S,1] [a,1] ↓[S,1]</text>
</g>
<!-- S₂ -->
<g id="node4" class="node">
<title>S₂</title>
<ellipse fill="#555555" stroke="#dddddd" cx="184.1" cy="-108.86" rx="18" ry="18"/>
<text text-anchor="middle" x="184.1" y="-103.81" font-family="Times,serif" font-size="14.00" fill="#dddddd">S₂</text>
</g>
<!-- S₂&#45;&gt;fin -->
<g id="edge9" class="edge">
<title>S₂&#45;&gt;fin</title>
<path fill="none" stroke="#dddddd" d="M184.1,-90.95C184.1,-83.5 184.1,-74.67 184.1,-66.31"/>
<polygon fill="#dddddd" stroke="#dddddd" points="187.6,-66.54 184.1,-56.54 180.6,-66.54 187.6,-66.54"/>
<text text-anchor="middle" x="172.85" y="-68.01" font-family="Times,serif" font-size="14.00" fill="#dddddd">↑[A,0] &#160;&#160;&#160;&#160;</text>
</g>
<!-- S₂&#45;&gt;fin -->
<!-- A₃ -->
<g id="node5" class="node">
<title>A₃</title>
<ellipse fill="#777777" stroke="#dddddd" cx="422.97" cy="-218.86" rx="18" ry="18"/>
<text text-anchor="middle" x="422.97" y="-213.81" font-family="Times,serif" font-size="14.00" fill="#dddddd">A₃</text>
</g>
<!-- A₃&#45;&gt;S₂ -->
<g id="edge12" class="edge">
<title>A₃&#45;&gt;S₂</title>
<path fill="none" stroke="#dddddd" d="M406.61,-211.73C366.81,-193.25 260,-143.65 210.69,-120.75"/>
<polygon fill="#dddddd" stroke="#dddddd" points="212.19,-117.58 201.65,-116.55 209.24,-123.93 212.19,-117.58"/>
<text text-anchor="middle" x="385.41" y="-161.4" font-family="Times,serif" font-size="14.00" fill="#dddddd">↑[b,2] [A,1] [a,0] ↓[A,0]</text>
</g>
<!-- Box2 -->
<g id="node8" class="node">
<title>Box2</title>
<polygon fill="#333333" stroke="none" points="320.35,-236.86 284.35,-236.86 284.35,-200.86 320.35,-200.86 320.35,-236.86"/>
<polygon fill="#333333" stroke="none" points="287.22,-194.36 287.22,-243.36 317.47,-243.36 317.47,-194.36 287.22,-194.36"/>
<polygon fill="#555555" stroke="none" points="290.22,-219.86 290.22,-240.36 314.47,-240.36 314.47,-219.86 290.22,-219.86"/>
<text text-anchor="start" x="295.97" y="-225.06" font-family="Times,serif" font-size="14.00" fill="#dddddd">S₂</text>
<polygon fill="#777777" stroke="none" points="290.22,-197.36 290.22,-217.86 314.47,-217.86 314.47,-197.36 290.22,-197.36"/>
<text text-anchor="start" x="292.22" y="-202.56" font-family="Times,serif" font-size="14.00" fill="#dddddd">A₃₂</text>
<polygon fill="none" stroke="#dddddd" points="287.22,-194.36 287.22,-243.36 317.47,-243.36 317.47,-194.36 287.22,-194.36"/>
</g>
<!-- A₃&#45;&gt;Box2 -->
<g id="edge11" class="edge">
<title>A₃&#45;&gt;Box2:t</title>
<path fill="none" stroke="#dddddd" d="M407.59,-228.21C401.49,-231.65 394.14,-235.12 386.97,-236.86 368.18,-241.41 362.38,-240.91 343.47,-236.86 338.2,-235.73 332.79,-233.86 327.72,-231.74"/>
<polygon fill="#dddddd" stroke="#dddddd" points="329.24,-228.59 318.7,-227.53 326.28,-234.93 329.24,-228.59"/>
<text text-anchor="middle" x="429.27" y="-243.14" font-family="Times,serif" font-size="14.00" fill="#dddddd">↑[b,2] [A,1] [a,1] ↓[A,1]</text>
</g>
<!-- Box0&#45;&gt;S₂ -->
<g id="edge3" class="edge">
<title>Box0:t&#45;&gt;S₂</title>
<path fill="none" stroke="#dddddd" d="M74.87,-206.24C96.21,-187.04 136.97,-150.36 161.93,-127.91"/>
<polygon fill="#dddddd" stroke="#dddddd" points="164.12,-130.64 169.22,-121.35 159.44,-125.44 164.12,-130.64"/>
<text text-anchor="middle" x="121.43" y="-125.67" font-family="Times,serif" font-size="14.00" fill="#dddddd">↓[A,0]</text>
</g>
<!-- Box1 -->
<g id="node7" class="node">
<title>Box1</title>
<polygon fill="#333333" stroke="none" points="202.1,-236.86 166.1,-236.86 166.1,-200.86 202.1,-200.86 202.1,-236.86"/>
<polygon fill="#333333" stroke="none" points="168.97,-149.36 168.97,-288.36 199.22,-288.36 199.22,-149.36 168.97,-149.36"/>
<text text-anchor="start" x="175.1" y="-270.06" font-family="Times,serif" font-size="14.00" fill="#dddddd">S₁₀</text>
<text text-anchor="start" x="175.1" y="-247.56" font-family="Times,serif" font-size="14.00" fill="#dddddd">S₁₁</text>
<polygon fill="#555555" stroke="none" points="171.97,-219.86 171.97,-240.36 196.22,-240.36 196.22,-219.86 171.97,-219.86"/>
<text text-anchor="start" x="175.1" y="-225.06" font-family="Times,serif" font-size="14.00" fill="#dddddd">S₂₀</text>
<polygon fill="#777777" stroke="none" points="171.97,-197.36 171.97,-217.86 196.22,-217.86 196.22,-197.36 171.97,-197.36"/>
<text text-anchor="start" x="173.97" y="-202.56" font-family="Times,serif" font-size="14.00" fill="#dddddd">A₃₀</text>
<polygon fill="#777777" stroke="none" points="171.97,-174.86 171.97,-195.36 196.22,-195.36 196.22,-174.86 171.97,-174.86"/>
<text text-anchor="start" x="173.97" y="-180.06" font-family="Times,serif" font-size="14.00" fill="#dddddd">A₃₁</text>
<polygon fill="#aaaaaa" stroke="none" points="171.97,-152.36 171.97,-172.86 196.22,-172.86 196.22,-152.36 171.97,-152.36"/>
<text text-anchor="start" x="176.6" y="-157.56" font-family="Times,serif" font-size="14.00" fill="#333333">A₄</text>
<polygon fill="none" stroke="#dddddd" points="168.97,-149.36 168.97,-288.36 199.22,-288.36 199.22,-149.36 168.97,-149.36"/>
</g>
<!-- Box0&#45;&gt;Box1 -->
<g id="edge2" class="edge">
<title>Box0:t&#45;&gt;Box1:t</title>
<path fill="none" stroke="#dddddd" d="M74.87,-218.86C95.13,-218.86 132.93,-218.86 158.05,-218.86"/>
<polygon fill="#dddddd" stroke="#dddddd" points="157.72,-222.36 167.72,-218.86 157.72,-215.36 157.72,-222.36"/>
<text text-anchor="middle" x="121.97" y="-222.06" font-family="Times,serif" font-size="14.00" fill="#dddddd">a,↓[a,0]</text>
</g>
<!-- Box1&#45;&gt;S₂ -->
<!-- Box1&#45;&gt;Box1 -->
<g id="edge4" class="edge">
<title>Box1:n&#45;&gt;Box1:n</title>
<path fill="none" stroke="#dddddd" d="M184.1,-288.36C169.31,-298.36 169.31,-310.36 184.1,-310.36 195.18,-310.36 197.95,-303.61 192.41,-296.02"/>
<polygon fill="#dddddd" stroke="#dddddd" points="194.94,-293.58 185.21,-289.39 190.19,-298.73 194.94,-293.58"/>
<text text-anchor="middle" x="184.1" y="-313.56" font-family="Times,serif" font-size="14.00" fill="#dddddd">a,↓[a,1]</text>
</g>
<!-- Box1&#45;&gt;Box2 -->
<g id="edge5" class="edge">
<title>Box1:t&#45;&gt;Box2:t</title>
<path fill="none" stroke="#dddddd" d="M198.89,-218.86C217.94,-218.86 252.64,-218.86 276.33,-218.86"/>
<polygon fill="#dddddd" stroke="#dddddd" points="276.06,-222.36 286.06,-218.86 276.06,-215.36 276.06,-222.36"/>
<text text-anchor="middle" x="243.22" y="-222.06" font-family="Times,serif" font-size="14.00" fill="#dddddd">↓[A,1]</text>
</g>
<!-- Box2&#45;&gt;S₁ -->
<g id="edge10" class="edge">
<title>Box2:s&#45;&gt;S₁:n</title>
<path fill="none" stroke="#dddddd" d="M302.35,-193.36C302.35,-174.16 289.35,-173.18 279.22,-156.86 267.42,-137.86 252.41,-136.22 253.07,-113.86 254.09,-79.6 292.38,-80.41 300.74,-53.81"/>
<polygon fill="#dddddd" stroke="#dddddd" points="304.17,-54.55 302.13,-44.16 297.24,-53.56 304.17,-54.55"/>
<text text-anchor="middle" x="314.59" y="-84.21" font-family="Times,serif" font-size="14.00" fill="#dddddd">↑[A,1] ↓[S,1] &#160;</text>
</g>
<!-- Box2&#45;&gt;S₁ -->
<!-- Box2&#45;&gt;A₃ -->
<g id="edge6" class="edge">
<title>Box2:t&#45;&gt;A₃</title>
<path fill="none" stroke="#dddddd" d="M317.42,-218.86C336.21,-218.86 369.93,-218.86 394,-218.86"/>
<polygon fill="#dddddd" stroke="#dddddd" points="393.73,-222.36 403.73,-218.86 393.73,-215.36 393.73,-222.36"/>
<text text-anchor="middle" x="365.22" y="-222.06" font-family="Times,serif" font-size="14.00" fill="#dddddd">b,↓[b,2]</text>
</g>
</g>
</svg>
