<?xml version="1.0" encoding="UTF-8" standalone="no"?>
<!DOCTYPE svg PUBLIC "-//W3C//DTD SVG 1.1//EN"
 "http://www.w3.org/Graphics/SVG/1.1/DTD/svg11.dtd">
<!-- Generated by graphviz version 12.0.0 (0)
 -->
<!-- Pages: 1 -->
<svg width="355pt" height="244pt"
 viewBox="0.00 0.00 354.72 244.00" xmlns="http://www.w3.org/2000/svg" xmlns:xlink="http://www.w3.org/1999/xlink">
<g id="graph0" class="graph" transform="scale(1 1) rotate(0) translate(4 240)">
<!-- start1 -->
<g id="node1" class="node">
<title>start1</title>
</g>
<!-- Box0 -->
<g id="node5" class="node">
<title>Box0</title>
<polygon fill="#333333" stroke="none" points="78.85,-146 42.85,-146 42.85,-110 78.85,-110 78.85,-146"/>
<polygon fill="#333333" stroke="none" points="45.72,-81 45.72,-175 75.97,-175 75.97,-81 45.72,-81"/>
<text text-anchor="start" x="51.85" y="-156.7" font-family="Times,serif" font-size="14.00" fill="#dddddd">S₁₀</text>
<polygon fill="#555555" stroke="none" points="48.72,-129 48.72,-149.5 72.97,-149.5 72.97,-129 48.72,-129"/>
<text text-anchor="start" x="51.85" y="-134.2" font-family="Times,serif" font-size="14.00" fill="#dddddd">S₂₀</text>
<polygon fill="#777777" stroke="none" points="48.72,-106.5 48.72,-127 72.97,-127 72.97,-106.5 48.72,-106.5"/>
<text text-anchor="start" x="50.72" y="-111.7" font-family="Times,serif" font-size="14.00" fill="#dddddd">A₃₀</text>
<polygon fill="#aaaaaa" stroke="none" points="48.72,-84 48.72,-104.5 72.97,-104.5 72.97,-84 48.72,-84"/>
<text text-anchor="start" x="53.35" y="-89.2" font-family="Times,serif" font-size="14.00" fill="#333333">A₄</text>
<polygon fill="none" stroke="#dddddd" points="45.72,-81 45.72,-175 75.97,-175 75.97,-81 45.72,-81"/>
</g>
<!-- start1&#45;&gt;Box0 -->
<g id="edge1" class="edge">
<title>start1&#45;&gt;Box0:t</title>
<path fill="none" stroke="#dddddd" d="M18.14,-128C23.26,-128 28.97,-128 34.48,-128"/>
<polygon fill="#dddddd" stroke="#dddddd" points="34.4,-131.5 44.4,-128 34.4,-124.5 34.4,-131.5"/>
</g>
<!-- S₁ -->
<g id="node2" class="node">
<title>S₁</title>
<ellipse fill="#333333" stroke="#dddddd" cx="244.85" cy="-63" rx="18" ry="18"/>
<text text-anchor="middle" x="244.85" y="-57.95" font-family="Times,serif" font-size="14.00" fill="#dddddd">S₁</text>
</g>
<!-- S₂ -->
<g id="node3" class="node">
<title>S₂</title>
<ellipse fill="#555555" stroke="#dddddd" cx="152.85" cy="-18" rx="18" ry="18"/>
<text text-anchor="middle" x="152.85" y="-12.95" font-family="Times,serif" font-size="14.00" fill="#dddddd">S₂</text>
</g>
<!-- A₃ -->
<g id="node4" class="node">
<title>A₃</title>
<ellipse fill="#777777" stroke="#dddddd" cx="328.72" cy="-128" rx="18" ry="18"/>
<text text-anchor="middle" x="328.72" y="-122.95" font-family="Times,serif" font-size="14.00" fill="#dddddd">A₃</text>
</g>
<!-- Box0&#45;&gt;S₂ -->
<g id="edge3" class="edge">
<title>Box0:t&#45;&gt;S₂</title>
<path fill="none" stroke="#dddddd" d="M75.88,-110.83C89.6,-94.04 111.09,-67.76 129.72,-45 131.1,-43.31 132.53,-41.56 133.97,-39.81"/>
<polygon fill="#dddddd" stroke="#dddddd" points="136.45,-42.31 140.08,-32.35 131.03,-37.87 136.45,-42.31"/>
<text text-anchor="middle" x="106.85" y="-80.2" font-family="Times,serif" font-size="14.00" fill="#dddddd">A</text>
</g>
<!-- Box1 -->
<g id="node6" class="node">
<title>Box1</title>
<polygon fill="#333333" stroke="none" points="170.85,-146 134.85,-146 134.85,-110 170.85,-110 170.85,-146"/>
<polygon fill="#333333" stroke="none" points="137.72,-58.5 137.72,-197.5 167.97,-197.5 167.97,-58.5 137.72,-58.5"/>
<text text-anchor="start" x="143.85" y="-179.2" font-family="Times,serif" font-size="14.00" fill="#dddddd">S₁₀</text>
<text text-anchor="start" x="143.85" y="-156.7" font-family="Times,serif" font-size="14.00" fill="#dddddd">S₁₁</text>
<polygon fill="#555555" stroke="none" points="140.72,-129 140.72,-149.5 164.97,-149.5 164.97,-129 140.72,-129"/>
<text text-anchor="start" x="143.85" y="-134.2" font-family="Times,serif" font-size="14.00" fill="#dddddd">S₂₀</text>
<polygon fill="#777777" stroke="none" points="140.72,-106.5 140.72,-127 164.97,-127 164.97,-106.5 140.72,-106.5"/>
<text text-anchor="start" x="142.72" y="-111.7" font-family="Times,serif" font-size="14.00" fill="#dddddd">A₃₀</text>
<polygon fill="#777777" stroke="none" points="140.72,-84 140.72,-104.5 164.97,-104.5 164.97,-84 140.72,-84"/>
<text text-anchor="start" x="142.72" y="-89.2" font-family="Times,serif" font-size="14.00" fill="#dddddd">A₃₁</text>
<polygon fill="#aaaaaa" stroke="none" points="140.72,-61.5 140.72,-82 164.97,-82 164.97,-61.5 140.72,-61.5"/>
<text text-anchor="start" x="145.35" y="-66.7" font-family="Times,serif" font-size="14.00" fill="#333333">A₄</text>
<polygon fill="none" stroke="#dddddd" points="137.72,-58.5 137.72,-197.5 167.97,-197.5 167.97,-58.5 137.72,-58.5"/>
</g>
<!-- Box0&#45;&gt;Box1 -->
<g id="edge2" class="edge">
<title>Box0:t&#45;&gt;Box1:t</title>
<path fill="none" stroke="#dddddd" d="M75.91,-128C89.38,-128 110.03,-128 126.39,-128"/>
<polygon fill="#dddddd" stroke="#dddddd" points="126.37,-131.5 136.37,-128 126.37,-124.5 126.37,-131.5"/>
<text text-anchor="middle" x="106.85" y="-131.2" font-family="Times,serif" font-size="14.00" fill="#dddddd">a</text>
</g>
<!-- Box1&#45;&gt;S₁ -->
<g id="edge6" class="edge">
<title>Box1:t&#45;&gt;S₁</title>
<path fill="none" stroke="#dddddd" d="M167.91,-117.84C182.12,-107.58 204.33,-91.54 221.06,-79.46"/>
<polygon fill="#dddddd" stroke="#dddddd" points="222.89,-82.45 228.95,-73.76 218.79,-76.78 222.89,-82.45"/>
<text text-anchor="middle" x="198.85" y="-100.2" font-family="Times,serif" font-size="14.00" fill="#dddddd">S</text>
</g>
<!-- Box1&#45;&gt;S₂ -->
<!-- Box1&#45;&gt;Box1 -->
<g id="edge4" class="edge">
<title>Box1:n&#45;&gt;Box1:n</title>
<path fill="none" stroke="#dddddd" d="M152.85,-197.5C141.35,-207.5 141.35,-219.5 152.85,-219.5 161.11,-219.5 163.44,-213.3 159.82,-206.1"/>
<polygon fill="#dddddd" stroke="#dddddd" points="162.82,-204.24 153.8,-198.68 157.38,-208.65 162.82,-204.24"/>
<text text-anchor="middle" x="152.85" y="-222.7" font-family="Times,serif" font-size="14.00" fill="#dddddd">a</text>
</g>
<!-- Box2 -->
<g id="node7" class="node">
<title>Box2</title>
<polygon fill="#333333" stroke="none" points="262.85,-146 226.85,-146 226.85,-110 262.85,-110 262.85,-146"/>
<polygon fill="#333333" stroke="none" points="229.72,-103.5 229.72,-152.5 259.97,-152.5 259.97,-103.5 229.72,-103.5"/>
<polygon fill="#555555" stroke="none" points="232.72,-129 232.72,-149.5 256.97,-149.5 256.97,-129 232.72,-129"/>
<text text-anchor="start" x="238.47" y="-134.2" font-family="Times,serif" font-size="14.00" fill="#dddddd">S₂</text>
<polygon fill="#777777" stroke="none" points="232.72,-106.5 232.72,-127 256.97,-127 256.97,-106.5 232.72,-106.5"/>
<text text-anchor="start" x="234.72" y="-111.7" font-family="Times,serif" font-size="14.00" fill="#dddddd">A₃₂</text>
<polygon fill="none" stroke="#dddddd" points="229.72,-103.5 229.72,-152.5 259.97,-152.5 259.97,-103.5 229.72,-103.5"/>
</g>
<!-- Box1&#45;&gt;Box2 -->
<g id="edge5" class="edge">
<title>Box1:t&#45;&gt;Box2:t</title>
<path fill="none" stroke="#dddddd" d="M167.91,-128C181.38,-128 202.03,-128 218.39,-128"/>
<polygon fill="#dddddd" stroke="#dddddd" points="218.37,-131.5 228.37,-128 218.37,-124.5 218.37,-131.5"/>
<text text-anchor="middle" x="198.85" y="-131.2" font-family="Times,serif" font-size="14.00" fill="#dddddd">A</text>
</g>
<!-- Box2&#45;&gt;S₁ -->
<!-- Box2&#45;&gt;A₃ -->
<g id="edge7" class="edge">
<title>Box2:t&#45;&gt;A₃</title>
<path fill="none" stroke="#dddddd" d="M259.73,-128C270.67,-128 286.28,-128 299.78,-128"/>
<polygon fill="#dddddd" stroke="#dddddd" points="299.41,-131.5 309.41,-128 299.41,-124.5 299.41,-131.5"/>
<text text-anchor="middle" x="289.35" y="-131.2" font-family="Times,serif" font-size="14.00" fill="#dddddd">b</text>
</g>
</g>
</svg>
