<?xml version="1.0" encoding="UTF-8" standalone="no"?>
<!DOCTYPE svg PUBLIC "-//W3C//DTD SVG 1.1//EN"
 "http://www.w3.org/Graphics/SVG/1.1/DTD/svg11.dtd">
<!-- Generated by graphviz version 12.1.2 (0)
 -->
<!-- Pages: 1 -->
<svg width="321pt" height="296pt"
 viewBox="0.00 0.00 320.97 296.00" xmlns="http://www.w3.org/2000/svg" xmlns:xlink="http://www.w3.org/1999/xlink">
<g id="graph0" class="graph" transform="scale(1 1) rotate(0) translate(4 292)">
<!-- start1 -->
<g id="node1" class="node">
<title>start1</title>
</g>
<!-- start2 -->
<g id="node2" class="node">
<title>start2</title>
<polygon fill="none" stroke="none" points="56.21,-216 55.49,-216 55.49,-180 56.21,-180 56.21,-216"/>
</g>
<!-- start1&#45;&gt;start2 -->
<g id="edge5" class="edge">
<title>start1&#45;&gt;start2:w</title>
<path fill="none" stroke="#dddddd" d="M0.79,-233.9C2.29,-231.79 26.63,-198 54.49,-198"/>
</g>
<!-- start3 -->
<g id="node3" class="node">
<title>start3</title>
</g>
<!-- start1&#45;&gt;start3 -->
<!-- S₁₀ -->
<g id="node12" class="node">
<title>S₁₀</title>
<ellipse fill="#333333" stroke="#dddddd" cx="55.85" cy="-270" rx="18" ry="18"/>
<text text-anchor="middle" x="55.85" y="-264.95" font-family="Times,serif" font-size="14.00" fill="#dddddd">S₁₀</text>
</g>
<!-- start1&#45;&gt;S₁₀ -->
<g id="edge8" class="edge">
<title>start1&#45;&gt;S₁₀</title>
<path fill="none" stroke="#dddddd" d="M0.88,-234.1C2.54,-235.21 17.33,-245.05 31.01,-254.14"/>
<polygon fill="#dddddd" stroke="#dddddd" points="29.04,-257.04 39.3,-259.66 32.91,-251.21 29.04,-257.04"/>
</g>
<!-- A₃₀ -->
<g id="node6" class="node">
<title>A₃₀</title>
<ellipse fill="#777777" stroke="#dddddd" cx="55.85" cy="-90" rx="18" ry="18"/>
<text text-anchor="middle" x="55.85" y="-84.95" font-family="Times,serif" font-size="14.00" fill="#dddddd">A₃₀</text>
</g>
<!-- start2&#45;&gt;A₃₀ -->
<!-- S₂₀ -->
<g id="node10" class="node">
<title>S₂₀</title>
<ellipse fill="#555555" stroke="#dddddd" cx="134.1" cy="-198" rx="18" ry="18"/>
<text text-anchor="middle" x="134.1" y="-192.95" font-family="Times,serif" font-size="14.00" fill="#dddddd">S₂₀</text>
</g>
<!-- start2&#45;&gt;S₂₀ -->
<g id="edge6" class="edge">
<title>start2:e&#45;&gt;S₂₀</title>
<path fill="none" stroke="#dddddd" d="M57.21,-198C73.06,-198 90.77,-198 105.1,-198"/>
<polygon fill="#dddddd" stroke="#dddddd" points="104.7,-201.5 114.7,-198 104.7,-194.5 104.7,-201.5"/>
</g>
<!-- A₄ -->
<g id="node4" class="node">
<title>A₄</title>
<ellipse fill="#aaaaaa" stroke="#dddddd" cx="134.1" cy="-18" rx="18" ry="18"/>
<text text-anchor="middle" x="134.1" y="-12.95" font-family="Times,serif" font-size="14.00" fill="#333333">A₄</text>
</g>
<!-- start3&#45;&gt;A₄ -->
<g id="edge25" class="edge">
<title>start3:s&#45;&gt;A₄</title>
<path fill="none" stroke="#dddddd" d="M0.36,-88.79C0.36,-41.79 65.95,-25.89 104.92,-20.59"/>
<polygon fill="#dddddd" stroke="#dddddd" points="105.26,-24.07 114.78,-19.41 104.44,-17.12 105.26,-24.07"/>
<text text-anchor="middle" x="55.85" y="-42.39" font-family="Times,serif" font-size="14.00" fill="#dddddd">ε</text>
</g>
<!-- start3&#45;&gt;A₃₀ -->
<!-- A₃ -->
<g id="node5" class="node">
<title>A₃</title>
<ellipse fill="#777777" stroke="#dddddd" cx="294.97" cy="-90" rx="18" ry="18"/>
<text text-anchor="middle" x="294.97" y="-84.95" font-family="Times,serif" font-size="14.00" fill="#dddddd">A₃</text>
</g>
<!-- A₃₁ -->
<g id="node7" class="node">
<title>A₃₁</title>
<ellipse fill="#777777" stroke="#dddddd" cx="134.1" cy="-90" rx="18" ry="18"/>
<text text-anchor="middle" x="134.1" y="-84.95" font-family="Times,serif" font-size="14.00" fill="#dddddd">A₃₁</text>
</g>
<!-- A₃₀&#45;&gt;A₃₁ -->
<g id="edge2" class="edge">
<title>A₃₀&#45;&gt;A₃₁</title>
<path fill="none" stroke="#dddddd" d="M73.77,-90C82.95,-90 94.53,-90 105.03,-90"/>
<polygon fill="#dddddd" stroke="#dddddd" points="104.71,-93.5 114.71,-90 104.71,-86.5 104.71,-93.5"/>
<text text-anchor="middle" x="94.97" y="-93.2" font-family="Times,serif" font-size="14.00" fill="#dddddd">a</text>
</g>
<!-- A₃₁&#45;&gt;A₄ -->
<!-- A₃₁&#45;&gt;A₄ -->
<g id="edge22" class="edge">
<title>A₃₁&#45;&gt;A₄</title>
<path fill="none" stroke="#dddddd" d="M134.1,-72.16C134.1,-64.62 134.1,-55.65 134.1,-47.2"/>
<polygon fill="#dddddd" stroke="#dddddd" points="137.6,-47.31 134.1,-37.31 130.6,-47.31 137.6,-47.31"/>
<text text-anchor="middle" x="122.85" y="-48.95" font-family="Times,serif" font-size="14.00" fill="#dddddd">ε</text>
</g>
<!-- A₃₁&#45;&gt;A₃₀ -->
<g id="edge23" class="edge">
<title>A₃₁&#45;&gt;A₃₀:se</title>
<path fill="none" stroke="#dddddd" d="M119.5,-79.8C113.28,-75.75 105.6,-71.56 97.97,-69.5 89.65,-67.25 83.98,-67.34 78.44,-70.3"/>
<polygon fill="#dddddd" stroke="#dddddd" points="76.34,-67.49 70.66,-76.43 80.68,-72.98 76.34,-67.49"/>
<text text-anchor="middle" x="94.97" y="-72.7" font-family="Times,serif" font-size="14.00" fill="#dddddd">ε</text>
</g>
<!-- A₃₂ -->
<g id="node8" class="node">
<title>A₃₂</title>
<ellipse fill="#777777" stroke="#dddddd" cx="216.1" cy="-90" rx="18" ry="18"/>
<text text-anchor="middle" x="216.1" y="-84.95" font-family="Times,serif" font-size="14.00" fill="#dddddd">A₃₂</text>
</g>
<!-- A₃₁&#45;&gt;A₃₂ -->
<g id="edge3" class="edge">
<title>A₃₁&#45;&gt;A₃₂</title>
<path fill="none" stroke="#dddddd" d="M152.06,-90C162.14,-90 175.17,-90 186.77,-90"/>
<polygon fill="#dddddd" stroke="#dddddd" points="186.64,-93.5 196.64,-90 186.64,-86.5 186.64,-93.5"/>
<text text-anchor="middle" x="175.1" y="-93.2" font-family="Times,serif" font-size="14.00" fill="#dddddd">A</text>
</g>
<!-- A₃₂&#45;&gt;A₃ -->
<g id="edge4" class="edge">
<title>A₃₂&#45;&gt;A₃</title>
<path fill="none" stroke="#dddddd" d="M233.78,-90C243.08,-90 254.92,-90 265.63,-90"/>
<polygon fill="#dddddd" stroke="#dddddd" points="265.54,-93.5 275.54,-90 265.54,-86.5 265.54,-93.5"/>
<text text-anchor="middle" x="255.6" y="-93.2" font-family="Times,serif" font-size="14.00" fill="#dddddd">b</text>
</g>
<!-- S₂ -->
<g id="node9" class="node">
<title>S₂</title>
<ellipse fill="#555555" stroke="#dddddd" cx="216.1" cy="-198" rx="18" ry="18"/>
<text text-anchor="middle" x="216.1" y="-192.95" font-family="Times,serif" font-size="14.00" fill="#dddddd">S₂</text>
</g>
<!-- S₂&#45;&gt;A₃₂ -->
<!-- S₂₀&#45;&gt;start3 -->
<g id="edge24" class="edge">
<title>S₂₀&#45;&gt;start3:n</title>
<path fill="none" stroke="#dddddd" d="M118.13,-189.88C83.41,-170.54 0.36,-121.15 0.36,-91.21"/>
</g>
<!-- S₂₀&#45;&gt;A₃₀ -->
<g id="edge21" class="edge">
<title>S₂₀&#45;&gt;A₃₀</title>
<path fill="none" stroke="#dddddd" d="M126.23,-181.91C119.9,-167.94 109.72,-147.5 97.97,-131.5 92.14,-123.57 84.83,-115.69 77.99,-108.96"/>
<polygon fill="#dddddd" stroke="#dddddd" points="80.49,-106.51 70.82,-102.17 75.68,-111.59 80.49,-106.51"/>
<text text-anchor="middle" x="94.97" y="-134.7" font-family="Times,serif" font-size="14.00" fill="#dddddd">ε</text>
</g>
<!-- S₂₀&#45;&gt;A₃₁ -->
<!-- S₂₀&#45;&gt;S₂ -->
<g id="edge7" class="edge">
<title>S₂₀&#45;&gt;S₂</title>
<path fill="none" stroke="#dddddd" d="M152.06,-198C162.14,-198 175.17,-198 186.77,-198"/>
<polygon fill="#dddddd" stroke="#dddddd" points="186.64,-201.5 196.64,-198 186.64,-194.5 186.64,-201.5"/>
<text text-anchor="middle" x="175.1" y="-201.2" font-family="Times,serif" font-size="14.00" fill="#dddddd">A</text>
</g>
<!-- S₁ -->
<g id="node11" class="node">
<title>S₁</title>
<ellipse fill="#333333" stroke="#dddddd" cx="216.1" cy="-270" rx="18" ry="18"/>
<text text-anchor="middle" x="216.1" y="-264.95" font-family="Times,serif" font-size="14.00" fill="#dddddd">S₁</text>
</g>
<!-- S₁&#45;&gt;S₂ -->
<!-- S₁₀&#45;&gt;start2 -->
<!-- S₁₁ -->
<g id="node13" class="node">
<title>S₁₁</title>
<ellipse fill="#333333" stroke="#dddddd" cx="134.1" cy="-270" rx="18" ry="18"/>
<text text-anchor="middle" x="134.1" y="-264.95" font-family="Times,serif" font-size="14.00" fill="#dddddd">S₁₁</text>
</g>
<!-- S₁₀&#45;&gt;S₁₁ -->
<g id="edge9" class="edge">
<title>S₁₀&#45;&gt;S₁₁</title>
<path fill="none" stroke="#dddddd" d="M73.77,-270C82.95,-270 94.53,-270 105.03,-270"/>
<polygon fill="#dddddd" stroke="#dddddd" points="104.71,-273.5 114.71,-270 104.71,-266.5 104.71,-273.5"/>
<text text-anchor="middle" x="94.97" y="-273.2" font-family="Times,serif" font-size="14.00" fill="#dddddd">a</text>
</g>
<!-- S₁₁&#45;&gt;S₂₀ -->
<!-- S₁₁&#45;&gt;S₂₀ -->
<g id="edge19" class="edge">
<title>S₁₁&#45;&gt;S₂₀</title>
<path fill="none" stroke="#dddddd" d="M134.1,-252.16C134.1,-244.62 134.1,-235.65 134.1,-227.2"/>
<polygon fill="#dddddd" stroke="#dddddd" points="137.6,-227.31 134.1,-217.31 130.6,-227.31 137.6,-227.31"/>
<text text-anchor="middle" x="122.85" y="-228.95" font-family="Times,serif" font-size="14.00" fill="#dddddd">ε</text>
</g>
<!-- S₁₁&#45;&gt;S₁ -->
<g id="edge10" class="edge">
<title>S₁₁&#45;&gt;S₁</title>
<path fill="none" stroke="#dddddd" d="M152.06,-270C162.14,-270 175.17,-270 186.77,-270"/>
<polygon fill="#dddddd" stroke="#dddddd" points="186.64,-273.5 196.64,-270 186.64,-266.5 186.64,-273.5"/>
<text text-anchor="middle" x="175.1" y="-273.2" font-family="Times,serif" font-size="14.00" fill="#dddddd">S</text>
</g>
<!-- S₁₁&#45;&gt;S₁₀ -->
<g id="edge20" class="edge">
<title>S₁₁&#45;&gt;S₁₀</title>
<path fill="none" stroke="#dddddd" d="M119.5,-259.8C113.28,-255.75 105.6,-251.56 97.97,-249.5 91.46,-247.74 84.76,-249.38 78.71,-252.36"/>
<polygon fill="#dddddd" stroke="#dddddd" points="77.17,-249.2 70.57,-257.49 80.9,-255.12 77.17,-249.2"/>
<text text-anchor="middle" x="94.97" y="-252.7" font-family="Times,serif" font-size="14.00" fill="#dddddd">ε</text>
</g>
</g>
</svg>
