<?xml version="1.0" encoding="UTF-8" standalone="no"?>
<!DOCTYPE svg PUBLIC "-//W3C//DTD SVG 1.1//EN"
 "http://www.w3.org/Graphics/SVG/1.1/DTD/svg11.dtd">
<!-- Generated by graphviz version 11.0.0 (0)
 -->
<!-- Pages: 1 -->
<svg width="350pt" height="202pt"
 viewBox="0.00 0.00 349.72 202.40" xmlns="http://www.w3.org/2000/svg" xmlns:xlink="http://www.w3.org/1999/xlink">
<g id="graph0" class="graph" transform="scale(1 1) rotate(0) translate(4 198.4)">
<!-- start1 -->
<g id="node1" class="node">
<title>start1</title>
</g>
<!-- Box0 -->
<g id="node2" class="node">
<title>Box0</title>
<polygon fill="#333333" stroke="none" points="82.35,-141.4 46.35,-141.4 46.35,-105.4 82.35,-105.4 82.35,-141.4"/>
<polygon fill="#333333" stroke="none" points="44.72,-76.4 44.72,-170.4 83.97,-170.4 83.97,-76.4 44.72,-76.4"/>
<text text-anchor="start" x="49.72" y="-152.1" font-family="Times,serif" font-size="14.00" fill="#dddddd">Box0</text>
<text text-anchor="start" x="55.35" y="-129.6" font-family="Times,serif" font-size="14.00" fill="#dddddd">S₁₀</text>
<polygon fill="#555555" stroke="none" points="47.72,-101.9 47.72,-122.4 80.97,-122.4 80.97,-101.9 47.72,-101.9"/>
<text text-anchor="start" x="54.97" y="-107.1" font-family="Times,serif" font-size="14.00" fill="#dddddd">E₂₀</text>
<polygon fill="#777777" stroke="none" points="47.72,-79.4 47.72,-99.9 80.97,-99.9 80.97,-79.4 47.72,-79.4"/>
<text text-anchor="start" x="54.97" y="-84.6" font-family="Times,serif" font-size="14.00" fill="#dddddd">E₃₀</text>
<polygon fill="none" stroke="#dddddd" points="44.72,-76.4 44.72,-170.4 83.97,-170.4 83.97,-76.4 44.72,-76.4"/>
</g>
<!-- start1&#45;&gt;Box0 -->
<g id="edge2" class="edge">
<title>start1&#45;&gt;Box0:t</title>
<path fill="none" stroke="#dddddd" d="M18.16,-123.4C23.02,-123.4 28.43,-123.4 33.77,-123.4"/>
<polygon fill="#dddddd" stroke="#dddddd" points="33.61,-126.9 43.61,-123.4 33.61,-119.9 33.61,-126.9"/>
</g>
<!-- fin -->
<g id="node3" class="node">
<title>fin</title>
<ellipse fill="#333333" stroke="#dddddd" cx="64.35" cy="-18.4" rx="14.4" ry="14.4"/>
<ellipse fill="none" stroke="#dddddd" cx="64.35" cy="-18.4" rx="18.4" ry="18.4"/>
</g>
<!-- Box0&#45;&gt;fin -->
<g id="edge1" class="edge">
<title>Box0:s&#45;&gt;fin:n</title>
<path fill="none" stroke="#dddddd" d="M64.35,-48.23C64.35,-57.14 64.35,-62.8 64.35,-75.4"/>
<polygon fill="#dddddd" stroke="#dddddd" points="67.85,-48.31 64.35,-38.31 60.85,-48.31 67.85,-48.31"/>
<text text-anchor="middle" x="56.85" y="-42.64" font-family="Times,serif" font-size="14.00" fill="#dddddd">S &#160;</text>
</g>
<!-- E₃ -->
<g id="node6" class="node">
<title>E₃</title>
<ellipse fill="#777777" stroke="#dddddd" cx="152.72" cy="-176.4" rx="18" ry="18"/>
<text text-anchor="middle" x="152.72" y="-171.35" font-family="Times,serif" font-size="14.00" fill="#dddddd">E₃</text>
</g>
<!-- Box0&#45;&gt;E₃ -->
<g id="edge4" class="edge">
<title>Box0:t&#45;&gt;E₃</title>
<path fill="none" stroke="#dddddd" d="M83.66,-134.64C96.49,-142.51 113.77,-153.11 127.7,-161.66"/>
<polygon fill="#dddddd" stroke="#dddddd" points="125.5,-164.42 135.86,-166.67 129.16,-158.45 125.5,-164.42"/>
<text text-anchor="middle" x="113.35" y="-157.6" font-family="Times,serif" font-size="14.00" fill="#dddddd">1</text>
</g>
<!-- Box1 -->
<g id="node7" class="node">
<title>Box1</title>
<polygon fill="#333333" stroke="none" points="253.35,-141.4 217.35,-141.4 217.35,-105.4 253.35,-105.4 253.35,-141.4"/>
<polygon fill="#333333" stroke="none" points="215.72,-87.65 215.72,-159.15 254.97,-159.15 254.97,-87.65 215.72,-87.65"/>
<text text-anchor="start" x="220.72" y="-140.85" font-family="Times,serif" font-size="14.00" fill="#dddddd">Box1</text>
<text text-anchor="start" x="226.35" y="-118.35" font-family="Times,serif" font-size="14.00" fill="#dddddd">S₁₁</text>
<polygon fill="#555555" stroke="none" points="218.72,-90.65 218.72,-111.15 251.97,-111.15 251.97,-90.65 218.72,-90.65"/>
<text text-anchor="start" x="225.97" y="-95.85" font-family="Times,serif" font-size="14.00" fill="#dddddd">E₂₁</text>
<polygon fill="none" stroke="#dddddd" points="215.72,-87.65 215.72,-159.15 254.97,-159.15 254.97,-87.65 215.72,-87.65"/>
</g>
<!-- Box0&#45;&gt;Box1 -->
<g id="edge3" class="edge">
<title>Box0:t&#45;&gt;Box1:t</title>
<path fill="none" stroke="#dddddd" d="M83.75,-123.4C112.83,-123.4 169.68,-123.4 204.6,-123.4"/>
<polygon fill="#dddddd" stroke="#dddddd" points="204.45,-126.9 214.45,-123.4 204.45,-119.9 204.45,-126.9"/>
<text text-anchor="middle" x="152.72" y="-126.6" font-family="Times,serif" font-size="14.00" fill="#dddddd">E</text>
</g>
<!-- S₁ -->
<g id="node4" class="node">
<title>S₁</title>
<ellipse fill="#333333" stroke="#dddddd" cx="323.72" cy="-150.4" rx="18" ry="18"/>
<text text-anchor="middle" x="323.72" y="-145.35" font-family="Times,serif" font-size="14.00" fill="#dddddd">S₁</text>
</g>
<!-- E₂ -->
<g id="node5" class="node">
<title>E₂</title>
<ellipse fill="#555555" stroke="#dddddd" cx="323.72" cy="-96.4" rx="18" ry="18"/>
<text text-anchor="middle" x="323.72" y="-91.35" font-family="Times,serif" font-size="14.00" fill="#dddddd">E₂</text>
</g>
<!-- Box1&#45;&gt;S₁ -->
<g id="edge5" class="edge">
<title>Box1:t&#45;&gt;S₁</title>
<path fill="none" stroke="#dddddd" d="M254.66,-129.13C266.54,-132.84 282.21,-137.74 295.53,-141.9"/>
<polygon fill="#dddddd" stroke="#dddddd" points="294.43,-145.22 305.02,-144.87 296.52,-138.54 294.43,-145.22"/>
<text text-anchor="middle" x="284.35" y="-141.6" font-family="Times,serif" font-size="14.00" fill="#dddddd">2</text>
</g>
<!-- Box1&#45;&gt;E₂ -->
<g id="edge6" class="edge">
<title>Box1:t&#45;&gt;E₂</title>
<path fill="none" stroke="#dddddd" d="M254.66,-117.67C266.54,-113.96 282.21,-109.06 295.53,-104.9"/>
<polygon fill="#dddddd" stroke="#dddddd" points="296.52,-108.26 305.02,-101.93 294.43,-101.58 296.52,-108.26"/>
<text text-anchor="middle" x="284.35" y="-111.6" font-family="Times,serif" font-size="14.00" fill="#dddddd">1</text>
</g>
</g>
</svg>
