<?xml version="1.0" encoding="UTF-8" standalone="no"?>
<!DOCTYPE svg PUBLIC "-//W3C//DTD SVG 1.1//EN"
 "http://www.w3.org/Graphics/SVG/1.1/DTD/svg11.dtd">
<!-- Generated by graphviz version 12.0.0 (0)
 -->
<!-- Pages: 1 -->
<svg width="351pt" height="202pt"
 viewBox="0.00 0.00 350.72 202.40" xmlns="http://www.w3.org/2000/svg" xmlns:xlink="http://www.w3.org/1999/xlink">
<g id="graph0" class="graph" transform="scale(1 1) rotate(0) translate(4 198.4)">
<!-- start1 -->
<g id="node1" class="node">
<title>start1</title>
</g>
<!-- Box0 -->
<g id="node2" class="node">
<title>Box0</title>
<polygon fill="#333333" stroke="none" points="83.35,-141.4 47.35,-141.4 47.35,-105.4 83.35,-105.4 83.35,-141.4"/>
<polygon fill="#333333" stroke="none" points="45.72,-76.4 45.72,-170.4 84.97,-170.4 84.97,-76.4 45.72,-76.4"/>
<text text-anchor="start" x="50.72" y="-152.1" font-family="Times,serif" font-size="14.00" fill="#dddddd">Box0</text>
<text text-anchor="start" x="56.35" y="-129.6" font-family="Times,serif" font-size="14.00" fill="#dddddd">S₁₀</text>
<polygon fill="#555555" stroke="none" points="48.72,-101.9 48.72,-122.4 81.97,-122.4 81.97,-101.9 48.72,-101.9"/>
<text text-anchor="start" x="55.97" y="-107.1" font-family="Times,serif" font-size="14.00" fill="#dddddd">E₂₀</text>
<polygon fill="#777777" stroke="none" points="48.72,-79.4 48.72,-99.9 81.97,-99.9 81.97,-79.4 48.72,-79.4"/>
<text text-anchor="start" x="55.97" y="-84.6" font-family="Times,serif" font-size="14.00" fill="#dddddd">E₃₀</text>
<polygon fill="none" stroke="#dddddd" points="45.72,-76.4 45.72,-170.4 84.97,-170.4 84.97,-76.4 45.72,-76.4"/>
</g>
<!-- start1&#45;&gt;Box0 -->
<g id="edge2" class="edge">
<title>start1&#45;&gt;Box0:t</title>
<path fill="none" stroke="#dddddd" d="M18.11,-123.4C23.26,-123.4 29.06,-123.4 34.76,-123.4"/>
<polygon fill="#dddddd" stroke="#dddddd" points="34.58,-126.9 44.58,-123.4 34.58,-119.9 34.58,-126.9"/>
</g>
<!-- fin -->
<g id="node3" class="node">
<title>fin</title>
<ellipse fill="#333333" stroke="#dddddd" cx="65.35" cy="-18.4" rx="14.4" ry="14.4"/>
<ellipse fill="none" stroke="#dddddd" cx="65.35" cy="-18.4" rx="18.4" ry="18.4"/>
</g>
<!-- Box0&#45;&gt;fin -->
<g id="edge1" class="edge">
<title>Box0:s&#45;&gt;fin:n</title>
<path fill="none" stroke="#dddddd" d="M65.35,-48.23C65.35,-57.14 65.35,-62.8 65.35,-75.4"/>
<polygon fill="#dddddd" stroke="#dddddd" points="68.85,-48.31 65.35,-38.31 61.85,-48.31 68.85,-48.31"/>
<text text-anchor="middle" x="57.85" y="-42.64" font-family="Times,serif" font-size="14.00" fill="#dddddd">S &#160;</text>
</g>
<!-- E₃ -->
<g id="node6" class="node">
<title>E₃</title>
<ellipse fill="#777777" stroke="#dddddd" cx="153.72" cy="-176.4" rx="18" ry="18"/>
<text text-anchor="middle" x="153.72" y="-171.35" font-family="Times,serif" font-size="14.00" fill="#dddddd">E₃</text>
</g>
<!-- Box0&#45;&gt;E₃ -->
<g id="edge4" class="edge">
<title>Box0:t&#45;&gt;E₃</title>
<path fill="none" stroke="#dddddd" d="M84.66,-134.64C97.49,-142.51 114.77,-153.11 128.7,-161.66"/>
<polygon fill="#dddddd" stroke="#dddddd" points="126.5,-164.42 136.86,-166.67 130.16,-158.45 126.5,-164.42"/>
<text text-anchor="middle" x="114.35" y="-157.6" font-family="Times,serif" font-size="14.00" fill="#dddddd">1</text>
</g>
<!-- Box1 -->
<g id="node7" class="node">
<title>Box1</title>
<polygon fill="#333333" stroke="none" points="254.35,-141.4 218.35,-141.4 218.35,-105.4 254.35,-105.4 254.35,-141.4"/>
<polygon fill="#333333" stroke="none" points="216.72,-87.65 216.72,-159.15 255.97,-159.15 255.97,-87.65 216.72,-87.65"/>
<text text-anchor="start" x="221.72" y="-140.85" font-family="Times,serif" font-size="14.00" fill="#dddddd">Box1</text>
<text text-anchor="start" x="227.35" y="-118.35" font-family="Times,serif" font-size="14.00" fill="#dddddd">S₁₁</text>
<polygon fill="#555555" stroke="none" points="219.72,-90.65 219.72,-111.15 252.97,-111.15 252.97,-90.65 219.72,-90.65"/>
<text text-anchor="start" x="226.97" y="-95.85" font-family="Times,serif" font-size="14.00" fill="#dddddd">E₂₁</text>
<polygon fill="none" stroke="#dddddd" points="216.72,-87.65 216.72,-159.15 255.97,-159.15 255.97,-87.65 216.72,-87.65"/>
</g>
<!-- Box0&#45;&gt;Box1 -->
<g id="edge3" class="edge">
<title>Box0:t&#45;&gt;Box1:t</title>
<path fill="none" stroke="#dddddd" d="M84.75,-123.4C113.83,-123.4 170.68,-123.4 205.6,-123.4"/>
<polygon fill="#dddddd" stroke="#dddddd" points="205.45,-126.9 215.45,-123.4 205.45,-119.9 205.45,-126.9"/>
<text text-anchor="middle" x="153.72" y="-126.6" font-family="Times,serif" font-size="14.00" fill="#dddddd">E</text>
</g>
<!-- S₁ -->
<g id="node4" class="node">
<title>S₁</title>
<ellipse fill="#333333" stroke="#dddddd" cx="324.72" cy="-150.4" rx="18" ry="18"/>
<text text-anchor="middle" x="324.72" y="-145.35" font-family="Times,serif" font-size="14.00" fill="#dddddd">S₁</text>
</g>
<!-- E₂ -->
<g id="node5" class="node">
<title>E₂</title>
<ellipse fill="#555555" stroke="#dddddd" cx="324.72" cy="-96.4" rx="18" ry="18"/>
<text text-anchor="middle" x="324.72" y="-91.35" font-family="Times,serif" font-size="14.00" fill="#dddddd">E₂</text>
</g>
<!-- Box1&#45;&gt;S₁ -->
<g id="edge5" class="edge">
<title>Box1:t&#45;&gt;S₁</title>
<path fill="none" stroke="#dddddd" d="M255.66,-129.13C267.54,-132.84 283.21,-137.74 296.53,-141.9"/>
<polygon fill="#dddddd" stroke="#dddddd" points="295.43,-145.22 306.02,-144.87 297.52,-138.54 295.43,-145.22"/>
<text text-anchor="middle" x="285.35" y="-141.6" font-family="Times,serif" font-size="14.00" fill="#dddddd">2</text>
</g>
<!-- Box1&#45;&gt;E₂ -->
<g id="edge6" class="edge">
<title>Box1:t&#45;&gt;E₂</title>
<path fill="none" stroke="#dddddd" d="M255.66,-117.67C267.54,-113.96 283.21,-109.06 296.53,-104.9"/>
<polygon fill="#dddddd" stroke="#dddddd" points="297.52,-108.26 306.02,-101.93 295.43,-101.58 297.52,-108.26"/>
<text text-anchor="middle" x="285.35" y="-111.6" font-family="Times,serif" font-size="14.00" fill="#dddddd">1</text>
</g>
</g>
</svg>
