<?xml version="1.0" encoding="UTF-8" standalone="no"?>
<!DOCTYPE svg PUBLIC "-//W3C//DTD SVG 1.1//EN"
 "http://www.w3.org/Graphics/SVG/1.1/DTD/svg11.dtd">
<!-- Generated by graphviz version 12.0.0 (0)
 -->
<!-- Pages: 1 -->
<svg width="240pt" height="165pt"
 viewBox="0.00 0.00 240.27 164.80" xmlns="http://www.w3.org/2000/svg" xmlns:xlink="http://www.w3.org/1999/xlink">
<g id="graph0" class="graph" transform="scale(1 1) rotate(0) translate(4 160.8)">
<!-- start -->
<g id="node1" class="node">
<title>start</title>
</g>
<!-- q00 -->
<g id="node4" class="node">
<title>q00</title>
<ellipse fill="none" stroke="#dddddd" cx="55.85" cy="-85.4" rx="18" ry="18"/>
<text text-anchor="middle" x="55.85" y="-80.35" font-family="Times,serif" font-size="14.00" fill="#dddddd">q00</text>
</g>
<!-- start&#45;&gt;q00 -->
<g id="edge1" class="edge">
<title>start&#45;&gt;q00</title>
<path fill="none" stroke="#dddddd" d="M18.14,-85.4C20.96,-85.4 23.93,-85.4 26.91,-85.4"/>
<polygon fill="#dddddd" stroke="#dddddd" points="26.68,-88.9 36.68,-85.4 26.68,-81.9 26.68,-88.9"/>
</g>
<!-- q2 -->
<g id="node2" class="node">
<title>q2</title>
<ellipse fill="none" stroke="#dddddd" cx="213.87" cy="-138.4" rx="14.4" ry="14.4"/>
<ellipse fill="none" stroke="#dddddd" cx="213.87" cy="-138.4" rx="18.4" ry="18.4"/>
<text text-anchor="middle" x="213.87" y="-133.35" font-family="Times,serif" font-size="14.00" fill="#dddddd">q2</text>
</g>
<!-- q3 -->
<g id="node3" class="node">
<title>q3</title>
<ellipse fill="none" stroke="grey" cx="55.85" cy="-18.4" rx="18" ry="18"/>
<text text-anchor="middle" x="55.85" y="-13.35" font-family="Times,serif" font-size="14.00" fill="grey">q3</text>
</g>
<!-- q4 -->
<g id="node6" class="node">
<title>q4</title>
<ellipse fill="none" stroke="#dddddd" cx="134.72" cy="-18.4" rx="18" ry="18"/>
<text text-anchor="middle" x="134.72" y="-13.35" font-family="Times,serif" font-size="14.00" fill="#dddddd">q4</text>
</g>
<!-- q3&#45;&gt;q4 -->
<g id="edge7" class="edge">
<title>q3&#45;&gt;q4</title>
<path fill="none" stroke="grey" d="M73.53,-18.4C82.83,-18.4 94.67,-18.4 105.38,-18.4"/>
<polygon fill="grey" stroke="grey" points="105.29,-21.9 115.29,-18.4 105.29,-14.9 105.29,-21.9"/>
<text text-anchor="middle" x="95.35" y="-21.6" font-family="Times,serif" font-size="14.00" fill="grey">1</text>
</g>
<!-- q1 -->
<g id="node5" class="node">
<title>q1</title>
<ellipse fill="none" stroke="#dddddd" cx="134.72" cy="-98.4" rx="18" ry="18"/>
<text text-anchor="middle" x="134.72" y="-93.35" font-family="Times,serif" font-size="14.00" fill="#dddddd">q1</text>
</g>
<!-- q00&#45;&gt;q1 -->
<g id="edge2" class="edge">
<title>q00&#45;&gt;q1</title>
<path fill="none" stroke="#dddddd" d="M73.53,-88.22C83,-89.82 95.09,-91.87 105.95,-93.7"/>
<polygon fill="#dddddd" stroke="#dddddd" points="105.14,-97.12 115.58,-95.33 106.3,-90.21 105.14,-97.12"/>
<text text-anchor="middle" x="95.35" y="-94.6" font-family="Times,serif" font-size="14.00" fill="#dddddd">0</text>
</g>
<!-- q00&#45;&gt;q4 -->
<g id="edge3" class="edge">
<title>q00&#45;&gt;q4</title>
<path fill="none" stroke="#dddddd" d="M69.54,-74.34C81.15,-64.21 98.57,-49.03 112.33,-37.04"/>
<polygon fill="#dddddd" stroke="#dddddd" points="114.37,-39.91 119.61,-30.7 109.77,-34.63 114.37,-39.91"/>
<text text-anchor="middle" x="95.35" y="-56.6" font-family="Times,serif" font-size="14.00" fill="#dddddd">1</text>
</g>
<!-- q1&#45;&gt;q2 -->
<g id="edge6" class="edge">
<title>q1&#45;&gt;q2</title>
<path fill="none" stroke="#dddddd" d="M150.6,-106.11C161.03,-111.52 175.23,-118.89 187.44,-125.22"/>
<polygon fill="#dddddd" stroke="#dddddd" points="185.68,-128.25 196.17,-129.74 188.9,-122.03 185.68,-128.25"/>
<text text-anchor="middle" x="174.1" y="-122.6" font-family="Times,serif" font-size="14.00" fill="#dddddd">1</text>
</g>
<!-- q0 -->
<g id="node7" class="node">
<title>q0</title>
<ellipse fill="none" stroke="#dddddd" cx="213.87" cy="-78.4" rx="18" ry="18"/>
<text text-anchor="middle" x="213.87" y="-73.35" font-family="Times,serif" font-size="14.00" fill="#dddddd">q0</text>
</g>
<!-- q1&#45;&gt;q0 -->
<g id="edge5" class="edge">
<title>q1&#45;&gt;q0</title>
<path fill="none" stroke="#dddddd" d="M152.08,-94.16C161.8,-91.64 174.37,-88.38 185.55,-85.48"/>
<polygon fill="#dddddd" stroke="#dddddd" points="186.27,-88.91 195.07,-83.02 184.51,-82.14 186.27,-88.91"/>
<text text-anchor="middle" x="174.1" y="-91.6" font-family="Times,serif" font-size="14.00" fill="#dddddd">0</text>
</g>
<!-- q5 -->
<g id="node8" class="node">
<title>q5</title>
<ellipse fill="none" stroke="#dddddd" cx="213.87" cy="-18.4" rx="14.4" ry="14.4"/>
<ellipse fill="none" stroke="#dddddd" cx="213.87" cy="-18.4" rx="18.4" ry="18.4"/>
<text text-anchor="middle" x="213.87" y="-13.35" font-family="Times,serif" font-size="14.00" fill="#dddddd">q5</text>
</g>
<!-- q4&#45;&gt;q5 -->
<g id="edge8" class="edge">
<title>q4&#45;&gt;q5</title>
<path fill="none" stroke="#dddddd" d="M152.46,-18.4C161.73,-18.4 173.52,-18.4 184.21,-18.4"/>
<polygon fill="#dddddd" stroke="#dddddd" points="184.11,-21.9 194.11,-18.4 184.11,-14.9 184.11,-21.9"/>
<text text-anchor="middle" x="174.1" y="-21.6" font-family="Times,serif" font-size="14.00" fill="#dddddd">0</text>
</g>
<!-- q0&#45;&gt;q1 -->
<g id="edge4" class="edge">
<title>q0&#45;&gt;q1</title>
<path fill="none" stroke="#dddddd" d="M200.32,-67.12C191.93,-61 180.66,-55.5 170.72,-59.9 163.39,-63.14 156.94,-68.76 151.64,-74.71"/>
<polygon fill="#dddddd" stroke="#dddddd" points="149.13,-72.25 145.66,-82.26 154.62,-76.59 149.13,-72.25"/>
<text text-anchor="middle" x="174.1" y="-62.6" font-family="Times,serif" font-size="14.00" fill="#dddddd">0</text>
</g>
</g>
</svg>
