<?xml version="1.0" encoding="UTF-8" standalone="no"?>
<!DOCTYPE svg PUBLIC "-//W3C//DTD SVG 1.1//EN"
 "http://www.w3.org/Graphics/SVG/1.1/DTD/svg11.dtd">
<!-- Generated by graphviz version 11.0.0 (0)
 -->
<!-- Pages: 1 -->
<svg width="239pt" height="165pt"
 viewBox="0.00 0.00 239.27 164.80" xmlns="http://www.w3.org/2000/svg" xmlns:xlink="http://www.w3.org/1999/xlink">
<g id="graph0" class="graph" transform="scale(1 1) rotate(0) translate(4 160.8)">
<!-- start -->
<g id="node1" class="node">
<title>start</title>
</g>
<!-- q00 -->
<g id="node4" class="node">
<title>q00</title>
<ellipse fill="none" stroke="#dddddd" cx="54.85" cy="-85.4" rx="18" ry="18"/>
<text text-anchor="middle" x="54.85" y="-80.35" font-family="Times,serif" font-size="14.00" fill="#dddddd">q00</text>
</g>
<!-- start&#45;&gt;q00 -->
<g id="edge1" class="edge">
<title>start&#45;&gt;q00</title>
<path fill="none" stroke="#dddddd" d="M18.12,-85.4C20.48,-85.4 22.95,-85.4 25.45,-85.4"/>
<polygon fill="#dddddd" stroke="#dddddd" points="25.44,-88.9 35.44,-85.4 25.44,-81.9 25.44,-88.9"/>
</g>
<!-- q2 -->
<g id="node2" class="node">
<title>q2</title>
<ellipse fill="none" stroke="#dddddd" cx="212.87" cy="-138.4" rx="14.4" ry="14.4"/>
<ellipse fill="none" stroke="#dddddd" cx="212.87" cy="-138.4" rx="18.4" ry="18.4"/>
<text text-anchor="middle" x="212.87" y="-133.35" font-family="Times,serif" font-size="14.00" fill="#dddddd">q2</text>
</g>
<!-- q3 -->
<g id="node3" class="node">
<title>q3</title>
<ellipse fill="none" stroke="grey" cx="54.85" cy="-18.4" rx="18" ry="18"/>
<text text-anchor="middle" x="54.85" y="-13.35" font-family="Times,serif" font-size="14.00" fill="grey">q3</text>
</g>
<!-- q4 -->
<g id="node6" class="node">
<title>q4</title>
<ellipse fill="none" stroke="#dddddd" cx="133.72" cy="-18.4" rx="18" ry="18"/>
<text text-anchor="middle" x="133.72" y="-13.35" font-family="Times,serif" font-size="14.00" fill="#dddddd">q4</text>
</g>
<!-- q3&#45;&gt;q4 -->
<g id="edge7" class="edge">
<title>q3&#45;&gt;q4</title>
<path fill="none" stroke="grey" d="M72.53,-18.4C81.83,-18.4 93.67,-18.4 104.38,-18.4"/>
<polygon fill="grey" stroke="grey" points="104.29,-21.9 114.29,-18.4 104.29,-14.9 104.29,-21.9"/>
<text text-anchor="middle" x="94.35" y="-21.6" font-family="Times,serif" font-size="14.00" fill="grey">1</text>
</g>
<!-- q1 -->
<g id="node5" class="node">
<title>q1</title>
<ellipse fill="none" stroke="#dddddd" cx="133.72" cy="-98.4" rx="18" ry="18"/>
<text text-anchor="middle" x="133.72" y="-93.35" font-family="Times,serif" font-size="14.00" fill="#dddddd">q1</text>
</g>
<!-- q00&#45;&gt;q1 -->
<g id="edge2" class="edge">
<title>q00&#45;&gt;q1</title>
<path fill="none" stroke="#dddddd" d="M72.53,-88.22C82,-89.82 94.09,-91.87 104.95,-93.7"/>
<polygon fill="#dddddd" stroke="#dddddd" points="104.14,-97.12 114.58,-95.33 105.3,-90.21 104.14,-97.12"/>
<text text-anchor="middle" x="94.35" y="-94.6" font-family="Times,serif" font-size="14.00" fill="#dddddd">0</text>
</g>
<!-- q00&#45;&gt;q4 -->
<g id="edge3" class="edge">
<title>q00&#45;&gt;q4</title>
<path fill="none" stroke="#dddddd" d="M68.54,-74.34C80.15,-64.21 97.57,-49.03 111.33,-37.04"/>
<polygon fill="#dddddd" stroke="#dddddd" points="113.37,-39.91 118.61,-30.7 108.77,-34.63 113.37,-39.91"/>
<text text-anchor="middle" x="94.35" y="-56.6" font-family="Times,serif" font-size="14.00" fill="#dddddd">1</text>
</g>
<!-- q1&#45;&gt;q2 -->
<g id="edge6" class="edge">
<title>q1&#45;&gt;q2</title>
<path fill="none" stroke="#dddddd" d="M149.6,-106.11C160.03,-111.52 174.23,-118.89 186.44,-125.22"/>
<polygon fill="#dddddd" stroke="#dddddd" points="184.68,-128.25 195.17,-129.74 187.9,-122.03 184.68,-128.25"/>
<text text-anchor="middle" x="173.1" y="-122.6" font-family="Times,serif" font-size="14.00" fill="#dddddd">1</text>
</g>
<!-- q0 -->
<g id="node7" class="node">
<title>q0</title>
<ellipse fill="none" stroke="#dddddd" cx="212.87" cy="-78.4" rx="18" ry="18"/>
<text text-anchor="middle" x="212.87" y="-73.35" font-family="Times,serif" font-size="14.00" fill="#dddddd">q0</text>
</g>
<!-- q1&#45;&gt;q0 -->
<g id="edge5" class="edge">
<title>q1&#45;&gt;q0</title>
<path fill="none" stroke="#dddddd" d="M151.08,-94.16C160.8,-91.64 173.37,-88.38 184.55,-85.48"/>
<polygon fill="#dddddd" stroke="#dddddd" points="185.27,-88.91 194.07,-83.02 183.51,-82.14 185.27,-88.91"/>
<text text-anchor="middle" x="173.1" y="-91.6" font-family="Times,serif" font-size="14.00" fill="#dddddd">0</text>
</g>
<!-- q5 -->
<g id="node8" class="node">
<title>q5</title>
<ellipse fill="none" stroke="#dddddd" cx="212.87" cy="-18.4" rx="14.4" ry="14.4"/>
<ellipse fill="none" stroke="#dddddd" cx="212.87" cy="-18.4" rx="18.4" ry="18.4"/>
<text text-anchor="middle" x="212.87" y="-13.35" font-family="Times,serif" font-size="14.00" fill="#dddddd">q5</text>
</g>
<!-- q4&#45;&gt;q5 -->
<g id="edge8" class="edge">
<title>q4&#45;&gt;q5</title>
<path fill="none" stroke="#dddddd" d="M151.46,-18.4C160.73,-18.4 172.52,-18.4 183.21,-18.4"/>
<polygon fill="#dddddd" stroke="#dddddd" points="183.11,-21.9 193.11,-18.4 183.11,-14.9 183.11,-21.9"/>
<text text-anchor="middle" x="173.1" y="-21.6" font-family="Times,serif" font-size="14.00" fill="#dddddd">0</text>
</g>
<!-- q0&#45;&gt;q1 -->
<g id="edge4" class="edge">
<title>q0&#45;&gt;q1</title>
<path fill="none" stroke="#dddddd" d="M199.32,-67.12C190.93,-61 179.66,-55.5 169.72,-59.9 162.39,-63.14 155.94,-68.76 150.64,-74.71"/>
<polygon fill="#dddddd" stroke="#dddddd" points="148.13,-72.25 144.66,-82.26 153.62,-76.59 148.13,-72.25"/>
<text text-anchor="middle" x="173.1" y="-62.6" font-family="Times,serif" font-size="14.00" fill="#dddddd">0</text>
</g>
</g>
</svg>
