<?xml version="1.0" encoding="UTF-8" standalone="no"?>
<!DOCTYPE svg PUBLIC "-//W3C//DTD SVG 1.1//EN"
 "http://www.w3.org/Graphics/SVG/1.1/DTD/svg11.dtd">
<!-- Generated by graphviz version 12.1.2 (0)
 -->
<!-- Pages: 1 -->
<svg width="398pt" height="168pt"
 viewBox="0.00 0.00 397.52 168.30" xmlns="http://www.w3.org/2000/svg" xmlns:xlink="http://www.w3.org/1999/xlink">
<g id="graph0" class="graph" transform="scale(1 1) rotate(0) translate(4 164.3)">
<!-- start -->
<g id="node1" class="node">
<title>start</title>
</g>
<!-- q0 -->
<g id="node3" class="node">
<title>q0</title>
<ellipse fill="none" stroke="#dddddd" cx="55.72" cy="-71.4" rx="18" ry="18"/>
<text text-anchor="middle" x="55.72" y="-66.35" font-family="Times,serif" font-size="14.00" fill="#dddddd">q0</text>
</g>
<!-- start&#45;&gt;q0 -->
<g id="edge1" class="edge">
<title>start&#45;&gt;q0</title>
<path fill="none" stroke="#dddddd" d="M18.1,-71.4C20.76,-71.4 23.55,-71.4 26.37,-71.4"/>
<polygon fill="#dddddd" stroke="#dddddd" points="26.22,-74.9 36.22,-71.4 26.22,-67.9 26.22,-74.9"/>
</g>
<!-- q4 -->
<g id="node2" class="node">
<title>q4</title>
<ellipse fill="none" stroke="#dddddd" cx="371.12" cy="-107.4" rx="14.4" ry="14.4"/>
<ellipse fill="none" stroke="#dddddd" cx="371.12" cy="-107.4" rx="18.4" ry="18.4"/>
<text text-anchor="middle" x="371.12" y="-102.35" font-family="Times,serif" font-size="14.00" fill="#dddddd">q4</text>
</g>
<!-- q4&#45;&gt;q4 -->
<g id="edge7" class="edge">
<title>q4&#45;&gt;q4</title>
<path fill="none" stroke="#dddddd" d="M364.13,-124.25C362.57,-134.32 364.91,-143.8 371.12,-143.8 374.81,-143.8 377.13,-140.46 378.08,-135.63"/>
<polygon fill="#dddddd" stroke="#dddddd" points="381.58,-135.77 378.11,-125.76 374.58,-135.75 381.58,-135.77"/>
<text text-anchor="middle" x="371.12" y="-147" font-family="Times,serif" font-size="14.00" fill="#dddddd">1</text>
</g>
<!-- q1 -->
<g id="node4" class="node">
<title>q1</title>
<ellipse fill="none" stroke="#dddddd" cx="134.47" cy="-98.4" rx="18" ry="18"/>
<text text-anchor="middle" x="134.47" y="-93.35" font-family="Times,serif" font-size="14.00" fill="#dddddd">q1</text>
</g>
<!-- q0&#45;&gt;q1 -->
<g id="edge2" class="edge">
<title>q0&#45;&gt;q1</title>
<path fill="none" stroke="#dddddd" d="M72.62,-76.99C82.5,-80.47 95.45,-85.02 106.86,-89.04"/>
<polygon fill="#dddddd" stroke="#dddddd" points="105.57,-92.29 116.16,-92.31 107.89,-85.69 105.57,-92.29"/>
<text text-anchor="middle" x="95.1" y="-88.91" font-family="Times,serif" font-size="14.00" fill="#dddddd">1</text>
</g>
<!-- q6 -->
<g id="node8" class="node">
<title>q6</title>
<ellipse fill="none" stroke="#dddddd" cx="134.47" cy="-44.4" rx="18" ry="18"/>
<text text-anchor="middle" x="134.47" y="-39.35" font-family="Times,serif" font-size="14.00" fill="#dddddd">q6</text>
</g>
<!-- q0&#45;&gt;q6 -->
<g id="edge8" class="edge">
<title>q0&#45;&gt;q6</title>
<path fill="none" stroke="#dddddd" d="M72.62,-65.81C82.5,-62.33 95.45,-57.78 106.86,-53.76"/>
<polygon fill="#dddddd" stroke="#dddddd" points="107.89,-57.11 116.16,-50.49 105.57,-50.51 107.89,-57.11"/>
<text text-anchor="middle" x="95.1" y="-61.91" font-family="Times,serif" font-size="14.00" fill="#dddddd">0</text>
</g>
<!-- q2 -->
<g id="node5" class="node">
<title>q2</title>
<ellipse fill="none" stroke="#dddddd" cx="213.22" cy="-102.4" rx="18" ry="18"/>
<text text-anchor="middle" x="213.22" y="-97.35" font-family="Times,serif" font-size="14.00" fill="#dddddd">q2</text>
</g>
<!-- q1&#45;&gt;q2 -->
<g id="edge3" class="edge">
<title>q1&#45;&gt;q2</title>
<path fill="none" stroke="#dddddd" d="M152.12,-99.27C161.41,-99.75 173.23,-100.37 183.93,-100.93"/>
<polygon fill="#dddddd" stroke="#dddddd" points="183.65,-104.42 193.82,-101.44 184.02,-97.43 183.65,-104.42"/>
<text text-anchor="middle" x="173.85" y="-103.72" font-family="Times,serif" font-size="14.00" fill="#dddddd">0</text>
</g>
<!-- q3 -->
<g id="node6" class="node">
<title>q3</title>
<ellipse fill="none" stroke="#dddddd" cx="291.97" cy="-107.4" rx="18" ry="18"/>
<text text-anchor="middle" x="291.97" y="-102.35" font-family="Times,serif" font-size="14.00" fill="#dddddd">q3</text>
</g>
<!-- q2&#45;&gt;q3 -->
<g id="edge4" class="edge">
<title>q2&#45;&gt;q3</title>
<path fill="none" stroke="#dddddd" d="M230.87,-103.48C240.16,-104.09 251.98,-104.86 262.68,-105.56"/>
<polygon fill="#dddddd" stroke="#dddddd" points="262.37,-109.04 272.57,-106.2 262.82,-102.06 262.37,-109.04"/>
<text text-anchor="middle" x="252.6" y="-108.25" font-family="Times,serif" font-size="14.00" fill="#dddddd">0</text>
</g>
<!-- q3&#45;&gt;q4 -->
<g id="edge6" class="edge">
<title>q3&#45;&gt;q4</title>
<path fill="none" stroke="#dddddd" d="M309.71,-107.4C318.98,-107.4 330.77,-107.4 341.46,-107.4"/>
<polygon fill="#dddddd" stroke="#dddddd" points="341.36,-110.9 351.36,-107.4 341.36,-103.9 341.36,-110.9"/>
<text text-anchor="middle" x="331.35" y="-110.6" font-family="Times,serif" font-size="14.00" fill="#dddddd">1</text>
</g>
<!-- q3&#45;&gt;q3 -->
<g id="edge5" class="edge">
<title>q3&#45;&gt;q3</title>
<path fill="none" stroke="#dddddd" d="M285.11,-123.69C283.45,-133.79 285.74,-143.4 291.97,-143.4 295.67,-143.4 297.98,-140.01 298.9,-135.14"/>
<polygon fill="#dddddd" stroke="#dddddd" points="302.4,-135.18 298.84,-125.2 295.4,-135.22 302.4,-135.18"/>
<text text-anchor="middle" x="291.97" y="-146.6" font-family="Times,serif" font-size="14.00" fill="#dddddd">0</text>
</g>
<!-- q9 -->
<g id="node7" class="node">
<title>q9</title>
<ellipse fill="none" stroke="#dddddd" cx="371.12" cy="-18.4" rx="14.4" ry="14.4"/>
<ellipse fill="none" stroke="#dddddd" cx="371.12" cy="-18.4" rx="18.4" ry="18.4"/>
<text text-anchor="middle" x="371.12" y="-13.35" font-family="Times,serif" font-size="14.00" fill="#dddddd">q9</text>
</g>
<!-- q9&#45;&gt;q9 -->
<g id="edge13" class="edge">
<title>q9&#45;&gt;q9</title>
<path fill="none" stroke="#dddddd" d="M364.13,-35.25C362.57,-45.32 364.91,-54.8 371.12,-54.8 374.81,-54.8 377.13,-51.46 378.08,-46.63"/>
<polygon fill="#dddddd" stroke="#dddddd" points="381.58,-46.77 378.11,-36.76 374.58,-46.75 381.58,-46.77"/>
<text text-anchor="middle" x="371.12" y="-58" font-family="Times,serif" font-size="14.00" fill="#dddddd">1</text>
</g>
<!-- q7 -->
<g id="node9" class="node">
<title>q7</title>
<ellipse fill="none" stroke="#dddddd" cx="213.22" cy="-44.4" rx="18" ry="18"/>
<text text-anchor="middle" x="213.22" y="-39.35" font-family="Times,serif" font-size="14.00" fill="#dddddd">q7</text>
</g>
<!-- q6&#45;&gt;q7 -->
<g id="edge9" class="edge">
<title>q6&#45;&gt;q7</title>
<path fill="none" stroke="#dddddd" d="M152.12,-44.4C161.41,-44.4 173.23,-44.4 183.93,-44.4"/>
<polygon fill="#dddddd" stroke="#dddddd" points="183.82,-47.9 193.82,-44.4 183.82,-40.9 183.82,-47.9"/>
<text text-anchor="middle" x="173.85" y="-47.6" font-family="Times,serif" font-size="14.00" fill="#dddddd">1</text>
</g>
<!-- q8 -->
<g id="node10" class="node">
<title>q8</title>
<ellipse fill="none" stroke="#dddddd" cx="291.97" cy="-18.4" rx="18" ry="18"/>
<text text-anchor="middle" x="291.97" y="-13.35" font-family="Times,serif" font-size="14.00" fill="#dddddd">q8</text>
</g>
<!-- q7&#45;&gt;q8 -->
<g id="edge10" class="edge">
<title>q7&#45;&gt;q8</title>
<path fill="none" stroke="#dddddd" d="M230.12,-39.01C239.94,-35.69 252.78,-31.34 264.13,-27.49"/>
<polygon fill="#dddddd" stroke="#dddddd" points="265.04,-30.88 273.39,-24.36 262.8,-24.25 265.04,-30.88"/>
<text text-anchor="middle" x="252.6" y="-35.38" font-family="Times,serif" font-size="14.00" fill="#dddddd">0</text>
</g>
<!-- q8&#45;&gt;q9 -->
<g id="edge12" class="edge">
<title>q8&#45;&gt;q9</title>
<path fill="none" stroke="#dddddd" d="M309.71,-18.4C318.98,-18.4 330.77,-18.4 341.46,-18.4"/>
<polygon fill="#dddddd" stroke="#dddddd" points="341.36,-21.9 351.36,-18.4 341.36,-14.9 341.36,-21.9"/>
<text text-anchor="middle" x="331.35" y="-21.6" font-family="Times,serif" font-size="14.00" fill="#dddddd">1</text>
</g>
<!-- q8&#45;&gt;q8 -->
<g id="edge11" class="edge">
<title>q8&#45;&gt;q8</title>
<path fill="none" stroke="#dddddd" d="M285.11,-34.69C283.45,-44.79 285.74,-54.4 291.97,-54.4 295.67,-54.4 297.98,-51.01 298.9,-46.14"/>
<polygon fill="#dddddd" stroke="#dddddd" points="302.4,-46.18 298.84,-36.2 295.4,-46.22 302.4,-46.18"/>
<text text-anchor="middle" x="291.97" y="-57.6" font-family="Times,serif" font-size="14.00" fill="#dddddd">0</text>
</g>
</g>
</svg>
