<?xml version="1.0" encoding="UTF-8" standalone="no"?>
<!DOCTYPE svg PUBLIC "-//W3C//DTD SVG 1.1//EN"
 "http://www.w3.org/Graphics/SVG/1.1/DTD/svg11.dtd">
<!-- Generated by graphviz version 11.0.0 (0)
 -->
<!-- Pages: 1 -->
<svg width="317pt" height="116pt"
 viewBox="0.00 0.00 317.27 115.80" xmlns="http://www.w3.org/2000/svg" xmlns:xlink="http://www.w3.org/1999/xlink">
<g id="graph0" class="graph" transform="scale(1 1) rotate(0) translate(4 111.8)">
<!-- start -->
<g id="node1" class="node">
<title>start</title>
</g>
<!-- q00 -->
<g id="node3" class="node">
<title>q00</title>
<ellipse fill="none" stroke="#dddddd" cx="54.85" cy="-45.4" rx="18" ry="18"/>
<text text-anchor="middle" x="54.85" y="-40.35" font-family="Times,serif" font-size="14.00" fill="#dddddd">q00</text>
</g>
<!-- start&#45;&gt;q00 -->
<g id="edge1" class="edge">
<title>start&#45;&gt;q00</title>
<path fill="none" stroke="#dddddd" d="M18.12,-45.4C20.48,-45.4 22.95,-45.4 25.45,-45.4"/>
<polygon fill="#dddddd" stroke="#dddddd" points="25.44,-48.9 35.44,-45.4 25.44,-41.9 25.44,-48.9"/>
</g>
<!-- q2 -->
<g id="node2" class="node">
<title>q2</title>
<ellipse fill="none" stroke="#dddddd" cx="290.87" cy="-89.4" rx="14.4" ry="14.4"/>
<ellipse fill="none" stroke="#dddddd" cx="290.87" cy="-89.4" rx="18.4" ry="18.4"/>
<text text-anchor="middle" x="290.87" y="-84.35" font-family="Times,serif" font-size="14.00" fill="#dddddd">q2</text>
</g>
<!-- q0 -->
<g id="node4" class="node">
<title>q0</title>
<ellipse fill="none" stroke="#dddddd" cx="132.97" cy="-72.4" rx="18" ry="18"/>
<text text-anchor="middle" x="132.97" y="-67.35" font-family="Times,serif" font-size="14.00" fill="#dddddd">q0</text>
</g>
<!-- q00&#45;&gt;q0 -->
<g id="edge2" class="edge">
<title>q00&#45;&gt;q0</title>
<path fill="none" stroke="#dddddd" d="M71.62,-50.99C81.35,-54.45 94.09,-58.96 105.35,-62.96"/>
<polygon fill="#dddddd" stroke="#dddddd" points="103.93,-66.17 114.53,-66.21 106.27,-59.57 103.93,-66.17"/>
<text text-anchor="middle" x="93.97" y="-62.6" font-family="Times,serif" font-size="14.00" fill="#dddddd">ε</text>
</g>
<!-- q3 -->
<g id="node5" class="node">
<title>q3</title>
<ellipse fill="none" stroke="#dddddd" cx="132.97" cy="-18.4" rx="18" ry="18"/>
<text text-anchor="middle" x="132.97" y="-13.35" font-family="Times,serif" font-size="14.00" fill="#dddddd">q3</text>
</g>
<!-- q00&#45;&gt;q3 -->
<g id="edge3" class="edge">
<title>q00&#45;&gt;q3</title>
<path fill="none" stroke="#dddddd" d="M71.62,-39.81C81.35,-36.35 94.09,-31.84 105.35,-27.84"/>
<polygon fill="#dddddd" stroke="#dddddd" points="106.27,-31.23 114.53,-24.59 103.93,-24.63 106.27,-31.23"/>
<text text-anchor="middle" x="93.97" y="-35.6" font-family="Times,serif" font-size="14.00" fill="#dddddd">ε</text>
</g>
<!-- q1 -->
<g id="node6" class="node">
<title>q1</title>
<ellipse fill="none" stroke="#dddddd" cx="211.72" cy="-89.4" rx="18" ry="18"/>
<text text-anchor="middle" x="211.72" y="-84.35" font-family="Times,serif" font-size="14.00" fill="#dddddd">q1</text>
</g>
<!-- q0&#45;&gt;q1 -->
<g id="edge4" class="edge">
<title>q0&#45;&gt;q1</title>
<path fill="none" stroke="#dddddd" d="M149.85,-77.99C155.79,-79.92 162.63,-81.96 168.97,-83.4 173.42,-84.41 178.18,-85.29 182.83,-86.03"/>
<polygon fill="#dddddd" stroke="#dddddd" points="182.05,-89.46 192.45,-87.4 183.04,-82.53 182.05,-89.46"/>
<text text-anchor="middle" x="172.35" y="-87.6" font-family="Times,serif" font-size="14.00" fill="#dddddd">0</text>
</g>
<!-- q4 -->
<g id="node8" class="node">
<title>q4</title>
<ellipse fill="none" stroke="#dddddd" cx="211.72" cy="-18.4" rx="18" ry="18"/>
<text text-anchor="middle" x="211.72" y="-13.35" font-family="Times,serif" font-size="14.00" fill="#dddddd">q4</text>
</g>
<!-- q3&#45;&gt;q4 -->
<g id="edge7" class="edge">
<title>q3&#45;&gt;q4</title>
<path fill="none" stroke="#dddddd" d="M150.62,-18.4C159.91,-18.4 171.73,-18.4 182.43,-18.4"/>
<polygon fill="#dddddd" stroke="#dddddd" points="182.32,-21.9 192.32,-18.4 182.32,-14.9 182.32,-21.9"/>
<text text-anchor="middle" x="172.35" y="-21.6" font-family="Times,serif" font-size="14.00" fill="#dddddd">1</text>
</g>
<!-- q1&#45;&gt;q2 -->
<g id="edge6" class="edge">
<title>q1&#45;&gt;q2</title>
<path fill="none" stroke="#dddddd" d="M229.46,-89.4C238.73,-89.4 250.52,-89.4 261.21,-89.4"/>
<polygon fill="#dddddd" stroke="#dddddd" points="261.11,-92.9 271.11,-89.4 261.11,-85.9 261.11,-92.9"/>
<text text-anchor="middle" x="251.1" y="-92.6" font-family="Times,serif" font-size="14.00" fill="#dddddd">1</text>
</g>
<!-- q1&#45;&gt;q0 -->
<g id="edge5" class="edge">
<title>q1&#45;&gt;q0</title>
<path fill="none" stroke="#dddddd" d="M198.61,-77.1C192.35,-71.62 184.25,-65.76 175.72,-62.9 170.75,-61.23 165.35,-61.2 160.13,-62.04"/>
<polygon fill="#dddddd" stroke="#dddddd" points="159.47,-58.59 150.71,-64.55 161.27,-65.36 159.47,-58.59"/>
<text text-anchor="middle" x="172.35" y="-65.6" font-family="Times,serif" font-size="14.00" fill="#dddddd">0</text>
</g>
<!-- q5 -->
<g id="node7" class="node">
<title>q5</title>
<ellipse fill="none" stroke="#dddddd" cx="290.87" cy="-18.4" rx="14.4" ry="14.4"/>
<ellipse fill="none" stroke="#dddddd" cx="290.87" cy="-18.4" rx="18.4" ry="18.4"/>
<text text-anchor="middle" x="290.87" y="-13.35" font-family="Times,serif" font-size="14.00" fill="#dddddd">q5</text>
</g>
<!-- q4&#45;&gt;q5 -->
<g id="edge8" class="edge">
<title>q4&#45;&gt;q5</title>
<path fill="none" stroke="#dddddd" d="M229.46,-18.4C238.73,-18.4 250.52,-18.4 261.21,-18.4"/>
<polygon fill="#dddddd" stroke="#dddddd" points="261.11,-21.9 271.11,-18.4 261.11,-14.9 261.11,-21.9"/>
<text text-anchor="middle" x="251.1" y="-21.6" font-family="Times,serif" font-size="14.00" fill="#dddddd">0</text>
</g>
</g>
</svg>
