<?xml version="1.0" encoding="UTF-8" standalone="no"?>
<!DOCTYPE svg PUBLIC "-//W3C//DTD SVG 1.1//EN"
 "http://www.w3.org/Graphics/SVG/1.1/DTD/svg11.dtd">
<!-- Generated by graphviz version 12.1.1 (0)
 -->
<!-- Pages: 1 -->
<svg width="318pt" height="116pt"
 viewBox="0.00 0.00 318.27 115.80" xmlns="http://www.w3.org/2000/svg" xmlns:xlink="http://www.w3.org/1999/xlink">
<g id="graph0" class="graph" transform="scale(1 1) rotate(0) translate(4 111.8)">
<!-- start -->
<g id="node1" class="node">
<title>start</title>
</g>
<!-- q00 -->
<g id="node3" class="node">
<title>q00</title>
<ellipse fill="none" stroke="#dddddd" cx="55.85" cy="-45.4" rx="18" ry="18"/>
<text text-anchor="middle" x="55.85" y="-40.35" font-family="Times,serif" font-size="14.00" fill="#dddddd">q00</text>
</g>
<!-- start&#45;&gt;q00 -->
<g id="edge1" class="edge">
<title>start&#45;&gt;q00</title>
<path fill="none" stroke="#dddddd" d="M18.14,-45.4C20.96,-45.4 23.93,-45.4 26.91,-45.4"/>
<polygon fill="#dddddd" stroke="#dddddd" points="26.68,-48.9 36.68,-45.4 26.68,-41.9 26.68,-48.9"/>
</g>
<!-- q2 -->
<g id="node2" class="node">
<title>q2</title>
<ellipse fill="none" stroke="#dddddd" cx="291.87" cy="-89.4" rx="14.4" ry="14.4"/>
<ellipse fill="none" stroke="#dddddd" cx="291.87" cy="-89.4" rx="18.4" ry="18.4"/>
<text text-anchor="middle" x="291.87" y="-84.35" font-family="Times,serif" font-size="14.00" fill="#dddddd">q2</text>
</g>
<!-- q0 -->
<g id="node4" class="node">
<title>q0</title>
<ellipse fill="none" stroke="#dddddd" cx="133.97" cy="-72.4" rx="18" ry="18"/>
<text text-anchor="middle" x="133.97" y="-67.35" font-family="Times,serif" font-size="14.00" fill="#dddddd">q0</text>
</g>
<!-- q00&#45;&gt;q0 -->
<g id="edge2" class="edge">
<title>q00&#45;&gt;q0</title>
<path fill="none" stroke="#dddddd" d="M72.62,-50.99C82.35,-54.45 95.09,-58.96 106.35,-62.96"/>
<polygon fill="#dddddd" stroke="#dddddd" points="104.93,-66.17 115.53,-66.21 107.27,-59.57 104.93,-66.17"/>
<text text-anchor="middle" x="94.97" y="-62.91" font-family="Times,serif" font-size="14.00" fill="#dddddd">ε</text>
</g>
<!-- q3 -->
<g id="node5" class="node">
<title>q3</title>
<ellipse fill="none" stroke="#dddddd" cx="133.97" cy="-18.4" rx="18" ry="18"/>
<text text-anchor="middle" x="133.97" y="-13.35" font-family="Times,serif" font-size="14.00" fill="#dddddd">q3</text>
</g>
<!-- q00&#45;&gt;q3 -->
<g id="edge3" class="edge">
<title>q00&#45;&gt;q3</title>
<path fill="none" stroke="#dddddd" d="M72.62,-39.81C82.35,-36.35 95.09,-31.84 106.35,-27.84"/>
<polygon fill="#dddddd" stroke="#dddddd" points="107.27,-31.23 115.53,-24.59 104.93,-24.63 107.27,-31.23"/>
<text text-anchor="middle" x="94.97" y="-35.91" font-family="Times,serif" font-size="14.00" fill="#dddddd">ε</text>
</g>
<!-- q1 -->
<g id="node6" class="node">
<title>q1</title>
<ellipse fill="none" stroke="#dddddd" cx="212.72" cy="-89.4" rx="18" ry="18"/>
<text text-anchor="middle" x="212.72" y="-84.35" font-family="Times,serif" font-size="14.00" fill="#dddddd">q1</text>
</g>
<!-- q0&#45;&gt;q1 -->
<g id="edge4" class="edge">
<title>q0&#45;&gt;q1</title>
<path fill="none" stroke="#dddddd" d="M150.85,-77.99C156.79,-79.92 163.63,-81.96 169.97,-83.4 174.42,-84.41 179.18,-85.29 183.83,-86.03"/>
<polygon fill="#dddddd" stroke="#dddddd" points="183.05,-89.46 193.45,-87.4 184.04,-82.53 183.05,-89.46"/>
<text text-anchor="middle" x="173.35" y="-87.78" font-family="Times,serif" font-size="14.00" fill="#dddddd">0</text>
</g>
<!-- q4 -->
<g id="node8" class="node">
<title>q4</title>
<ellipse fill="none" stroke="#dddddd" cx="212.72" cy="-18.4" rx="18" ry="18"/>
<text text-anchor="middle" x="212.72" y="-13.35" font-family="Times,serif" font-size="14.00" fill="#dddddd">q4</text>
</g>
<!-- q3&#45;&gt;q4 -->
<g id="edge7" class="edge">
<title>q3&#45;&gt;q4</title>
<path fill="none" stroke="#dddddd" d="M151.62,-18.4C160.91,-18.4 172.73,-18.4 183.43,-18.4"/>
<polygon fill="#dddddd" stroke="#dddddd" points="183.32,-21.9 193.32,-18.4 183.32,-14.9 183.32,-21.9"/>
<text text-anchor="middle" x="173.35" y="-21.6" font-family="Times,serif" font-size="14.00" fill="#dddddd">1</text>
</g>
<!-- q1&#45;&gt;q2 -->
<g id="edge6" class="edge">
<title>q1&#45;&gt;q2</title>
<path fill="none" stroke="#dddddd" d="M230.46,-89.4C239.73,-89.4 251.52,-89.4 262.21,-89.4"/>
<polygon fill="#dddddd" stroke="#dddddd" points="262.11,-92.9 272.11,-89.4 262.11,-85.9 262.11,-92.9"/>
<text text-anchor="middle" x="252.1" y="-92.6" font-family="Times,serif" font-size="14.00" fill="#dddddd">1</text>
</g>
<!-- q1&#45;&gt;q0 -->
<g id="edge5" class="edge">
<title>q1&#45;&gt;q0</title>
<path fill="none" stroke="#dddddd" d="M199.61,-77.1C193.35,-71.62 185.25,-65.76 176.72,-62.9 171.75,-61.23 166.35,-61.2 161.13,-62.04"/>
<polygon fill="#dddddd" stroke="#dddddd" points="160.47,-58.59 151.71,-64.55 162.27,-65.36 160.47,-58.59"/>
<text text-anchor="middle" x="173.35" y="-66.1" font-family="Times,serif" font-size="14.00" fill="#dddddd">0</text>
</g>
<!-- q5 -->
<g id="node7" class="node">
<title>q5</title>
<ellipse fill="none" stroke="#dddddd" cx="291.87" cy="-18.4" rx="14.4" ry="14.4"/>
<ellipse fill="none" stroke="#dddddd" cx="291.87" cy="-18.4" rx="18.4" ry="18.4"/>
<text text-anchor="middle" x="291.87" y="-13.35" font-family="Times,serif" font-size="14.00" fill="#dddddd">q5</text>
</g>
<!-- q4&#45;&gt;q5 -->
<g id="edge8" class="edge">
<title>q4&#45;&gt;q5</title>
<path fill="none" stroke="#dddddd" d="M230.46,-18.4C239.73,-18.4 251.52,-18.4 262.21,-18.4"/>
<polygon fill="#dddddd" stroke="#dddddd" points="262.11,-21.9 272.11,-18.4 262.11,-14.9 262.11,-21.9"/>
<text text-anchor="middle" x="252.1" y="-21.6" font-family="Times,serif" font-size="14.00" fill="#dddddd">0</text>
</g>
</g>
</svg>
