<?xml version="1.0" encoding="UTF-8" standalone="no"?>
<!DOCTYPE svg PUBLIC "-//W3C//DTD SVG 1.1//EN"
 "http://www.w3.org/Graphics/SVG/1.1/DTD/svg11.dtd">
<!-- Generated by graphviz version 11.0.0 (0)
 -->
<!-- Pages: 1 -->
<svg width="397pt" height="168pt"
 viewBox="0.00 0.00 396.52 168.30" xmlns="http://www.w3.org/2000/svg" xmlns:xlink="http://www.w3.org/1999/xlink">
<g id="graph0" class="graph" transform="scale(1 1) rotate(0) translate(4 164.3)">
<!-- start -->
<g id="node1" class="node">
<title>start</title>
</g>
<!-- q0 -->
<g id="node3" class="node">
<title>q0</title>
<ellipse fill="none" stroke="#dddddd" cx="54.72" cy="-71.4" rx="18" ry="18"/>
<text text-anchor="middle" x="54.72" y="-66.35" font-family="Times,serif" font-size="14.00" fill="#dddddd">q0</text>
</g>
<!-- start&#45;&gt;q0 -->
<g id="edge1" class="edge">
<title>start&#45;&gt;q0</title>
<path fill="none" stroke="#dddddd" d="M18.07,-71.4C20.43,-71.4 22.9,-71.4 25.39,-71.4"/>
<polygon fill="#dddddd" stroke="#dddddd" points="25.36,-74.9 35.35,-71.4 25.35,-67.9 25.36,-74.9"/>
</g>
<!-- q4 -->
<g id="node2" class="node">
<title>q4</title>
<ellipse fill="none" stroke="#dddddd" cx="370.12" cy="-107.4" rx="14.4" ry="14.4"/>
<ellipse fill="none" stroke="#dddddd" cx="370.12" cy="-107.4" rx="18.4" ry="18.4"/>
<text text-anchor="middle" x="370.12" y="-102.35" font-family="Times,serif" font-size="14.00" fill="#dddddd">q4</text>
</g>
<!-- q4&#45;&gt;q4 -->
<g id="edge7" class="edge">
<title>q4&#45;&gt;q4</title>
<path fill="none" stroke="#dddddd" d="M363.13,-124.25C361.57,-134.32 363.91,-143.8 370.12,-143.8 373.81,-143.8 376.13,-140.46 377.08,-135.63"/>
<polygon fill="#dddddd" stroke="#dddddd" points="380.58,-135.77 377.11,-125.76 373.58,-135.75 380.58,-135.77"/>
<text text-anchor="middle" x="370.12" y="-147" font-family="Times,serif" font-size="14.00" fill="#dddddd">1</text>
</g>
<!-- q1 -->
<g id="node4" class="node">
<title>q1</title>
<ellipse fill="none" stroke="#dddddd" cx="133.47" cy="-98.4" rx="18" ry="18"/>
<text text-anchor="middle" x="133.47" y="-93.35" font-family="Times,serif" font-size="14.00" fill="#dddddd">q1</text>
</g>
<!-- q0&#45;&gt;q1 -->
<g id="edge2" class="edge">
<title>q0&#45;&gt;q1</title>
<path fill="none" stroke="#dddddd" d="M71.62,-76.99C81.5,-80.47 94.45,-85.02 105.86,-89.04"/>
<polygon fill="#dddddd" stroke="#dddddd" points="104.57,-92.29 115.16,-92.31 106.89,-85.69 104.57,-92.29"/>
<text text-anchor="middle" x="94.1" y="-88.6" font-family="Times,serif" font-size="14.00" fill="#dddddd">1</text>
</g>
<!-- q6 -->
<g id="node8" class="node">
<title>q6</title>
<ellipse fill="none" stroke="#dddddd" cx="133.47" cy="-44.4" rx="18" ry="18"/>
<text text-anchor="middle" x="133.47" y="-39.35" font-family="Times,serif" font-size="14.00" fill="#dddddd">q6</text>
</g>
<!-- q0&#45;&gt;q6 -->
<g id="edge8" class="edge">
<title>q0&#45;&gt;q6</title>
<path fill="none" stroke="#dddddd" d="M71.62,-65.81C81.5,-62.33 94.45,-57.78 105.86,-53.76"/>
<polygon fill="#dddddd" stroke="#dddddd" points="106.89,-57.11 115.16,-50.49 104.57,-50.51 106.89,-57.11"/>
<text text-anchor="middle" x="94.1" y="-61.6" font-family="Times,serif" font-size="14.00" fill="#dddddd">0</text>
</g>
<!-- q2 -->
<g id="node5" class="node">
<title>q2</title>
<ellipse fill="none" stroke="#dddddd" cx="212.22" cy="-102.4" rx="18" ry="18"/>
<text text-anchor="middle" x="212.22" y="-97.35" font-family="Times,serif" font-size="14.00" fill="#dddddd">q2</text>
</g>
<!-- q1&#45;&gt;q2 -->
<g id="edge3" class="edge">
<title>q1&#45;&gt;q2</title>
<path fill="none" stroke="#dddddd" d="M151.12,-99.27C160.41,-99.75 172.23,-100.37 182.93,-100.93"/>
<polygon fill="#dddddd" stroke="#dddddd" points="182.65,-104.42 192.82,-101.44 183.02,-97.43 182.65,-104.42"/>
<text text-anchor="middle" x="172.85" y="-103.6" font-family="Times,serif" font-size="14.00" fill="#dddddd">0</text>
</g>
<!-- q3 -->
<g id="node6" class="node">
<title>q3</title>
<ellipse fill="none" stroke="#dddddd" cx="290.97" cy="-107.4" rx="18" ry="18"/>
<text text-anchor="middle" x="290.97" y="-102.35" font-family="Times,serif" font-size="14.00" fill="#dddddd">q3</text>
</g>
<!-- q2&#45;&gt;q3 -->
<g id="edge4" class="edge">
<title>q2&#45;&gt;q3</title>
<path fill="none" stroke="#dddddd" d="M229.87,-103.48C239.16,-104.09 250.98,-104.86 261.68,-105.56"/>
<polygon fill="#dddddd" stroke="#dddddd" points="261.37,-109.04 271.57,-106.2 261.82,-102.06 261.37,-109.04"/>
<text text-anchor="middle" x="251.6" y="-107.6" font-family="Times,serif" font-size="14.00" fill="#dddddd">0</text>
</g>
<!-- q3&#45;&gt;q4 -->
<g id="edge6" class="edge">
<title>q3&#45;&gt;q4</title>
<path fill="none" stroke="#dddddd" d="M308.71,-107.4C317.98,-107.4 329.77,-107.4 340.46,-107.4"/>
<polygon fill="#dddddd" stroke="#dddddd" points="340.36,-110.9 350.36,-107.4 340.36,-103.9 340.36,-110.9"/>
<text text-anchor="middle" x="330.35" y="-110.6" font-family="Times,serif" font-size="14.00" fill="#dddddd">1</text>
</g>
<!-- q3&#45;&gt;q3 -->
<g id="edge5" class="edge">
<title>q3&#45;&gt;q3</title>
<path fill="none" stroke="#dddddd" d="M284.11,-123.69C282.45,-133.79 284.74,-143.4 290.97,-143.4 294.67,-143.4 296.98,-140.01 297.9,-135.14"/>
<polygon fill="#dddddd" stroke="#dddddd" points="301.4,-135.18 297.84,-125.2 294.4,-135.22 301.4,-135.18"/>
<text text-anchor="middle" x="290.97" y="-146.6" font-family="Times,serif" font-size="14.00" fill="#dddddd">0</text>
</g>
<!-- q9 -->
<g id="node7" class="node">
<title>q9</title>
<ellipse fill="none" stroke="#dddddd" cx="370.12" cy="-18.4" rx="14.4" ry="14.4"/>
<ellipse fill="none" stroke="#dddddd" cx="370.12" cy="-18.4" rx="18.4" ry="18.4"/>
<text text-anchor="middle" x="370.12" y="-13.35" font-family="Times,serif" font-size="14.00" fill="#dddddd">q9</text>
</g>
<!-- q9&#45;&gt;q9 -->
<g id="edge13" class="edge">
<title>q9&#45;&gt;q9</title>
<path fill="none" stroke="#dddddd" d="M363.13,-35.25C361.57,-45.32 363.91,-54.8 370.12,-54.8 373.81,-54.8 376.13,-51.46 377.08,-46.63"/>
<polygon fill="#dddddd" stroke="#dddddd" points="380.58,-46.77 377.11,-36.76 373.58,-46.75 380.58,-46.77"/>
<text text-anchor="middle" x="370.12" y="-58" font-family="Times,serif" font-size="14.00" fill="#dddddd">1</text>
</g>
<!-- q7 -->
<g id="node9" class="node">
<title>q7</title>
<ellipse fill="none" stroke="#dddddd" cx="212.22" cy="-44.4" rx="18" ry="18"/>
<text text-anchor="middle" x="212.22" y="-39.35" font-family="Times,serif" font-size="14.00" fill="#dddddd">q7</text>
</g>
<!-- q6&#45;&gt;q7 -->
<g id="edge9" class="edge">
<title>q6&#45;&gt;q7</title>
<path fill="none" stroke="#dddddd" d="M151.12,-44.4C160.41,-44.4 172.23,-44.4 182.93,-44.4"/>
<polygon fill="#dddddd" stroke="#dddddd" points="182.82,-47.9 192.82,-44.4 182.82,-40.9 182.82,-47.9"/>
<text text-anchor="middle" x="172.85" y="-47.6" font-family="Times,serif" font-size="14.00" fill="#dddddd">1</text>
</g>
<!-- q8 -->
<g id="node10" class="node">
<title>q8</title>
<ellipse fill="none" stroke="#dddddd" cx="290.97" cy="-18.4" rx="18" ry="18"/>
<text text-anchor="middle" x="290.97" y="-13.35" font-family="Times,serif" font-size="14.00" fill="#dddddd">q8</text>
</g>
<!-- q7&#45;&gt;q8 -->
<g id="edge10" class="edge">
<title>q7&#45;&gt;q8</title>
<path fill="none" stroke="#dddddd" d="M229.12,-39.01C238.94,-35.69 251.78,-31.34 263.13,-27.49"/>
<polygon fill="#dddddd" stroke="#dddddd" points="264.04,-30.88 272.39,-24.36 261.8,-24.25 264.04,-30.88"/>
<text text-anchor="middle" x="251.6" y="-34.6" font-family="Times,serif" font-size="14.00" fill="#dddddd">0</text>
</g>
<!-- q8&#45;&gt;q9 -->
<g id="edge12" class="edge">
<title>q8&#45;&gt;q9</title>
<path fill="none" stroke="#dddddd" d="M308.71,-18.4C317.98,-18.4 329.77,-18.4 340.46,-18.4"/>
<polygon fill="#dddddd" stroke="#dddddd" points="340.36,-21.9 350.36,-18.4 340.36,-14.9 340.36,-21.9"/>
<text text-anchor="middle" x="330.35" y="-21.6" font-family="Times,serif" font-size="14.00" fill="#dddddd">1</text>
</g>
<!-- q8&#45;&gt;q8 -->
<g id="edge11" class="edge">
<title>q8&#45;&gt;q8</title>
<path fill="none" stroke="#dddddd" d="M284.11,-34.69C282.45,-44.79 284.74,-54.4 290.97,-54.4 294.67,-54.4 296.98,-51.01 297.9,-46.14"/>
<polygon fill="#dddddd" stroke="#dddddd" points="301.4,-46.18 297.84,-36.2 294.4,-46.22 301.4,-46.18"/>
<text text-anchor="middle" x="290.97" y="-57.6" font-family="Times,serif" font-size="14.00" fill="#dddddd">0</text>
</g>
</g>
</svg>
