<?xml version="1.0" encoding="UTF-8" standalone="no"?>
<!DOCTYPE svg PUBLIC "-//W3C//DTD SVG 1.1//EN"
 "http://www.w3.org/Graphics/SVG/1.1/DTD/svg11.dtd">
<!-- Generated by graphviz version 11.0.0 (0)
 -->
<!-- Pages: 1 -->
<svg width="445pt" height="79pt"
 viewBox="0.00 0.00 444.57 78.90" xmlns="http://www.w3.org/2000/svg" xmlns:xlink="http://www.w3.org/1999/xlink">
<g id="graph0" class="graph" transform="scale(1 1) rotate(0) translate(4 74.9)">
<!-- start -->
<g id="node1" class="node">
<title>start</title>
</g>
<!-- q₀ -->
<g id="node2" class="node">
<title>q₀</title>
<ellipse fill="none" stroke="#dddddd" cx="55.12" cy="-18.4" rx="14.4" ry="14.4"/>
<ellipse fill="none" stroke="#dddddd" cx="55.12" cy="-18.4" rx="18.4" ry="18.4"/>
<text text-anchor="middle" x="55.12" y="-13.35" font-family="Times,serif" font-size="14.00" fill="#dddddd">q₀</text>
</g>
<!-- start&#45;&gt;q₀ -->
<g id="edge1" class="edge">
<title>start&#45;&gt;q₀</title>
<path fill="none" stroke="#dddddd" d="M18.21,-18.4C20.53,-18.4 22.97,-18.4 25.43,-18.4"/>
<polygon fill="#dddddd" stroke="#dddddd" points="25.26,-21.9 35.26,-18.4 25.26,-14.9 25.26,-21.9"/>
</g>
<!-- q₁ -->
<g id="node4" class="node">
<title>q₁</title>
<ellipse fill="none" stroke="#dddddd" cx="176.27" cy="-18.4" rx="18" ry="18"/>
<text text-anchor="middle" x="176.27" y="-13.35" font-family="Times,serif" font-size="14.00" fill="#dddddd">q₁</text>
</g>
<!-- q₀&#45;&gt;q₁ -->
<g id="edge2" class="edge">
<title>q₀&#45;&gt;q₁</title>
<path fill="none" stroke="#dddddd" d="M73.45,-18.4C92.7,-18.4 124.1,-18.4 146.94,-18.4"/>
<polygon fill="#dddddd" stroke="#dddddd" points="146.8,-21.9 156.8,-18.4 146.8,-14.9 146.8,-21.9"/>
<text text-anchor="middle" x="115.89" y="-21.6" font-family="Times,serif" font-size="14.00" fill="#dddddd">0, ε → $</text>
</g>
<!-- q₃ -->
<g id="node3" class="node">
<title>q₃</title>
<ellipse fill="none" stroke="#dddddd" cx="418.17" cy="-18.4" rx="14.4" ry="14.4"/>
<ellipse fill="none" stroke="#dddddd" cx="418.17" cy="-18.4" rx="18.4" ry="18.4"/>
<text text-anchor="middle" x="418.17" y="-13.35" font-family="Times,serif" font-size="14.00" fill="#dddddd">q₃</text>
</g>
<!-- q₁&#45;&gt;q₁ -->
<g id="edge5" class="edge">
<title>q₁&#45;&gt;q₁</title>
<path fill="none" stroke="#dddddd" d="M166.17,-33.19C162.88,-43.82 166.25,-54.4 176.27,-54.4 182.53,-54.4 186.2,-50.27 187.26,-44.57"/>
<polygon fill="#dddddd" stroke="#dddddd" points="190.76,-44.4 186.49,-34.7 183.78,-44.94 190.76,-44.4"/>
<text text-anchor="middle" x="176.27" y="-57.6" font-family="Times,serif" font-size="14.00" fill="#dddddd">0, ε → 0</text>
</g>
<!-- q₂ -->
<g id="node5" class="node">
<title>q₂</title>
<ellipse fill="none" stroke="#dddddd" cx="297.02" cy="-18.4" rx="18" ry="18"/>
<text text-anchor="middle" x="297.02" y="-13.35" font-family="Times,serif" font-size="14.00" fill="#dddddd">q₂</text>
</g>
<!-- q₁&#45;&gt;q₂ -->
<g id="edge3" class="edge">
<title>q₁&#45;&gt;q₂</title>
<path fill="none" stroke="#dddddd" d="M194.03,-18.4C213.22,-18.4 244.95,-18.4 267.92,-18.4"/>
<polygon fill="#dddddd" stroke="#dddddd" points="267.83,-21.9 277.83,-18.4 267.83,-14.9 267.83,-21.9"/>
<text text-anchor="middle" x="236.64" y="-21.6" font-family="Times,serif" font-size="14.00" fill="#dddddd">1, 0 → ε</text>
</g>
<!-- q₂&#45;&gt;q₃ -->
<g id="edge4" class="edge">
<title>q₂&#45;&gt;q₃</title>
<path fill="none" stroke="#dddddd" d="M314.84,-18.4C333.98,-18.4 365.56,-18.4 388.59,-18.4"/>
<polygon fill="#dddddd" stroke="#dddddd" points="388.54,-21.9 398.54,-18.4 388.54,-14.9 388.54,-21.9"/>
<text text-anchor="middle" x="357.39" y="-21.6" font-family="Times,serif" font-size="14.00" fill="#dddddd">1, $ → ε</text>
</g>
<!-- q₂&#45;&gt;q₂ -->
<g id="edge6" class="edge">
<title>q₂&#45;&gt;q₂</title>
<path fill="none" stroke="#dddddd" d="M286.92,-33.19C283.63,-43.82 287,-54.4 297.02,-54.4 303.28,-54.4 306.95,-50.27 308.01,-44.57"/>
<polygon fill="#dddddd" stroke="#dddddd" points="311.51,-44.4 307.24,-34.7 304.53,-44.94 311.51,-44.4"/>
<text text-anchor="middle" x="297.02" y="-57.6" font-family="Times,serif" font-size="14.00" fill="#dddddd">1, 0 → ε</text>
</g>
</g>
</svg>
