<?xml version="1.0" encoding="UTF-8" standalone="no"?>
<!DOCTYPE svg PUBLIC "-//W3C//DTD SVG 1.1//EN"
 "http://www.w3.org/Graphics/SVG/1.1/DTD/svg11.dtd">
<!-- Generated by graphviz version 12.0.0 (0)
 -->
<!-- Pages: 1 -->
<svg width="446pt" height="79pt"
 viewBox="0.00 0.00 445.57 78.90" xmlns="http://www.w3.org/2000/svg" xmlns:xlink="http://www.w3.org/1999/xlink">
<g id="graph0" class="graph" transform="scale(1 1) rotate(0) translate(4 74.9)">
<!-- start -->
<g id="node1" class="node">
<title>start</title>
</g>
<!-- q₀ -->
<g id="node2" class="node">
<title>q₀</title>
<ellipse fill="none" stroke="#dddddd" cx="56.12" cy="-18.4" rx="14.4" ry="14.4"/>
<ellipse fill="none" stroke="#dddddd" cx="56.12" cy="-18.4" rx="18.4" ry="18.4"/>
<text text-anchor="middle" x="56.12" y="-13.35" font-family="Times,serif" font-size="14.00" fill="#dddddd">q₀</text>
</g>
<!-- start&#45;&gt;q₀ -->
<g id="edge1" class="edge">
<title>start&#45;&gt;q₀</title>
<path fill="none" stroke="#dddddd" d="M18.23,-18.4C20.91,-18.4 23.72,-18.4 26.56,-18.4"/>
<polygon fill="#dddddd" stroke="#dddddd" points="26.5,-21.9 36.5,-18.4 26.5,-14.9 26.5,-21.9"/>
</g>
<!-- q₁ -->
<g id="node4" class="node">
<title>q₁</title>
<ellipse fill="none" stroke="#dddddd" cx="177.27" cy="-18.4" rx="18" ry="18"/>
<text text-anchor="middle" x="177.27" y="-13.35" font-family="Times,serif" font-size="14.00" fill="#dddddd">q₁</text>
</g>
<!-- q₀&#45;&gt;q₁ -->
<g id="edge2" class="edge">
<title>q₀&#45;&gt;q₁</title>
<path fill="none" stroke="#dddddd" d="M74.45,-18.4C93.7,-18.4 125.1,-18.4 147.94,-18.4"/>
<polygon fill="#dddddd" stroke="#dddddd" points="147.8,-21.9 157.8,-18.4 147.8,-14.9 147.8,-21.9"/>
<text text-anchor="middle" x="116.89" y="-21.6" font-family="Times,serif" font-size="14.00" fill="#dddddd">0, ε → $</text>
</g>
<!-- q₃ -->
<g id="node3" class="node">
<title>q₃</title>
<ellipse fill="none" stroke="#dddddd" cx="419.17" cy="-18.4" rx="14.4" ry="14.4"/>
<ellipse fill="none" stroke="#dddddd" cx="419.17" cy="-18.4" rx="18.4" ry="18.4"/>
<text text-anchor="middle" x="419.17" y="-13.35" font-family="Times,serif" font-size="14.00" fill="#dddddd">q₃</text>
</g>
<!-- q₁&#45;&gt;q₁ -->
<g id="edge5" class="edge">
<title>q₁&#45;&gt;q₁</title>
<path fill="none" stroke="#dddddd" d="M167.17,-33.19C163.88,-43.82 167.25,-54.4 177.27,-54.4 183.53,-54.4 187.2,-50.27 188.26,-44.57"/>
<polygon fill="#dddddd" stroke="#dddddd" points="191.76,-44.4 187.49,-34.7 184.78,-44.94 191.76,-44.4"/>
<text text-anchor="middle" x="177.27" y="-57.6" font-family="Times,serif" font-size="14.00" fill="#dddddd">0, ε → 0</text>
</g>
<!-- q₂ -->
<g id="node5" class="node">
<title>q₂</title>
<ellipse fill="none" stroke="#dddddd" cx="298.02" cy="-18.4" rx="18" ry="18"/>
<text text-anchor="middle" x="298.02" y="-13.35" font-family="Times,serif" font-size="14.00" fill="#dddddd">q₂</text>
</g>
<!-- q₁&#45;&gt;q₂ -->
<g id="edge3" class="edge">
<title>q₁&#45;&gt;q₂</title>
<path fill="none" stroke="#dddddd" d="M195.03,-18.4C214.22,-18.4 245.95,-18.4 268.92,-18.4"/>
<polygon fill="#dddddd" stroke="#dddddd" points="268.83,-21.9 278.83,-18.4 268.83,-14.9 268.83,-21.9"/>
<text text-anchor="middle" x="237.64" y="-21.6" font-family="Times,serif" font-size="14.00" fill="#dddddd">1, 0 → ε</text>
</g>
<!-- q₂&#45;&gt;q₃ -->
<g id="edge4" class="edge">
<title>q₂&#45;&gt;q₃</title>
<path fill="none" stroke="#dddddd" d="M315.84,-18.4C334.98,-18.4 366.56,-18.4 389.59,-18.4"/>
<polygon fill="#dddddd" stroke="#dddddd" points="389.54,-21.9 399.54,-18.4 389.54,-14.9 389.54,-21.9"/>
<text text-anchor="middle" x="358.39" y="-21.6" font-family="Times,serif" font-size="14.00" fill="#dddddd">1, $ → ε</text>
</g>
<!-- q₂&#45;&gt;q₂ -->
<g id="edge6" class="edge">
<title>q₂&#45;&gt;q₂</title>
<path fill="none" stroke="#dddddd" d="M287.92,-33.19C284.63,-43.82 288,-54.4 298.02,-54.4 304.28,-54.4 307.95,-50.27 309.01,-44.57"/>
<polygon fill="#dddddd" stroke="#dddddd" points="312.51,-44.4 308.24,-34.7 305.53,-44.94 312.51,-44.4"/>
<text text-anchor="middle" x="298.02" y="-57.6" font-family="Times,serif" font-size="14.00" fill="#dddddd">1, 0 → ε</text>
</g>
</g>
</svg>
