<?xml version="1.0" encoding="UTF-8" standalone="no"?>
<!DOCTYPE svg PUBLIC "-//W3C//DTD SVG 1.1//EN"
 "http://www.w3.org/Graphics/SVG/1.1/DTD/svg11.dtd">
<!-- Generated by graphviz version 11.0.0 (0)
 -->
<!-- Pages: 1 -->
<svg width="400pt" height="79pt"
 viewBox="0.00 0.00 400.32 78.90" xmlns="http://www.w3.org/2000/svg" xmlns:xlink="http://www.w3.org/1999/xlink">
<g id="graph0" class="graph" transform="scale(1 1) rotate(0) translate(4 74.9)">
<!-- start -->
<g id="node1" class="node">
<title>start</title>
</g>
<!-- q₀ -->
<g id="node2" class="node">
<title>q₀</title>
<ellipse fill="none" stroke="#dddddd" cx="55.12" cy="-18.4" rx="14.4" ry="14.4"/>
<ellipse fill="none" stroke="#dddddd" cx="55.12" cy="-18.4" rx="18.4" ry="18.4"/>
<text text-anchor="middle" x="55.12" y="-13.35" font-family="Times,serif" font-size="14.00" fill="#dddddd">q₀</text>
</g>
<!-- start&#45;&gt;q₀ -->
<g id="edge1" class="edge">
<title>start&#45;&gt;q₀</title>
<path fill="none" stroke="#dddddd" d="M18.21,-18.4C20.53,-18.4 22.97,-18.4 25.43,-18.4"/>
<polygon fill="#dddddd" stroke="#dddddd" points="25.26,-21.9 35.26,-18.4 25.26,-14.9 25.26,-21.9"/>
</g>
<!-- q₁ -->
<g id="node4" class="node">
<title>q₁</title>
<ellipse fill="none" stroke="#dddddd" cx="175.52" cy="-18.4" rx="18" ry="18"/>
<text text-anchor="middle" x="175.52" y="-13.35" font-family="Times,serif" font-size="14.00" fill="#dddddd">q₁</text>
</g>
<!-- q₀&#45;&gt;q₁ -->
<g id="edge2" class="edge">
<title>q₀&#45;&gt;q₁</title>
<path fill="none" stroke="#dddddd" d="M73.34,-18.4C92.47,-18.4 123.67,-18.4 146.37,-18.4"/>
<polygon fill="#dddddd" stroke="#dddddd" points="146.15,-21.9 156.15,-18.4 146.15,-14.9 146.15,-21.9"/>
<text text-anchor="middle" x="115.52" y="-21.6" font-family="Times,serif" font-size="14.00" fill="#dddddd">ε, ε → $</text>
</g>
<!-- q₃ -->
<g id="node3" class="node">
<title>q₃</title>
<ellipse fill="none" stroke="#dddddd" cx="373.92" cy="-18.4" rx="14.4" ry="14.4"/>
<ellipse fill="none" stroke="#dddddd" cx="373.92" cy="-18.4" rx="18.4" ry="18.4"/>
<text text-anchor="middle" x="373.92" y="-13.35" font-family="Times,serif" font-size="14.00" fill="#dddddd">q₃</text>
</g>
<!-- q₁&#45;&gt;q₁ -->
<g id="edge5" class="edge">
<title>q₁&#45;&gt;q₁</title>
<path fill="none" stroke="#dddddd" d="M168.72,-34.69C167.08,-44.79 169.35,-54.4 175.52,-54.4 179.18,-54.4 181.47,-51.01 182.38,-46.14"/>
<polygon fill="#dddddd" stroke="#dddddd" points="185.88,-46.18 182.33,-36.2 178.88,-46.22 185.88,-46.18"/>
<text text-anchor="middle" x="175.52" y="-57.6" font-family="Times,serif" font-size="14.00" fill="#dddddd">0, ε → 0</text>
</g>
<!-- q₂ -->
<g id="node5" class="node">
<title>q₂</title>
<ellipse fill="none" stroke="#dddddd" cx="253.52" cy="-18.4" rx="18" ry="18"/>
<text text-anchor="middle" x="253.52" y="-13.35" font-family="Times,serif" font-size="14.00" fill="#dddddd">q₂</text>
</g>
<!-- q₁&#45;&gt;q₂ -->
<g id="edge3" class="edge">
<title>q₁&#45;&gt;q₂</title>
<path fill="none" stroke="#dddddd" d="M193.39,-18.4C202.44,-18.4 213.84,-18.4 224.21,-18.4"/>
<polygon fill="#dddddd" stroke="#dddddd" points="224.19,-21.9 234.19,-18.4 224.19,-14.9 224.19,-21.9"/>
<text text-anchor="middle" x="214.52" y="-21.6" font-family="Times,serif" font-size="14.00" fill="#dddddd">ε</text>
</g>
<!-- q₂&#45;&gt;q₃ -->
<g id="edge4" class="edge">
<title>q₂&#45;&gt;q₃</title>
<path fill="none" stroke="#dddddd" d="M271.48,-18.4C290.45,-18.4 321.5,-18.4 344.25,-18.4"/>
<polygon fill="#dddddd" stroke="#dddddd" points="344.09,-21.9 354.09,-18.4 344.09,-14.9 344.09,-21.9"/>
<text text-anchor="middle" x="313.52" y="-21.6" font-family="Times,serif" font-size="14.00" fill="#dddddd">ε, $ → ε</text>
</g>
<!-- q₂&#45;&gt;q₂ -->
<g id="edge6" class="edge">
<title>q₂&#45;&gt;q₂</title>
<path fill="none" stroke="#dddddd" d="M246.72,-34.69C245.08,-44.79 247.35,-54.4 253.52,-54.4 257.18,-54.4 259.47,-51.01 260.38,-46.14"/>
<polygon fill="#dddddd" stroke="#dddddd" points="263.88,-46.18 260.33,-36.2 256.88,-46.22 263.88,-46.18"/>
<text text-anchor="middle" x="253.52" y="-57.6" font-family="Times,serif" font-size="14.00" fill="#dddddd">1, 0 → ε</text>
</g>
</g>
</svg>
