<?xml version="1.0" encoding="UTF-8" standalone="no"?>
<!DOCTYPE svg PUBLIC "-//W3C//DTD SVG 1.1//EN"
 "http://www.w3.org/Graphics/SVG/1.1/DTD/svg11.dtd">
<!-- Generated by graphviz version 12.1.1 (0)
 -->
<!-- Pages: 1 -->
<svg width="401pt" height="79pt"
 viewBox="0.00 0.00 401.32 78.90" xmlns="http://www.w3.org/2000/svg" xmlns:xlink="http://www.w3.org/1999/xlink">
<g id="graph0" class="graph" transform="scale(1 1) rotate(0) translate(4 74.9)">
<!-- start -->
<g id="node1" class="node">
<title>start</title>
</g>
<!-- q₀ -->
<g id="node2" class="node">
<title>q₀</title>
<ellipse fill="none" stroke="#dddddd" cx="56.12" cy="-18.4" rx="14.4" ry="14.4"/>
<ellipse fill="none" stroke="#dddddd" cx="56.12" cy="-18.4" rx="18.4" ry="18.4"/>
<text text-anchor="middle" x="56.12" y="-13.35" font-family="Times,serif" font-size="14.00" fill="#dddddd">q₀</text>
</g>
<!-- start&#45;&gt;q₀ -->
<g id="edge1" class="edge">
<title>start&#45;&gt;q₀</title>
<path fill="none" stroke="#dddddd" d="M18.23,-18.4C20.91,-18.4 23.72,-18.4 26.56,-18.4"/>
<polygon fill="#dddddd" stroke="#dddddd" points="26.5,-21.9 36.5,-18.4 26.5,-14.9 26.5,-21.9"/>
</g>
<!-- q₁ -->
<g id="node4" class="node">
<title>q₁</title>
<ellipse fill="none" stroke="#dddddd" cx="176.52" cy="-18.4" rx="18" ry="18"/>
<text text-anchor="middle" x="176.52" y="-13.35" font-family="Times,serif" font-size="14.00" fill="#dddddd">q₁</text>
</g>
<!-- q₀&#45;&gt;q₁ -->
<g id="edge2" class="edge">
<title>q₀&#45;&gt;q₁</title>
<path fill="none" stroke="#dddddd" d="M74.34,-18.4C93.47,-18.4 124.67,-18.4 147.37,-18.4"/>
<polygon fill="#dddddd" stroke="#dddddd" points="147.15,-21.9 157.15,-18.4 147.15,-14.9 147.15,-21.9"/>
<text text-anchor="middle" x="116.52" y="-21.6" font-family="Times,serif" font-size="14.00" fill="#dddddd">ε, ε → $</text>
</g>
<!-- q₃ -->
<g id="node3" class="node">
<title>q₃</title>
<ellipse fill="none" stroke="#dddddd" cx="374.92" cy="-18.4" rx="14.4" ry="14.4"/>
<ellipse fill="none" stroke="#dddddd" cx="374.92" cy="-18.4" rx="18.4" ry="18.4"/>
<text text-anchor="middle" x="374.92" y="-13.35" font-family="Times,serif" font-size="14.00" fill="#dddddd">q₃</text>
</g>
<!-- q₁&#45;&gt;q₁ -->
<g id="edge5" class="edge">
<title>q₁&#45;&gt;q₁</title>
<path fill="none" stroke="#dddddd" d="M169.72,-34.69C168.08,-44.79 170.35,-54.4 176.52,-54.4 180.18,-54.4 182.47,-51.01 183.38,-46.14"/>
<polygon fill="#dddddd" stroke="#dddddd" points="186.88,-46.18 183.33,-36.2 179.88,-46.22 186.88,-46.18"/>
<text text-anchor="middle" x="176.52" y="-57.6" font-family="Times,serif" font-size="14.00" fill="#dddddd">0, ε → 0</text>
</g>
<!-- q₂ -->
<g id="node5" class="node">
<title>q₂</title>
<ellipse fill="none" stroke="#dddddd" cx="254.52" cy="-18.4" rx="18" ry="18"/>
<text text-anchor="middle" x="254.52" y="-13.35" font-family="Times,serif" font-size="14.00" fill="#dddddd">q₂</text>
</g>
<!-- q₁&#45;&gt;q₂ -->
<g id="edge3" class="edge">
<title>q₁&#45;&gt;q₂</title>
<path fill="none" stroke="#dddddd" d="M194.39,-18.4C203.44,-18.4 214.84,-18.4 225.21,-18.4"/>
<polygon fill="#dddddd" stroke="#dddddd" points="225.19,-21.9 235.19,-18.4 225.19,-14.9 225.19,-21.9"/>
<text text-anchor="middle" x="215.52" y="-21.6" font-family="Times,serif" font-size="14.00" fill="#dddddd">ε</text>
</g>
<!-- q₂&#45;&gt;q₃ -->
<g id="edge4" class="edge">
<title>q₂&#45;&gt;q₃</title>
<path fill="none" stroke="#dddddd" d="M272.48,-18.4C291.45,-18.4 322.5,-18.4 345.25,-18.4"/>
<polygon fill="#dddddd" stroke="#dddddd" points="345.09,-21.9 355.09,-18.4 345.09,-14.9 345.09,-21.9"/>
<text text-anchor="middle" x="314.52" y="-21.6" font-family="Times,serif" font-size="14.00" fill="#dddddd">ε, $ → ε</text>
</g>
<!-- q₂&#45;&gt;q₂ -->
<g id="edge6" class="edge">
<title>q₂&#45;&gt;q₂</title>
<path fill="none" stroke="#dddddd" d="M247.72,-34.69C246.08,-44.79 248.35,-54.4 254.52,-54.4 258.18,-54.4 260.47,-51.01 261.38,-46.14"/>
<polygon fill="#dddddd" stroke="#dddddd" points="264.88,-46.18 261.33,-36.2 257.88,-46.22 264.88,-46.18"/>
<text text-anchor="middle" x="254.52" y="-57.6" font-family="Times,serif" font-size="14.00" fill="#dddddd">1, 0 → ε</text>
</g>
</g>
</svg>
