<?xml version="1.0" encoding="UTF-8" standalone="no"?>
<!DOCTYPE svg PUBLIC "-//W3C//DTD SVG 1.1//EN"
 "http://www.w3.org/Graphics/SVG/1.1/DTD/svg11.dtd">
<!-- Generated by graphviz version 12.1.1 (0)
 -->
<!-- Pages: 1 -->
<svg width="530pt" height="188pt"
 viewBox="0.00 0.00 530.00 188.00" xmlns="http://www.w3.org/2000/svg" xmlns:xlink="http://www.w3.org/1999/xlink">
<g id="graph0" class="graph" transform="scale(1 1) rotate(0) translate(4 184)">
<!-- Lfirst1 -->
<g id="node1" class="node">
<title>Lfirst1</title>
<ellipse fill="none" stroke="#dddddd" cx="18" cy="-90" rx="18" ry="18"/>
<text text-anchor="middle" x="18" y="-84.95" font-family="Times,serif" font-size="14.00" fill="#dddddd">1</text>
</g>
<!-- Lplus -->
<g id="node2" class="node">
<title>Lplus</title>
<ellipse fill="none" stroke="#dddddd" cx="72" cy="-90" rx="18" ry="18"/>
<text text-anchor="middle" x="72" y="-84.95" font-family="Times,serif" font-size="14.00" fill="#dddddd">+</text>
</g>
<!-- Lhidden -->
<g id="node3" class="node">
<title>Lhidden</title>
</g>
<!-- Ladd -->
<g id="node4" class="node">
<title>Ladd</title>
<ellipse fill="none" stroke="#dddddd" cx="99" cy="-162" rx="18" ry="18"/>
<text text-anchor="middle" x="99" y="-156.95" font-family="Times,serif" font-size="14.00" fill="#dddddd">S</text>
</g>
<!-- Ladd&#45;&gt;Lfirst1 -->
<g id="edge1" class="edge">
<title>Ladd&#45;&gt;Lfirst1</title>
<path fill="none" stroke="#dddddd" d="M85.99,-149.75C73.47,-138.94 54.32,-122.39 39.53,-109.6"/>
<polygon fill="#dddddd" stroke="#dddddd" points="41.98,-107.1 32.13,-103.21 37.4,-112.4 41.98,-107.1"/>
</g>
<!-- Ladd&#45;&gt;Lplus -->
<g id="edge2" class="edge">
<title>Ladd&#45;&gt;Lplus</title>
<path fill="none" stroke="#dddddd" d="M92.87,-145.12C89.73,-136.97 85.82,-126.83 82.24,-117.54"/>
<polygon fill="#dddddd" stroke="#dddddd" points="85.51,-116.3 78.65,-108.23 78.98,-118.82 85.51,-116.3"/>
</g>
<!-- Ladd&#45;&gt;Lhidden -->
<!-- Lmul -->
<g id="node8" class="node">
<title>Lmul</title>
<ellipse fill="none" stroke="#dddddd" cx="180" cy="-90" rx="18" ry="18"/>
<text text-anchor="middle" x="180" y="-84.95" font-family="Times,serif" font-size="14.00" fill="#dddddd">S</text>
</g>
<!-- Ladd&#45;&gt;Lmul -->
<g id="edge4" class="edge">
<title>Ladd&#45;&gt;Lmul</title>
<path fill="none" stroke="#dddddd" d="M112.01,-149.75C124.53,-138.94 143.68,-122.39 158.47,-109.6"/>
<polygon fill="#dddddd" stroke="#dddddd" points="160.6,-112.4 165.87,-103.21 156.02,-107.1 160.6,-112.4"/>
</g>
<!-- Lsecond1 -->
<g id="node5" class="node">
<title>Lsecond1</title>
<ellipse fill="none" stroke="#dddddd" cx="126" cy="-18" rx="18" ry="18"/>
<text text-anchor="middle" x="126" y="-12.95" font-family="Times,serif" font-size="14.00" fill="#dddddd">1</text>
</g>
<!-- Lstar -->
<g id="node6" class="node">
<title>Lstar</title>
<ellipse fill="none" stroke="#dddddd" cx="180" cy="-18" rx="18" ry="18"/>
<text text-anchor="middle" x="180" y="-12.95" font-family="Times,serif" font-size="14.00" fill="#dddddd">*</text>
</g>
<!-- Lthird1 -->
<g id="node7" class="node">
<title>Lthird1</title>
<ellipse fill="none" stroke="#dddddd" cx="234" cy="-18" rx="18" ry="18"/>
<text text-anchor="middle" x="234" y="-12.95" font-family="Times,serif" font-size="14.00" fill="#dddddd">1</text>
</g>
<!-- Lmul&#45;&gt;Lsecond1 -->
<g id="edge5" class="edge">
<title>Lmul&#45;&gt;Lsecond1</title>
<path fill="none" stroke="#dddddd" d="M169.59,-75.5C162.12,-65.82 151.88,-52.55 143.21,-41.3"/>
<polygon fill="#dddddd" stroke="#dddddd" points="146.18,-39.43 137.3,-33.65 140.64,-43.71 146.18,-39.43"/>
</g>
<!-- Lmul&#45;&gt;Lstar -->
<g id="edge6" class="edge">
<title>Lmul&#45;&gt;Lstar</title>
<path fill="none" stroke="#dddddd" d="M180,-72.05C180,-64.57 180,-55.58 180,-47.14"/>
<polygon fill="#dddddd" stroke="#dddddd" points="183.5,-47.3 180,-37.3 176.5,-47.3 183.5,-47.3"/>
</g>
<!-- Lmul&#45;&gt;Lthird1 -->
<g id="edge7" class="edge">
<title>Lmul&#45;&gt;Lthird1</title>
<path fill="none" stroke="#dddddd" d="M190.41,-75.5C197.88,-65.82 208.12,-52.55 216.79,-41.3"/>
<polygon fill="#dddddd" stroke="#dddddd" points="219.36,-43.71 222.7,-33.65 213.82,-39.43 219.36,-43.71"/>
</g>
<!-- Rfirst1 -->
<g id="node9" class="node">
<title>Rfirst1</title>
<ellipse fill="none" stroke="#dddddd" cx="288" cy="-18" rx="18" ry="18"/>
<text text-anchor="middle" x="288" y="-12.95" font-family="Times,serif" font-size="14.00" fill="#dddddd">1</text>
</g>
<!-- Rplus -->
<g id="node10" class="node">
<title>Rplus</title>
<ellipse fill="none" stroke="#dddddd" cx="342" cy="-18" rx="18" ry="18"/>
<text text-anchor="middle" x="342" y="-12.95" font-family="Times,serif" font-size="14.00" fill="#dddddd">+</text>
</g>
<!-- Rsecond1 -->
<g id="node11" class="node">
<title>Rsecond1</title>
<ellipse fill="none" stroke="#dddddd" cx="396" cy="-18" rx="18" ry="18"/>
<text text-anchor="middle" x="396" y="-12.95" font-family="Times,serif" font-size="14.00" fill="#dddddd">1</text>
</g>
<!-- Radd -->
<g id="node12" class="node">
<title>Radd</title>
<ellipse fill="none" stroke="#dddddd" cx="342" cy="-90" rx="18" ry="18"/>
<text text-anchor="middle" x="342" y="-84.95" font-family="Times,serif" font-size="14.00" fill="#dddddd">S</text>
</g>
<!-- Radd&#45;&gt;Rfirst1 -->
<g id="edge12" class="edge">
<title>Radd&#45;&gt;Rfirst1</title>
<path fill="none" stroke="#dddddd" d="M331.59,-75.5C324.12,-65.82 313.88,-52.55 305.21,-41.3"/>
<polygon fill="#dddddd" stroke="#dddddd" points="308.18,-39.43 299.3,-33.65 302.64,-43.71 308.18,-39.43"/>
</g>
<!-- Radd&#45;&gt;Rplus -->
<g id="edge13" class="edge">
<title>Radd&#45;&gt;Rplus</title>
<path fill="none" stroke="#dddddd" d="M342,-72.05C342,-64.57 342,-55.58 342,-47.14"/>
<polygon fill="#dddddd" stroke="#dddddd" points="345.5,-47.3 342,-37.3 338.5,-47.3 345.5,-47.3"/>
</g>
<!-- Radd&#45;&gt;Rsecond1 -->
<g id="edge14" class="edge">
<title>Radd&#45;&gt;Rsecond1</title>
<path fill="none" stroke="#dddddd" d="M352.41,-75.5C359.88,-65.82 370.12,-52.55 378.79,-41.3"/>
<polygon fill="#dddddd" stroke="#dddddd" points="381.36,-43.71 384.7,-33.65 375.82,-39.43 381.36,-43.71"/>
</g>
<!-- Rhidden -->
<g id="node13" class="node">
<title>Rhidden</title>
</g>
<!-- Rstar -->
<g id="node14" class="node">
<title>Rstar</title>
<ellipse fill="none" stroke="#dddddd" cx="450" cy="-90" rx="18" ry="18"/>
<text text-anchor="middle" x="450" y="-84.95" font-family="Times,serif" font-size="14.00" fill="#dddddd">*</text>
</g>
<!-- Rthird1 -->
<g id="node15" class="node">
<title>Rthird1</title>
<ellipse fill="none" stroke="#dddddd" cx="504" cy="-90" rx="18" ry="18"/>
<text text-anchor="middle" x="504" y="-84.95" font-family="Times,serif" font-size="14.00" fill="#dddddd">1</text>
</g>
<!-- Rmul -->
<g id="node16" class="node">
<title>Rmul</title>
<ellipse fill="none" stroke="#dddddd" cx="423" cy="-162" rx="18" ry="18"/>
<text text-anchor="middle" x="423" y="-156.95" font-family="Times,serif" font-size="14.00" fill="#dddddd">S</text>
</g>
<!-- Rmul&#45;&gt;Radd -->
<g id="edge8" class="edge">
<title>Rmul&#45;&gt;Radd</title>
<path fill="none" stroke="#dddddd" d="M409.99,-149.75C397.47,-138.94 378.32,-122.39 363.53,-109.6"/>
<polygon fill="#dddddd" stroke="#dddddd" points="365.98,-107.1 356.13,-103.21 361.4,-112.4 365.98,-107.1"/>
</g>
<!-- Rmul&#45;&gt;Rhidden -->
<!-- Rmul&#45;&gt;Rstar -->
<g id="edge10" class="edge">
<title>Rmul&#45;&gt;Rstar</title>
<path fill="none" stroke="#dddddd" d="M429.13,-145.12C432.27,-136.97 436.18,-126.83 439.76,-117.54"/>
<polygon fill="#dddddd" stroke="#dddddd" points="443.02,-118.82 443.35,-108.23 436.49,-116.3 443.02,-118.82"/>
</g>
<!-- Rmul&#45;&gt;Rthird1 -->
<g id="edge11" class="edge">
<title>Rmul&#45;&gt;Rthird1</title>
<path fill="none" stroke="#dddddd" d="M436.01,-149.75C448.53,-138.94 467.68,-122.39 482.47,-109.6"/>
<polygon fill="#dddddd" stroke="#dddddd" points="484.6,-112.4 489.87,-103.21 480.02,-107.1 484.6,-112.4"/>
</g>
</g>
</svg>
