<?xml version="1.0" encoding="UTF-8" standalone="no"?>
<!DOCTYPE svg PUBLIC "-//W3C//DTD SVG 1.1//EN"
 "http://www.w3.org/Graphics/SVG/1.1/DTD/svg11.dtd">
<!-- Generated by graphviz version 12.0.0 (0)
 -->
<!-- Pages: 1 -->
<svg width="478pt" height="424pt"
 viewBox="0.00 0.00 478.22 424.00" xmlns="http://www.w3.org/2000/svg" xmlns:xlink="http://www.w3.org/1999/xlink">
<g id="graph0" class="graph" transform="scale(1 1) rotate(0) translate(4 420)">
<!-- start1 -->
<g id="node1" class="node">
<title>start1</title>
</g>
<!-- Box0 -->
<g id="node2" class="node">
<title>Box0</title>
<polygon fill="#333333" stroke="none" points="83.35,-258 47.35,-258 47.35,-222 83.35,-222 83.35,-258"/>
<polygon fill="#333333" stroke="none" points="45.72,-170.5 45.72,-309.5 84.97,-309.5 84.97,-170.5 45.72,-170.5"/>
<text text-anchor="start" x="50.72" y="-291.2" font-family="Times,serif" font-size="14.00" fill="#dddddd">Box0</text>
<text text-anchor="start" x="56.35" y="-268.7" font-family="Times,serif" font-size="14.00" fill="#dddddd">S₁₀</text>
<polygon fill="#555555" stroke="none" points="48.72,-241 48.72,-261.5 81.97,-261.5 81.97,-241 48.72,-241"/>
<text text-anchor="start" x="56.35" y="-246.2" font-family="Times,serif" font-size="14.00" fill="#dddddd">S₂₀</text>
<text text-anchor="start" x="56.35" y="-223.7" font-family="Times,serif" font-size="14.00" fill="#dddddd">S₃₀</text>
<polygon fill="#555555" stroke="none" points="48.72,-196 48.72,-216.5 81.97,-216.5 81.97,-196 48.72,-196"/>
<text text-anchor="start" x="56.35" y="-201.2" font-family="Times,serif" font-size="14.00" fill="#dddddd">S₆₀</text>
<text text-anchor="start" x="56.35" y="-178.7" font-family="Times,serif" font-size="14.00" fill="#dddddd">S₇₀</text>
<polygon fill="none" stroke="#dddddd" points="45.72,-170.5 45.72,-309.5 84.97,-309.5 84.97,-170.5 45.72,-170.5"/>
</g>
<!-- start1&#45;&gt;Box0 -->
<g id="edge2" class="edge">
<title>start1&#45;&gt;Box0:t</title>
<path fill="none" stroke="#dddddd" d="M18.11,-240C23.26,-240 29.06,-240 34.76,-240"/>
<polygon fill="#dddddd" stroke="#dddddd" points="34.58,-243.5 44.58,-240 34.58,-236.5 34.58,-243.5"/>
</g>
<!-- fin -->
<g id="node3" class="node">
<title>fin</title>
<ellipse fill="#333333" stroke="#dddddd" cx="65.35" cy="-113" rx="14.4" ry="14.4"/>
<ellipse fill="none" stroke="#dddddd" cx="65.35" cy="-113" rx="18.4" ry="18.4"/>
</g>
<!-- Box0&#45;&gt;fin -->
<g id="edge1" class="edge">
<title>Box0:s&#45;&gt;fin:n</title>
<path fill="none" stroke="#dddddd" d="M65.35,-142.68C65.35,-151.48 65.35,-157.06 65.35,-169.5"/>
<polygon fill="#dddddd" stroke="#dddddd" points="68.85,-142.91 65.35,-132.91 61.85,-142.91 68.85,-142.91"/>
<text text-anchor="middle" x="57.85" y="-136.99" font-family="Times,serif" font-size="14.00" fill="#dddddd">S &#160;</text>
</g>
<!-- Box1 -->
<g id="node12" class="node">
<title>Box1</title>
<polygon fill="#333333" stroke="none" points="181.35,-325 145.35,-325 145.35,-289 181.35,-289 181.35,-325"/>
<polygon fill="#333333" stroke="none" points="143.72,-248.75 143.72,-365.25 182.97,-365.25 182.97,-248.75 143.72,-248.75"/>
<text text-anchor="start" x="148.72" y="-346.95" font-family="Times,serif" font-size="14.00" fill="#dddddd">Box1</text>
<text text-anchor="start" x="154.35" y="-324.45" font-family="Times,serif" font-size="14.00" fill="#dddddd">S₁₁</text>
<polygon fill="#555555" stroke="none" points="146.72,-296.75 146.72,-317.25 179.97,-317.25 179.97,-296.75 146.72,-296.75"/>
<text text-anchor="start" x="154.35" y="-301.95" font-family="Times,serif" font-size="14.00" fill="#dddddd">S₂₁</text>
<polygon fill="#777777" stroke="none" points="146.72,-274.25 146.72,-294.75 179.97,-294.75 179.97,-274.25 146.72,-274.25"/>
<text text-anchor="start" x="153.97" y="-279.45" font-family="Times,serif" font-size="14.00" fill="#dddddd">E₄₀</text>
<polygon fill="#aaaaaa" stroke="none" points="146.72,-251.75 146.72,-272.25 179.97,-272.25 179.97,-251.75 146.72,-251.75"/>
<text text-anchor="start" x="154.35" y="-256.95" font-family="Times,serif" font-size="14.00" fill="#333333">F₅₀</text>
<polygon fill="none" stroke="#dddddd" points="143.72,-248.75 143.72,-365.25 182.97,-365.25 182.97,-248.75 143.72,-248.75"/>
</g>
<!-- Box0&#45;&gt;Box1 -->
<g id="edge3" class="edge">
<title>Box0:t&#45;&gt;Box1:t</title>
<path fill="none" stroke="#dddddd" d="M84.85,-252.92C98.93,-262.74 118.54,-276.42 134.5,-287.57"/>
<polygon fill="#dddddd" stroke="#dddddd" points="132.45,-290.4 142.65,-293.26 136.45,-284.66 132.45,-290.4"/>
<text text-anchor="middle" x="114.35" y="-278.2" font-family="Times,serif" font-size="14.00" fill="#dddddd">a</text>
</g>
<!-- Box2 -->
<g id="node13" class="node">
<title>Box2</title>
<polygon fill="#333333" stroke="none" points="181.35,-167 145.35,-167 145.35,-131 181.35,-131 181.35,-167"/>
<polygon fill="#333333" stroke="none" points="143.72,-79.5 143.72,-218.5 182.97,-218.5 182.97,-79.5 143.72,-79.5"/>
<text text-anchor="start" x="148.72" y="-200.2" font-family="Times,serif" font-size="14.00" fill="#dddddd">Box2</text>
<text text-anchor="start" x="154.35" y="-177.7" font-family="Times,serif" font-size="14.00" fill="#dddddd">S₃₁</text>
<polygon fill="#555555" stroke="none" points="146.72,-150 146.72,-170.5 179.97,-170.5 179.97,-150 146.72,-150"/>
<text text-anchor="start" x="154.35" y="-155.2" font-family="Times,serif" font-size="14.00" fill="#dddddd">S₆₁</text>
<text text-anchor="start" x="154.35" y="-132.7" font-family="Times,serif" font-size="14.00" fill="#dddddd">S₇₁</text>
<polygon fill="#777777" stroke="none" points="146.72,-105 146.72,-125.5 179.97,-125.5 179.97,-105 146.72,-105"/>
<text text-anchor="start" x="153.97" y="-110.2" font-family="Times,serif" font-size="14.00" fill="#dddddd">E₄₀</text>
<polygon fill="#aaaaaa" stroke="none" points="146.72,-82.5 146.72,-103 179.97,-103 179.97,-82.5 146.72,-82.5"/>
<text text-anchor="start" x="154.35" y="-87.7" font-family="Times,serif" font-size="14.00" fill="#333333">F₅₀</text>
<polygon fill="none" stroke="#dddddd" points="143.72,-79.5 143.72,-218.5 182.97,-218.5 182.97,-79.5 143.72,-79.5"/>
</g>
<!-- Box0&#45;&gt;Box2 -->
<g id="edge4" class="edge">
<title>Box0:t&#45;&gt;Box2:t</title>
<path fill="none" stroke="#dddddd" d="M84.85,-222.45C99.33,-208.73 119.65,-189.47 135.85,-174.12"/>
<polygon fill="#dddddd" stroke="#dddddd" points="137.94,-176.95 142.79,-167.53 133.13,-171.87 137.94,-176.95"/>
<text text-anchor="middle" x="114.35" y="-200.2" font-family="Times,serif" font-size="14.00" fill="#dddddd">b</text>
</g>
<!-- S₁₂ -->
<g id="node4" class="node">
<title>S₁₂</title>
<ellipse fill="#333333" stroke="#dddddd" cx="262.85" cy="-398" rx="18" ry="18"/>
<text text-anchor="middle" x="262.85" y="-392.95" font-family="Times,serif" font-size="14.00" fill="#dddddd">S₁₂</text>
</g>
<!-- S₁ -->
<g id="node5" class="node">
<title>S₁</title>
<ellipse fill="#333333" stroke="#dddddd" cx="362.72" cy="-398" rx="18" ry="18"/>
<text text-anchor="middle" x="362.72" y="-392.95" font-family="Times,serif" font-size="14.00" fill="#dddddd">S₁</text>
</g>
<!-- S₁₂&#45;&gt;S₁ -->
<g id="edge9" class="edge">
<title>S₁₂&#45;&gt;S₁</title>
<path fill="none" stroke="#dddddd" d="M280.45,-398C295,-398 316.46,-398 333.67,-398"/>
<polygon fill="#dddddd" stroke="#dddddd" points="333.52,-401.5 343.52,-398 333.52,-394.5 333.52,-401.5"/>
<text text-anchor="middle" x="311.85" y="-401.2" font-family="Times,serif" font-size="14.00" fill="#dddddd">c</text>
</g>
<!-- S₂₂ -->
<g id="node6" class="node">
<title>S₂₂</title>
<ellipse fill="#555555" stroke="#dddddd" cx="262.85" cy="-344" rx="18" ry="18"/>
<text text-anchor="middle" x="262.85" y="-338.95" font-family="Times,serif" font-size="14.00" fill="#dddddd">S₂₂</text>
</g>
<!-- S₂ -->
<g id="node7" class="node">
<title>S₂</title>
<ellipse fill="#555555" stroke="#dddddd" cx="362.72" cy="-344" rx="18" ry="18"/>
<text text-anchor="middle" x="362.72" y="-338.95" font-family="Times,serif" font-size="14.00" fill="#dddddd">S₂</text>
</g>
<!-- S₂₂&#45;&gt;S₂ -->
<g id="edge10" class="edge">
<title>S₂₂&#45;&gt;S₂</title>
<path fill="none" stroke="#dddddd" d="M280.45,-344C295,-344 316.46,-344 333.67,-344"/>
<polygon fill="#dddddd" stroke="#dddddd" points="333.52,-347.5 343.52,-344 333.52,-340.5 333.52,-347.5"/>
<text text-anchor="middle" x="311.85" y="-347.2" font-family="Times,serif" font-size="14.00" fill="#dddddd">d</text>
</g>
<!-- S₃₂ -->
<g id="node8" class="node">
<title>S₃₂</title>
<ellipse fill="#333333" stroke="#dddddd" cx="262.85" cy="-192" rx="18" ry="18"/>
<text text-anchor="middle" x="262.85" y="-186.95" font-family="Times,serif" font-size="14.00" fill="#dddddd">S₃₂</text>
</g>
<!-- S₃ -->
<g id="node9" class="node">
<title>S₃</title>
<ellipse fill="#333333" stroke="#dddddd" cx="362.72" cy="-192" rx="18" ry="18"/>
<text text-anchor="middle" x="362.72" y="-186.95" font-family="Times,serif" font-size="14.00" fill="#dddddd">S₃</text>
</g>
<!-- S₃₂&#45;&gt;S₃ -->
<g id="edge13" class="edge">
<title>S₃₂&#45;&gt;S₃</title>
<path fill="none" stroke="#dddddd" d="M280.45,-192C295,-192 316.46,-192 333.67,-192"/>
<polygon fill="#dddddd" stroke="#dddddd" points="333.52,-195.5 343.52,-192 333.52,-188.5 333.52,-195.5"/>
<text text-anchor="middle" x="311.85" y="-195.2" font-family="Times,serif" font-size="14.00" fill="#dddddd">c</text>
</g>
<!-- S₆₂ -->
<g id="node10" class="node">
<title>S₆₂</title>
<ellipse fill="#555555" stroke="#dddddd" cx="262.85" cy="-138" rx="18" ry="18"/>
<text text-anchor="middle" x="262.85" y="-132.95" font-family="Times,serif" font-size="14.00" fill="#dddddd">S₆₂</text>
</g>
<!-- S₆ -->
<g id="node11" class="node">
<title>S₆</title>
<ellipse fill="#555555" stroke="#dddddd" cx="362.72" cy="-138" rx="18" ry="18"/>
<text text-anchor="middle" x="362.72" y="-132.95" font-family="Times,serif" font-size="14.00" fill="#dddddd">S₆</text>
</g>
<!-- S₆₂&#45;&gt;S₆ -->
<g id="edge15" class="edge">
<title>S₆₂&#45;&gt;S₆</title>
<path fill="none" stroke="#dddddd" d="M280.45,-138C295,-138 316.46,-138 333.67,-138"/>
<polygon fill="#dddddd" stroke="#dddddd" points="333.52,-141.5 343.52,-138 333.52,-134.5 333.52,-141.5"/>
<text text-anchor="middle" x="311.85" y="-141.2" font-family="Times,serif" font-size="14.00" fill="#dddddd">d</text>
</g>
<!-- Box1&#45;&gt;S₁₂ -->
<g id="edge6" class="edge">
<title>Box1:t&#45;&gt;S₁₂</title>
<path fill="none" stroke="#dddddd" d="M182.68,-324.12C199.31,-339.64 223.8,-362.49 241.13,-378.67"/>
<polygon fill="#dddddd" stroke="#dddddd" points="238.66,-381.14 248.35,-385.41 243.43,-376.03 238.66,-381.14"/>
<text text-anchor="middle" x="213.1" y="-358.2" font-family="Times,serif" font-size="14.00" fill="#dddddd">E</text>
</g>
<!-- Box1&#45;&gt;S₂₂ -->
<g id="edge7" class="edge">
<title>Box1:t&#45;&gt;S₂₂</title>
<path fill="none" stroke="#dddddd" d="M182.68,-313.96C197.56,-319.61 218.74,-327.64 235.44,-333.98"/>
<polygon fill="#dddddd" stroke="#dddddd" points="234.16,-337.24 244.75,-337.51 236.64,-330.69 234.16,-337.24"/>
<text text-anchor="middle" x="213.1" y="-329.2" font-family="Times,serif" font-size="14.00" fill="#dddddd">F</text>
</g>
<!-- Box3 -->
<g id="node14" class="node">
<title>Box3</title>
<polygon fill="#333333" stroke="none" points="280.85,-286 244.85,-286 244.85,-250 280.85,-250 280.85,-286"/>
<polygon fill="#333333" stroke="none" points="243.22,-232.25 243.22,-303.75 282.47,-303.75 282.47,-232.25 243.22,-232.25"/>
<text text-anchor="start" x="248.22" y="-285.45" font-family="Times,serif" font-size="14.00" fill="#dddddd">Box3</text>
<polygon fill="#777777" stroke="none" points="246.22,-257.75 246.22,-278.25 279.47,-278.25 279.47,-257.75 246.22,-257.75"/>
<text text-anchor="start" x="253.47" y="-262.95" font-family="Times,serif" font-size="14.00" fill="#dddddd">E₄₁</text>
<polygon fill="#aaaaaa" stroke="none" points="246.22,-235.25 246.22,-255.75 279.47,-255.75 279.47,-235.25 246.22,-235.25"/>
<text text-anchor="start" x="253.85" y="-240.45" font-family="Times,serif" font-size="14.00" fill="#333333">F₅₁</text>
<polygon fill="none" stroke="#dddddd" points="243.22,-232.25 243.22,-303.75 282.47,-303.75 282.47,-232.25 243.22,-232.25"/>
</g>
<!-- Box1&#45;&gt;Box3 -->
<g id="edge5" class="edge">
<title>Box1:t&#45;&gt;Box3:t</title>
<path fill="none" stroke="#dddddd" d="M182.68,-299.66C196.76,-294.04 216.46,-286.15 232.69,-279.66"/>
<polygon fill="#dddddd" stroke="#dddddd" points="233.87,-282.96 241.85,-276 231.27,-276.46 233.87,-282.96"/>
<text text-anchor="middle" x="213.1" y="-291.2" font-family="Times,serif" font-size="14.00" fill="#dddddd">e</text>
</g>
<!-- Box2&#45;&gt;S₃₂ -->
<g id="edge12" class="edge">
<title>Box2:t&#45;&gt;S₃₂</title>
<path fill="none" stroke="#dddddd" d="M182.68,-157.09C197.8,-163.75 219.4,-173.28 236.23,-180.7"/>
<polygon fill="#dddddd" stroke="#dddddd" points="234.53,-183.78 245.09,-184.61 237.35,-177.37 234.53,-183.78"/>
<text text-anchor="middle" x="213.1" y="-174.2" font-family="Times,serif" font-size="14.00" fill="#dddddd">F</text>
</g>
<!-- Box2&#45;&gt;S₆₂ -->
<g id="edge14" class="edge">
<title>Box2:t&#45;&gt;S₆₂</title>
<path fill="none" stroke="#dddddd" d="M182.68,-146.93C197.15,-145.3 217.58,-142.99 234.05,-141.14"/>
<polygon fill="#dddddd" stroke="#dddddd" points="234.17,-144.65 243.71,-140.05 233.38,-137.69 234.17,-144.65"/>
<text text-anchor="middle" x="213.1" y="-146.2" font-family="Times,serif" font-size="14.00" fill="#dddddd">E</text>
</g>
<!-- Box4 -->
<g id="node15" class="node">
<title>Box4</title>
<polygon fill="#333333" stroke="none" points="280.85,-69 244.85,-69 244.85,-33 280.85,-33 280.85,-69"/>
<polygon fill="#333333" stroke="none" points="243.22,-4 243.22,-98 282.47,-98 282.47,-4 243.22,-4"/>
<text text-anchor="start" x="248.22" y="-79.7" font-family="Times,serif" font-size="14.00" fill="#dddddd">Box4</text>
<text text-anchor="start" x="253.85" y="-57.2" font-family="Times,serif" font-size="14.00" fill="#dddddd">S₇₂</text>
<polygon fill="#777777" stroke="none" points="246.22,-29.5 246.22,-50 279.47,-50 279.47,-29.5 246.22,-29.5"/>
<text text-anchor="start" x="253.47" y="-34.7" font-family="Times,serif" font-size="14.00" fill="#dddddd">E₄₁</text>
<polygon fill="#aaaaaa" stroke="none" points="246.22,-7 246.22,-27.5 279.47,-27.5 279.47,-7 246.22,-7"/>
<text text-anchor="start" x="253.85" y="-12.2" font-family="Times,serif" font-size="14.00" fill="#333333">F₅₁</text>
<polygon fill="none" stroke="#dddddd" points="243.22,-4 243.22,-98 282.47,-98 282.47,-4 243.22,-4"/>
</g>
<!-- Box2&#45;&gt;Box4 -->
<g id="edge11" class="edge">
<title>Box2:t&#45;&gt;Box4:t</title>
<path fill="none" stroke="#dddddd" d="M182.68,-130.57C197.57,-115.61 218.75,-94.31 235.46,-77.52"/>
<polygon fill="#dddddd" stroke="#dddddd" points="237.62,-80.31 242.19,-70.76 232.66,-75.38 237.62,-80.31"/>
<text text-anchor="middle" x="213.1" y="-105.2" font-family="Times,serif" font-size="14.00" fill="#dddddd">e</text>
</g>
<!-- Box5 -->
<g id="node16" class="node">
<title>Box5</title>
<polygon fill="#333333" stroke="none" points="380.72,-286 344.72,-286 344.72,-250 380.72,-250 380.72,-286"/>
<polygon fill="#333333" stroke="none" points="341.6,-232.25 341.6,-303.75 383.85,-303.75 383.85,-232.25 341.6,-232.25"/>
<text text-anchor="start" x="348.1" y="-285.45" font-family="Times,serif" font-size="14.00" fill="#dddddd">Box5</text>
<polygon fill="#777777" stroke="none" points="344.6,-257.75 344.6,-278.25 380.85,-278.25 380.85,-257.75 344.6,-257.75"/>
<text text-anchor="start" x="346.6" y="-262.95" font-family="Times,serif" font-size="14.00" fill="#dddddd">E₄ (c)</text>
<polygon fill="#aaaaaa" stroke="none" points="344.6,-235.25 344.6,-255.75 380.85,-255.75 380.85,-235.25 344.6,-235.25"/>
<text text-anchor="start" x="346.6" y="-240.45" font-family="Times,serif" font-size="14.00" fill="#333333">F₅ (d)</text>
<polygon fill="none" stroke="#dddddd" points="341.6,-232.25 341.6,-303.75 383.85,-303.75 383.85,-232.25 341.6,-232.25"/>
</g>
<!-- Box3&#45;&gt;Box5 -->
<g id="edge8" class="edge">
<title>Box3:t&#45;&gt;Box5:t</title>
<path fill="none" stroke="#dddddd" d="M282.25,-268C295.76,-268 314.42,-268 330.27,-268"/>
<polygon fill="#dddddd" stroke="#dddddd" points="330.2,-271.5 340.2,-268 330.2,-264.5 330.2,-271.5"/>
<text text-anchor="middle" x="311.85" y="-271.2" font-family="Times,serif" font-size="14.00" fill="#dddddd">e</text>
</g>
<!-- Box6 -->
<g id="node17" class="node">
<title>Box6</title>
<polygon fill="#333333" stroke="none" points="380.72,-69 344.72,-69 344.72,-33 380.72,-33 380.72,-69"/>
<polygon fill="#333333" stroke="none" points="341.22,-4 341.22,-98 384.22,-98 384.22,-4 341.22,-4"/>
<text text-anchor="start" x="348.1" y="-79.7" font-family="Times,serif" font-size="14.00" fill="#dddddd">Box6</text>
<text text-anchor="start" x="353.72" y="-57.2" font-family="Times,serif" font-size="14.00" fill="#dddddd">S₇₃</text>
<polygon fill="#777777" stroke="none" points="344.22,-29.5 344.22,-50 381.22,-50 381.22,-29.5 344.22,-29.5"/>
<text text-anchor="start" x="346.22" y="-34.7" font-family="Times,serif" font-size="14.00" fill="#dddddd">E₄ (d)</text>
<polygon fill="#aaaaaa" stroke="none" points="344.22,-7 344.22,-27.5 381.22,-27.5 381.22,-7 344.22,-7"/>
<text text-anchor="start" x="346.97" y="-12.2" font-family="Times,serif" font-size="14.00" fill="#333333">F₅ (c)</text>
<polygon fill="none" stroke="#dddddd" points="341.22,-4 341.22,-98 384.22,-98 384.22,-4 341.22,-4"/>
</g>
<!-- Box4&#45;&gt;Box6 -->
<g id="edge16" class="edge">
<title>Box4:t&#45;&gt;Box6:t</title>
<path fill="none" stroke="#dddddd" d="M282.25,-51C295.67,-51 314.18,-51 329.96,-51"/>
<polygon fill="#dddddd" stroke="#dddddd" points="329.85,-54.5 339.85,-51 329.85,-47.5 329.85,-54.5"/>
<text text-anchor="middle" x="311.85" y="-54.2" font-family="Times,serif" font-size="14.00" fill="#dddddd">e</text>
</g>
<!-- S₇ -->
<g id="node18" class="node">
<title>S₇</title>
<ellipse fill="#333333" stroke="#dddddd" cx="452.22" cy="-51" rx="18" ry="18"/>
<text text-anchor="middle" x="452.22" y="-45.95" font-family="Times,serif" font-size="14.00" fill="#dddddd">S₇</text>
</g>
<!-- Box6&#45;&gt;S₇ -->
<g id="edge17" class="edge">
<title>Box6:t&#45;&gt;S₇</title>
<path fill="none" stroke="#dddddd" d="M384.01,-51C395.57,-51 410.22,-51 422.89,-51"/>
<polygon fill="#dddddd" stroke="#dddddd" points="422.76,-54.5 432.76,-51 422.76,-47.5 422.76,-54.5"/>
<text text-anchor="middle" x="413.22" y="-54.2" font-family="Times,serif" font-size="14.00" fill="#dddddd">a</text>
</g>
</g>
</svg>
