<?xml version="1.0" encoding="UTF-8" standalone="no"?>
<!DOCTYPE svg PUBLIC "-//W3C//DTD SVG 1.1//EN"
 "http://www.w3.org/Graphics/SVG/1.1/DTD/svg11.dtd">
<!-- Generated by graphviz version 11.0.0 (0)
 -->
<!-- Pages: 1 -->
<svg width="477pt" height="424pt"
 viewBox="0.00 0.00 477.22 424.00" xmlns="http://www.w3.org/2000/svg" xmlns:xlink="http://www.w3.org/1999/xlink">
<g id="graph0" class="graph" transform="scale(1 1) rotate(0) translate(4 420)">
<!-- start1 -->
<g id="node1" class="node">
<title>start1</title>
</g>
<!-- Box0 -->
<g id="node2" class="node">
<title>Box0</title>
<polygon fill="#333333" stroke="none" points="82.35,-258 46.35,-258 46.35,-222 82.35,-222 82.35,-258"/>
<polygon fill="#333333" stroke="none" points="44.72,-170.5 44.72,-309.5 83.97,-309.5 83.97,-170.5 44.72,-170.5"/>
<text text-anchor="start" x="49.72" y="-291.2" font-family="Times,serif" font-size="14.00" fill="#dddddd">Box0</text>
<text text-anchor="start" x="55.35" y="-268.7" font-family="Times,serif" font-size="14.00" fill="#dddddd">S₁₀</text>
<polygon fill="#555555" stroke="none" points="47.72,-241 47.72,-261.5 80.97,-261.5 80.97,-241 47.72,-241"/>
<text text-anchor="start" x="55.35" y="-246.2" font-family="Times,serif" font-size="14.00" fill="#dddddd">S₂₀</text>
<text text-anchor="start" x="55.35" y="-223.7" font-family="Times,serif" font-size="14.00" fill="#dddddd">S₃₀</text>
<polygon fill="#555555" stroke="none" points="47.72,-196 47.72,-216.5 80.97,-216.5 80.97,-196 47.72,-196"/>
<text text-anchor="start" x="55.35" y="-201.2" font-family="Times,serif" font-size="14.00" fill="#dddddd">S₆₀</text>
<text text-anchor="start" x="55.35" y="-178.7" font-family="Times,serif" font-size="14.00" fill="#dddddd">S₇₀</text>
<polygon fill="none" stroke="#dddddd" points="44.72,-170.5 44.72,-309.5 83.97,-309.5 83.97,-170.5 44.72,-170.5"/>
</g>
<!-- start1&#45;&gt;Box0 -->
<g id="edge2" class="edge">
<title>start1&#45;&gt;Box0:t</title>
<path fill="none" stroke="#dddddd" d="M18.16,-240C23.02,-240 28.43,-240 33.77,-240"/>
<polygon fill="#dddddd" stroke="#dddddd" points="33.61,-243.5 43.61,-240 33.61,-236.5 33.61,-243.5"/>
</g>
<!-- fin -->
<g id="node3" class="node">
<title>fin</title>
<ellipse fill="#333333" stroke="#dddddd" cx="64.35" cy="-113" rx="14.4" ry="14.4"/>
<ellipse fill="none" stroke="#dddddd" cx="64.35" cy="-113" rx="18.4" ry="18.4"/>
</g>
<!-- Box0&#45;&gt;fin -->
<g id="edge1" class="edge">
<title>Box0:s&#45;&gt;fin:n</title>
<path fill="none" stroke="#dddddd" d="M64.35,-142.68C64.35,-151.48 64.35,-157.06 64.35,-169.5"/>
<polygon fill="#dddddd" stroke="#dddddd" points="67.85,-142.91 64.35,-132.91 60.85,-142.91 67.85,-142.91"/>
<text text-anchor="middle" x="56.85" y="-136.99" font-family="Times,serif" font-size="14.00" fill="#dddddd">S &#160;</text>
</g>
<!-- Box1 -->
<g id="node12" class="node">
<title>Box1</title>
<polygon fill="#333333" stroke="none" points="180.35,-325 144.35,-325 144.35,-289 180.35,-289 180.35,-325"/>
<polygon fill="#333333" stroke="none" points="142.72,-248.75 142.72,-365.25 181.97,-365.25 181.97,-248.75 142.72,-248.75"/>
<text text-anchor="start" x="147.72" y="-346.95" font-family="Times,serif" font-size="14.00" fill="#dddddd">Box1</text>
<text text-anchor="start" x="153.35" y="-324.45" font-family="Times,serif" font-size="14.00" fill="#dddddd">S₁₁</text>
<polygon fill="#555555" stroke="none" points="145.72,-296.75 145.72,-317.25 178.97,-317.25 178.97,-296.75 145.72,-296.75"/>
<text text-anchor="start" x="153.35" y="-301.95" font-family="Times,serif" font-size="14.00" fill="#dddddd">S₂₁</text>
<polygon fill="#777777" stroke="none" points="145.72,-274.25 145.72,-294.75 178.97,-294.75 178.97,-274.25 145.72,-274.25"/>
<text text-anchor="start" x="152.97" y="-279.45" font-family="Times,serif" font-size="14.00" fill="#dddddd">E₄₀</text>
<polygon fill="#aaaaaa" stroke="none" points="145.72,-251.75 145.72,-272.25 178.97,-272.25 178.97,-251.75 145.72,-251.75"/>
<text text-anchor="start" x="153.35" y="-256.95" font-family="Times,serif" font-size="14.00" fill="#333333">F₅₀</text>
<polygon fill="none" stroke="#dddddd" points="142.72,-248.75 142.72,-365.25 181.97,-365.25 181.97,-248.75 142.72,-248.75"/>
</g>
<!-- Box0&#45;&gt;Box1 -->
<g id="edge3" class="edge">
<title>Box0:t&#45;&gt;Box1:t</title>
<path fill="none" stroke="#dddddd" d="M83.85,-252.92C97.93,-262.74 117.54,-276.42 133.5,-287.57"/>
<polygon fill="#dddddd" stroke="#dddddd" points="131.45,-290.4 141.65,-293.26 135.45,-284.66 131.45,-290.4"/>
<text text-anchor="middle" x="113.35" y="-278.2" font-family="Times,serif" font-size="14.00" fill="#dddddd">a</text>
</g>
<!-- Box2 -->
<g id="node13" class="node">
<title>Box2</title>
<polygon fill="#333333" stroke="none" points="180.35,-167 144.35,-167 144.35,-131 180.35,-131 180.35,-167"/>
<polygon fill="#333333" stroke="none" points="142.72,-79.5 142.72,-218.5 181.97,-218.5 181.97,-79.5 142.72,-79.5"/>
<text text-anchor="start" x="147.72" y="-200.2" font-family="Times,serif" font-size="14.00" fill="#dddddd">Box2</text>
<text text-anchor="start" x="153.35" y="-177.7" font-family="Times,serif" font-size="14.00" fill="#dddddd">S₃₁</text>
<polygon fill="#555555" stroke="none" points="145.72,-150 145.72,-170.5 178.97,-170.5 178.97,-150 145.72,-150"/>
<text text-anchor="start" x="153.35" y="-155.2" font-family="Times,serif" font-size="14.00" fill="#dddddd">S₆₁</text>
<text text-anchor="start" x="153.35" y="-132.7" font-family="Times,serif" font-size="14.00" fill="#dddddd">S₇₁</text>
<polygon fill="#777777" stroke="none" points="145.72,-105 145.72,-125.5 178.97,-125.5 178.97,-105 145.72,-105"/>
<text text-anchor="start" x="152.97" y="-110.2" font-family="Times,serif" font-size="14.00" fill="#dddddd">E₄₀</text>
<polygon fill="#aaaaaa" stroke="none" points="145.72,-82.5 145.72,-103 178.97,-103 178.97,-82.5 145.72,-82.5"/>
<text text-anchor="start" x="153.35" y="-87.7" font-family="Times,serif" font-size="14.00" fill="#333333">F₅₀</text>
<polygon fill="none" stroke="#dddddd" points="142.72,-79.5 142.72,-218.5 181.97,-218.5 181.97,-79.5 142.72,-79.5"/>
</g>
<!-- Box0&#45;&gt;Box2 -->
<g id="edge4" class="edge">
<title>Box0:t&#45;&gt;Box2:t</title>
<path fill="none" stroke="#dddddd" d="M83.85,-222.45C98.33,-208.73 118.65,-189.47 134.85,-174.12"/>
<polygon fill="#dddddd" stroke="#dddddd" points="136.94,-176.95 141.79,-167.53 132.13,-171.87 136.94,-176.95"/>
<text text-anchor="middle" x="113.35" y="-200.2" font-family="Times,serif" font-size="14.00" fill="#dddddd">b</text>
</g>
<!-- S₁₂ -->
<g id="node4" class="node">
<title>S₁₂</title>
<ellipse fill="#333333" stroke="#dddddd" cx="261.85" cy="-398" rx="18" ry="18"/>
<text text-anchor="middle" x="261.85" y="-392.95" font-family="Times,serif" font-size="14.00" fill="#dddddd">S₁₂</text>
</g>
<!-- S₁ -->
<g id="node5" class="node">
<title>S₁</title>
<ellipse fill="#333333" stroke="#dddddd" cx="361.72" cy="-398" rx="18" ry="18"/>
<text text-anchor="middle" x="361.72" y="-392.95" font-family="Times,serif" font-size="14.00" fill="#dddddd">S₁</text>
</g>
<!-- S₁₂&#45;&gt;S₁ -->
<g id="edge9" class="edge">
<title>S₁₂&#45;&gt;S₁</title>
<path fill="none" stroke="#dddddd" d="M279.45,-398C294,-398 315.46,-398 332.67,-398"/>
<polygon fill="#dddddd" stroke="#dddddd" points="332.52,-401.5 342.52,-398 332.52,-394.5 332.52,-401.5"/>
<text text-anchor="middle" x="310.85" y="-401.2" font-family="Times,serif" font-size="14.00" fill="#dddddd">c</text>
</g>
<!-- S₂₂ -->
<g id="node6" class="node">
<title>S₂₂</title>
<ellipse fill="#555555" stroke="#dddddd" cx="261.85" cy="-344" rx="18" ry="18"/>
<text text-anchor="middle" x="261.85" y="-338.95" font-family="Times,serif" font-size="14.00" fill="#dddddd">S₂₂</text>
</g>
<!-- S₂ -->
<g id="node7" class="node">
<title>S₂</title>
<ellipse fill="#555555" stroke="#dddddd" cx="361.72" cy="-344" rx="18" ry="18"/>
<text text-anchor="middle" x="361.72" y="-338.95" font-family="Times,serif" font-size="14.00" fill="#dddddd">S₂</text>
</g>
<!-- S₂₂&#45;&gt;S₂ -->
<g id="edge10" class="edge">
<title>S₂₂&#45;&gt;S₂</title>
<path fill="none" stroke="#dddddd" d="M279.45,-344C294,-344 315.46,-344 332.67,-344"/>
<polygon fill="#dddddd" stroke="#dddddd" points="332.52,-347.5 342.52,-344 332.52,-340.5 332.52,-347.5"/>
<text text-anchor="middle" x="310.85" y="-347.2" font-family="Times,serif" font-size="14.00" fill="#dddddd">d</text>
</g>
<!-- S₃₂ -->
<g id="node8" class="node">
<title>S₃₂</title>
<ellipse fill="#333333" stroke="#dddddd" cx="261.85" cy="-192" rx="18" ry="18"/>
<text text-anchor="middle" x="261.85" y="-186.95" font-family="Times,serif" font-size="14.00" fill="#dddddd">S₃₂</text>
</g>
<!-- S₃ -->
<g id="node9" class="node">
<title>S₃</title>
<ellipse fill="#333333" stroke="#dddddd" cx="361.72" cy="-192" rx="18" ry="18"/>
<text text-anchor="middle" x="361.72" y="-186.95" font-family="Times,serif" font-size="14.00" fill="#dddddd">S₃</text>
</g>
<!-- S₃₂&#45;&gt;S₃ -->
<g id="edge13" class="edge">
<title>S₃₂&#45;&gt;S₃</title>
<path fill="none" stroke="#dddddd" d="M279.45,-192C294,-192 315.46,-192 332.67,-192"/>
<polygon fill="#dddddd" stroke="#dddddd" points="332.52,-195.5 342.52,-192 332.52,-188.5 332.52,-195.5"/>
<text text-anchor="middle" x="310.85" y="-195.2" font-family="Times,serif" font-size="14.00" fill="#dddddd">c</text>
</g>
<!-- S₆₂ -->
<g id="node10" class="node">
<title>S₆₂</title>
<ellipse fill="#555555" stroke="#dddddd" cx="261.85" cy="-138" rx="18" ry="18"/>
<text text-anchor="middle" x="261.85" y="-132.95" font-family="Times,serif" font-size="14.00" fill="#dddddd">S₆₂</text>
</g>
<!-- S₆ -->
<g id="node11" class="node">
<title>S₆</title>
<ellipse fill="#555555" stroke="#dddddd" cx="361.72" cy="-138" rx="18" ry="18"/>
<text text-anchor="middle" x="361.72" y="-132.95" font-family="Times,serif" font-size="14.00" fill="#dddddd">S₆</text>
</g>
<!-- S₆₂&#45;&gt;S₆ -->
<g id="edge15" class="edge">
<title>S₆₂&#45;&gt;S₆</title>
<path fill="none" stroke="#dddddd" d="M279.45,-138C294,-138 315.46,-138 332.67,-138"/>
<polygon fill="#dddddd" stroke="#dddddd" points="332.52,-141.5 342.52,-138 332.52,-134.5 332.52,-141.5"/>
<text text-anchor="middle" x="310.85" y="-141.2" font-family="Times,serif" font-size="14.00" fill="#dddddd">d</text>
</g>
<!-- Box1&#45;&gt;S₁₂ -->
<g id="edge6" class="edge">
<title>Box1:t&#45;&gt;S₁₂</title>
<path fill="none" stroke="#dddddd" d="M181.68,-324.12C198.31,-339.64 222.8,-362.49 240.13,-378.67"/>
<polygon fill="#dddddd" stroke="#dddddd" points="237.66,-381.14 247.35,-385.41 242.43,-376.03 237.66,-381.14"/>
<text text-anchor="middle" x="212.1" y="-358.2" font-family="Times,serif" font-size="14.00" fill="#dddddd">E</text>
</g>
<!-- Box1&#45;&gt;S₂₂ -->
<g id="edge7" class="edge">
<title>Box1:t&#45;&gt;S₂₂</title>
<path fill="none" stroke="#dddddd" d="M181.68,-313.96C196.56,-319.61 217.74,-327.64 234.44,-333.98"/>
<polygon fill="#dddddd" stroke="#dddddd" points="233.16,-337.24 243.75,-337.51 235.64,-330.69 233.16,-337.24"/>
<text text-anchor="middle" x="212.1" y="-329.2" font-family="Times,serif" font-size="14.00" fill="#dddddd">F</text>
</g>
<!-- Box3 -->
<g id="node14" class="node">
<title>Box3</title>
<polygon fill="#333333" stroke="none" points="279.85,-286 243.85,-286 243.85,-250 279.85,-250 279.85,-286"/>
<polygon fill="#333333" stroke="none" points="242.22,-232.25 242.22,-303.75 281.47,-303.75 281.47,-232.25 242.22,-232.25"/>
<text text-anchor="start" x="247.22" y="-285.45" font-family="Times,serif" font-size="14.00" fill="#dddddd">Box3</text>
<polygon fill="#777777" stroke="none" points="245.22,-257.75 245.22,-278.25 278.47,-278.25 278.47,-257.75 245.22,-257.75"/>
<text text-anchor="start" x="252.47" y="-262.95" font-family="Times,serif" font-size="14.00" fill="#dddddd">E₄₁</text>
<polygon fill="#aaaaaa" stroke="none" points="245.22,-235.25 245.22,-255.75 278.47,-255.75 278.47,-235.25 245.22,-235.25"/>
<text text-anchor="start" x="252.85" y="-240.45" font-family="Times,serif" font-size="14.00" fill="#333333">F₅₁</text>
<polygon fill="none" stroke="#dddddd" points="242.22,-232.25 242.22,-303.75 281.47,-303.75 281.47,-232.25 242.22,-232.25"/>
</g>
<!-- Box1&#45;&gt;Box3 -->
<g id="edge5" class="edge">
<title>Box1:t&#45;&gt;Box3:t</title>
<path fill="none" stroke="#dddddd" d="M181.68,-299.66C195.76,-294.04 215.46,-286.15 231.69,-279.66"/>
<polygon fill="#dddddd" stroke="#dddddd" points="232.87,-282.96 240.85,-276 230.27,-276.46 232.87,-282.96"/>
<text text-anchor="middle" x="212.1" y="-291.2" font-family="Times,serif" font-size="14.00" fill="#dddddd">e</text>
</g>
<!-- Box2&#45;&gt;S₃₂ -->
<g id="edge12" class="edge">
<title>Box2:t&#45;&gt;S₃₂</title>
<path fill="none" stroke="#dddddd" d="M181.68,-157.09C196.8,-163.75 218.4,-173.28 235.23,-180.7"/>
<polygon fill="#dddddd" stroke="#dddddd" points="233.53,-183.78 244.09,-184.61 236.35,-177.37 233.53,-183.78"/>
<text text-anchor="middle" x="212.1" y="-174.2" font-family="Times,serif" font-size="14.00" fill="#dddddd">F</text>
</g>
<!-- Box2&#45;&gt;S₆₂ -->
<g id="edge14" class="edge">
<title>Box2:t&#45;&gt;S₆₂</title>
<path fill="none" stroke="#dddddd" d="M181.68,-146.93C196.15,-145.3 216.58,-142.99 233.05,-141.14"/>
<polygon fill="#dddddd" stroke="#dddddd" points="233.17,-144.65 242.71,-140.05 232.38,-137.69 233.17,-144.65"/>
<text text-anchor="middle" x="212.1" y="-146.2" font-family="Times,serif" font-size="14.00" fill="#dddddd">E</text>
</g>
<!-- Box4 -->
<g id="node15" class="node">
<title>Box4</title>
<polygon fill="#333333" stroke="none" points="279.85,-69 243.85,-69 243.85,-33 279.85,-33 279.85,-69"/>
<polygon fill="#333333" stroke="none" points="242.22,-4 242.22,-98 281.47,-98 281.47,-4 242.22,-4"/>
<text text-anchor="start" x="247.22" y="-79.7" font-family="Times,serif" font-size="14.00" fill="#dddddd">Box4</text>
<text text-anchor="start" x="252.85" y="-57.2" font-family="Times,serif" font-size="14.00" fill="#dddddd">S₇₂</text>
<polygon fill="#777777" stroke="none" points="245.22,-29.5 245.22,-50 278.47,-50 278.47,-29.5 245.22,-29.5"/>
<text text-anchor="start" x="252.47" y="-34.7" font-family="Times,serif" font-size="14.00" fill="#dddddd">E₄₁</text>
<polygon fill="#aaaaaa" stroke="none" points="245.22,-7 245.22,-27.5 278.47,-27.5 278.47,-7 245.22,-7"/>
<text text-anchor="start" x="252.85" y="-12.2" font-family="Times,serif" font-size="14.00" fill="#333333">F₅₁</text>
<polygon fill="none" stroke="#dddddd" points="242.22,-4 242.22,-98 281.47,-98 281.47,-4 242.22,-4"/>
</g>
<!-- Box2&#45;&gt;Box4 -->
<g id="edge11" class="edge">
<title>Box2:t&#45;&gt;Box4:t</title>
<path fill="none" stroke="#dddddd" d="M181.68,-130.57C196.57,-115.61 217.75,-94.31 234.46,-77.52"/>
<polygon fill="#dddddd" stroke="#dddddd" points="236.62,-80.31 241.19,-70.76 231.66,-75.38 236.62,-80.31"/>
<text text-anchor="middle" x="212.1" y="-105.2" font-family="Times,serif" font-size="14.00" fill="#dddddd">e</text>
</g>
<!-- Box5 -->
<g id="node16" class="node">
<title>Box5</title>
<polygon fill="#333333" stroke="none" points="379.72,-286 343.72,-286 343.72,-250 379.72,-250 379.72,-286"/>
<polygon fill="#333333" stroke="none" points="340.6,-232.25 340.6,-303.75 382.85,-303.75 382.85,-232.25 340.6,-232.25"/>
<text text-anchor="start" x="347.1" y="-285.45" font-family="Times,serif" font-size="14.00" fill="#dddddd">Box5</text>
<polygon fill="#777777" stroke="none" points="343.6,-257.75 343.6,-278.25 379.85,-278.25 379.85,-257.75 343.6,-257.75"/>
<text text-anchor="start" x="345.6" y="-262.95" font-family="Times,serif" font-size="14.00" fill="#dddddd">E₄ (c)</text>
<polygon fill="#aaaaaa" stroke="none" points="343.6,-235.25 343.6,-255.75 379.85,-255.75 379.85,-235.25 343.6,-235.25"/>
<text text-anchor="start" x="345.6" y="-240.45" font-family="Times,serif" font-size="14.00" fill="#333333">F₅ (d)</text>
<polygon fill="none" stroke="#dddddd" points="340.6,-232.25 340.6,-303.75 382.85,-303.75 382.85,-232.25 340.6,-232.25"/>
</g>
<!-- Box3&#45;&gt;Box5 -->
<g id="edge8" class="edge">
<title>Box3:t&#45;&gt;Box5:t</title>
<path fill="none" stroke="#dddddd" d="M281.25,-268C294.76,-268 313.42,-268 329.27,-268"/>
<polygon fill="#dddddd" stroke="#dddddd" points="329.2,-271.5 339.2,-268 329.2,-264.5 329.2,-271.5"/>
<text text-anchor="middle" x="310.85" y="-271.2" font-family="Times,serif" font-size="14.00" fill="#dddddd">e</text>
</g>
<!-- Box6 -->
<g id="node17" class="node">
<title>Box6</title>
<polygon fill="#333333" stroke="none" points="379.72,-69 343.72,-69 343.72,-33 379.72,-33 379.72,-69"/>
<polygon fill="#333333" stroke="none" points="340.22,-4 340.22,-98 383.22,-98 383.22,-4 340.22,-4"/>
<text text-anchor="start" x="347.1" y="-79.7" font-family="Times,serif" font-size="14.00" fill="#dddddd">Box6</text>
<text text-anchor="start" x="352.72" y="-57.2" font-family="Times,serif" font-size="14.00" fill="#dddddd">S₇₃</text>
<polygon fill="#777777" stroke="none" points="343.22,-29.5 343.22,-50 380.22,-50 380.22,-29.5 343.22,-29.5"/>
<text text-anchor="start" x="345.22" y="-34.7" font-family="Times,serif" font-size="14.00" fill="#dddddd">E₄ (d)</text>
<polygon fill="#aaaaaa" stroke="none" points="343.22,-7 343.22,-27.5 380.22,-27.5 380.22,-7 343.22,-7"/>
<text text-anchor="start" x="345.97" y="-12.2" font-family="Times,serif" font-size="14.00" fill="#333333">F₅ (c)</text>
<polygon fill="none" stroke="#dddddd" points="340.22,-4 340.22,-98 383.22,-98 383.22,-4 340.22,-4"/>
</g>
<!-- Box4&#45;&gt;Box6 -->
<g id="edge16" class="edge">
<title>Box4:t&#45;&gt;Box6:t</title>
<path fill="none" stroke="#dddddd" d="M281.25,-51C294.67,-51 313.18,-51 328.96,-51"/>
<polygon fill="#dddddd" stroke="#dddddd" points="328.85,-54.5 338.85,-51 328.85,-47.5 328.85,-54.5"/>
<text text-anchor="middle" x="310.85" y="-54.2" font-family="Times,serif" font-size="14.00" fill="#dddddd">e</text>
</g>
<!-- S₇ -->
<g id="node18" class="node">
<title>S₇</title>
<ellipse fill="#333333" stroke="#dddddd" cx="451.22" cy="-51" rx="18" ry="18"/>
<text text-anchor="middle" x="451.22" y="-45.95" font-family="Times,serif" font-size="14.00" fill="#dddddd">S₇</text>
</g>
<!-- Box6&#45;&gt;S₇ -->
<g id="edge17" class="edge">
<title>Box6:t&#45;&gt;S₇</title>
<path fill="none" stroke="#dddddd" d="M383.01,-51C394.57,-51 409.22,-51 421.89,-51"/>
<polygon fill="#dddddd" stroke="#dddddd" points="421.76,-54.5 431.76,-51 421.76,-47.5 421.76,-54.5"/>
<text text-anchor="middle" x="412.22" y="-54.2" font-family="Times,serif" font-size="14.00" fill="#dddddd">a</text>
</g>
</g>
</svg>
