<?xml version="1.0" encoding="UTF-8" standalone="no"?>
<!DOCTYPE svg PUBLIC "-//W3C//DTD SVG 1.1//EN"
 "http://www.w3.org/Graphics/SVG/1.1/DTD/svg11.dtd">
<!-- Generated by graphviz version 11.0.0 (0)
 -->
<!-- Pages: 1 -->
<svg width="280pt" height="236pt"
 viewBox="0.00 0.00 279.72 236.40" xmlns="http://www.w3.org/2000/svg" xmlns:xlink="http://www.w3.org/1999/xlink">
<g id="graph0" class="graph" transform="scale(1 1) rotate(0) translate(4 232.4)">
<!-- start1 -->
<g id="node1" class="node">
<title>start1</title>
</g>
<!-- Box0 -->
<g id="node2" class="node">
<title>Box0</title>
<polygon fill="#333333" stroke="none" points="82.35,-141.4 46.35,-141.4 46.35,-105.4 82.35,-105.4 82.35,-141.4"/>
<polygon fill="#333333" stroke="none" points="44.72,-76.4 44.72,-170.4 83.97,-170.4 83.97,-76.4 44.72,-76.4"/>
<text text-anchor="start" x="49.72" y="-152.1" font-family="Times,serif" font-size="14.00" fill="#dddddd">Box0</text>
<text text-anchor="start" x="55.35" y="-129.6" font-family="Times,serif" font-size="14.00" fill="#dddddd">S₁₀</text>
<polygon fill="#555555" stroke="none" points="47.72,-101.9 47.72,-122.4 80.97,-122.4 80.97,-101.9 47.72,-101.9"/>
<text text-anchor="start" x="54.97" y="-107.1" font-family="Times,serif" font-size="14.00" fill="#dddddd">E₂₀</text>
<polygon fill="#777777" stroke="none" points="47.72,-79.4 47.72,-99.9 80.97,-99.9 80.97,-79.4 47.72,-79.4"/>
<text text-anchor="start" x="54.97" y="-84.6" font-family="Times,serif" font-size="14.00" fill="#dddddd">E₃₀</text>
<polygon fill="none" stroke="#dddddd" points="44.72,-76.4 44.72,-170.4 83.97,-170.4 83.97,-76.4 44.72,-76.4"/>
</g>
<!-- start1&#45;&gt;Box0 -->
<g id="edge2" class="edge">
<title>start1&#45;&gt;Box0:t</title>
<path fill="none" stroke="#dddddd" d="M18.16,-123.4C23.02,-123.4 28.43,-123.4 33.77,-123.4"/>
<polygon fill="#dddddd" stroke="#dddddd" points="33.61,-126.9 43.61,-123.4 33.61,-119.9 33.61,-126.9"/>
</g>
<!-- fin -->
<g id="node3" class="node">
<title>fin</title>
<ellipse fill="#333333" stroke="#dddddd" cx="64.35" cy="-18.4" rx="14.4" ry="14.4"/>
<ellipse fill="none" stroke="#dddddd" cx="64.35" cy="-18.4" rx="18.4" ry="18.4"/>
</g>
<!-- Box0&#45;&gt;fin -->
<g id="edge1" class="edge">
<title>Box0:s&#45;&gt;fin:n</title>
<path fill="none" stroke="#dddddd" d="M64.35,-48.23C64.35,-57.14 64.35,-62.8 64.35,-75.4"/>
<polygon fill="#dddddd" stroke="#dddddd" points="67.85,-48.31 64.35,-38.31 60.85,-48.31 67.85,-48.31"/>
<text text-anchor="middle" x="56.85" y="-42.64" font-family="Times,serif" font-size="14.00" fill="#dddddd">S &#160;</text>
</g>
<!-- S₁₁ -->
<g id="node4" class="node">
<title>S₁₁</title>
<ellipse fill="#333333" stroke="#dddddd" cx="163.85" cy="-210.4" rx="18" ry="18"/>
<text text-anchor="middle" x="163.85" y="-205.35" font-family="Times,serif" font-size="14.00" fill="#dddddd">S₁₁</text>
</g>
<!-- Box0&#45;&gt;S₁₁ -->
<g id="edge4" class="edge">
<title>Box0:t&#45;&gt;S₁₁</title>
<path fill="none" stroke="#dddddd" d="M83.68,-139.76C100.22,-154.52 124.53,-176.21 141.84,-191.65"/>
<polygon fill="#dddddd" stroke="#dddddd" points="139.25,-194.04 149.04,-198.09 143.91,-188.82 139.25,-194.04"/>
<text text-anchor="middle" x="114.1" y="-172.6" font-family="Times,serif" font-size="14.00" fill="#dddddd">E</text>
</g>
<!-- Box1 -->
<g id="node6" class="node">
<title>Box1</title>
<polygon fill="#333333" stroke="none" points="181.85,-141.4 145.85,-141.4 145.85,-105.4 181.85,-105.4 181.85,-141.4"/>
<polygon fill="#333333" stroke="none" points="144.22,-76.4 144.22,-170.4 183.47,-170.4 183.47,-76.4 144.22,-76.4"/>
<text text-anchor="start" x="149.22" y="-152.1" font-family="Times,serif" font-size="14.00" fill="#dddddd">Box1</text>
<polygon fill="#555555" stroke="none" points="147.22,-124.4 147.22,-144.9 180.47,-144.9 180.47,-124.4 147.22,-124.4"/>
<text text-anchor="start" x="154.47" y="-129.6" font-family="Times,serif" font-size="14.00" fill="#dddddd">E₂₀</text>
<polygon fill="#555555" stroke="none" points="147.22,-101.9 147.22,-122.4 180.47,-122.4 180.47,-101.9 147.22,-101.9"/>
<text text-anchor="start" x="154.47" y="-107.1" font-family="Times,serif" font-size="14.00" fill="#dddddd">E₂₁</text>
<polygon fill="#777777" stroke="none" points="147.22,-79.4 147.22,-99.9 180.47,-99.9 180.47,-79.4 147.22,-79.4"/>
<text text-anchor="start" x="157.1" y="-84.6" font-family="Times,serif" font-size="14.00" fill="#dddddd">E₃</text>
<polygon fill="none" stroke="#dddddd" points="144.22,-76.4 144.22,-170.4 183.47,-170.4 183.47,-76.4 144.22,-76.4"/>
</g>
<!-- Box0&#45;&gt;Box1 -->
<g id="edge3" class="edge">
<title>Box0:t&#45;&gt;Box1:t</title>
<path fill="none" stroke="#dddddd" d="M83.68,-123.4C97.49,-123.4 116.7,-123.4 132.75,-123.4"/>
<polygon fill="#dddddd" stroke="#dddddd" points="132.74,-126.9 142.74,-123.4 132.74,-119.9 132.74,-126.9"/>
<text text-anchor="middle" x="114.1" y="-126.6" font-family="Times,serif" font-size="14.00" fill="#dddddd">1</text>
</g>
<!-- S₁ -->
<g id="node7" class="node">
<title>S₁</title>
<ellipse fill="#333333" stroke="#dddddd" cx="253.72" cy="-210.4" rx="18" ry="18"/>
<text text-anchor="middle" x="253.72" y="-205.35" font-family="Times,serif" font-size="14.00" fill="#dddddd">S₁</text>
</g>
<!-- S₁₁&#45;&gt;S₁ -->
<g id="edge5" class="edge">
<title>S₁₁&#45;&gt;S₁</title>
<path fill="none" stroke="#dddddd" d="M181.79,-210.4C193.94,-210.4 210.6,-210.4 224.72,-210.4"/>
<polygon fill="#dddddd" stroke="#dddddd" points="224.32,-213.9 234.32,-210.4 224.32,-206.9 224.32,-213.9"/>
<text text-anchor="middle" x="213.6" y="-213.6" font-family="Times,serif" font-size="14.00" fill="#dddddd">2</text>
</g>
<!-- E₂ -->
<g id="node5" class="node">
<title>E₂</title>
<ellipse fill="#555555" stroke="#dddddd" cx="253.72" cy="-123.4" rx="18" ry="18"/>
<text text-anchor="middle" x="253.72" y="-118.35" font-family="Times,serif" font-size="14.00" fill="#dddddd">E₂</text>
</g>
<!-- Box1&#45;&gt;E₂ -->
<g id="edge6" class="edge">
<title>Box1:t&#45;&gt;E₂</title>
<path fill="none" stroke="#dddddd" d="M183.05,-123.4C195.03,-123.4 210.94,-123.4 224.54,-123.4"/>
<polygon fill="#dddddd" stroke="#dddddd" points="224.21,-126.9 234.21,-123.4 224.21,-119.9 224.21,-126.9"/>
<text text-anchor="middle" x="213.6" y="-126.6" font-family="Times,serif" font-size="14.00" fill="#dddddd">E</text>
</g>
<!-- Box1&#45;&gt;Box1 -->
<g id="edge7" class="edge">
<title>Box1:s&#45;&gt;Box1:s</title>
<path fill="none" stroke="#dddddd" d="M163.85,-76.4C151.41,-66.4 151.41,-54.4 163.85,-54.4 172.78,-54.4 175.3,-60.6 171.39,-67.8"/>
<polygon fill="#dddddd" stroke="#dddddd" points="168.81,-65.44 164.84,-75.26 174.07,-70.05 168.81,-65.44"/>
<text text-anchor="middle" x="163.85" y="-41.1" font-family="Times,serif" font-size="14.00" fill="#dddddd">1</text>
</g>
</g>
</svg>
