<?xml version="1.0" encoding="UTF-8" standalone="no"?>
<!DOCTYPE svg PUBLIC "-//W3C//DTD SVG 1.1//EN"
 "http://www.w3.org/Graphics/SVG/1.1/DTD/svg11.dtd">
<!-- Generated by graphviz version 12.1.1 (0)
 -->
<!-- Pages: 1 -->
<svg width="281pt" height="236pt"
 viewBox="0.00 0.00 280.72 236.40" xmlns="http://www.w3.org/2000/svg" xmlns:xlink="http://www.w3.org/1999/xlink">
<g id="graph0" class="graph" transform="scale(1 1) rotate(0) translate(4 232.4)">
<!-- start1 -->
<g id="node1" class="node">
<title>start1</title>
</g>
<!-- Box0 -->
<g id="node2" class="node">
<title>Box0</title>
<polygon fill="#333333" stroke="none" points="83.35,-141.4 47.35,-141.4 47.35,-105.4 83.35,-105.4 83.35,-141.4"/>
<polygon fill="#333333" stroke="none" points="45.72,-76.4 45.72,-170.4 84.97,-170.4 84.97,-76.4 45.72,-76.4"/>
<text text-anchor="start" x="50.72" y="-152.1" font-family="Times,serif" font-size="14.00" fill="#dddddd">Box0</text>
<text text-anchor="start" x="56.35" y="-129.6" font-family="Times,serif" font-size="14.00" fill="#dddddd">S₁₀</text>
<polygon fill="#555555" stroke="none" points="48.72,-101.9 48.72,-122.4 81.97,-122.4 81.97,-101.9 48.72,-101.9"/>
<text text-anchor="start" x="55.97" y="-107.1" font-family="Times,serif" font-size="14.00" fill="#dddddd">E₂₀</text>
<polygon fill="#777777" stroke="none" points="48.72,-79.4 48.72,-99.9 81.97,-99.9 81.97,-79.4 48.72,-79.4"/>
<text text-anchor="start" x="55.97" y="-84.6" font-family="Times,serif" font-size="14.00" fill="#dddddd">E₃₀</text>
<polygon fill="none" stroke="#dddddd" points="45.72,-76.4 45.72,-170.4 84.97,-170.4 84.97,-76.4 45.72,-76.4"/>
</g>
<!-- start1&#45;&gt;Box0 -->
<g id="edge2" class="edge">
<title>start1&#45;&gt;Box0:t</title>
<path fill="none" stroke="#dddddd" d="M18.11,-123.4C23.26,-123.4 29.06,-123.4 34.76,-123.4"/>
<polygon fill="#dddddd" stroke="#dddddd" points="34.58,-126.9 44.58,-123.4 34.58,-119.9 34.58,-126.9"/>
</g>
<!-- fin -->
<g id="node3" class="node">
<title>fin</title>
<ellipse fill="#333333" stroke="#dddddd" cx="65.35" cy="-18.4" rx="14.4" ry="14.4"/>
<ellipse fill="none" stroke="#dddddd" cx="65.35" cy="-18.4" rx="18.4" ry="18.4"/>
</g>
<!-- Box0&#45;&gt;fin -->
<g id="edge1" class="edge">
<title>Box0:s&#45;&gt;fin:n</title>
<path fill="none" stroke="#dddddd" d="M65.35,-48.23C65.35,-57.14 65.35,-62.8 65.35,-75.4"/>
<polygon fill="#dddddd" stroke="#dddddd" points="68.85,-48.31 65.35,-38.31 61.85,-48.31 68.85,-48.31"/>
<text text-anchor="middle" x="57.85" y="-42.64" font-family="Times,serif" font-size="14.00" fill="#dddddd">S &#160;</text>
</g>
<!-- S₁₁ -->
<g id="node4" class="node">
<title>S₁₁</title>
<ellipse fill="#333333" stroke="#dddddd" cx="164.85" cy="-210.4" rx="18" ry="18"/>
<text text-anchor="middle" x="164.85" y="-205.35" font-family="Times,serif" font-size="14.00" fill="#dddddd">S₁₁</text>
</g>
<!-- Box0&#45;&gt;S₁₁ -->
<g id="edge4" class="edge">
<title>Box0:t&#45;&gt;S₁₁</title>
<path fill="none" stroke="#dddddd" d="M84.68,-139.76C101.22,-154.52 125.53,-176.21 142.84,-191.65"/>
<polygon fill="#dddddd" stroke="#dddddd" points="140.25,-194.04 150.04,-198.09 144.91,-188.82 140.25,-194.04"/>
<text text-anchor="middle" x="115.1" y="-172.71" font-family="Times,serif" font-size="14.00" fill="#dddddd">E</text>
</g>
<!-- Box1 -->
<g id="node6" class="node">
<title>Box1</title>
<polygon fill="#333333" stroke="none" points="182.85,-141.4 146.85,-141.4 146.85,-105.4 182.85,-105.4 182.85,-141.4"/>
<polygon fill="#333333" stroke="none" points="145.22,-76.4 145.22,-170.4 184.47,-170.4 184.47,-76.4 145.22,-76.4"/>
<text text-anchor="start" x="150.22" y="-152.1" font-family="Times,serif" font-size="14.00" fill="#dddddd">Box1</text>
<polygon fill="#555555" stroke="none" points="148.22,-124.4 148.22,-144.9 181.47,-144.9 181.47,-124.4 148.22,-124.4"/>
<text text-anchor="start" x="155.47" y="-129.6" font-family="Times,serif" font-size="14.00" fill="#dddddd">E₂₀</text>
<polygon fill="#555555" stroke="none" points="148.22,-101.9 148.22,-122.4 181.47,-122.4 181.47,-101.9 148.22,-101.9"/>
<text text-anchor="start" x="155.47" y="-107.1" font-family="Times,serif" font-size="14.00" fill="#dddddd">E₂₁</text>
<polygon fill="#777777" stroke="none" points="148.22,-79.4 148.22,-99.9 181.47,-99.9 181.47,-79.4 148.22,-79.4"/>
<text text-anchor="start" x="158.1" y="-84.6" font-family="Times,serif" font-size="14.00" fill="#dddddd">E₃</text>
<polygon fill="none" stroke="#dddddd" points="145.22,-76.4 145.22,-170.4 184.47,-170.4 184.47,-76.4 145.22,-76.4"/>
</g>
<!-- Box0&#45;&gt;Box1 -->
<g id="edge3" class="edge">
<title>Box0:t&#45;&gt;Box1:t</title>
<path fill="none" stroke="#dddddd" d="M84.68,-123.4C98.49,-123.4 117.7,-123.4 133.75,-123.4"/>
<polygon fill="#dddddd" stroke="#dddddd" points="133.74,-126.9 143.74,-123.4 133.74,-119.9 133.74,-126.9"/>
<text text-anchor="middle" x="115.1" y="-126.6" font-family="Times,serif" font-size="14.00" fill="#dddddd">1</text>
</g>
<!-- S₁ -->
<g id="node7" class="node">
<title>S₁</title>
<ellipse fill="#333333" stroke="#dddddd" cx="254.72" cy="-210.4" rx="18" ry="18"/>
<text text-anchor="middle" x="254.72" y="-205.35" font-family="Times,serif" font-size="14.00" fill="#dddddd">S₁</text>
</g>
<!-- S₁₁&#45;&gt;S₁ -->
<g id="edge5" class="edge">
<title>S₁₁&#45;&gt;S₁</title>
<path fill="none" stroke="#dddddd" d="M182.79,-210.4C194.94,-210.4 211.6,-210.4 225.72,-210.4"/>
<polygon fill="#dddddd" stroke="#dddddd" points="225.32,-213.9 235.32,-210.4 225.32,-206.9 225.32,-213.9"/>
<text text-anchor="middle" x="214.6" y="-213.6" font-family="Times,serif" font-size="14.00" fill="#dddddd">2</text>
</g>
<!-- E₂ -->
<g id="node5" class="node">
<title>E₂</title>
<ellipse fill="#555555" stroke="#dddddd" cx="254.72" cy="-123.4" rx="18" ry="18"/>
<text text-anchor="middle" x="254.72" y="-118.35" font-family="Times,serif" font-size="14.00" fill="#dddddd">E₂</text>
</g>
<!-- Box1&#45;&gt;E₂ -->
<g id="edge6" class="edge">
<title>Box1:t&#45;&gt;E₂</title>
<path fill="none" stroke="#dddddd" d="M184.05,-123.4C196.03,-123.4 211.94,-123.4 225.54,-123.4"/>
<polygon fill="#dddddd" stroke="#dddddd" points="225.21,-126.9 235.21,-123.4 225.21,-119.9 225.21,-126.9"/>
<text text-anchor="middle" x="214.6" y="-126.6" font-family="Times,serif" font-size="14.00" fill="#dddddd">E</text>
</g>
<!-- Box1&#45;&gt;Box1 -->
<g id="edge7" class="edge">
<title>Box1:s&#45;&gt;Box1:s</title>
<path fill="none" stroke="#dddddd" d="M164.85,-76.4C152.41,-66.4 152.41,-54.4 164.85,-54.4 173.78,-54.4 176.3,-60.6 172.39,-67.8"/>
<polygon fill="#dddddd" stroke="#dddddd" points="169.81,-65.44 165.84,-75.26 175.07,-70.05 169.81,-65.44"/>
<text text-anchor="middle" x="164.85" y="-41.1" font-family="Times,serif" font-size="14.00" fill="#dddddd">1</text>
</g>
</g>
</svg>
