<?xml version="1.0" encoding="UTF-8" standalone="no"?>
<!DOCTYPE svg PUBLIC "-//W3C//DTD SVG 1.1//EN"
 "http://www.w3.org/Graphics/SVG/1.1/DTD/svg11.dtd">
<!-- Generated by graphviz version 12.1.1 (0)
 -->
<!-- Pages: 1 -->
<svg width="543pt" height="524pt"
 viewBox="0.00 0.00 543.44 524.22" xmlns="http://www.w3.org/2000/svg" xmlns:xlink="http://www.w3.org/1999/xlink">
<g id="graph0" class="graph" transform="scale(1 1) rotate(0) translate(4 520.22)">
<!-- start1 -->
<g id="node1" class="node">
<title>start1</title>
</g>
<!-- Box0 -->
<g id="node2" class="node">
<title>Box0</title>
<polygon fill="#333333" stroke="none" points="45.72,-279.75 45.72,-463.75 84.97,-463.75 84.97,-279.75 45.72,-279.75"/>
<text text-anchor="start" x="50.72" y="-445.45" font-family="Times,serif" font-size="14.00" fill="#dddddd">Box0</text>
<polygon fill="#333333" stroke="none" points="48.72,-417.75 48.72,-438.25 81.97,-438.25 81.97,-417.75 48.72,-417.75"/>
<text text-anchor="start" x="56.35" y="-422.95" font-family="Times,serif" font-size="14.00" fill="#dddddd">S₁₀</text>
<polygon fill="#555555" stroke="none" points="48.72,-395.25 48.72,-415.75 81.97,-415.75 81.97,-395.25 48.72,-395.25"/>
<text text-anchor="start" x="55.97" y="-400.45" font-family="Times,serif" font-size="14.00" fill="#dddddd">E₂₀</text>
<polygon fill="#777777" stroke="none" points="48.72,-372.75 48.72,-393.25 81.97,-393.25 81.97,-372.75 48.72,-372.75"/>
<text text-anchor="start" x="55.97" y="-377.95" font-family="Times,serif" font-size="14.00" fill="#dddddd">E₃₀</text>
<polygon fill="#999999" stroke="none" points="48.72,-350.25 48.72,-370.75 81.97,-370.75 81.97,-350.25 48.72,-350.25"/>
<text text-anchor="start" x="55.97" y="-355.45" font-family="Times,serif" font-size="14.00" fill="#333333">T₄₀</text>
<polygon fill="#bbbbbb" stroke="none" points="48.72,-327.75 48.72,-348.25 81.97,-348.25 81.97,-327.75 48.72,-327.75"/>
<text text-anchor="start" x="55.97" y="-332.95" font-family="Times,serif" font-size="14.00" fill="#333333">T₅₀</text>
<polygon fill="#dddddd" stroke="none" points="48.72,-305.25 48.72,-325.75 81.97,-325.75 81.97,-305.25 48.72,-305.25"/>
<text text-anchor="start" x="56.35" y="-310.45" font-family="Times,serif" font-size="14.00" fill="#333333">F₆₀</text>
<polygon fill="#ffffff" stroke="none" points="48.72,-282.75 48.72,-303.25 81.97,-303.25 81.97,-282.75 48.72,-282.75"/>
<text text-anchor="start" x="56.35" y="-287.95" font-family="Times,serif" font-size="14.00" fill="#333333">F₇₀</text>
<polygon fill="none" stroke="#dddddd" points="45.72,-279.75 45.72,-463.75 84.97,-463.75 84.97,-279.75 45.72,-279.75"/>
</g>
<!-- start1&#45;&gt;Box0 -->
<g id="edge1" class="edge">
<title>start1&#45;&gt;Box0:t</title>
<path fill="none" stroke="#dddddd" d="M18.11,-371.75C23.26,-371.75 29.06,-371.75 34.76,-371.75"/>
<polygon fill="#dddddd" stroke="#dddddd" points="34.58,-375.25 44.58,-371.75 34.58,-368.25 34.58,-375.25"/>
</g>
<!-- C -->
<g id="node16" class="node">
<title>C</title>
<polygon fill="none" stroke="#dddddd" points="0.72,-318.47 0,-318.47 0,-317.03 0.72,-317.03 0.72,-318.47"/>
</g>
<!-- start1&#45;&gt;C -->
<!-- start1&#45;&gt;C -->
<!-- Box1 -->
<g id="node3" class="node">
<title>Box1</title>
<polygon fill="#333333" stroke="none" points="145.22,-341 145.22,-412.5 184.47,-412.5 184.47,-341 145.22,-341"/>
<text text-anchor="start" x="150.22" y="-394.2" font-family="Times,serif" font-size="14.00" fill="#dddddd">Box1</text>
<polygon fill="#333333" stroke="none" points="148.22,-366.5 148.22,-387 181.47,-387 181.47,-366.5 148.22,-366.5"/>
<text text-anchor="start" x="158.47" y="-371.7" font-family="Times,serif" font-size="14.00" fill="#dddddd">S₁</text>
<polygon fill="#555555" stroke="none" points="148.22,-344 148.22,-364.5 181.47,-364.5 181.47,-344 148.22,-344"/>
<text text-anchor="start" x="155.47" y="-349.2" font-family="Times,serif" font-size="14.00" fill="#dddddd">E₂₁</text>
<polygon fill="none" stroke="#dddddd" points="145.22,-341 145.22,-412.5 184.47,-412.5 184.47,-341 145.22,-341"/>
</g>
<!-- Box0&#45;&gt;Box1 -->
<g id="edge2" class="edge">
<title>Box0:t&#45;&gt;Box1:t</title>
<path fill="none" stroke="#dddddd" d="M84.68,-372.69C98.62,-373.41 118.08,-374.4 134.22,-375.23"/>
<polygon fill="#dddddd" stroke="#dddddd" points="133.58,-378.7 143.75,-375.72 133.94,-371.71 133.58,-378.7"/>
<text text-anchor="middle" x="115.1" y="-377.6" font-family="Times,serif" font-size="14.00" fill="#dddddd">E</text>
</g>
<!-- Box2 -->
<g id="node4" class="node">
<title>Box2</title>
<polygon fill="#333333" stroke="none" points="145.22,-112 145.22,-183.5 184.47,-183.5 184.47,-112 145.22,-112"/>
<text text-anchor="start" x="150.22" y="-165.2" font-family="Times,serif" font-size="14.00" fill="#dddddd">Box2</text>
<polygon fill="#777777" stroke="none" points="148.22,-137.5 148.22,-158 181.47,-158 181.47,-137.5 148.22,-137.5"/>
<text text-anchor="start" x="158.1" y="-142.7" font-family="Times,serif" font-size="14.00" fill="#dddddd">E₃</text>
<polygon fill="#999999" stroke="none" points="148.22,-115 148.22,-135.5 181.47,-135.5 181.47,-115 148.22,-115"/>
<text text-anchor="start" x="155.47" y="-120.2" font-family="Times,serif" font-size="14.00" fill="#333333">T₄₁</text>
<polygon fill="none" stroke="#dddddd" points="145.22,-112 145.22,-183.5 184.47,-183.5 184.47,-112 145.22,-112"/>
</g>
<!-- Box0&#45;&gt;Box2 -->
<g id="edge3" class="edge">
<title>Box0:t&#45;&gt;Box2:t</title>
<path fill="none" stroke="#dddddd" d="M84.87,-332.55C95.21,-310.4 108.19,-282.15 119.22,-256.75 128.16,-236.18 137.63,-213.22 145.53,-193.71"/>
<polygon fill="#dddddd" stroke="#dddddd" points="148.69,-195.24 149.19,-184.66 142.2,-192.62 148.69,-195.24"/>
<text text-anchor="middle" x="115.1" y="-275.71" font-family="Times,serif" font-size="14.00" fill="#dddddd">T</text>
</g>
<!-- Box3 -->
<g id="node5" class="node">
<title>Box3</title>
<polygon fill="#333333" stroke="none" points="244.72,-456.25 244.72,-505.25 283.97,-505.25 283.97,-456.25 244.72,-456.25"/>
<text text-anchor="start" x="249.72" y="-486.95" font-family="Times,serif" font-size="14.00" fill="#dddddd">Box3</text>
<polygon fill="#bbbbbb" stroke="none" points="247.72,-459.25 247.72,-479.75 280.97,-479.75 280.97,-459.25 247.72,-459.25"/>
<text text-anchor="start" x="257.6" y="-464.45" font-family="Times,serif" font-size="14.00" fill="#333333">T₅</text>
<polygon fill="none" stroke="#dddddd" points="244.72,-456.25 244.72,-505.25 283.97,-505.25 283.97,-456.25 244.72,-456.25"/>
</g>
<!-- Box0&#45;&gt;Box3 -->
<g id="edge4" class="edge">
<title>Box0:t&#45;&gt;Box3:t</title>
<path fill="none" stroke="#dddddd" d="M84.72,-387.72C98.54,-399.23 118.28,-414.62 137.22,-425.75 168.98,-444.41 208.23,-460.54 234.43,-470.42"/>
<polygon fill="#dddddd" stroke="#dddddd" points="233.13,-473.67 243.72,-473.86 235.56,-467.11 233.13,-473.67"/>
<text text-anchor="middle" x="155.7" y="-425.51" font-family="Times,serif" font-size="14.00" fill="#dddddd"> F</text>
</g>
<!-- Box4 -->
<g id="node6" class="node">
<title>Box4</title>
<polygon fill="#333333" stroke="none" points="145.22,-248.25 145.22,-297.25 184.47,-297.25 184.47,-248.25 145.22,-248.25"/>
<text text-anchor="start" x="150.22" y="-278.95" font-family="Times,serif" font-size="14.00" fill="#dddddd">Box4</text>
<polygon fill="#dddddd" stroke="none" points="148.22,-251.25 148.22,-271.75 181.47,-271.75 181.47,-251.25 148.22,-251.25"/>
<text text-anchor="start" x="158.1" y="-256.45" font-family="Times,serif" font-size="14.00" fill="#333333">T₆</text>
<polygon fill="none" stroke="#dddddd" points="145.22,-248.25 145.22,-297.25 184.47,-297.25 184.47,-248.25 145.22,-248.25"/>
</g>
<!-- Box0&#45;&gt;Box4 -->
<g id="edge5" class="edge">
<title>Box0:t&#45;&gt;Box4:t</title>
<path fill="none" stroke="#dddddd" d="M84.68,-353.13C99.57,-338.01 120.75,-316.51 137.46,-299.54"/>
<polygon fill="#dddddd" stroke="#dddddd" points="139.67,-302.28 144.19,-292.7 134.68,-297.37 139.67,-302.28"/>
<text text-anchor="middle" x="115.1" y="-328.42" font-family="Times,serif" font-size="14.00" fill="#dddddd">a</text>
</g>
<!-- Box5 -->
<g id="node7" class="node">
<title>Box5</title>
<polygon fill="#333333" stroke="none" points="45.72,-51.75 45.72,-235.75 84.97,-235.75 84.97,-51.75 45.72,-51.75"/>
<text text-anchor="start" x="50.72" y="-217.45" font-family="Times,serif" font-size="14.00" fill="#dddddd">Box5</text>
<polygon fill="#555555" stroke="none" points="48.72,-189.75 48.72,-210.25 81.97,-210.25 81.97,-189.75 48.72,-189.75"/>
<text text-anchor="start" x="55.97" y="-194.95" font-family="Times,serif" font-size="14.00" fill="#dddddd">E₂₀</text>
<polygon fill="#777777" stroke="none" points="48.72,-167.25 48.72,-187.75 81.97,-187.75 81.97,-167.25 48.72,-167.25"/>
<text text-anchor="start" x="55.97" y="-172.45" font-family="Times,serif" font-size="14.00" fill="#dddddd">E₃₀</text>
<polygon fill="#999999" stroke="none" points="48.72,-144.75 48.72,-165.25 81.97,-165.25 81.97,-144.75 48.72,-144.75"/>
<text text-anchor="start" x="55.97" y="-149.95" font-family="Times,serif" font-size="14.00" fill="#333333">T₄₀</text>
<polygon fill="#bbbbbb" stroke="none" points="48.72,-122.25 48.72,-142.75 81.97,-142.75 81.97,-122.25 48.72,-122.25"/>
<text text-anchor="start" x="55.97" y="-127.45" font-family="Times,serif" font-size="14.00" fill="#333333">T₅₀</text>
<polygon fill="#dddddd" stroke="none" points="48.72,-99.75 48.72,-120.25 81.97,-120.25 81.97,-99.75 48.72,-99.75"/>
<text text-anchor="start" x="56.35" y="-104.95" font-family="Times,serif" font-size="14.00" fill="#333333">F₆₀</text>
<polygon fill="#ffffff" stroke="none" points="48.72,-77.25 48.72,-97.75 81.97,-97.75 81.97,-77.25 48.72,-77.25"/>
<text text-anchor="start" x="56.35" y="-82.45" font-family="Times,serif" font-size="14.00" fill="#333333">F₇₀</text>
<polygon fill="#ffffff" stroke="none" points="48.72,-54.75 48.72,-75.25 81.97,-75.25 81.97,-54.75 48.72,-54.75"/>
<text text-anchor="start" x="56.35" y="-59.95" font-family="Times,serif" font-size="14.00" fill="#333333">F₇₁</text>
<polygon fill="none" stroke="#dddddd" points="45.72,-51.75 45.72,-235.75 84.97,-235.75 84.97,-51.75 45.72,-51.75"/>
</g>
<!-- Box0&#45;&gt;Box5 -->
<g id="edge6" class="edge">
<title>Box0:t&#45;&gt;Box5:t</title>
<path fill="none" stroke="#dddddd" d="M40.74,-186.67C30.04,-209.7 20.92,-238.99 25.85,-266 29.77,-287.51 37.87,-310.34 45.72,-329.18"/>
<polygon fill="#dddddd" stroke="#dddddd" points="43.78,-188.44 45.06,-177.92 37.5,-185.34 43.78,-188.44"/>
<text text-anchor="middle" x="28.1" y="-252.7" font-family="Times,serif" font-size="14.00" fill="#dddddd">(</text>
</g>
<!-- Box0&#45;&gt;Box5 -->
<!-- Box1&#45;&gt;Box4 -->
<!-- Box6 -->
<g id="node8" class="node">
<title>Box6</title>
<polygon fill="#333333" stroke="none" points="244.72,-273.25 244.72,-412.25 283.97,-412.25 283.97,-273.25 244.72,-273.25"/>
<text text-anchor="start" x="249.72" y="-393.95" font-family="Times,serif" font-size="14.00" fill="#dddddd">Box6</text>
<polygon fill="#555555" stroke="none" points="247.72,-366.25 247.72,-386.75 280.97,-386.75 280.97,-366.25 247.72,-366.25"/>
<text text-anchor="start" x="254.97" y="-371.45" font-family="Times,serif" font-size="14.00" fill="#dddddd">E₂₂</text>
<polygon fill="#999999" stroke="none" points="247.72,-343.75 247.72,-364.25 280.97,-364.25 280.97,-343.75 247.72,-343.75"/>
<text text-anchor="start" x="254.97" y="-348.95" font-family="Times,serif" font-size="14.00" fill="#333333">T₄₀</text>
<polygon fill="#bbbbbb" stroke="none" points="247.72,-321.25 247.72,-341.75 280.97,-341.75 280.97,-321.25 247.72,-321.25"/>
<text text-anchor="start" x="254.97" y="-326.45" font-family="Times,serif" font-size="14.00" fill="#333333">T₅₀</text>
<polygon fill="#dddddd" stroke="none" points="247.72,-298.75 247.72,-319.25 280.97,-319.25 280.97,-298.75 247.72,-298.75"/>
<text text-anchor="start" x="255.35" y="-303.95" font-family="Times,serif" font-size="14.00" fill="#333333">F₆₀</text>
<polygon fill="#ffffff" stroke="none" points="247.72,-276.25 247.72,-296.75 280.97,-296.75 280.97,-276.25 247.72,-276.25"/>
<text text-anchor="start" x="255.35" y="-281.45" font-family="Times,serif" font-size="14.00" fill="#333333">F₇₀</text>
<polygon fill="none" stroke="#dddddd" points="244.72,-273.25 244.72,-412.25 283.97,-412.25 283.97,-273.25 244.72,-273.25"/>
</g>
<!-- Box1&#45;&gt;Box6 -->
<g id="edge7" class="edge">
<title>Box1:t&#45;&gt;Box6:t</title>
<path fill="none" stroke="#dddddd" d="M184.18,-370.35C198.26,-365.45 217.96,-358.58 234.19,-352.92"/>
<polygon fill="#dddddd" stroke="#dddddd" points="235.04,-356.33 243.33,-349.73 232.73,-349.72 235.04,-356.33"/>
<text text-anchor="middle" x="214.6" y="-363.97" font-family="Times,serif" font-size="14.00" fill="#dddddd">+</text>
</g>
<!-- Box7 -->
<g id="node9" class="node">
<title>Box7</title>
<polygon fill="#333333" stroke="none" points="344.22,-118.75 344.22,-212.75 383.47,-212.75 383.47,-118.75 344.22,-118.75"/>
<text text-anchor="start" x="349.22" y="-194.45" font-family="Times,serif" font-size="14.00" fill="#dddddd">Box7</text>
<polygon fill="#999999" stroke="none" points="347.22,-166.75 347.22,-187.25 380.47,-187.25 380.47,-166.75 347.22,-166.75"/>
<text text-anchor="start" x="354.47" y="-171.95" font-family="Times,serif" font-size="14.00" fill="#333333">T₄₂</text>
<polygon fill="#dddddd" stroke="none" points="347.22,-144.25 347.22,-164.75 380.47,-164.75 380.47,-144.25 347.22,-144.25"/>
<text text-anchor="start" x="354.85" y="-149.45" font-family="Times,serif" font-size="14.00" fill="#333333">F₆₀</text>
<polygon fill="#ffffff" stroke="none" points="347.22,-121.75 347.22,-142.25 380.47,-142.25 380.47,-121.75 347.22,-121.75"/>
<text text-anchor="start" x="354.85" y="-126.95" font-family="Times,serif" font-size="14.00" fill="#333333">F₇₀</text>
<polygon fill="none" stroke="#dddddd" points="344.22,-118.75 344.22,-212.75 383.47,-212.75 383.47,-118.75 344.22,-118.75"/>
</g>
<!-- Box2&#45;&gt;Box7 -->
<g id="edge8" class="edge">
<title>Box2:t&#45;&gt;Box7:t</title>
<path fill="none" stroke="#dddddd" d="M184.38,-149.44C218.57,-152.57 291.82,-159.26 333.05,-163.03"/>
<polygon fill="#dddddd" stroke="#dddddd" points="332.72,-166.51 343,-163.94 333.36,-159.54 332.72,-166.51"/>
<text text-anchor="middle" x="264.35" y="-162.32" font-family="Times,serif" font-size="14.00" fill="#dddddd">*</text>
</g>
<!-- Box3&#45;&gt;Box6 -->
<!-- Box4&#45;&gt;Box2 -->
<!-- Box5&#45;&gt;Box2 -->
<g id="edge9" class="edge">
<title>Box5:t&#45;&gt;Box2:t</title>
<path fill="none" stroke="#dddddd" d="M84.68,-144.5C98.62,-145.07 118.08,-145.87 134.22,-146.53"/>
<polygon fill="#dddddd" stroke="#dddddd" points="133.61,-150.01 143.74,-146.93 133.9,-143.02 133.61,-150.01"/>
<text text-anchor="middle" x="115.1" y="-149.07" font-family="Times,serif" font-size="14.00" fill="#dddddd">T</text>
</g>
<!-- Box5&#45;&gt;Box4 -->
<g id="edge15" class="edge">
<title>Box5:t&#45;&gt;Box4:t</title>
<path fill="none" stroke="#dddddd" d="M84.77,-185.83C91.92,-199.87 100.83,-215.14 110.97,-227.75 118.31,-236.88 127.7,-245.57 136.53,-252.83"/>
<polygon fill="#dddddd" stroke="#dddddd" points="134.21,-255.46 144.22,-258.91 138.54,-249.96 134.21,-255.46"/>
<text text-anchor="middle" x="115.1" y="-239.44" font-family="Times,serif" font-size="14.00" fill="#dddddd">a</text>
</g>
<!-- Box5&#45;&gt;Box5 -->
<g id="edge17" class="edge">
<title>Box5:s&#45;&gt;Box5:s</title>
<path fill="none" stroke="#dddddd" d="M65.35,-51.75C53.81,-41.75 53.81,-29.75 65.35,-29.75 73.63,-29.75 75.96,-35.95 72.34,-43.15"/>
<polygon fill="#dddddd" stroke="#dddddd" points="69.89,-40.61 66.3,-50.58 75.32,-45.02 69.89,-40.61"/>
<text text-anchor="middle" x="65.35" y="-16.45" font-family="Times,serif" font-size="14.00" fill="#dddddd">(</text>
</g>
<!-- Box8 -->
<g id="node10" class="node">
<title>Box8</title>
<polygon fill="#333333" stroke="none" points="344.22,-4 344.22,-75.5 383.47,-75.5 383.47,-4 344.22,-4"/>
<text text-anchor="start" x="349.22" y="-57.2" font-family="Times,serif" font-size="14.00" fill="#dddddd">Box8</text>
<polygon fill="#555555" stroke="none" points="347.22,-29.5 347.22,-50 380.47,-50 380.47,-29.5 347.22,-29.5"/>
<text text-anchor="start" x="354.47" y="-34.7" font-family="Times,serif" font-size="14.00" fill="#dddddd">E₂₁</text>
<polygon fill="#ffffff" stroke="none" points="347.22,-7 347.22,-27.5 380.47,-27.5 380.47,-7 347.22,-7"/>
<text text-anchor="start" x="354.85" y="-12.2" font-family="Times,serif" font-size="14.00" fill="#333333">F₇₂</text>
<polygon fill="none" stroke="#dddddd" points="344.22,-4 344.22,-75.5 383.47,-75.5 383.47,-4 344.22,-4"/>
</g>
<!-- Box5&#45;&gt;Box8 -->
<g id="edge16" class="edge">
<title>Box5:t&#45;&gt;Box8:t</title>
<path fill="none" stroke="#dddddd" d="M84.61,-123.72C92.24,-116.15 101.51,-107.89 110.97,-101.75 121.58,-94.86 125.17,-94.6 137.22,-90.75 206.1,-68.72 289.71,-52.45 333.25,-44.73"/>
<polygon fill="#dddddd" stroke="#dddddd" points="333.68,-48.21 342.93,-43.05 332.48,-41.32 333.68,-48.21"/>
<text text-anchor="middle" x="214.6" y="-73.06" font-family="Times,serif" font-size="14.00" fill="#dddddd">E</text>
</g>
<!-- B -->
<g id="node15" class="node">
<title>B</title>
<polygon fill="none" stroke="#dddddd" points="0.72,-144.47 0,-144.47 0,-143.03 0.72,-143.03 0.72,-144.47"/>
</g>
<!-- Box5&#45;&gt;B -->
<g id="edge10" class="edge">
<title>Box5:t&#45;&gt;B:s</title>
<path fill="none" stroke="#dddddd" d="M45.84,-136.3C26.94,-129.71 0.36,-123.69 0.36,-142.03"/>
</g>
<!-- Box6&#45;&gt;Box3 -->
<g id="edge18" class="edge">
<title>Box6:t&#45;&gt;Box3:t</title>
<path fill="none" stroke="#dddddd" d="M274.86,-445.5C275.04,-444.5 275.2,-443.49 275.35,-442.5 276.76,-432.68 276.99,-422.29 276.49,-412.09"/>
<polygon fill="#dddddd" stroke="#dddddd" points="271.54,-444.33 272.71,-454.86 278.36,-445.89 271.54,-444.33"/>
<text text-anchor="middle" x="280.42" y="-429.2" font-family="Times,serif" font-size="14.00" fill="#dddddd">F</text>
</g>
<!-- Box6&#45;&gt;Box4 -->
<g id="edge19" class="edge">
<title>Box6:t&#45;&gt;Box4:t</title>
<path fill="none" stroke="#dddddd" d="M244.76,-329.4C230.21,-318.96 209.76,-304.28 193.32,-292.48"/>
<polygon fill="#dddddd" stroke="#dddddd" points="195.58,-289.79 185.41,-286.8 191.5,-295.47 195.58,-289.79"/>
<text text-anchor="middle" x="214.6" y="-313.05" font-family="Times,serif" font-size="14.00" fill="#dddddd">a</text>
</g>
<!-- Box6&#45;&gt;Box5 -->
<g id="edge20" class="edge">
<title>Box6:t&#45;&gt;Box5:t</title>
<path fill="none" stroke="#dddddd" d="M244.85,-308.1C231.99,-285.91 213.42,-257.33 192.47,-235.75 171.53,-214.18 161.54,-214.42 137.22,-196.75 122.82,-186.28 106.93,-174.43 93.86,-164.6"/>
<polygon fill="#dddddd" stroke="#dddddd" points="96.19,-161.98 86.1,-158.75 91.98,-167.57 96.19,-161.98"/>
<text text-anchor="middle" x="171.87" y="-206.59" font-family="Times,serif" font-size="14.00" fill="#dddddd">(</text>
</g>
<!-- Box9 -->
<g id="node11" class="node">
<title>Box9</title>
<polygon fill="#333333" stroke="none" points="344.22,-256 344.22,-327.5 383.47,-327.5 383.47,-256 344.22,-256"/>
<text text-anchor="start" x="349.22" y="-309.2" font-family="Times,serif" font-size="14.00" fill="#dddddd">Box9</text>
<polygon fill="#555555" stroke="none" points="347.22,-281.5 347.22,-302 380.47,-302 380.47,-281.5 347.22,-281.5"/>
<text text-anchor="start" x="357.1" y="-286.7" font-family="Times,serif" font-size="14.00" fill="#dddddd">E₂</text>
<polygon fill="#999999" stroke="none" points="347.22,-259 347.22,-279.5 380.47,-279.5 380.47,-259 347.22,-259"/>
<text text-anchor="start" x="354.47" y="-264.2" font-family="Times,serif" font-size="14.00" fill="#333333">T₄₁</text>
<polygon fill="none" stroke="#dddddd" points="344.22,-256 344.22,-327.5 383.47,-327.5 383.47,-256 344.22,-256"/>
</g>
<!-- Box6&#45;&gt;Box9 -->
<g id="edge21" class="edge">
<title>Box6:t&#45;&gt;Box9:t</title>
<path fill="none" stroke="#dddddd" d="M283.68,-333.16C297.89,-325.73 317.84,-315.29 334.16,-306.76"/>
<polygon fill="#dddddd" stroke="#dddddd" points="335.68,-309.91 342.92,-302.17 332.43,-303.71 335.68,-309.91"/>
<text text-anchor="middle" x="314.1" y="-321.98" font-family="Times,serif" font-size="14.00" fill="#dddddd">T</text>
</g>
<!-- Box7&#45;&gt;Box4 -->
<g id="edge22" class="edge">
<title>Box7:w&#45;&gt;Box4:t</title>
<path fill="none" stroke="#dddddd" d="M343.22,-165.75C334.7,-165.75 241.58,-224.39 193.79,-254.85"/>
<polygon fill="#dddddd" stroke="#dddddd" points="192.15,-251.75 185.61,-260.08 195.92,-257.65 192.15,-251.75"/>
<text text-anchor="middle" x="259.43" y="-198.36" font-family="Times,serif" font-size="14.00" fill="#dddddd">a</text>
</g>
<!-- Box7&#45;&gt;Box5 -->
<g id="edge23" class="edge">
<title>Box7:t&#45;&gt;Box5:t</title>
<path fill="none" stroke="#dddddd" d="M344.62,-155.93C314.17,-140.14 250.55,-109.76 192.47,-98.75 168.34,-94.18 160.8,-91.9 137.22,-98.75 121.61,-103.29 106.14,-112.42 93.66,-121.27"/>
<polygon fill="#dddddd" stroke="#dddddd" points="91.89,-118.23 85.96,-127.01 96.07,-123.84 91.89,-118.23"/>
<text text-anchor="middle" x="214.6" y="-108.01" font-family="Times,serif" font-size="14.00" fill="#dddddd">(</text>
</g>
<!-- Box7&#45;&gt;Box8 -->
<!-- Box10 -->
<g id="node12" class="node">
<title>Box10</title>
<polygon fill="#333333" stroke="none" points="443.72,-141.25 443.72,-190.25 489.72,-190.25 489.72,-141.25 443.72,-141.25"/>
<text text-anchor="start" x="448.72" y="-171.95" font-family="Times,serif" font-size="14.00" fill="#dddddd">Box10</text>
<polygon fill="#999999" stroke="none" points="446.72,-144.25 446.72,-164.75 486.72,-164.75 486.72,-144.25 446.72,-144.25"/>
<text text-anchor="start" x="459.97" y="-149.45" font-family="Times,serif" font-size="14.00" fill="#333333">T₄</text>
<polygon fill="none" stroke="#dddddd" points="443.72,-141.25 443.72,-190.25 489.72,-190.25 489.72,-141.25 443.72,-141.25"/>
</g>
<!-- Box7&#45;&gt;Box10 -->
<g id="edge24" class="edge">
<title>Box7:t&#45;&gt;Box10:t</title>
<path fill="none" stroke="#dddddd" d="M383.35,-165.75C397.08,-165.75 416.17,-165.75 432.52,-165.75"/>
<polygon fill="#dddddd" stroke="#dddddd" points="432.31,-169.25 442.31,-165.75 432.31,-162.25 432.31,-169.25"/>
<text text-anchor="middle" x="413.6" y="-168.95" font-family="Times,serif" font-size="14.00" fill="#dddddd">F</text>
</g>
<!-- Box11 -->
<g id="node13" class="node">
<title>Box11</title>
<polygon fill="#333333" stroke="none" points="443.72,-15.25 443.72,-64.25 489.72,-64.25 489.72,-15.25 443.72,-15.25"/>
<text text-anchor="start" x="448.72" y="-45.95" font-family="Times,serif" font-size="14.00" fill="#dddddd">Box11</text>
<polygon fill="#ffffff" stroke="none" points="446.72,-18.25 446.72,-38.75 486.72,-38.75 486.72,-18.25 446.72,-18.25"/>
<text text-anchor="start" x="460.35" y="-23.45" font-family="Times,serif" font-size="14.00" fill="#333333">F₇</text>
<polygon fill="none" stroke="#dddddd" points="443.72,-15.25 443.72,-64.25 489.72,-64.25 489.72,-15.25 443.72,-15.25"/>
</g>
<!-- Box8&#45;&gt;Box11 -->
<g id="edge27" class="edge">
<title>Box8:t&#45;&gt;Box11:t</title>
<path fill="none" stroke="#dddddd" d="M383.35,-39.75C397.08,-39.75 416.17,-39.75 432.52,-39.75"/>
<polygon fill="#dddddd" stroke="#dddddd" points="432.31,-43.25 442.31,-39.75 432.31,-36.25 432.31,-43.25"/>
<text text-anchor="middle" x="413.6" y="-42.95" font-family="Times,serif" font-size="14.00" fill="#dddddd">)</text>
</g>
<!-- A -->
<g id="node14" class="node">
<title>A</title>
<polygon fill="none" stroke="#dddddd" points="535.44,-166.47 534.72,-166.47 534.72,-165.03 535.44,-165.03 535.44,-166.47"/>
</g>
<!-- Box8&#45;&gt;A -->
<g id="edge25" class="edge">
<title>Box8:t&#45;&gt;A:s</title>
<path fill="none" stroke="#dddddd" d="M383.39,-50.94C427.51,-77.86 535.08,-145.41 535.08,-164.03"/>
</g>
<!-- Box9&#45;&gt;Box7 -->
<g id="edge28" class="edge">
<title>Box9:t&#45;&gt;Box7:t</title>
<path fill="none" stroke="#dddddd" d="M337.4,-195C330.38,-204.24 323.75,-214.99 320.1,-226.12 313.75,-245.43 329.86,-264.3 344.29,-276.62"/>
<polygon fill="#dddddd" stroke="#dddddd" points="339.9,-197.47 343.49,-187.5 334.47,-193.06 339.9,-197.47"/>
<text text-anchor="middle" x="323.47" y="-229.32" font-family="Times,serif" font-size="14.00" fill="#dddddd">*</text>
</g>
<!-- Box9&#45;&gt;Box7 -->
<!-- Box10&#45;&gt;Box11 -->
<!-- Box10&#45;&gt;A -->
<!-- A&#45;&gt;Box6 -->
<g id="edge26" class="edge">
<title>A:n&#45;&gt;Box6:t</title>
<path fill="none" stroke="#dddddd" d="M535.08,-167.47C535.08,-267.49 481.65,-297.49 391.47,-340.75 360.99,-355.37 321.41,-353.09 294.79,-348.97"/>
<polygon fill="#dddddd" stroke="#dddddd" points="295.49,-345.54 285.04,-347.26 294.29,-352.43 295.49,-345.54"/>
<text text-anchor="middle" x="413.6" y="-335.13" font-family="Times,serif" font-size="14.00" fill="#dddddd">+</text>
</g>
<!-- B&#45;&gt;Box5 -->
<!-- B&#45;&gt;C -->
<g id="edge11" class="edge">
<title>B:n&#45;&gt;C:s</title>
<path fill="none" stroke="#dddddd" d="M0.36,-317.03C0.36,-240.34 0.36,-221.16 0.36,-144.47"/>
</g>
<!-- C&#45;&gt;B -->
<!-- D -->
<g id="node17" class="node">
<title>D</title>
<polygon fill="none" stroke="#dddddd" points="65.71,-504.47 64.99,-504.47 64.99,-503.03 65.71,-503.03 65.71,-504.47"/>
</g>
<!-- C&#45;&gt;D -->
<g id="edge12" class="edge">
<title>C:n&#45;&gt;D:w</title>
<path fill="none" stroke="#dddddd" d="M0.36,-319.47C0.36,-362.79 20.66,-503.75 63.99,-503.75"/>
</g>
<!-- D&#45;&gt;Box0 -->
<!-- D&#45;&gt;Box3 -->
<g id="edge13" class="edge">
<title>D:e&#45;&gt;Box3:t</title>
<path fill="none" stroke="#dddddd" d="M66.71,-503.75C126.23,-503.75 195.2,-493.23 233.6,-486.41"/>
<polygon fill="#dddddd" stroke="#dddddd" points="234.02,-489.9 243.23,-484.67 232.77,-483.01 234.02,-489.9"/>
<text text-anchor="middle" x="164.85" y="-502.92" font-family="Times,serif" font-size="14.00" fill="#dddddd">F</text>
</g>
</g>
</svg>
