<?xml version="1.0" encoding="UTF-8" standalone="no"?>
<!DOCTYPE svg PUBLIC "-//W3C//DTD SVG 1.1//EN"
 "http://www.w3.org/Graphics/SVG/1.1/DTD/svg11.dtd">
<!-- Generated by graphviz version 11.0.0 (0)
 -->
<!-- Pages: 1 -->
<svg width="542pt" height="516pt"
 viewBox="0.00 0.00 542.44 516.25" xmlns="http://www.w3.org/2000/svg" xmlns:xlink="http://www.w3.org/1999/xlink">
<g id="graph0" class="graph" transform="scale(1 1) rotate(0) translate(4 512.25)">
<!-- start1 -->
<g id="node1" class="node">
<title>start1</title>
</g>
<!-- Box0 -->
<g id="node2" class="node">
<title>Box0</title>
<polygon fill="#333333" stroke="none" points="44.72,-270.75 44.72,-454.75 83.97,-454.75 83.97,-270.75 44.72,-270.75"/>
<text text-anchor="start" x="49.72" y="-436.45" font-family="Times,serif" font-size="14.00" fill="#dddddd">Box0</text>
<polygon fill="#333333" stroke="none" points="47.72,-408.75 47.72,-429.25 80.97,-429.25 80.97,-408.75 47.72,-408.75"/>
<text text-anchor="start" x="55.35" y="-413.95" font-family="Times,serif" font-size="14.00" fill="#dddddd">S₁₀</text>
<polygon fill="#555555" stroke="none" points="47.72,-386.25 47.72,-406.75 80.97,-406.75 80.97,-386.25 47.72,-386.25"/>
<text text-anchor="start" x="54.97" y="-391.45" font-family="Times,serif" font-size="14.00" fill="#dddddd">E₂₀</text>
<polygon fill="#777777" stroke="none" points="47.72,-363.75 47.72,-384.25 80.97,-384.25 80.97,-363.75 47.72,-363.75"/>
<text text-anchor="start" x="54.97" y="-368.95" font-family="Times,serif" font-size="14.00" fill="#dddddd">E₃₀</text>
<polygon fill="#999999" stroke="none" points="47.72,-341.25 47.72,-361.75 80.97,-361.75 80.97,-341.25 47.72,-341.25"/>
<text text-anchor="start" x="54.97" y="-346.45" font-family="Times,serif" font-size="14.00" fill="#333333">T₄₀</text>
<polygon fill="#bbbbbb" stroke="none" points="47.72,-318.75 47.72,-339.25 80.97,-339.25 80.97,-318.75 47.72,-318.75"/>
<text text-anchor="start" x="54.97" y="-323.95" font-family="Times,serif" font-size="14.00" fill="#333333">T₅₀</text>
<polygon fill="#dddddd" stroke="none" points="47.72,-296.25 47.72,-316.75 80.97,-316.75 80.97,-296.25 47.72,-296.25"/>
<text text-anchor="start" x="55.35" y="-301.45" font-family="Times,serif" font-size="14.00" fill="#333333">F₆₀</text>
<polygon fill="#ffffff" stroke="none" points="47.72,-273.75 47.72,-294.25 80.97,-294.25 80.97,-273.75 47.72,-273.75"/>
<text text-anchor="start" x="55.35" y="-278.95" font-family="Times,serif" font-size="14.00" fill="#333333">F₇₀</text>
<polygon fill="none" stroke="#dddddd" points="44.72,-270.75 44.72,-454.75 83.97,-454.75 83.97,-270.75 44.72,-270.75"/>
</g>
<!-- start1&#45;&gt;Box0 -->
<g id="edge1" class="edge">
<title>start1&#45;&gt;Box0:t</title>
<path fill="none" stroke="#dddddd" d="M18.16,-362.75C23.02,-362.75 28.43,-362.75 33.77,-362.75"/>
<polygon fill="#dddddd" stroke="#dddddd" points="33.61,-366.25 43.61,-362.75 33.61,-359.25 33.61,-366.25"/>
</g>
<!-- C -->
<g id="node16" class="node">
<title>C</title>
<polygon fill="none" stroke="#dddddd" points="0.72,-309.47 0,-309.47 0,-308.03 0.72,-308.03 0.72,-309.47"/>
</g>
<!-- start1&#45;&gt;C -->
<!-- start1&#45;&gt;C -->
<!-- Box1 -->
<g id="node3" class="node">
<title>Box1</title>
<polygon fill="#333333" stroke="none" points="144.22,-339 144.22,-410.5 183.47,-410.5 183.47,-339 144.22,-339"/>
<text text-anchor="start" x="149.22" y="-392.2" font-family="Times,serif" font-size="14.00" fill="#dddddd">Box1</text>
<polygon fill="#333333" stroke="none" points="147.22,-364.5 147.22,-385 180.47,-385 180.47,-364.5 147.22,-364.5"/>
<text text-anchor="start" x="157.47" y="-369.7" font-family="Times,serif" font-size="14.00" fill="#dddddd">S₁</text>
<polygon fill="#555555" stroke="none" points="147.22,-342 147.22,-362.5 180.47,-362.5 180.47,-342 147.22,-342"/>
<text text-anchor="start" x="154.47" y="-347.2" font-family="Times,serif" font-size="14.00" fill="#dddddd">E₂₁</text>
<polygon fill="none" stroke="#dddddd" points="144.22,-339 144.22,-410.5 183.47,-410.5 183.47,-339 144.22,-339"/>
</g>
<!-- Box0&#45;&gt;Box1 -->
<g id="edge2" class="edge">
<title>Box0:t&#45;&gt;Box1:t</title>
<path fill="none" stroke="#dddddd" d="M83.68,-365.01C97.62,-366.72 117.08,-369.12 133.22,-371.1"/>
<polygon fill="#dddddd" stroke="#dddddd" points="132.4,-374.53 142.75,-372.28 133.26,-367.58 132.4,-374.53"/>
<text text-anchor="middle" x="114.1" y="-371.95" font-family="Times,serif" font-size="14.00" fill="#dddddd">E</text>
</g>
<!-- Box2 -->
<g id="node4" class="node">
<title>Box2</title>
<polygon fill="#333333" stroke="none" points="144.22,-112 144.22,-183.5 183.47,-183.5 183.47,-112 144.22,-112"/>
<text text-anchor="start" x="149.22" y="-165.2" font-family="Times,serif" font-size="14.00" fill="#dddddd">Box2</text>
<polygon fill="#777777" stroke="none" points="147.22,-137.5 147.22,-158 180.47,-158 180.47,-137.5 147.22,-137.5"/>
<text text-anchor="start" x="157.1" y="-142.7" font-family="Times,serif" font-size="14.00" fill="#dddddd">E₃</text>
<polygon fill="#999999" stroke="none" points="147.22,-115 147.22,-135.5 180.47,-135.5 180.47,-115 147.22,-115"/>
<text text-anchor="start" x="154.47" y="-120.2" font-family="Times,serif" font-size="14.00" fill="#333333">T₄₁</text>
<polygon fill="none" stroke="#dddddd" points="144.22,-112 144.22,-183.5 183.47,-183.5 183.47,-112 144.22,-112"/>
</g>
<!-- Box0&#45;&gt;Box2 -->
<g id="edge3" class="edge">
<title>Box0:t&#45;&gt;Box2:t</title>
<path fill="none" stroke="#dddddd" d="M83.94,-319.13C97.95,-286.61 117.83,-241.19 136.22,-201.75 137.48,-199.05 138.79,-196.27 140.13,-193.48"/>
<polygon fill="#dddddd" stroke="#dddddd" points="143.15,-195.26 144.35,-184.74 136.85,-192.22 143.15,-195.26"/>
<text text-anchor="middle" x="114.1" y="-261.95" font-family="Times,serif" font-size="14.00" fill="#dddddd">T</text>
</g>
<!-- Box3 -->
<g id="node5" class="node">
<title>Box3</title>
<polygon fill="#333333" stroke="none" points="243.72,-454.25 243.72,-503.25 282.97,-503.25 282.97,-454.25 243.72,-454.25"/>
<text text-anchor="start" x="248.72" y="-484.95" font-family="Times,serif" font-size="14.00" fill="#dddddd">Box3</text>
<polygon fill="#bbbbbb" stroke="none" points="246.72,-457.25 246.72,-477.75 279.97,-477.75 279.97,-457.25 246.72,-457.25"/>
<text text-anchor="start" x="256.6" y="-462.45" font-family="Times,serif" font-size="14.00" fill="#333333">T₅</text>
<polygon fill="none" stroke="#dddddd" points="243.72,-454.25 243.72,-503.25 282.97,-503.25 282.97,-454.25 243.72,-454.25"/>
</g>
<!-- Box0&#45;&gt;Box3 -->
<g id="edge4" class="edge">
<title>Box0:t&#45;&gt;Box3:t</title>
<path fill="none" stroke="#dddddd" d="M83.96,-381.53C97.58,-394.55 116.97,-411.66 136.22,-423.75 167.41,-443.34 206.78,-459.29 233.16,-468.87"/>
<polygon fill="#dddddd" stroke="#dddddd" points="231.93,-472.15 242.53,-472.19 234.27,-465.55 231.93,-472.15"/>
<text text-anchor="middle" x="153.2" y="-423.38" font-family="Times,serif" font-size="14.00" fill="#dddddd"> F</text>
</g>
<!-- Box4 -->
<g id="node6" class="node">
<title>Box4</title>
<polygon fill="#333333" stroke="none" points="144.22,-246.25 144.22,-295.25 183.47,-295.25 183.47,-246.25 144.22,-246.25"/>
<text text-anchor="start" x="149.22" y="-276.95" font-family="Times,serif" font-size="14.00" fill="#dddddd">Box4</text>
<polygon fill="#dddddd" stroke="none" points="147.22,-249.25 147.22,-269.75 180.47,-269.75 180.47,-249.25 147.22,-249.25"/>
<text text-anchor="start" x="157.1" y="-254.45" font-family="Times,serif" font-size="14.00" fill="#333333">T₆</text>
<polygon fill="none" stroke="#dddddd" points="144.22,-246.25 144.22,-295.25 183.47,-295.25 183.47,-246.25 144.22,-246.25"/>
</g>
<!-- Box0&#45;&gt;Box4 -->
<g id="edge5" class="edge">
<title>Box0:t&#45;&gt;Box4:t</title>
<path fill="none" stroke="#dddddd" d="M83.68,-345.45C98.43,-331.53 119.37,-311.77 136,-296.08"/>
<polygon fill="#dddddd" stroke="#dddddd" points="138.28,-298.74 143.16,-289.33 133.48,-293.65 138.28,-298.74"/>
<text text-anchor="middle" x="114.1" y="-321.95" font-family="Times,serif" font-size="14.00" fill="#dddddd">a</text>
</g>
<!-- Box5 -->
<g id="node7" class="node">
<title>Box5</title>
<polygon fill="#333333" stroke="none" points="44.72,-42.75 44.72,-226.75 83.97,-226.75 83.97,-42.75 44.72,-42.75"/>
<text text-anchor="start" x="49.72" y="-208.45" font-family="Times,serif" font-size="14.00" fill="#dddddd">Box5</text>
<polygon fill="#555555" stroke="none" points="47.72,-180.75 47.72,-201.25 80.97,-201.25 80.97,-180.75 47.72,-180.75"/>
<text text-anchor="start" x="54.97" y="-185.95" font-family="Times,serif" font-size="14.00" fill="#dddddd">E₂₀</text>
<polygon fill="#777777" stroke="none" points="47.72,-158.25 47.72,-178.75 80.97,-178.75 80.97,-158.25 47.72,-158.25"/>
<text text-anchor="start" x="54.97" y="-163.45" font-family="Times,serif" font-size="14.00" fill="#dddddd">E₃₀</text>
<polygon fill="#999999" stroke="none" points="47.72,-135.75 47.72,-156.25 80.97,-156.25 80.97,-135.75 47.72,-135.75"/>
<text text-anchor="start" x="54.97" y="-140.95" font-family="Times,serif" font-size="14.00" fill="#333333">T₄₀</text>
<polygon fill="#bbbbbb" stroke="none" points="47.72,-113.25 47.72,-133.75 80.97,-133.75 80.97,-113.25 47.72,-113.25"/>
<text text-anchor="start" x="54.97" y="-118.45" font-family="Times,serif" font-size="14.00" fill="#333333">T₅₀</text>
<polygon fill="#dddddd" stroke="none" points="47.72,-90.75 47.72,-111.25 80.97,-111.25 80.97,-90.75 47.72,-90.75"/>
<text text-anchor="start" x="55.35" y="-95.95" font-family="Times,serif" font-size="14.00" fill="#333333">F₆₀</text>
<polygon fill="#ffffff" stroke="none" points="47.72,-68.25 47.72,-88.75 80.97,-88.75 80.97,-68.25 47.72,-68.25"/>
<text text-anchor="start" x="55.35" y="-73.45" font-family="Times,serif" font-size="14.00" fill="#333333">F₇₀</text>
<polygon fill="#ffffff" stroke="none" points="47.72,-45.75 47.72,-66.25 80.97,-66.25 80.97,-45.75 47.72,-45.75"/>
<text text-anchor="start" x="55.35" y="-50.95" font-family="Times,serif" font-size="14.00" fill="#333333">F₇₁</text>
<polygon fill="none" stroke="#dddddd" points="44.72,-42.75 44.72,-226.75 83.97,-226.75 83.97,-42.75 44.72,-42.75"/>
</g>
<!-- Box0&#45;&gt;Box5 -->
<g id="edge6" class="edge">
<title>Box0:t&#45;&gt;Box5:t</title>
<path fill="none" stroke="#dddddd" d="M38.98,-172.08C25.45,-195.72 12.72,-227.53 18.85,-257 23.89,-281.27 34.85,-306.81 44.76,-326.6"/>
<polygon fill="#dddddd" stroke="#dddddd" points="41.82,-174.15 43.99,-163.78 35.83,-170.53 41.82,-174.15"/>
<text text-anchor="middle" x="21.6" y="-243.7" font-family="Times,serif" font-size="14.00" fill="#dddddd">(</text>
</g>
<!-- Box0&#45;&gt;Box5 -->
<!-- Box1&#45;&gt;Box4 -->
<!-- Box6 -->
<g id="node8" class="node">
<title>Box6</title>
<polygon fill="#333333" stroke="none" points="243.72,-271.25 243.72,-410.25 282.97,-410.25 282.97,-271.25 243.72,-271.25"/>
<text text-anchor="start" x="248.72" y="-391.95" font-family="Times,serif" font-size="14.00" fill="#dddddd">Box6</text>
<polygon fill="#555555" stroke="none" points="246.72,-364.25 246.72,-384.75 279.97,-384.75 279.97,-364.25 246.72,-364.25"/>
<text text-anchor="start" x="253.97" y="-369.45" font-family="Times,serif" font-size="14.00" fill="#dddddd">E₂₂</text>
<polygon fill="#999999" stroke="none" points="246.72,-341.75 246.72,-362.25 279.97,-362.25 279.97,-341.75 246.72,-341.75"/>
<text text-anchor="start" x="253.97" y="-346.95" font-family="Times,serif" font-size="14.00" fill="#333333">T₄₀</text>
<polygon fill="#bbbbbb" stroke="none" points="246.72,-319.25 246.72,-339.75 279.97,-339.75 279.97,-319.25 246.72,-319.25"/>
<text text-anchor="start" x="253.97" y="-324.45" font-family="Times,serif" font-size="14.00" fill="#333333">T₅₀</text>
<polygon fill="#dddddd" stroke="none" points="246.72,-296.75 246.72,-317.25 279.97,-317.25 279.97,-296.75 246.72,-296.75"/>
<text text-anchor="start" x="254.35" y="-301.95" font-family="Times,serif" font-size="14.00" fill="#333333">F₆₀</text>
<polygon fill="#ffffff" stroke="none" points="246.72,-274.25 246.72,-294.75 279.97,-294.75 279.97,-274.25 246.72,-274.25"/>
<text text-anchor="start" x="254.35" y="-279.45" font-family="Times,serif" font-size="14.00" fill="#333333">F₇₀</text>
<polygon fill="none" stroke="#dddddd" points="243.72,-271.25 243.72,-410.25 282.97,-410.25 282.97,-271.25 243.72,-271.25"/>
</g>
<!-- Box1&#45;&gt;Box6 -->
<g id="edge7" class="edge">
<title>Box1:t&#45;&gt;Box6:t</title>
<path fill="none" stroke="#dddddd" d="M183.18,-368.35C197.26,-363.45 216.96,-356.58 233.19,-350.92"/>
<polygon fill="#dddddd" stroke="#dddddd" points="234.04,-354.33 242.33,-347.73 231.73,-347.72 234.04,-354.33"/>
<text text-anchor="middle" x="213.6" y="-361.95" font-family="Times,serif" font-size="14.00" fill="#dddddd">+</text>
</g>
<!-- Box7 -->
<g id="node9" class="node">
<title>Box7</title>
<polygon fill="#333333" stroke="none" points="343.22,-118.75 343.22,-212.75 382.47,-212.75 382.47,-118.75 343.22,-118.75"/>
<text text-anchor="start" x="348.22" y="-194.45" font-family="Times,serif" font-size="14.00" fill="#dddddd">Box7</text>
<polygon fill="#999999" stroke="none" points="346.22,-166.75 346.22,-187.25 379.47,-187.25 379.47,-166.75 346.22,-166.75"/>
<text text-anchor="start" x="353.47" y="-171.95" font-family="Times,serif" font-size="14.00" fill="#333333">T₄₂</text>
<polygon fill="#dddddd" stroke="none" points="346.22,-144.25 346.22,-164.75 379.47,-164.75 379.47,-144.25 346.22,-144.25"/>
<text text-anchor="start" x="353.85" y="-149.45" font-family="Times,serif" font-size="14.00" fill="#333333">F₆₀</text>
<polygon fill="#ffffff" stroke="none" points="346.22,-121.75 346.22,-142.25 379.47,-142.25 379.47,-121.75 346.22,-121.75"/>
<text text-anchor="start" x="353.85" y="-126.95" font-family="Times,serif" font-size="14.00" fill="#333333">F₇₀</text>
<polygon fill="none" stroke="#dddddd" points="343.22,-118.75 343.22,-212.75 382.47,-212.75 382.47,-118.75 343.22,-118.75"/>
</g>
<!-- Box2&#45;&gt;Box7 -->
<g id="edge8" class="edge">
<title>Box2:t&#45;&gt;Box7:t</title>
<path fill="none" stroke="#dddddd" d="M183.38,-149.44C217.57,-152.57 290.82,-159.26 332.05,-163.03"/>
<polygon fill="#dddddd" stroke="#dddddd" points="331.72,-166.51 342,-163.94 332.36,-159.54 331.72,-166.51"/>
<text text-anchor="middle" x="263.35" y="-162.95" font-family="Times,serif" font-size="14.00" fill="#dddddd">*</text>
</g>
<!-- Box3&#45;&gt;Box6 -->
<!-- Box4&#45;&gt;Box2 -->
<!-- Box5&#45;&gt;Box2 -->
<g id="edge9" class="edge">
<title>Box5:t&#45;&gt;Box2:t</title>
<path fill="none" stroke="#dddddd" d="M83.51,-135.83C93.73,-136.55 106.72,-137.67 118.22,-139.25 123.05,-139.91 128.16,-140.75 133.12,-141.65"/>
<polygon fill="#dddddd" stroke="#dddddd" points="132.28,-145.05 142.76,-143.48 133.59,-138.17 132.28,-145.05"/>
<text text-anchor="middle" x="114.1" y="-142.95" font-family="Times,serif" font-size="14.00" fill="#dddddd">T</text>
</g>
<!-- Box5&#45;&gt;Box4 -->
<g id="edge15" class="edge">
<title>Box5:t&#45;&gt;Box4:t</title>
<path fill="none" stroke="#dddddd" d="M83.81,-158.29C94.13,-171.63 107.11,-188.71 118.22,-204.25 125.77,-214.81 133.76,-226.52 140.85,-237.13"/>
<polygon fill="#dddddd" stroke="#dddddd" points="137.79,-238.85 146.24,-245.24 143.62,-234.98 137.79,-238.85"/>
<text text-anchor="middle" x="114.1" y="-207.95" font-family="Times,serif" font-size="14.00" fill="#dddddd">a</text>
</g>
<!-- Box5&#45;&gt;Box5 -->
<g id="edge17" class="edge">
<title>Box5:s&#45;&gt;Box5:s</title>
<path fill="none" stroke="#dddddd" d="M64.35,-42.75C52.94,-32.75 52.94,-20.75 64.35,-20.75 72.54,-20.75 74.85,-26.95 71.26,-34.15"/>
<polygon fill="#dddddd" stroke="#dddddd" points="68.83,-31.58 65.29,-41.57 74.29,-35.97 68.83,-31.58"/>
<text text-anchor="middle" x="64.35" y="-7.45" font-family="Times,serif" font-size="14.00" fill="#dddddd">(</text>
</g>
<!-- Box8 -->
<g id="node10" class="node">
<title>Box8</title>
<polygon fill="#333333" stroke="none" points="343.22,-4 343.22,-75.5 382.47,-75.5 382.47,-4 343.22,-4"/>
<text text-anchor="start" x="348.22" y="-57.2" font-family="Times,serif" font-size="14.00" fill="#dddddd">Box8</text>
<polygon fill="#555555" stroke="none" points="346.22,-29.5 346.22,-50 379.47,-50 379.47,-29.5 346.22,-29.5"/>
<text text-anchor="start" x="353.47" y="-34.7" font-family="Times,serif" font-size="14.00" fill="#dddddd">E₂₁</text>
<polygon fill="#ffffff" stroke="none" points="346.22,-7 346.22,-27.5 379.47,-27.5 379.47,-7 346.22,-7"/>
<text text-anchor="start" x="353.85" y="-12.2" font-family="Times,serif" font-size="14.00" fill="#333333">F₇₂</text>
<polygon fill="none" stroke="#dddddd" points="343.22,-4 343.22,-75.5 382.47,-75.5 382.47,-4 343.22,-4"/>
</g>
<!-- Box5&#45;&gt;Box8 -->
<g id="edge16" class="edge">
<title>Box5:t&#45;&gt;Box8:t</title>
<path fill="none" stroke="#dddddd" d="M83.54,-118.77C91.3,-112.53 100.69,-105.71 109.97,-100.75 183.69,-61.37 283.04,-47.02 332.01,-42.11"/>
<polygon fill="#dddddd" stroke="#dddddd" points="332.19,-45.61 341.82,-41.2 331.54,-38.64 332.19,-45.61"/>
<text text-anchor="middle" x="213.6" y="-66.95" font-family="Times,serif" font-size="14.00" fill="#dddddd">E</text>
</g>
<!-- B -->
<g id="node15" class="node">
<title>B</title>
<polygon fill="none" stroke="#dddddd" points="0.72,-135.47 0,-135.47 0,-134.03 0.72,-134.03 0.72,-135.47"/>
</g>
<!-- Box5&#45;&gt;B -->
<g id="edge10" class="edge">
<title>Box5:t&#45;&gt;B:s</title>
<path fill="none" stroke="#dddddd" d="M44.79,-127.29C26.21,-120.84 0.36,-115.09 0.36,-133.03"/>
</g>
<!-- Box6&#45;&gt;Box3 -->
<g id="edge18" class="edge">
<title>Box6:t&#45;&gt;Box3:t</title>
<path fill="none" stroke="#dddddd" d="M264.31,-443.08C264.32,-442.21 264.33,-441.35 264.35,-440.5 264.48,-430.64 264.5,-420.23 264.45,-410.01"/>
<polygon fill="#dddddd" stroke="#dddddd" points="260.81,-442.92 264.1,-452.99 267.81,-443.07 260.81,-442.92"/>
<text text-anchor="middle" x="268.1" y="-427.2" font-family="Times,serif" font-size="14.00" fill="#dddddd">F</text>
</g>
<!-- Box6&#45;&gt;Box4 -->
<g id="edge19" class="edge">
<title>Box6:t&#45;&gt;Box4:t</title>
<path fill="none" stroke="#dddddd" d="M243.76,-327.4C229.21,-316.96 208.76,-302.28 192.32,-290.48"/>
<polygon fill="#dddddd" stroke="#dddddd" points="194.58,-287.79 184.41,-284.8 190.5,-293.47 194.58,-287.79"/>
<text text-anchor="middle" x="213.6" y="-310.95" font-family="Times,serif" font-size="14.00" fill="#dddddd">a</text>
</g>
<!-- Box6&#45;&gt;Box5 -->
<g id="edge20" class="edge">
<title>Box6:t&#45;&gt;Box5:t</title>
<path fill="none" stroke="#dddddd" d="M243.75,-305.43C230.96,-283.24 212.53,-254.92 191.47,-233.75 170.63,-212.8 159.67,-214.74 136.22,-196.75 121.15,-185.19 105.16,-171.35 92.19,-159.68"/>
<polygon fill="#dddddd" stroke="#dddddd" points="94.62,-157.16 84.86,-153.03 89.91,-162.34 94.62,-157.16"/>
<text text-anchor="middle" x="167.99" y="-203.82" font-family="Times,serif" font-size="14.00" fill="#dddddd">(</text>
</g>
<!-- Box9 -->
<g id="node11" class="node">
<title>Box9</title>
<polygon fill="#333333" stroke="none" points="343.22,-256 343.22,-327.5 382.47,-327.5 382.47,-256 343.22,-256"/>
<text text-anchor="start" x="348.22" y="-309.2" font-family="Times,serif" font-size="14.00" fill="#dddddd">Box9</text>
<polygon fill="#555555" stroke="none" points="346.22,-281.5 346.22,-302 379.47,-302 379.47,-281.5 346.22,-281.5"/>
<text text-anchor="start" x="356.1" y="-286.7" font-family="Times,serif" font-size="14.00" fill="#dddddd">E₂</text>
<polygon fill="#999999" stroke="none" points="346.22,-259 346.22,-279.5 379.47,-279.5 379.47,-259 346.22,-259"/>
<text text-anchor="start" x="353.47" y="-264.2" font-family="Times,serif" font-size="14.00" fill="#333333">T₄₁</text>
<polygon fill="none" stroke="#dddddd" points="343.22,-256 343.22,-327.5 382.47,-327.5 382.47,-256 343.22,-256"/>
</g>
<!-- Box6&#45;&gt;Box9 -->
<g id="edge21" class="edge">
<title>Box6:t&#45;&gt;Box9:t</title>
<path fill="none" stroke="#dddddd" d="M282.68,-331.53C296.89,-324.39 316.84,-314.37 333.16,-306.17"/>
<polygon fill="#dddddd" stroke="#dddddd" points="334.54,-309.39 341.9,-301.77 331.4,-303.13 334.54,-309.39"/>
<text text-anchor="middle" x="313.1" y="-319.95" font-family="Times,serif" font-size="14.00" fill="#dddddd">T</text>
</g>
<!-- Box7&#45;&gt;Box4 -->
<g id="edge22" class="edge">
<title>Box7:w&#45;&gt;Box4:t</title>
<path fill="none" stroke="#dddddd" d="M342.22,-165.75C333.74,-165.75 240.6,-223.3 192.8,-253.18"/>
<polygon fill="#dddddd" stroke="#dddddd" points="191.24,-250.03 184.62,-258.31 194.95,-255.97 191.24,-250.03"/>
<text text-anchor="middle" x="258.45" y="-197.5" font-family="Times,serif" font-size="14.00" fill="#dddddd">a</text>
</g>
<!-- Box7&#45;&gt;Box5 -->
<g id="edge23" class="edge">
<title>Box7:t&#45;&gt;Box5:t</title>
<path fill="none" stroke="#dddddd" d="M343.62,-155.93C313.17,-140.14 249.55,-109.76 191.47,-98.75 167.34,-94.18 160.1,-93.03 136.22,-98.75 121.44,-102.29 106.25,-109.45 93.75,-116.46"/>
<polygon fill="#dddddd" stroke="#dddddd" points="92.09,-113.37 85.25,-121.46 95.64,-119.4 92.09,-113.37"/>
<text text-anchor="middle" x="213.6" y="-108.95" font-family="Times,serif" font-size="14.00" fill="#dddddd">(</text>
</g>
<!-- Box7&#45;&gt;Box8 -->
<!-- Box10 -->
<g id="node12" class="node">
<title>Box10</title>
<polygon fill="#333333" stroke="none" points="442.72,-141.25 442.72,-190.25 488.72,-190.25 488.72,-141.25 442.72,-141.25"/>
<text text-anchor="start" x="447.72" y="-171.95" font-family="Times,serif" font-size="14.00" fill="#dddddd">Box10</text>
<polygon fill="#999999" stroke="none" points="445.72,-144.25 445.72,-164.75 485.72,-164.75 485.72,-144.25 445.72,-144.25"/>
<text text-anchor="start" x="458.97" y="-149.45" font-family="Times,serif" font-size="14.00" fill="#333333">T₄</text>
<polygon fill="none" stroke="#dddddd" points="442.72,-141.25 442.72,-190.25 488.72,-190.25 488.72,-141.25 442.72,-141.25"/>
</g>
<!-- Box7&#45;&gt;Box10 -->
<g id="edge24" class="edge">
<title>Box7:t&#45;&gt;Box10:t</title>
<path fill="none" stroke="#dddddd" d="M382.35,-165.75C396.08,-165.75 415.17,-165.75 431.52,-165.75"/>
<polygon fill="#dddddd" stroke="#dddddd" points="431.31,-169.25 441.31,-165.75 431.31,-162.25 431.31,-169.25"/>
<text text-anchor="middle" x="412.6" y="-168.95" font-family="Times,serif" font-size="14.00" fill="#dddddd">F</text>
</g>
<!-- Box11 -->
<g id="node13" class="node">
<title>Box11</title>
<polygon fill="#333333" stroke="none" points="442.72,-15.25 442.72,-64.25 488.72,-64.25 488.72,-15.25 442.72,-15.25"/>
<text text-anchor="start" x="447.72" y="-45.95" font-family="Times,serif" font-size="14.00" fill="#dddddd">Box11</text>
<polygon fill="#ffffff" stroke="none" points="445.72,-18.25 445.72,-38.75 485.72,-38.75 485.72,-18.25 445.72,-18.25"/>
<text text-anchor="start" x="459.35" y="-23.45" font-family="Times,serif" font-size="14.00" fill="#333333">F₇</text>
<polygon fill="none" stroke="#dddddd" points="442.72,-15.25 442.72,-64.25 488.72,-64.25 488.72,-15.25 442.72,-15.25"/>
</g>
<!-- Box8&#45;&gt;Box11 -->
<g id="edge27" class="edge">
<title>Box8:t&#45;&gt;Box11:t</title>
<path fill="none" stroke="#dddddd" d="M382.35,-39.75C396.08,-39.75 415.17,-39.75 431.52,-39.75"/>
<polygon fill="#dddddd" stroke="#dddddd" points="431.31,-43.25 441.31,-39.75 431.31,-36.25 431.31,-43.25"/>
<text text-anchor="middle" x="412.6" y="-42.95" font-family="Times,serif" font-size="14.00" fill="#dddddd">)</text>
</g>
<!-- A -->
<g id="node14" class="node">
<title>A</title>
<polygon fill="none" stroke="#dddddd" points="534.44,-166.47 533.72,-166.47 533.72,-165.03 534.44,-165.03 534.44,-166.47"/>
</g>
<!-- Box8&#45;&gt;A -->
<g id="edge25" class="edge">
<title>Box8:t&#45;&gt;A:s</title>
<path fill="none" stroke="#dddddd" d="M382.39,-50.94C426.51,-77.86 534.08,-145.41 534.08,-164.03"/>
</g>
<!-- Box9&#45;&gt;Box7 -->
<g id="edge28" class="edge">
<title>Box9:t&#45;&gt;Box7:t</title>
<path fill="none" stroke="#dddddd" d="M335.61,-191.34C326.65,-201.17 317.79,-213.22 313.1,-226.12 305.4,-247.28 326.46,-267.09 343.52,-279.06"/>
<polygon fill="#dddddd" stroke="#dddddd" points="337.9,-194 342.35,-184.39 332.87,-189.13 337.9,-194"/>
<text text-anchor="middle" x="317.22" y="-229.32" font-family="Times,serif" font-size="14.00" fill="#dddddd">*</text>
</g>
<!-- Box9&#45;&gt;Box7 -->
<!-- Box10&#45;&gt;Box11 -->
<!-- Box10&#45;&gt;A -->
<!-- A&#45;&gt;Box6 -->
<g id="edge26" class="edge">
<title>A:n&#45;&gt;Box6:t</title>
<path fill="none" stroke="#dddddd" d="M534.08,-167.47C534.08,-267.49 480.99,-298.2 390.47,-340.75 360.05,-355.05 320.77,-352.2 294.19,-347.63"/>
<polygon fill="#dddddd" stroke="#dddddd" points="294.91,-344.2 284.43,-345.75 293.59,-351.08 294.91,-344.2"/>
<text text-anchor="middle" x="412.6" y="-334.95" font-family="Times,serif" font-size="14.00" fill="#dddddd">+</text>
</g>
<!-- B&#45;&gt;Box5 -->
<!-- B&#45;&gt;C -->
<g id="edge11" class="edge">
<title>B:n&#45;&gt;C:s</title>
<path fill="none" stroke="#dddddd" d="M0.36,-308.03C0.36,-231.34 0.36,-212.16 0.36,-135.47"/>
</g>
<!-- C&#45;&gt;B -->
<!-- D -->
<g id="node17" class="node">
<title>D</title>
<polygon fill="none" stroke="#dddddd" points="64.71,-495.47 63.99,-495.47 63.99,-494.03 64.71,-494.03 64.71,-495.47"/>
</g>
<!-- C&#45;&gt;D -->
<g id="edge12" class="edge">
<title>C:n&#45;&gt;D:w</title>
<path fill="none" stroke="#dddddd" d="M0.36,-310.47C0.36,-353.72 19.73,-494.75 62.99,-494.75"/>
</g>
<!-- D&#45;&gt;Box0 -->
<!-- D&#45;&gt;Box3 -->
<g id="edge13" class="edge">
<title>D:e&#45;&gt;Box3:t</title>
<path fill="none" stroke="#dddddd" d="M65.71,-494.75C125.05,-494.75 194.13,-487.42 232.59,-482.68"/>
<polygon fill="#dddddd" stroke="#dddddd" points="232.97,-486.16 242.45,-481.44 232.09,-479.22 232.97,-486.16"/>
<text text-anchor="middle" x="163.85" y="-494.95" font-family="Times,serif" font-size="14.00" fill="#dddddd">F</text>
</g>
</g>
</svg>
