<?xml version="1.0" encoding="UTF-8" standalone="no"?>
<!DOCTYPE svg PUBLIC "-//W3C//DTD SVG 1.1//EN"
 "http://www.w3.org/Graphics/SVG/1.1/DTD/svg11.dtd">
<!-- Generated by graphviz version 11.0.0 (0)
 -->
<!-- Pages: 1 -->
<svg width="239pt" height="112pt"
 viewBox="0.00 0.00 239.02 111.80" xmlns="http://www.w3.org/2000/svg" xmlns:xlink="http://www.w3.org/1999/xlink">
<g id="graph0" class="graph" transform="scale(1 1) rotate(0) translate(4 107.8)">
<!-- start -->
<g id="node1" class="node">
<title>start</title>
</g>
<!-- q0 -->
<g id="node3" class="node">
<title>q0</title>
<ellipse fill="none" stroke="#dddddd" cx="54.72" cy="-58.4" rx="18" ry="18"/>
<text text-anchor="middle" x="54.72" y="-53.35" font-family="Times,serif" font-size="14.00" fill="#dddddd">q0</text>
</g>
<!-- start&#45;&gt;q0 -->
<g id="edge1" class="edge">
<title>start&#45;&gt;q0</title>
<path fill="none" stroke="#dddddd" d="M18.07,-58.4C20.43,-58.4 22.9,-58.4 25.39,-58.4"/>
<polygon fill="#dddddd" stroke="#dddddd" points="25.36,-61.9 35.35,-58.4 25.35,-54.9 25.36,-61.9"/>
</g>
<!-- q2 -->
<g id="node2" class="node">
<title>q2</title>
<ellipse fill="none" stroke="#dddddd" cx="212.62" cy="-85.4" rx="14.4" ry="14.4"/>
<ellipse fill="none" stroke="#dddddd" cx="212.62" cy="-85.4" rx="18.4" ry="18.4"/>
<text text-anchor="middle" x="212.62" y="-80.35" font-family="Times,serif" font-size="14.00" fill="#dddddd">q2</text>
</g>
<!-- q1 -->
<g id="node4" class="node">
<title>q1</title>
<ellipse fill="none" stroke="#dddddd" cx="133.47" cy="-85.4" rx="18" ry="18"/>
<text text-anchor="middle" x="133.47" y="-80.35" font-family="Times,serif" font-size="14.00" fill="#dddddd">q1</text>
</g>
<!-- q0&#45;&gt;q1 -->
<g id="edge2" class="edge">
<title>q0&#45;&gt;q1</title>
<path fill="none" stroke="#dddddd" d="M70.32,-67C76.46,-70.32 83.77,-73.91 90.72,-76.4 95.28,-78.03 100.22,-79.41 105.06,-80.57"/>
<polygon fill="#dddddd" stroke="#dddddd" points="103.95,-83.91 114.45,-82.56 105.39,-77.06 103.95,-83.91"/>
<text text-anchor="middle" x="94.1" y="-81.6" font-family="Times,serif" font-size="14.00" fill="#dddddd">0</text>
</g>
<!-- q4 -->
<g id="node6" class="node">
<title>q4</title>
<ellipse fill="none" stroke="#dddddd" cx="133.47" cy="-18.4" rx="18" ry="18"/>
<text text-anchor="middle" x="133.47" y="-13.35" font-family="Times,serif" font-size="14.00" fill="#dddddd">q4</text>
</g>
<!-- q0&#45;&gt;q4 -->
<g id="edge5" class="edge">
<title>q0&#45;&gt;q4</title>
<path fill="none" stroke="#dddddd" d="M68.74,-47.49C75.08,-42.56 82.99,-36.94 90.72,-32.9 95.36,-30.47 100.49,-28.31 105.52,-26.44"/>
<polygon fill="#dddddd" stroke="#dddddd" points="106.37,-29.85 114.71,-23.33 104.12,-23.22 106.37,-29.85"/>
<text text-anchor="middle" x="94.1" y="-35.6" font-family="Times,serif" font-size="14.00" fill="#dddddd">1</text>
</g>
<!-- q1&#45;&gt;q2 -->
<g id="edge4" class="edge">
<title>q1&#45;&gt;q2</title>
<path fill="none" stroke="#dddddd" d="M151.21,-85.4C160.48,-85.4 172.27,-85.4 182.96,-85.4"/>
<polygon fill="#dddddd" stroke="#dddddd" points="182.86,-88.9 192.86,-85.4 182.86,-81.9 182.86,-88.9"/>
<text text-anchor="middle" x="172.85" y="-88.6" font-family="Times,serif" font-size="14.00" fill="#dddddd">1</text>
</g>
<!-- q1&#45;&gt;q0 -->
<g id="edge3" class="edge">
<title>q1&#45;&gt;q0</title>
<path fill="none" stroke="#dddddd" d="M121.23,-72.35C114.95,-66.08 106.58,-59.23 97.47,-55.9 93.07,-54.29 88.23,-53.65 83.46,-53.6"/>
<polygon fill="#dddddd" stroke="#dddddd" points="83.25,-50.11 73.53,-54.33 83.76,-57.09 83.25,-50.11"/>
<text text-anchor="middle" x="94.1" y="-58.6" font-family="Times,serif" font-size="14.00" fill="#dddddd">0</text>
</g>
<!-- q5 -->
<g id="node5" class="node">
<title>q5</title>
<ellipse fill="none" stroke="#dddddd" cx="212.62" cy="-18.4" rx="14.4" ry="14.4"/>
<ellipse fill="none" stroke="#dddddd" cx="212.62" cy="-18.4" rx="18.4" ry="18.4"/>
<text text-anchor="middle" x="212.62" y="-13.35" font-family="Times,serif" font-size="14.00" fill="#dddddd">q5</text>
</g>
<!-- q4&#45;&gt;q5 -->
<g id="edge6" class="edge">
<title>q4&#45;&gt;q5</title>
<path fill="none" stroke="#dddddd" d="M151.21,-18.4C160.48,-18.4 172.27,-18.4 182.96,-18.4"/>
<polygon fill="#dddddd" stroke="#dddddd" points="182.86,-21.9 192.86,-18.4 182.86,-14.9 182.86,-21.9"/>
<text text-anchor="middle" x="172.85" y="-21.6" font-family="Times,serif" font-size="14.00" fill="#dddddd">0</text>
</g>
</g>
</svg>
