<?xml version="1.0" encoding="UTF-8" standalone="no"?>
<!DOCTYPE svg PUBLIC "-//W3C//DTD SVG 1.1//EN"
 "http://www.w3.org/Graphics/SVG/1.1/DTD/svg11.dtd">
<!-- Generated by graphviz version 12.1.2 (0)
 -->
<!-- Pages: 1 -->
<svg width="240pt" height="112pt"
 viewBox="0.00 0.00 240.02 111.80" xmlns="http://www.w3.org/2000/svg" xmlns:xlink="http://www.w3.org/1999/xlink">
<g id="graph0" class="graph" transform="scale(1 1) rotate(0) translate(4 107.8)">
<!-- start -->
<g id="node1" class="node">
<title>start</title>
</g>
<!-- q0 -->
<g id="node3" class="node">
<title>q0</title>
<ellipse fill="none" stroke="#dddddd" cx="55.72" cy="-58.4" rx="18" ry="18"/>
<text text-anchor="middle" x="55.72" y="-53.35" font-family="Times,serif" font-size="14.00" fill="#dddddd">q0</text>
</g>
<!-- start&#45;&gt;q0 -->
<g id="edge1" class="edge">
<title>start&#45;&gt;q0</title>
<path fill="none" stroke="#dddddd" d="M18.1,-58.4C20.76,-58.4 23.55,-58.4 26.37,-58.4"/>
<polygon fill="#dddddd" stroke="#dddddd" points="26.22,-61.9 36.22,-58.4 26.22,-54.9 26.22,-61.9"/>
</g>
<!-- q2 -->
<g id="node2" class="node">
<title>q2</title>
<ellipse fill="none" stroke="#dddddd" cx="213.62" cy="-85.4" rx="14.4" ry="14.4"/>
<ellipse fill="none" stroke="#dddddd" cx="213.62" cy="-85.4" rx="18.4" ry="18.4"/>
<text text-anchor="middle" x="213.62" y="-80.35" font-family="Times,serif" font-size="14.00" fill="#dddddd">q2</text>
</g>
<!-- q1 -->
<g id="node4" class="node">
<title>q1</title>
<ellipse fill="none" stroke="#dddddd" cx="134.47" cy="-85.4" rx="18" ry="18"/>
<text text-anchor="middle" x="134.47" y="-80.35" font-family="Times,serif" font-size="14.00" fill="#dddddd">q1</text>
</g>
<!-- q0&#45;&gt;q1 -->
<g id="edge2" class="edge">
<title>q0&#45;&gt;q1</title>
<path fill="none" stroke="#dddddd" d="M71.32,-67C77.46,-70.32 84.77,-73.91 91.72,-76.4 96.28,-78.03 101.22,-79.41 106.06,-80.57"/>
<polygon fill="#dddddd" stroke="#dddddd" points="104.95,-83.91 115.45,-82.56 106.39,-77.06 104.95,-83.91"/>
<text text-anchor="middle" x="95.1" y="-81.74" font-family="Times,serif" font-size="14.00" fill="#dddddd">0</text>
</g>
<!-- q4 -->
<g id="node6" class="node">
<title>q4</title>
<ellipse fill="none" stroke="#dddddd" cx="134.47" cy="-18.4" rx="18" ry="18"/>
<text text-anchor="middle" x="134.47" y="-13.35" font-family="Times,serif" font-size="14.00" fill="#dddddd">q4</text>
</g>
<!-- q0&#45;&gt;q4 -->
<g id="edge5" class="edge">
<title>q0&#45;&gt;q4</title>
<path fill="none" stroke="#dddddd" d="M70.17,-47.77C76.47,-43.12 84.23,-37.83 91.72,-33.9 96.39,-31.45 101.54,-29.2 106.57,-27.23"/>
<polygon fill="#dddddd" stroke="#dddddd" points="107.58,-30.59 115.77,-23.88 105.18,-24.01 107.58,-30.59"/>
<text text-anchor="middle" x="95.1" y="-37.1" font-family="Times,serif" font-size="14.00" fill="#dddddd">1</text>
</g>
<!-- q1&#45;&gt;q2 -->
<g id="edge4" class="edge">
<title>q1&#45;&gt;q2</title>
<path fill="none" stroke="#dddddd" d="M152.21,-85.4C161.48,-85.4 173.27,-85.4 183.96,-85.4"/>
<polygon fill="#dddddd" stroke="#dddddd" points="183.86,-88.9 193.86,-85.4 183.86,-81.9 183.86,-88.9"/>
<text text-anchor="middle" x="173.85" y="-88.6" font-family="Times,serif" font-size="14.00" fill="#dddddd">1</text>
</g>
<!-- q1&#45;&gt;q0 -->
<g id="edge3" class="edge">
<title>q1&#45;&gt;q0</title>
<path fill="none" stroke="#dddddd" d="M122.23,-72.35C115.95,-66.08 107.58,-59.23 98.47,-55.9 94.07,-54.29 89.23,-53.65 84.46,-53.6"/>
<polygon fill="#dddddd" stroke="#dddddd" points="84.25,-50.11 74.53,-54.33 84.76,-57.09 84.25,-50.11"/>
<text text-anchor="middle" x="95.1" y="-59.1" font-family="Times,serif" font-size="14.00" fill="#dddddd">0</text>
</g>
<!-- q5 -->
<g id="node5" class="node">
<title>q5</title>
<ellipse fill="none" stroke="#dddddd" cx="213.62" cy="-18.4" rx="14.4" ry="14.4"/>
<ellipse fill="none" stroke="#dddddd" cx="213.62" cy="-18.4" rx="18.4" ry="18.4"/>
<text text-anchor="middle" x="213.62" y="-13.35" font-family="Times,serif" font-size="14.00" fill="#dddddd">q5</text>
</g>
<!-- q4&#45;&gt;q5 -->
<g id="edge6" class="edge">
<title>q4&#45;&gt;q5</title>
<path fill="none" stroke="#dddddd" d="M152.21,-18.4C161.48,-18.4 173.27,-18.4 183.96,-18.4"/>
<polygon fill="#dddddd" stroke="#dddddd" points="183.86,-21.9 193.86,-18.4 183.86,-14.9 183.86,-21.9"/>
<text text-anchor="middle" x="173.85" y="-21.6" font-family="Times,serif" font-size="14.00" fill="#dddddd">0</text>
</g>
</g>
</svg>
